<?xml version="1.0" standalone="no"?>
<!DOCTYPE svg PUBLIC "-//W3C//DTD SVG 1.1//EN" "http://www.w3.org/Graphics/SVG/1.1/DTD/svg11.dtd" >
<svg xmlns="http://www.w3.org/2000/svg" xmlns:xlink="http://www.w3.org/1999/xlink" version="1.1">
<metadata>
Created by FontForge 20200511 at Fri Feb  4 00:06:30 2011
 By convertio
</metadata>
<defs>
<font id="1CamBamStick2-normal" horiz-adv-x="347" >
  <font-face 
    font-family="1CamBam_Stick_2"
    font-weight="400"
    font-stretch="normal"
    units-per-em="1000"
    panose-1="2 0 5 3 0 0 0 0 0 0"
    ascent="800"
    descent="-200"
    x-height="453"
    cap-height="719"
    bbox="84 -285 1115 923"
    underline-thickness="50"
    underline-position="-150"
    unicode-range="U+0020-00A3"
  />
<missing-glyph horiz-adv-x="1000" 
 />
    <glyph glyph-name=".notdef" horiz-adv-x="1000" 
 />
    <glyph glyph-name=".null" horiz-adv-x="0" 
 />
    <glyph glyph-name="nonmarkingreturn" horiz-adv-x="500" 
 />
    <glyph glyph-name="space" unicode=" " horiz-adv-x="500" 
 />
    <glyph glyph-name="space" unicode="&#xa0;" horiz-adv-x="500" 
 />
    <glyph glyph-name="dollar" unicode="$" horiz-adv-x="619" 
d="M92 116q16 -32 34.5 -54t42.5 -36t55.5 -21.5t73.5 -8.5q42 -2 80 8t67.5 31t47.5 52.5t20 73.5q1 43 -9.5 71.5t-27.5 47.5t-36 30t-34 19l-164 85q-23 12 -41.5 24.5t-32.5 29.5t-22.5 38.5t-9.5 51.5q-1 29 9.5 58.5t32.5 53.5t55.5 39.5t77.5 15.5q45 0 76 -12
t51 -26q23 -17 37 -38q-14 21 -37 38q-20 14 -51 26t-76 12q-44 0 -77.5 -15.5t-55.5 -39.5t-32.5 -53.5t-9.5 -58.5q1 -30 9.5 -51.5t22.5 -38.5t32.5 -29.5t41.5 -24.5l164 -85q15 -8 34 -19t36 -30t27.5 -47.5t9.5 -71.5q-2 -42 -20 -73.5t-47.5 -52.5t-67.5 -31t-80 -8
q-42 1 -73.5 8.5t-55.5 21.5t-42.5 36t-34.5 54zM313 769v-814v814z" />
    <glyph glyph-name="ampersand" unicode="&#x26;" horiz-adv-x="762" 
d="M329 412q-12 16 -28 35t-31 41.5t-25.5 48.5t-10.5 57t9.5 55.5t24.5 42t34.5 26.5t40.5 10t45.5 -6t46 -21.5t35.5 -36t14 -50.5q0 -23 -13.5 -53.5t-49.5 -58.5l-238 -180q-9 -8 -25 -20.5t-32 -32t-27.5 -47t-11.5 -63.5q-1 -36 12 -66.5t36.5 -52t55.5 -33t70 -10.5
q37 1 62 3t46 8t41.5 18.5t48.5 34.5q29 22 61.5 51.5t60.5 56.5q33 32 65 65q-32 -33 -65 -65q-28 -27 -60.5 -56.5t-61.5 -51.5q-28 -22 -48.5 -34.5t-41.5 -18.5t-46 -8t-62 -3q-38 -1 -70 10.5t-55.5 33t-36.5 52t-12 66.5q0 36 11.5 63.5t27.5 47t32 32t25 20.5
l238 180q36 28 49.5 58.5t13.5 53.5q0 29 -14 50.5t-35.5 36t-46 21.5t-45.5 6t-40.5 -10t-34.5 -26.5t-24.5 -42t-9.5 -55.5t10.5 -57t25.5 -48.5t31 -41.5t28 -35l295 -412z" />
    <glyph glyph-name="quotesingle" unicode="'" 
d="M180 848v-221v221z" />
    <glyph glyph-name="parenleft" unicode="(" horiz-adv-x="340" 
d="M202 -36q-14 67 -26 122.5t-21 108.5t-14.5 107.5t-5.5 119.5v77.5t1 66.5t4.5 65.5t10.5 75t19 94t30 122.5q-18 -70 -30 -122.5t-19 -94t-10.5 -75t-4.5 -65.5t-1 -66.5v-77.5q0 -65 5.5 -119.5t14.5 -107.5t21 -108.5t26 -122.5z" />
    <glyph glyph-name="parenright" unicode=")" horiz-adv-x="339" 
d="M128 -36q14 67 26.5 122.5t21.5 108.5t14.5 107.5t5.5 119.5v77.5t-1 66.5t-4.5 65.5t-11 75t-19.5 94t-30 122.5q18 -70 30 -122.5t19.5 -94t11 -75t4.5 -65.5t1 -66.5v-77.5q0 -65 -5.5 -119.5t-14.5 -107.5t-21.5 -108.5t-26.5 -122.5z" />
    <glyph glyph-name="plus" unicode="+" horiz-adv-x="718" 
d="M345 434h259h-259v261v-261h-260h260v-261v261z" />
    <glyph glyph-name="comma" unicode="," 
d="M170 61v-126v126z" />
    <glyph glyph-name="hyphen" unicode="-" horiz-adv-x="718" 
d="M604 435h-519h519z" />
    <glyph glyph-name="period" unicode="." 
d="M170 32v-32v32z" />
    <glyph glyph-name="slash" unicode="/" horiz-adv-x="739" 
d="M624 902l-539 -938z" />
    <glyph glyph-name="zero" unicode="0" horiz-adv-x="807" 
d="M388 0q-54 0 -101 28.5t-82.5 78t-56 116t-20.5 141.5t20.5 141.5t56 116t82.5 78.5t101 29t101 -29t82.5 -78.5t56 -116t20.5 -141.5t-20.5 -141.5t-56 -116t-82.5 -78t-101 -28.5z" />
    <glyph glyph-name="one" unicode="1" horiz-adv-x="411" 
d="M231 720h-103h103v-720v720z" />
    <glyph glyph-name="two" unicode="2" horiz-adv-x="592" 
d="M85 0q90 100 163 181q31 34 61.5 68t55 62t41 47.5t19.5 24.5q6 10 16 23.5t19.5 32t16.5 43.5t7 58t-11 66t-34 59.5t-59.5 43t-88.5 16.5q-105 -1 -154.5 -46t-49.5 -119q0 74 49.5 119t154.5 46q52 0 88.5 -16.5t59.5 -43t34 -59.5t11 -66t-7 -58t-16.5 -43.5
t-19.5 -32t-16 -23.5q-3 -5 -19.5 -24.5t-41 -47.5t-55 -62t-61.5 -68q-73 -81 -163 -181h394h-394z" />
    <glyph glyph-name="three" unicode="3" horiz-adv-x="575" 
d="M85 141q3 -23 13.5 -47.5t30.5 -45.5t52.5 -34.5t80.5 -13.5q96 1 151 46.5t55 141.5q0 48 -15.5 84t-41 59.5t-57 35.5t-63.5 12q32 -1 61.5 13t52.5 39.5t37 60t14 74.5q0 11 -0.5 28t-5 35t-14 36t-27 32.5t-45 23t-66.5 8.5q-60 0 -95.5 -14.5t-55 -36t-27 -47
t-10.5 -48.5q3 23 10.5 48.5t27 47t55 36t95.5 14.5q39 0 66.5 -8.5t45 -23t27 -32.5t14 -36t5 -34.5t0.5 -28.5q0 -40 -14 -74.5t-37 -60t-52.5 -39.5t-61.5 -13q32 0 63.5 -12t57 -35.5t41 -59.5t15.5 -84q0 -96 -55 -141.5t-151 -46.5q-48 0 -80.5 13.5t-52.5 34.5
t-30.5 45.5t-13.5 47.5z" />
    <glyph glyph-name="four" unicode="4" horiz-adv-x="709" 
d="M479 725l-394 -589h511h-511l394 589v-725v725z" />
    <glyph glyph-name="five" unicode="5" horiz-adv-x="655" 
d="M85 99q6 -7 22 -22.5t41.5 -32t61.5 -29.5t84 -14q48 0 91.5 21t77.5 58t54 86t20 104t-23.5 97t-57.5 70.5t-72 42.5t-67 14q-18 3 -38 1q-17 -2 -40 -7t-47 -16l100 266h252h-252l-100 -266q24 11 47 16t40 7q20 2 38 -1q29 0 67 -14t72 -42.5t57.5 -70.5t23.5 -97
t-20 -104t-54 -86t-77.5 -58t-91.5 -21q-48 1 -84 14t-61.5 29.5t-41.5 32t-22 22.5z" />
    <glyph glyph-name="six" unicode="6" horiz-adv-x="689" 
d="M368 724q-64 -89 -116 -162l-44 -62t-40.5 -57t-31.5 -44.5t-17 -25.5q-34 -59 -34 -127q0 -51 19.5 -95.5t52.5 -78t77.5 -53t95.5 -19.5t96 19.5t78.5 53t53 78t19.5 95.5t-19.5 95.5t-53 78t-78.5 53t-96 19.5q-66 0 -122.5 -33t-88.5 -86q32 53 88.5 86t122.5 33
q51 0 96 -19.5t78.5 -53t53 -78t19.5 -95.5t-19.5 -95.5t-53 -78t-78.5 -53t-96 -19.5t-95.5 19.5t-77.5 53t-52.5 78t-19.5 95.5q0 68 34 127q4 7 17 25.5t31.5 44.5t40.5 57l44 62q52 73 116 162z" />
    <glyph glyph-name="seven" unicode="7" horiz-adv-x="724" 
d="M600 720l-515 -720l515 720h-488h488z" />
    <glyph glyph-name="eight" unicode="8" horiz-adv-x="690" 
d="M332 0q-42 0 -79 15t-65 41.5t-44 61.5t-16 74t16 74t44 61t65 41.5t79 15.5t79.5 -15.5t65.5 -41.5t44 -61t16 -74t-16 -74t-44 -61.5t-65.5 -41.5t-79.5 -15zM332 384q-37 0 -70 13.5t-57.5 37t-39 54.5t-14.5 67t14.5 67.5t39 55t57.5 37t70 13.5t70 -13.5t57.5 -37
t39 -55t14.5 -67.5t-14.5 -67t-39 -54.5t-57.5 -37t-70 -13.5zM332 0q-42 0 -79 15t-65 41.5t-44 61.5t-16 74t16 74t44 61t65 41.5t79 15.5t79.5 -15.5t65.5 -41.5t44 -61t16 -74t-16 -74t-44 -61.5t-65.5 -41.5t-79.5 -15zM332 384q-37 0 -70 13.5t-57.5 37t-39 54.5
t-14.5 67t14.5 67.5t39 55t57.5 37t70 13.5t70 -13.5t57.5 -37t39 -55t14.5 -67.5t-14.5 -67t-39 -54.5t-57.5 -37t-70 -13.5z" />
    <glyph glyph-name="nine" unicode="9" horiz-adv-x="690" 
d="M294 0q63 89 116 162q22 31 44.5 62t40.5 57t31 45t18 26q34 56 34 127q0 51 -19.5 95.5t-53 78t-78 53t-95.5 19.5t-96 -19.5t-78.5 -53t-53 -78t-19.5 -95.5t19.5 -96t53 -78.5t78.5 -53t96 -19.5q66 0 122.5 33t89.5 87q-33 -54 -89.5 -87t-122.5 -33q-51 0 -96 19.5
t-78.5 53t-53 78.5t-19.5 96t19.5 95.5t53 78t78.5 53t96 19.5t95.5 -19.5t78 -53t53 -78t19.5 -95.5q0 -71 -34 -127q-5 -7 -18 -26t-31 -45t-40.5 -57t-44.5 -62q-53 -73 -116 -162z" />
    <glyph glyph-name="colon" unicode=":" 
d="M170 283v-32v32zM170 32v-32v32z" />
    <glyph glyph-name="semicolon" unicode=";" 
d="M170 61v-126v126zM170 283v-32v32z" />
    <glyph glyph-name="question" unicode="?" horiz-adv-x="516" 
d="M244 33v-32v32zM378 254q0 -33 -15.5 -56t-37 -37.5t-44 -21t-37.5 -6.5t-38 5.5t-45.5 20.5t-38.5 41t-16 67q0 42 13.5 68t34.5 42.5t47.5 26t53.5 17.5q26 8 53.5 22.5t49.5 35t36.5 46t15.5 55.5t-9 56t-30.5 46t-52 31.5t-74.5 11.5q-86 0 -122.5 -45.5
t-36.5 -131.5q0 86 36.5 131.5t122.5 45.5q43 0 74.5 -11.5t52 -31.5t30.5 -46t9 -56t-15.5 -55.5t-36.5 -46t-49.5 -35t-53.5 -22.5q-27 -8 -53.5 -17.5t-47.5 -26t-34.5 -42.5t-13.5 -68q0 -41 16 -67t38.5 -41t45.5 -20.5t38 -5.5t37.5 6.5t44 21t37 37.5t15.5 56z" />
    <glyph glyph-name="A" unicode="A" horiz-adv-x="770" 
d="M369 719l285 -719l-285 719l-284 -719zM552 257h-367h367z" />
    <glyph glyph-name="B" unicode="B" horiz-adv-x="723" 
d="M384 0q31 0 63.5 10.5t59 33.5t43.5 59.5t17 89.5q0 52 -18.5 87.5t-52 56.5t-79 30t-98.5 9h-149h149q82 0 130 48.5t48 137.5q0 44 -14.5 74t-38.5 48.5t-55.5 26.5t-65.5 8h-153v-719v719h153q34 0 65.5 -8t55.5 -26.5t38.5 -48.5t14.5 -74q0 -89 -48 -137.5
t-130 -48.5h-149h149q53 0 98.5 -9t79 -30t52 -56.5t18.5 -87.5q0 -53 -17 -89.5t-43.5 -59.5t-59 -33.5t-63.5 -10.5h-214h214z" />
    <glyph glyph-name="C" unicode="C" horiz-adv-x="842" 
d="M722 101q-51 -47 -117.5 -74t-141.5 -27q-78 0 -147 29t-120 78.5t-81 116t-30 141.5t30 141t81 115.5t120 78.5t147 29q73 0 138 -25t116 -70q-51 45 -116 70t-138 25q-78 0 -147 -29t-120 -78.5t-81 -115.5t-30 -141t30 -141.5t81 -116t120 -78.5t147 -29
q75 0 141.5 27t117.5 74z" />
    <glyph glyph-name="D" unicode="D" horiz-adv-x="782" 
d="M170 719h151q66 0 128 -25t110 -70.5t77 -108.5t29 -139t-23.5 -144t-68.5 -119.5t-110.5 -82t-148.5 -30.5h-144h144q83 0 148.5 30.5t110.5 82t68.5 119.5t23.5 144t-29 139t-77 108.5t-110 70.5t-128 25h-151v-719v719z" />
    <glyph glyph-name="E" unicode="E" horiz-adv-x="593" 
d="M170 0v399h292h-292v320h315h-315v-719h315h-315z" />
    <glyph glyph-name="F" unicode="F" horiz-adv-x="543" 
d="M170 399h256h-256v320h268h-268v-719v399z" />
    <glyph glyph-name="G" unicode="G" horiz-adv-x="945" 
d="M807 328q5 -69 -22.5 -129t-76.5 -104.5t-114 -69.5t-136 -25q-77 0 -145 29t-118.5 79t-80 117t-29.5 143t29.5 142.5t80 116.5t118.5 79t145 29q92 0 173.5 -42t133.5 -117q-52 75 -133.5 117t-173.5 42q-77 0 -145 -29t-118.5 -79t-80 -116.5t-29.5 -142.5t29.5 -143
t80 -117t118.5 -79t145 -29q71 0 136 25t114 69.5t76.5 104.5t22.5 129h-299h299z" />
    <glyph glyph-name="H" unicode="H" horiz-adv-x="896" 
d="M170 389h523v-389v719v-330h-523v330v-719v389z" />
    <glyph glyph-name="I" unicode="I" 
d="M170 719v-719v719z" />
    <glyph glyph-name="J" unicode="J" horiz-adv-x="481" 
d="M132 -104q17 -35 45.5 -50t66.5 -15q39 0 66.5 25.5t27.5 81.5v779v-779q0 -57 -27.5 -82t-66.5 -25q-38 0 -66.5 15t-45.5 50z" />
    <glyph glyph-name="K" unicode="K" horiz-adv-x="684" 
d="M170 365l402 -365l-402 365l400 354l-400 -354v354v-719v365z" />
    <glyph glyph-name="L" unicode="L" horiz-adv-x="497" 
d="M394 0h-224v719v-719h224z" />
    <glyph glyph-name="M" unicode="M" horiz-adv-x="1073" 
d="M190 729l324 -729l324 729l63 -724l-63 724l-324 -729l-324 729l-62 -724z" />
    <glyph glyph-name="N" unicode="N" horiz-adv-x="1038" 
d="M170 729l658 -729v724v-724l-658 729v-724v724z" />
    <glyph glyph-name="O" unicode="O" horiz-adv-x="962" 
d="M461 0q-77 0 -145.5 28.5t-119.5 78t-81 116t-30 141.5t30 141.5t81 116t119.5 78.5t145.5 29q78 0 146.5 -29t119.5 -78.5t80.5 -116t29.5 -141.5t-29.5 -141.5t-80.5 -116t-119.5 -78t-146.5 -28.5zM461 0q-77 0 -145.5 28.5t-119.5 78t-81 116t-30 141.5t30 141.5
t81 116t119.5 78.5t145.5 29q78 0 146.5 -29t119.5 -78.5t80.5 -116t29.5 -141.5t-29.5 -141.5t-80.5 -116t-119.5 -78t-146.5 -28.5z" />
    <glyph glyph-name="P" unicode="P" horiz-adv-x="598" 
d="M170 719h114q100 -1 153 -45t53 -133q0 -88 -54.5 -137.5t-146.5 -49.5h-119h119q92 0 146.5 49.5t54.5 137.5q0 89 -53 133t-153 45h-114v-719v719z" />
    <glyph glyph-name="Q" unicode="Q" horiz-adv-x="1005" 
d="M461 0q78 0 146.5 28.5t119.5 78t80.5 115.5t29.5 141t-29.5 141.5t-80.5 116t-119.5 78.5t-146.5 29q-77 0 -145.5 -29t-119.5 -78.5t-81 -116t-30 -141.5t30 -141t81 -115.5t119.5 -78t145.5 -28.5zM461 0q78 0 146.5 28.5t119.5 78t80.5 115.5t29.5 141t-29.5 141.5
t-80.5 116t-119.5 78.5t-146.5 29q-77 0 -145.5 -29t-119.5 -78.5t-81 -116t-30 -141.5t30 -141t81 -115.5t119.5 -78t145.5 -28.5zM799 -18l-273 289z" />
    <glyph glyph-name="R" unicode="R" horiz-adv-x="584" 
d="M170 1v719h127q36 0 68.5 -10.5t57 -32t39.5 -55t15 -81.5q0 -47 -20.5 -82t-49 -58t-59 -34.5t-51.5 -11.5h-127h127q21 0 51.5 11.5t59 34.5t49 58t20.5 82q0 48 -15 81.5t-39.5 55t-57 32t-68.5 10.5h-127v-719zM479 0l-235 353z" />
    <glyph glyph-name="S" unicode="S" horiz-adv-x="619" 
d="M85 125q16 -32 34.5 -54t43 -36.5t55.5 -22t73 -8.5q42 -2 80 8t67.5 31t47.5 53t20 74q1 42 -9.5 71t-27.5 47.5t-36 30t-34 19.5l-163 84q-23 12 -42 25t-33 29.5t-22 38.5t-9 51t9.5 58.5t32.5 53.5t55.5 39.5t77.5 15.5q45 0 75.5 -12t50.5 -26q23 -17 37 -38
q-14 21 -37 38q-20 14 -50.5 26t-75.5 12q-44 0 -77.5 -15.5t-55.5 -39.5t-32.5 -53.5t-9.5 -58.5t9 -51t22 -38.5t33 -29.5t42 -25l163 -84q15 -8 34 -19.5t36 -30t27.5 -47.5t9.5 -71q-2 -42 -20 -74t-47.5 -53t-67.5 -31t-80 -8q-42 1 -73 8.5t-55.5 22t-43 36.5
t-34.5 54z" />
    <glyph glyph-name="T" unicode="T" horiz-adv-x="619" 
d="M298 719v-719v719h212h-425h213z" />
    <glyph glyph-name="U" unicode="U" horiz-adv-x="760" 
d="M603 262q0 -66 -12 -115t-40.5 -81t-75.5 -48.5t-117 -16.5t-115 16.5t-70.5 49.5t-35 82t-9.5 113v464v-464q0 -64 9.5 -113t35 -82t70.5 -49.5t115 -16.5t117 16.5t75.5 48.5t40.5 81t12 115v464v-464z" />
    <glyph glyph-name="V" unicode="V" horiz-adv-x="667" 
d="M321 0l235 725l-235 -725l-236 725z" />
    <glyph glyph-name="W" unicode="W" horiz-adv-x="1254" 
d="M317 0l283 730l283 -730l232 725l-232 -725l-283 730l-283 -730l-232 725z" />
    <glyph glyph-name="X" unicode="X" horiz-adv-x="620" 
d="M299 371l212 -371l-212 371l212 348l-212 -348l-214 348l214 -348l-214 -371z" />
    <glyph glyph-name="Y" unicode="Y" horiz-adv-x="668" 
d="M321 345l236 374l-236 -374l-236 374l236 -374v-345v345z" />
    <glyph glyph-name="Z" unicode="Z" horiz-adv-x="694" 
d="M581 719l-496 -719h496h-496l496 719h-467h467z" />
    <glyph glyph-name="backslash" unicode="\" horiz-adv-x="739" 
d="M84 902l540 -938z" />
    <glyph glyph-name="a" unicode="a" horiz-adv-x="690" 
d="M291 0q-43 0 -80.5 18.5t-65.5 50t-44 73.5t-16 90t16 90.5t44 74t65.5 50t80.5 18.5q42 0 79.5 -18.5t65.5 -50t44.5 -74t16.5 -90.5t-16.5 -90t-44.5 -73.5t-65.5 -50t-79.5 -18.5zM291 0q-43 0 -80.5 18.5t-65.5 50t-44 73.5t-16 90t16 90.5t44 74t65.5 50t80.5 18.5
q42 0 79.5 -18.5t65.5 -50t44.5 -74t16.5 -90.5t-16.5 -90t-44.5 -73.5t-65.5 -50t-79.5 -18.5zM497 459v-454v454z" />
    <glyph glyph-name="b" unicode="b" horiz-adv-x="697" 
d="M378 0q-43 0 -80.5 18.5t-65.5 50t-44.5 73.5t-16.5 90t16.5 90.5t44.5 74t65.5 50t80.5 18.5t80.5 -18.5t65.5 -50t44 -74t16 -90.5t-16 -90t-44 -73.5t-65.5 -50t-80.5 -18.5zM378 0q-43 0 -80.5 18.5t-65.5 50t-44.5 73.5t-16.5 90t16.5 90.5t44.5 74t65.5 50
t80.5 18.5t80.5 -18.5t65.5 -50t44 -74t16 -90.5t-16 -90t-44 -73.5t-65.5 -50t-80.5 -18.5zM170 843v-838v838z" />
    <glyph glyph-name="c" unicode="c" horiz-adv-x="575" 
d="M468 76q-30 -35 -72 -55.5t-90 -20.5q-46 0 -86 18.5t-70 50t-47.5 73.5t-17.5 90t17.5 90t47.5 73.5t70 50t86 18.5q48 0 90 -20.5t72 -55.5q-30 35 -72 55.5t-90 20.5q-46 0 -86 -18.5t-70 -50t-47.5 -73.5t-17.5 -90t17.5 -90t47.5 -73.5t70 -50t86 -18.5
q48 0 90 20.5t72 55.5z" />
    <glyph glyph-name="d" unicode="d" horiz-adv-x="690" 
d="M291 0q-43 0 -80.5 18.5t-65.5 50t-44 73.5t-16 90t16 90.5t44 74t65.5 50t80.5 18.5q42 0 79.5 -18.5t65.5 -50t44.5 -74t16.5 -90.5t-16.5 -90t-44.5 -73.5t-65.5 -50t-79.5 -18.5zM291 0q-43 0 -80.5 18.5t-65.5 50t-44 73.5t-16 90t16 90.5t44 74t65.5 50t80.5 18.5
q42 0 79.5 -18.5t65.5 -50t44.5 -74t16.5 -90.5t-16.5 -90t-44.5 -73.5t-65.5 -50t-79.5 -18.5zM497 843v-838v838z" />
    <glyph glyph-name="e" unicode="e" horiz-adv-x="623" 
d="M487 117q-29 -52 -78 -84.5t-109 -32.5q-45 0 -84 18.5t-68 50t-46 74t-17 90.5t17 90t46 73.5t68 49.5t84 18q43 0 81.5 -17.5t67.5 -47.5t46.5 -70.5t18.5 -87.5h-428h428q-1 47 -18.5 87.5t-46.5 70.5t-67.5 47.5t-81.5 17.5q-45 0 -84 -18t-68 -49.5t-46 -73.5
t-17 -90t17 -90.5t46 -74t68 -50t84 -18.5q60 0 109 32.5t78 84.5z" />
    <glyph glyph-name="f" unicode="f" horiz-adv-x="453" 
d="M190 0v719q0 28 5.5 50.5t19 37.5t37 22.5t59.5 7.5q-36 0 -59.5 -7.5t-37 -22.5t-19 -37.5t-5.5 -50.5v-719zM311 430h-183h183z" />
    <glyph glyph-name="g" unicode="g" horiz-adv-x="698" 
d="M294 -2q-43 0 -81 18t-66.5 49.5t-45 73.5t-16.5 90t16.5 90.5t45 74t66.5 49.5t81 18t81.5 -18t67 -49.5t45 -74t16.5 -90.5t-16.5 -90t-45 -73.5t-67 -49.5t-81.5 -18zM294 -2q-43 0 -81 18t-66.5 49.5t-45 73.5t-16.5 90t16.5 90.5t45 74t66.5 49.5t81 18t81.5 -18
t67 -49.5t45 -74t16.5 -90.5t-16.5 -90t-45 -73.5t-67 -49.5t-81.5 -18zM89 -87q0 -40 11.5 -68.5t30.5 -47.5t43 -30t48.5 -17t47 -7.5t39.5 -1.5q24 0 57.5 10t64 37.5t52 78t21.5 131.5v458v-458q0 -81 -21.5 -131.5t-52 -78t-64 -37.5t-57.5 -10q-17 0 -39.5 1.5
t-47 7.5t-48.5 17t-43 30t-30.5 47.5t-11.5 68.5z" />
    <glyph glyph-name="h" unicode="h" horiz-adv-x="614" 
d="M464 0v286q0 55 -13 89t-34 53t-47.5 25.5t-53.5 6.5q-26 0 -52 -11.5t-47 -33t-34 -52.5t-13 -70q0 39 13 70t34 52.5t47 33t52 11.5q27 0 53.5 -6.5t47.5 -25.5t34 -53t13 -89v-286zM170 837v-837v837z" />
    <glyph glyph-name="i" unicode="i" 
d="M170 453v-453v453zM170 640v-48v48z" />
    <glyph glyph-name="j" unicode="j" 
d="M170 451v-731v731zM170 639v-49v49z" />
    <glyph glyph-name="k" unicode="k" horiz-adv-x="575" 
d="M170 5v837v-593l239 209l-239 -209l298 -244l-298 244q1 -69 1 -124v-45v-39t-0.5 -27t-0.5 -9z" />
    <glyph glyph-name="l" unicode="l" 
d="M170 837v-837v837z" />
    <glyph glyph-name="m" unicode="m" horiz-adv-x="876" 
d="M170 300q1 25 12.5 53.5t31.5 51.5t48 38.5t61 15.5q67 0 93 -37t26 -102v-319v319q0 65 -26 102t-93 37q-33 0 -61 -15.5t-48 -38.5t-31.5 -51.5t-12.5 -53.5zM170 453v-452v452zM714 1v319q0 65 -26 102t-92 37q-34 0 -62 -15.5t-48 -38.5t-31.5 -51.5t-12.5 -53.5
q1 25 12.5 53.5t31.5 51.5t48 38.5t62 15.5q66 0 92 -37t26 -102v-319z" />
    <glyph glyph-name="n" unicode="n" horiz-adv-x="611" 
d="M170 453v-453v453zM170 300q1 26 12.5 54t32 51.5t48.5 39t61 15.5q66 0 101.5 -37t35.5 -103v-320v320q0 66 -35.5 103t-101.5 37q-33 0 -61 -15.5t-48.5 -39t-32 -51.5t-12.5 -54z" />
    <glyph glyph-name="o" unicode="o" horiz-adv-x="662" 
d="M318 0q-48 0 -90.5 18.5t-74 50t-50 73.5t-18.5 90t18.5 90t50 73.5t74 50t90.5 18.5t90.5 -18.5t74 -50t50 -73.5t18.5 -90t-18.5 -90t-50 -73.5t-74 -50t-90.5 -18.5zM318 0q-48 0 -90.5 18.5t-74 50t-50 73.5t-18.5 90t18.5 90t50 73.5t74 50t90.5 18.5t90.5 -18.5
t74 -50t50 -73.5t18.5 -90t-18.5 -90t-50 -73.5t-74 -50t-90.5 -18.5z" />
    <glyph glyph-name="p" unicode="p" horiz-adv-x="697" 
d="M378 450q43 0 80.5 -18.5t65.5 -50t44 -74t16 -90.5t-16 -90.5t-44 -74t-65.5 -49.5t-80.5 -18t-80.5 18t-65.5 49.5t-44.5 74t-16.5 90.5t16.5 90.5t44.5 74t65.5 50t80.5 18.5zM378 450q43 0 80.5 -18.5t65.5 -50t44 -74t16 -90.5t-16 -90.5t-44 -74t-65.5 -49.5
t-80.5 -18t-80.5 18t-65.5 49.5t-44.5 74t-16.5 90.5t16.5 90.5t44.5 74t65.5 50t80.5 18.5zM170 444v-726v726z" />
    <glyph glyph-name="q" unicode="q" horiz-adv-x="690" 
d="M291 450q42 0 79.5 -18.5t65.5 -50t44.5 -74t16.5 -90.5t-16.5 -90.5t-44.5 -74t-65.5 -49.5t-79.5 -18q-43 0 -80.5 18t-65.5 49.5t-44 74t-16 90.5t16 90.5t44 74t65.5 50t80.5 18.5zM291 450q42 0 79.5 -18.5t65.5 -50t44.5 -74t16.5 -90.5t-16.5 -90.5t-44.5 -74
t-65.5 -49.5t-79.5 -18q-43 0 -80.5 18t-65.5 49.5t-44 74t-16 90.5t16 90.5t44 74t65.5 50t80.5 18.5zM497 444v-726v726z" />
    <glyph glyph-name="r" unicode="r" horiz-adv-x="438" 
d="M170 287q0 14 7 42.5t25.5 57t51.5 48.5t84 18q-51 2 -84 -18t-51.5 -48.5t-25.5 -57t-7 -42.5zM170 453v-453v453z" />
    <glyph glyph-name="s" unicode="s" horiz-adv-x="545" 
d="M128 105q8 -18 19.5 -36.5t28 -33.5t39 -25t52.5 -10t54 10.5t41.5 28.5t26.5 41t9 49q0 25 -6.5 41.5t-16 27t-20 16.5t-19.5 10l-97 46q-11 6 -23 12.5t-23 16t-18.5 24.5t-7.5 37q0 45 26.5 74t71.5 29q44 0 74 -20t35 -41q-5 21 -35 41t-74 20q-45 0 -71.5 -29
t-26.5 -74q0 -22 7.5 -37t18.5 -24.5t23 -16t23 -12.5l97 -46q9 -4 19.5 -10t20 -16.5t16 -27t6.5 -41.5q0 -26 -9 -49t-26.5 -41t-41.5 -28.5t-54 -10.5t-52.5 10t-39 25t-28 33.5t-19.5 36.5z" />
    <glyph glyph-name="t" unicode="t" horiz-adv-x="436" 
d="M200 431h95h-95v177v-177h-72h72v-431v431z" />
    <glyph glyph-name="u" unicode="u" horiz-adv-x="565" 
d="M418 141q-2 -40 -19 -71q-14 -27 -44 -49t-83 -21q-53 0 -82.5 22.5t-42.5 48.5q-16 31 -19 70v317v-317q3 -39 19 -70q13 -26 42.5 -48.5t82.5 -22.5q53 -1 83 21t44 49q17 31 19 71v317v-317z" />
    <glyph glyph-name="v" unicode="v" horiz-adv-x="550" 
d="M265 0l179 459l-179 -459l-180 459z" />
    <glyph glyph-name="w" unicode="w" horiz-adv-x="897" 
d="M257 0l173 464l173 -464l172 459l-172 -459l-173 464l-173 -464l-172 459z" />
    <glyph glyph-name="x" unicode="x" horiz-adv-x="568" 
d="M273 244l188 -244l-188 244l162 209l-162 -209l-161 209l161 -209l-188 -244z" />
    <glyph glyph-name="y" unicode="y" horiz-adv-x="603" 
d="M296 0l-211 454l211 -454l-126 -285l325 739z" />
    <glyph glyph-name="z" unicode="z" horiz-adv-x="652" 
d="M128 0l413 454h-391h391l-413 -454h413h-413z" />
    <glyph glyph-name="sterling" unicode="&#xa3;" horiz-adv-x="705" 
d="M216 81q14 26 27.5 56.5t19 62t1 63.5t-26.5 61q-31 43 -51.5 89t-27.5 91t1 85.5t33 71.5t69.5 50t109.5 21q49 1 86 -19t61 -51t34.5 -67.5t8.5 -67.5q2 31 -8.5 67.5t-34.5 67.5t-61 51t-86 19q-66 -2 -110 -21t-69 -50t-33 -71.5t-1 -85.5t27.5 -91t51.5 -89
q22 -29 26.5 -61t-1 -63.5t-19 -62t-27.5 -56.5zM92 0q12 14 27 29t34 27t41.5 19.5t49.5 7.5t58 -12.5t61 -27t57 -26t48 -10.5t36.5 8.5t29.5 20t27.5 30.5t30.5 41q-17 -23 -30.5 -41t-27.5 -30.5t-29.5 -20t-36.5 -8.5t-48 10.5t-57 26t-61 27t-58 12.5t-49.5 -7.5
t-41.5 -19.5t-34 -27t-27 -29zM416 316h-331h331z" />
    <glyph glyph-name="quotedbl" unicode="&#x22;" horiz-adv-x="536" 
d="M170 841v-220v220zM350 841v-220v220z" />
    <glyph glyph-name="exclam" unicode="!" 
d="M170 720v-584v584zM170 32v-32v32z" />
  </font>
</defs>
</svg>
