<?xml version="1.0" standalone="no"?>
<!DOCTYPE svg PUBLIC "-//W3C//DTD SVG 1.1//EN" "http://www.w3.org/Graphics/SVG/1.1/DTD/svg11.dtd" >
<svg xmlns="http://www.w3.org/2000/svg" xmlns:xlink="http://www.w3.org/1999/xlink" version="1.1">
<metadata>
Created by FontForge 20200511 at Fri Feb  4 00:16:29 2011
 By convertio
</metadata>
<defs>
<font id="1CamBamStick7-normal" horiz-adv-x="440" >
  <font-face 
    font-family="1CamBam_Stick_7"
    font-weight="400"
    font-stretch="normal"
    units-per-em="1000"
    panose-1="2 0 5 3 0 0 0 0 0 0"
    ascent="800"
    descent="-200"
    x-height="497"
    cap-height="719"
    bbox="94 -197 747 816"
    underline-thickness="50"
    underline-position="-150"
    unicode-range="U+0020-00A3"
  />
<missing-glyph horiz-adv-x="500" 
 />
    <glyph glyph-name=".notdef" horiz-adv-x="500" 
 />
    <glyph glyph-name=".null" horiz-adv-x="0" 
 />
    <glyph glyph-name="nonmarkingreturn" horiz-adv-x="500" 
 />
    <glyph glyph-name="space" unicode=" " horiz-adv-x="500" 
 />
    <glyph glyph-name="space" unicode="&#xa0;" horiz-adv-x="500" 
 />
    <glyph glyph-name="dollar" unicode="$" horiz-adv-x="610" 
d="M130 178v-60q0 -25 9 -46.5t25 -37.5t37.5 -25t45.5 -9h64q24 0 45.5 9.5t37.5 25.5t25.5 37.5t9.5 45.5v64q0 41 -10.5 68.5t-24 45t-27.5 27.5t-22 16l-155 125q-31 25 -44.5 51t-17 46.5t-1 33t2.5 11.5q0 24 9 45.5t25 37.5t37.5 25.5t45.5 9.5h64q24 0 45.5 -9.5
t37.5 -25.5t25.5 -37.5t9.5 -45.5v-32v32q0 24 -9.5 45.5t-25.5 37.5t-37.5 25.5t-45.5 9.5h-64q-24 0 -45.5 -9.5t-37.5 -25.5t-25 -37.5t-9 -45.5q0 1 -2.5 -11.5t1 -33t17 -46.5t44.5 -51l155 -125q8 -6 22 -16t27.5 -27.5t24 -45t10.5 -68.5v-64q0 -24 -9.5 -45.5
t-25.5 -37.5t-37.5 -25.5t-45.5 -9.5h-64q-24 0 -45.5 9t-37.5 25t-25 37.5t-9 46.5v60zM280 756v-790v790z" />
    <glyph glyph-name="ampersand" unicode="&#x26;" horiz-adv-x="667" 
d="M215 469q-10 18 -20 43.5t-16 53.5t-6 55.5t11 49.5t35.5 35.5t66.5 13.5t66 -15t35.5 -38.5t12 -52t-5.5 -55t-16.5 -47.5t-20.5 -30l-168 -146q-17 -16 -31.5 -32t-25 -35t-16 -43t-5.5 -56t8.5 -62.5t27 -55.5t48.5 -40t74 -15t84.5 12t71 40.5t49 75.5t18.5 117v146
v-146q0 -70 -18.5 -117t-49 -75.5t-71 -40.5t-84.5 -12t-74 15t-48.5 40t-27 55.5t-8.5 62.5t5.5 56t16 43t25 35t31.5 32l168 146q10 9 20.5 30t16.5 47.5t5.5 55t-12 52t-35.5 38.5t-66 15t-66.5 -13.5t-35.5 -35.5t-11 -49.5t6 -55.5t16 -53.5t20 -43.5l319 -468z" />
    <glyph glyph-name="quotesingle" unicode="'" 
d="M213 730v-71v71z" />
    <glyph glyph-name="parenleft" unicode="(" horiz-adv-x="330" 
d="M213 -63q-32 165 -42 298.5t-6.5 240.5t18.5 190.5t33 149.5q-18 -66 -33 -149.5t-18.5 -190.5t6.5 -240.5t42 -298.5z" />
    <glyph glyph-name="parenright" unicode=")" horiz-adv-x="388" 
d="M133 -63q32 165 42.5 298.5t6.5 240.5t-19 190.5t-34 149.5q19 -66 34 -149.5t19 -190.5t-6.5 -240.5t-42.5 -298.5z" />
    <glyph glyph-name="plus" unicode="+" horiz-adv-x="742" 
d="M105 374h500h-500zM355 624v-499v499z" />
    <glyph glyph-name="comma" unicode="," 
d="M216 25v-70v70z" />
    <glyph glyph-name="hyphen" unicode="-" horiz-adv-x="742" 
d="M110 374h500h-500z" />
    <glyph glyph-name="period" unicode="." 
d="M216 23v-23v23z" />
    <glyph glyph-name="slash" unicode="/" horiz-adv-x="552" 
d="M424 808l-330 -848z" />
    <glyph glyph-name="zero" unicode="0" horiz-adv-x="620" 
d="M277 1q-24 0 -45 9t-36.5 24t-24.5 36t-9 45v490q0 24 9 44.5t24.5 36.5t36.5 25t45 9h47q24 0 45 -9t36.5 -25t24.5 -36.5t9 -44.5v-490q0 -24 -9 -45t-24.5 -36t-36.5 -24t-45 -9h-47zM277 1q-24 0 -45 9t-36.5 24t-24.5 36t-9 45v490q0 24 9 44.5t24.5 36.5t36.5 25
t45 9h47q24 0 45 -9t36.5 -25t24.5 -36.5t9 -44.5v-490q0 -24 -9 -45t-24.5 -36t-36.5 -24t-45 -9h-47z" />
    <glyph glyph-name="one" unicode="1" horiz-adv-x="482" 
d="M256 720v-719v719l-93 -99z" />
    <glyph glyph-name="two" unicode="2" horiz-adv-x="529" 
d="M106 1l241 425q19 34 28 74t9 79v53q0 37 -25.5 62.5t-61.5 25.5h-72q-36 0 -61.5 -25.5t-25.5 -62.5v-70v70q0 37 25.5 62.5t61.5 25.5h72q36 0 61.5 -25.5t25.5 -62.5v-53q0 -39 -9 -79t-28 -74l-241 -425h296h-296z" />
    <glyph glyph-name="three" unicode="3" horiz-adv-x="561" 
d="M108 110q0 -22 8.5 -41.5t23 -34.5t34.5 -24t43 -9h56q22 0 42 8.5t35 23.5t23.5 34.5t8.5 42.5v153q0 22 -9 42t-24.5 35t-35 24t-40.5 9h-56l56 1q21 0 40.5 9t35 24t24.5 34.5t9 41.5v128q0 22 -8.5 42t-23.5 35t-35 24t-42 9h-56q-23 0 -43 -9t-34.5 -24t-23 -35
t-8.5 -42v-52v52q0 22 8.5 42t23 35t34.5 24t43 9h56q22 0 42 -9t35 -24t23.5 -35t8.5 -42v-128q0 -22 -9 -41.5t-24.5 -34.5t-35 -24t-40.5 -9l-56 -1h56q21 0 40.5 -9t35 -24t24.5 -35t9 -42v-153q0 -23 -8.5 -42.5t-23.5 -34.5t-35 -23.5t-42 -8.5h-56q-23 0 -43 9
t-34.5 24t-23 34.5t-8.5 41.5v39v-39z" />
    <glyph glyph-name="four" unicode="4" horiz-adv-x="618" 
d="M369 720l-262 -519h368h-368l262 519v-719v719z" />
    <glyph glyph-name="five" unicode="5" horiz-adv-x="561" 
d="M108 117q0 -21 9 -41.5t24.5 -37t36.5 -27t45 -10.5h44q24 0 44.5 9t36.5 25t25 37t9 45v192q0 24 -9 44.5t-25 36.5t-36.5 25t-44.5 9h-44q-24 0 -42.5 -9t-31.5 -25t-19.5 -36.5t-6.5 -44.5v411h240h-240v-411q0 24 6.5 44.5t19.5 36.5t31.5 25t42.5 9h44q24 0 44.5 -9
t36.5 -25t25 -36.5t9 -44.5v-192q0 -24 -9 -45t-25 -37t-36.5 -25t-44.5 -9h-44q-24 0 -45 10.5t-36.5 27t-24.5 37t-9 41.5v32v-32z" />
    <glyph glyph-name="six" unicode="6" horiz-adv-x="618" 
d="M163 294q0 25 9.5 46.5t25.5 37.5t37.5 25t45.5 9h38q24 0 45.5 -9t37.5 -25t25.5 -37.5t9.5 -46.5v-174q0 -24 -9.5 -46t-25.5 -38t-37.5 -25.5t-45.5 -9.5h-38q-24 0 -45.5 9.5t-37.5 26t-25.5 38t-9.5 45.5v482q0 25 9.5 46.5t25.5 37.5t37.5 25t45.5 9h38
q24 0 45.5 -9t37.5 -25t25.5 -37.5t9.5 -46.5v-46v46q0 25 -9.5 46.5t-25.5 37.5t-37.5 25t-45.5 9h-38q-24 0 -45.5 -9t-37.5 -25t-25.5 -37.5t-9.5 -46.5v-482q0 -24 9.5 -45.5t25.5 -38t37.5 -26t45.5 -9.5h38q24 0 45.5 9.5t37.5 25.5t25.5 38t9.5 46v174
q0 25 -9.5 46.5t-25.5 37.5t-37.5 25t-45.5 9h-38q-24 0 -45.5 -9t-37.5 -25t-25.5 -37.5t-9.5 -46.5z" />
    <glyph glyph-name="seven" unicode="7" horiz-adv-x="516" 
d="M390 720h-280h280l-224 -719z" />
    <glyph glyph-name="eight" unicode="8" horiz-adv-x="614" 
d="M278 368q-23 0 -43.5 8.5t-35.5 23.5t-23.5 35.5t-8.5 43.5v130q0 23 8.5 43t23.5 35t35.5 24t43.5 9h33q23 0 43.5 -9t35.5 -24t24 -35t9 -43v-130q0 -23 -9 -43.5t-24 -35.5t-35.5 -23.5t-43.5 -8.5h-33zM259 1q-21 0 -40 8t-33 22t-22 33t-8 40v162q0 21 8 39.5
t22 32.5t33 22t40 8h72q21 0 39.5 -8t32.5 -22t22 -32.5t8 -39.5v-162q0 -21 -8 -40t-22 -33t-32.5 -22t-39.5 -8h-72zM278 368q-23 0 -43.5 8.5t-35.5 23.5t-23.5 35.5t-8.5 43.5v130q0 23 8.5 43t23.5 35t35.5 24t43.5 9h33q23 0 43.5 -9t35.5 -24t24 -35t9 -43v-130
q0 -23 -9 -43.5t-24 -35.5t-35.5 -23.5t-43.5 -8.5h-33zM259 1q-21 0 -40 8t-33 22t-22 33t-8 40v162q0 21 8 39.5t22 32.5t33 22t40 8h72q21 0 39.5 -8t32.5 -22t22 -32.5t8 -39.5v-162q0 -21 -8 -40t-22 -33t-32.5 -22t-39.5 -8h-72z" />
    <glyph glyph-name="nine" unicode="9" horiz-adv-x="595" 
d="M415 428q0 -25 -9 -46.5t-25 -37.5t-37.5 -25.5t-46.5 -9.5h-38q-24 0 -45.5 9.5t-37.5 25.5t-25.5 37.5t-9.5 46.5v174q0 24 9.5 45.5t25.5 37.5t37.5 25.5t45.5 9.5h38q24 0 45.5 -9.5t37.5 -25.5t25.5 -37.5t9.5 -45.5v-484q0 -24 -9 -45.5t-25 -37.5t-37.5 -25.5
t-46.5 -9.5h-38q-24 0 -45.5 9.5t-37.5 25.5t-25.5 37.5t-9.5 45.5v47v-47q0 -24 9.5 -45.5t25.5 -37.5t37.5 -25.5t45.5 -9.5h38q25 0 46.5 9.5t37.5 25.5t25 37.5t9 45.5v484q0 24 -9.5 45.5t-25.5 37.5t-37.5 25.5t-45.5 9.5h-38q-24 0 -45.5 -9.5t-37.5 -25.5
t-25.5 -37.5t-9.5 -45.5v-174q0 -25 9.5 -46.5t25.5 -37.5t37.5 -25.5t45.5 -9.5h38q25 0 46.5 9.5t37.5 25.5t25 37.5t9 46.5z" />
    <glyph glyph-name="colon" unicode=":" 
d="M216 24v-23v23zM216 200v-23v23z" />
    <glyph glyph-name="semicolon" unicode=";" 
d="M216 25v-70v70zM216 201v-24v24z" />
    <glyph glyph-name="question" unicode="?" horiz-adv-x="464" 
d="M231 25v-24v24zM231 258q0 41 8 69.5t20 49.5t26.5 38.5t26.5 36.5t20 44t8 61v85q0 17 -5 31t-17.5 24.5t-33.5 16.5t-53 6q-66 0 -93 -22.5t-27 -81.5v-43v43q0 59 27 81.5t93 22.5q32 0 53 -6t33.5 -16.5t17.5 -24.5t5 -31v-85q0 -36 -8 -61t-20 -44t-26.5 -36.5
t-26.5 -38.5t-20 -49.5t-8 -69.5v-81v81z" />
    <glyph glyph-name="A" unicode="A" horiz-adv-x="629" 
d="M303 718l195 -718l-195 718l-196 -718zM441 205h-277h277z" />
    <glyph glyph-name="B" unicode="B" horiz-adv-x="677" 
d="M217 0v719h180q19 0 36.5 -7.5t31 -20.5t21 -31t7.5 -38v-161q0 -41 -28 -69t-68 -28q20 0 37.5 -9t30.5 -24t20.5 -34.5t7.5 -39.5v-160q0 -20 -7.5 -38t-21 -31t-31 -20.5t-36.5 -7.5h-180zM217 719h180q19 0 36.5 -7.5t31 -20.5t21 -31t7.5 -38v-161q0 -20 -7.5 -38
t-21 -31t-31 -20.5t-36.5 -7.5h-180v355zM217 0v364h180q19 0 36.5 -9t31 -24t21 -34.5t7.5 -39.5v-160q0 -20 -7.5 -38t-21 -31t-31 -20.5t-36.5 -7.5h-180z" />
    <glyph glyph-name="C" unicode="C" horiz-adv-x="611" 
d="M430 120q0 -25 -9.5 -47t-25.5 -38t-37.5 -25.5t-46.5 -9.5h-37q-25 0 -46.5 9.5t-37.5 25.5t-25.5 38t-9.5 47v493q0 25 9.5 47.5t25.5 39t37.5 26t46.5 9.5h37q25 0 46.5 -9.5t37.5 -26t25.5 -39t9.5 -47.5v-59v59q0 25 -9.5 47.5t-25.5 39t-37.5 26t-46.5 9.5h-37
q-25 0 -46.5 -9.5t-37.5 -26t-25.5 -39t-9.5 -47.5v-493q0 -25 9.5 -47t25.5 -38t37.5 -25.5t46.5 -9.5h37q25 0 46.5 9.5t37.5 25.5t25.5 38t9.5 47v45v-45z" />
    <glyph glyph-name="D" unicode="D" horiz-adv-x="696" 
d="M216 0v719h173q25 0 47.5 -9.5t39 -26.5t26 -39.5t9.5 -47.5v-473q0 -26 -9.5 -48t-26 -39t-39 -26.5t-47.5 -9.5h-173zM216 0v719h173q25 0 47.5 -9.5t39 -26.5t26 -39.5t9.5 -47.5v-473q0 -26 -9.5 -48t-26 -39t-39 -26.5t-47.5 -9.5h-173z" />
    <glyph glyph-name="E" unicode="E" horiz-adv-x="617" 
d="M217 0v364h248h-248v355h248h-248v-719h269h-269z" />
    <glyph glyph-name="F" unicode="F" horiz-adv-x="594" 
d="M216 364h219h-219v355h248h-248v-719v364z" />
    <glyph glyph-name="G" unicode="G" horiz-adv-x="649" 
d="M466 319v-202q0 -26 -10 -48.5t-26.5 -39.5t-39 -27t-47.5 -10h-57q-26 0 -48 10t-39 27t-26.5 39.5t-9.5 48.5v484q0 26 9.5 49t26.5 40t39 27t48 10h57q25 0 47.5 -10t39.5 -27t26.5 -40t9.5 -49v-48v48q0 26 -9.5 49t-26.5 40t-39.5 27t-47.5 10h-57q-26 0 -48 -10
t-39 -27t-26.5 -40t-9.5 -49v-484q0 -26 9.5 -48.5t26.5 -39.5t39 -27t48 -10h57q25 0 47.5 10t39 27t26.5 39.5t10 48.5v202h-98h98z" />
    <glyph glyph-name="H" unicode="H" horiz-adv-x="757" 
d="M215 364h303v-364v719v-355h-303v355v-719v364z" />
    <glyph glyph-name="I" unicode="I" horiz-adv-x="439" 
d="M215 719v-719v719z" />
    <glyph glyph-name="J" unicode="J" horiz-adv-x="543" 
d="M107 95q0 -42 28.5 -70.5t69.5 -28.5h62q41 0 69.5 28.5t28.5 70.5v630v-630q0 -42 -28.5 -70.5t-69.5 -28.5h-62q-41 0 -69.5 28.5t-28.5 70.5v42v-42z" />
    <glyph glyph-name="K" unicode="K" horiz-adv-x="637" 
d="M216 373l289 -373l-289 373l279 346l-279 -346v346v-719v373z" />
    <glyph glyph-name="L" unicode="L" horiz-adv-x="582" 
d="M214 0v719v-719h239h-239z" />
    <glyph glyph-name="M" unicode="M" horiz-adv-x="958" 
d="M218 719l245 -719l246 719v-719v719l-246 -719l-245 719v-719v719z" />
    <glyph glyph-name="N" unicode="N" horiz-adv-x="790" 
d="M214 719l335 -719v719v-719l-335 719v-719v719z" />
    <glyph glyph-name="O" unicode="O" horiz-adv-x="655" 
d="M288 -13q-27 0 -50 10t-40.5 28t-27.5 42t-10 51v482q0 27 10 51.5t27.5 42.5t40.5 28.5t50 10.5h56q26 0 49.5 -10.5t41 -28.5t27.5 -42.5t10 -51.5v-482q0 -27 -10 -51t-27.5 -42t-41 -28t-49.5 -10h-56zM288 -13q-27 0 -50 10t-40.5 28t-27.5 42t-10 51v482
q0 27 10 51.5t27.5 42.5t40.5 28.5t50 10.5h56q26 0 49.5 -10.5t41 -28.5t27.5 -42.5t10 -51.5v-482q0 -27 -10 -51t-27.5 -42t-41 -28t-49.5 -10h-56z" />
    <glyph glyph-name="P" unicode="P" horiz-adv-x="633" 
d="M217 0v720h149q28 0 52.5 -10.5t43 -29t29 -43.5t10.5 -53v-75q0 -28 -10.5 -52.5t-29 -43t-43 -29.5t-52.5 -11h-149h149q28 0 52.5 11t43 29.5t29 43t10.5 52.5v75q0 28 -11 53t-29.5 43.5t-43 29t-51.5 10.5h-149v-720z" />
    <glyph glyph-name="Q" unicode="Q" horiz-adv-x="663" 
d="M289 -14q-27 0 -50 10t-40.5 28t-27.5 42t-10 52v482q0 27 10 51t27.5 42t40.5 28.5t50 10.5h56q26 0 49.5 -10.5t41 -28.5t27.5 -42t10 -51v-482q0 -28 -10 -52t-27.5 -42t-41 -28t-49.5 -10h-56zM289 -14q-27 0 -50 10t-40.5 28t-27.5 42t-10 52v482q0 27 10 51
t27.5 42t40.5 28.5t50 10.5h56q26 0 49.5 -10.5t41 -28.5t27.5 -42t10 -51v-482q0 -28 -10 -52t-27.5 -42t-41 -28t-49.5 -10h-56zM530 3l-123 -3z" />
    <glyph glyph-name="R" unicode="R" horiz-adv-x="700" 
d="M504 1v261q0 21 -7 41.5t-21.5 36t-37 25t-53.5 9.5q31 0 53.5 -9.5t37 -25t21.5 -36t7 -41.5v-261zM218 0v720h148q28 0 55 -10.5t48 -29t33.5 -43.5t12.5 -53v-75q0 -28 -12.5 -52.5t-33.5 -43t-48 -29.5t-55 -11h-148h148q28 0 55 11t48 29.5t33.5 43t12.5 52.5v75
q0 28 -13 53t-34 43.5t-48 29t-54 10.5h-148v-720z" />
    <glyph glyph-name="S" unicode="S" horiz-adv-x="592" 
d="M132 111q0 -25 9 -46.5t25 -37.5t37.5 -25.5t45.5 -9.5h65q24 0 45.5 9.5t37 25.5t25 37.5t9.5 46.5l-1 66q0 42 -10 70t-23.5 46t-27.5 28t-22 16l-155 128q-32 26 -45 52t-16.5 46.5t-1 33l2.5 12.5q0 24 9 46t25 38t37.5 25.5t45.5 9.5h65q24 0 45.5 -9.5t37 -25.5
t25 -38t9.5 -46v-33v33q0 24 -9.5 46t-25 38t-37 25.5t-45.5 9.5h-65q-24 0 -45.5 -9.5t-37.5 -25.5t-25 -38t-9 -46l-2.5 -12.5t1 -33t16.5 -46.5t45 -52l155 -128q8 -6 22 -16t27.5 -28t23.5 -46t10 -70l1 -66q0 -25 -9.5 -46.5t-25 -37.5t-37 -25.5t-45.5 -9.5h-65
q-24 0 -45.5 9.5t-37.5 25.5t-25 37.5t-9 46.5v63v-63z" />
    <glyph glyph-name="T" unicode="T" horiz-adv-x="596" 
d="M287 720h179h-359h180v-720v720z" />
    <glyph glyph-name="U" unicode="U" horiz-adv-x="655" 
d="M472 115q0 -25 -9.5 -47.5t-26.5 -39t-39.5 -26.5t-47.5 -10h-64q-26 0 -48.5 10t-39.5 26.5t-26.5 39t-9.5 47.5v605v-605q0 -25 9.5 -47.5t26.5 -39t39.5 -26.5t48.5 -10h64q25 0 47.5 10t39.5 26.5t26.5 39t9.5 47.5v605v-605z" />
    <glyph glyph-name="V" unicode="V" horiz-adv-x="579" 
d="M279 0l171 720l-171 -720l-171 720z" />
    <glyph glyph-name="W" unicode="W" horiz-adv-x="891" 
d="M250 0l178 720l180 -720l139 720l-139 -720l-180 720l-178 -720l-140 720z" />
    <glyph glyph-name="X" unicode="X" horiz-adv-x="619" 
d="M467 720l-356 -720zM488 0l-356 720z" />
    <glyph glyph-name="Y" unicode="Y" horiz-adv-x="575" 
d="M278 354l168 366l-168 -366l-168 366l168 -366v-354v354z" />
    <glyph glyph-name="Z" unicode="Z" horiz-adv-x="558" 
d="M430 720l-323 -720h323h-323l323 720h-308h308z" />
    <glyph glyph-name="backslash" unicode="\" horiz-adv-x="553" 
d="M94 808l331 -848z" />
    <glyph glyph-name="a" unicode="a" horiz-adv-x="561" 
d="M285 283q-27 0 -49.5 -10t-39 -25.5t-26 -34.5t-9.5 -37v-82q0 -18 9.5 -34.5t24 -30t33 -21.5t36.5 -8h33q35 0 60 25t25 61q0 -36 -25 -61t-60 -25h-33q-18 0 -36.5 8t-33 21.5t-24 30t-9.5 34.5v82q0 18 9.5 37t26 34.5t39 25.5t49.5 10h97h-97zM382 412q0 35 -25 60
t-60 25h-33q-36 0 -61 -25t-25 -60v-29v29q0 35 25 60t61 25h33q35 0 60 -25t25 -60v-412v412z" />
    <glyph glyph-name="b" unicode="b" horiz-adv-x="615" 
d="M302 0h40q19 0 36 7t29.5 19.5t19.5 29t7 36.5v313q0 19 -7 36t-19.5 29.5t-29.5 19.5t-36 7h-40q-19 0 -35.5 -7t-29 -19.5t-19.5 -29.5t-7 -36v-313q0 -20 7 -36.5t19.5 -29t29 -19.5t35.5 -7zM211 405q0 19 7 36t19.5 29.5t29 19.5t35.5 7h40q19 0 36 -7t29.5 -19.5
t19.5 -29.5t7 -36v-313q0 -20 -7 -36.5t-19.5 -29t-29.5 -19.5t-36 -7h-40q-19 0 -35.5 7t-29 19.5t-19.5 29t-7 36.5v-92v719v-314z" />
    <glyph glyph-name="c" unicode="c" horiz-adv-x="540" 
d="M381 87q0 -36 -25.5 -61.5t-61.5 -25.5h-47q-37 0 -62.5 25.5t-25.5 61.5v323q0 37 25.5 62t62.5 25h47q36 0 61.5 -25.5t25.5 -61.5v-40v40q0 36 -25.5 61.5t-61.5 25.5h-47q-37 0 -62.5 -25t-25.5 -62v-323q0 -36 25.5 -61.5t62.5 -25.5h47q36 0 61.5 25.5t25.5 61.5
v33v-33z" />
    <glyph glyph-name="d" unicode="d" horiz-adv-x="564" 
d="M293 0q19 0 36 7t29.5 19.5t19.5 29t7 36.5v313q0 19 -7 36t-19.5 29.5t-29.5 19.5t-36 7h-41q-19 0 -36 -7t-29.5 -19.5t-19.5 -29.5t-7 -36v-313q0 -20 7 -36.5t19.5 -29t29.5 -19.5t36 -7h41zM385 405v314v-719v92q0 -20 -7 -36.5t-19.5 -29t-29.5 -19.5t-36 -7h-41
q-19 0 -36 7t-29.5 19.5t-19.5 29t-7 36.5v313q0 19 7 36t19.5 29.5t29.5 19.5t36 7h41q19 0 36 -7t29.5 -19.5t19.5 -29.5t7 -36z" />
    <glyph glyph-name="e" unicode="e" horiz-adv-x="573" 
d="M394 126v-30q0 -40 -28 -68t-68 -28h-43q-41 0 -68.5 28t-27.5 68v305q0 40 27.5 68t68.5 28h43q19 0 36.5 -7.5t31 -21t21 -31t7.5 -36.5v-152h-235h235v152q0 19 -8 36.5t-21 31t-30.5 21t-36.5 7.5h-43q-41 0 -68.5 -28t-27.5 -68v-305q0 -40 27.5 -68t68.5 -28h43
q40 0 68 28t28 68v30z" />
    <glyph glyph-name="f" unicode="f" horiz-adv-x="457" 
d="M235 590q0 40 8 65t21.5 39t31.5 19.5t38 5.5q-20 0 -38 -5.5t-31.5 -19.5t-21.5 -39t-8 -65v-590v590zM324 497h-162h162z" />
    <glyph glyph-name="g" unicode="g" horiz-adv-x="563" 
d="M384 497v-523v-84q0 -18 -7 -34t-18.5 -27.5t-27 -18.5t-33.5 -7h-51q-18 0 -33.5 7t-27 18.5t-18.5 27.5t-7 34q0 -18 7 -34t18.5 -27.5t27 -18.5t33.5 -7h51q18 0 33.5 7t27 18.5t18.5 27.5t7 34v81v215q0 -52 -9.5 -87.5t-25.5 -57.5t-37 -31.5t-45 -9.5h-36
q-29 0 -49.5 20.5t-20.5 49.5v358q0 29 20.5 49t49.5 20h38q29 0 50.5 -7t36 -25t21.5 -49t7 -79v160zM231 0h36q24 0 45 9.5t37 31.5t25.5 57.5t9.5 87.5v151q0 48 -7 79t-21.5 49t-36 25t-50.5 7h-38q-29 0 -49.5 -20t-20.5 -49v-358q0 -29 20.5 -49.5t49.5 -20.5z" />
    <glyph glyph-name="h" unicode="h" horiz-adv-x="632" 
d="M450 396q0 21 -8 39t-22 32t-32.5 22t-39.5 8h-29q-21 0 -39.5 -8t-32.5 -22t-22 -32t-8 -39v-396v719v-323q0 21 8 39t22 32t32.5 22t39.5 8h29q21 0 39.5 -8t32.5 -22t22 -32t8 -39v-396v396z" />
    <glyph glyph-name="i" unicode="i" 
d="M216 497v-497v497zM216 719v-28v28z" />
    <glyph glyph-name="j" unicode="j" horiz-adv-x="454" 
d="M161 -197q10 1 22 6.5t21.5 16.5t15.5 28t5 41v602v-602q1 -24 -5 -41t-15.5 -28t-21.5 -16.5t-22 -6.5zM225 719v-28v28z" />
    <glyph glyph-name="k" unicode="k" horiz-adv-x="567" 
d="M217 270l222 -270l-222 270l185 227l-185 -227v449v-719v270z" />
    <glyph glyph-name="l" unicode="l" horiz-adv-x="442" 
d="M218 719v-719v719z" />
    <glyph glyph-name="m" unicode="m" horiz-adv-x="848" 
d="M656 0v386q0 34 -6.5 55.5t-19 34t-32 17t-44.5 4.5q-20 0 -41 -7t-38 -20.5t-28 -34.5t-11 -49q0 28 11 49t28 34.5t38 20.5t41 7q25 0 44.5 -4.5t32 -17t19 -34t6.5 -55.5v-386zM436 0v386q0 34 -6 55.5t-19 34t-32 17t-44 4.5q-21 0 -41.5 -7t-37.5 -20.5t-28 -34.5
t-11 -49q0 28 11 49t28 34.5t37.5 20.5t41.5 7q25 0 44 -4.5t32 -17t19 -34t6 -55.5v-386zM217 497v-497v497z" />
    <glyph glyph-name="n" unicode="n" horiz-adv-x="636" 
d="M454 386q0 34 -6.5 55.5t-19 34t-32 17t-44.5 4.5q-20 0 -44 -7t-44 -20.5t-34 -34.5t-14 -49q0 28 14 49t34 34.5t44 20.5t44 7q25 0 44.5 -4.5t32 -17t19 -34t6.5 -55.5v-386v386zM216 497v-497v497z" />
    <glyph glyph-name="o" unicode="o" horiz-adv-x="568" 
d="M251 0q-38 0 -64 26t-26 64v317q0 38 26 64t64 26h47q38 0 64.5 -26t26.5 -64v-317q0 -38 -26.5 -64t-64.5 -26h-47zM251 0q-38 0 -64 26t-26 64v317q0 38 26 64t64 26h47q38 0 64.5 -26t26.5 -64v-317q0 -38 -26.5 -64t-64.5 -26h-47z" />
    <glyph glyph-name="p" unicode="p" horiz-adv-x="619" 
d="M306 498h40q19 0 36 -7t29.5 -19.5t19.5 -29.5t7 -36v-314q0 -19 -7 -36t-19.5 -29.5t-29.5 -19.5t-36 -7h-40q-19 0 -35.5 7t-29 19.5t-19.5 29.5t-7 36v314q0 19 7 36t19.5 29.5t29 19.5t35.5 7zM215 92v-275v681v-92q0 19 7 36t19.5 29.5t29 19.5t35.5 7h40
q19 0 36 -7t29.5 -19.5t19.5 -29.5t7 -36v-314q0 -19 -7 -36t-19.5 -29.5t-29.5 -19.5t-36 -7h-40q-19 0 -35.5 7t-29 19.5t-19.5 29.5t-7 36z" />
    <glyph glyph-name="q" unicode="q" horiz-adv-x="620" 
d="M295 498q19 0 36 -7t29.5 -19.5t19.5 -29.5t7 -36v-314q0 -19 -7 -36t-19.5 -29.5t-29.5 -19.5t-36 -7h-40q-20 0 -36.5 7t-29.5 19.5t-20 29.5t-7 36v314q0 19 7 36t20 29.5t29.5 19.5t36.5 7h40zM387 92q0 -19 -7 -36t-19.5 -29.5t-29.5 -19.5t-36 -7h-40
q-20 0 -36.5 7t-29.5 19.5t-20 29.5t-7 36v314q0 19 7 36t20 29.5t29.5 19.5t36.5 7h40q19 0 36 -7t29.5 -19.5t19.5 -29.5t7 -36v92v-681v275z" />
    <glyph glyph-name="r" unicode="r" horiz-adv-x="458" 
d="M217 332q0 38 11 69t28.5 53t38 33.5t40.5 10.5q-20 1 -40.5 -10.5t-38 -33.5t-28.5 -53t-11 -69zM217 498v-497v497z" />
    <glyph glyph-name="s" unicode="s" horiz-adv-x="499" 
d="M140 82q0 -34 23 -57.5t56 -23.5h43q33 0 56.5 24t23.5 57v46q0 28 -7 47t-16.5 31t-18.5 18.5t-14 11.5l-106 86q-21 17 -30 34.5t-11 31t-0.5 22l1.5 8.5q0 33 23 57t56 24h43q33 0 56.5 -24t23.5 -57v-21v21q0 33 -23.5 57t-56.5 24h-43q-33 0 -56 -24t-23 -57
l-1.5 -8.5t0.5 -22t11 -31t30 -34.5l106 -86q5 -5 14 -11.5t18.5 -18.5t16.5 -31t7 -47v-46q0 -33 -23.5 -57t-56.5 -24h-43q-33 0 -56 23.5t-23 57.5v43v-43z" />
    <glyph glyph-name="t" unicode="t" horiz-adv-x="407" 
d="M282 1q-36 0 -58 24t-25 63v494v-494q3 -39 25 -63t58 -24zM286 498h-155h155z" />
    <glyph glyph-name="u" unicode="u" horiz-adv-x="634" 
d="M161 499v-387q0 -34 6.5 -55.5t19 -34t32 -17t45.5 -4.5q20 0 44 7t44 20.5t34 34.5t14 49q0 -28 -14 -49t-34 -34.5t-44 -20.5t-44 -7q-26 0 -45.5 4.5t-32 17t-19 34t-6.5 55.5v387zM400 1v498v-498z" />
    <glyph glyph-name="v" unicode="v" horiz-adv-x="497" 
d="M242 1l132 498l-132 -498l-133 498z" />
    <glyph glyph-name="w" unicode="w" horiz-adv-x="745" 
d="M215 1l141 498l141 -498l111 498l-111 -498l-141 498l-141 -498l-110 498z" />
    <glyph glyph-name="x" unicode="x" horiz-adv-x="498" 
d="M358 498l-246 -497zM373 1l-248 497z" />
    <glyph glyph-name="y" unicode="y" horiz-adv-x="490" 
d="M365 498l-188 -691zM103 498l126 -498z" />
    <glyph glyph-name="z" unicode="z" horiz-adv-x="488" 
d="M363 499l-230 -498h230h-230l230 498h-230h230z" />
    <glyph glyph-name="sterling" unicode="&#xa3;" horiz-adv-x="645" 
d="M513 583q0 29 -9 55t-24.5 45t-36 30t-44.5 11h-53q-24 0 -44.5 -11t-36.5 -30.5t-25 -45t-9 -54.5v-133v-450h-69h351h-282v450v133q0 29 9 54.5t25 45t36.5 30.5t44.5 11h53q24 0 44.5 -11t36 -30t24.5 -45t9 -55zM387 417h-225h225z" />
    <glyph glyph-name="quotedbl" unicode="&#x22;" horiz-adv-x="506" 
d="M279 730v-71v71zM216 730v-71v71z" />
    <glyph glyph-name="exclam" unicode="!" 
d="M218 24v-23v23zM218 720v-543v543z" />
  </font>
</defs>
</svg>
