<?xml version="1.0" standalone="no"?>
<!DOCTYPE svg PUBLIC "-//W3C//DTD SVG 1.1//EN" "http://www.w3.org/Graphics/SVG/1.1/DTD/svg11.dtd" >
<svg xmlns="http://www.w3.org/2000/svg" xmlns:xlink="http://www.w3.org/1999/xlink" version="1.1">
<metadata>
Created by FontForge 20200511 at Tue Feb  8 18:39:57 2011
 By convertio
                   (c) 1994 by MR Clipart GmbH
</metadata>
<defs>
<font id="1CamBamStick9" horiz-adv-x="556" >
  <font-face 
    font-family="1CamBam_Stick_9"
    font-weight="400"
    font-stretch="normal"
    units-per-em="1000"
    panose-1="2 0 5 6 3 0 0 2 0 3"
    ascent="800"
    descent="-200"
    x-height="433"
    cap-height="656"
    bbox="-21 -193 975 890"
    underline-thickness="50"
    underline-position="-100"
    unicode-range="U+0020-2212"
  />
<missing-glyph horiz-adv-x="280" 
 />
    <glyph glyph-name=".notdef" horiz-adv-x="280" 
 />
    <glyph glyph-name="space" unicode=" " horiz-adv-x="278" 
 />
    <glyph glyph-name="exclam" unicode="!" horiz-adv-x="222" 
d="M108 656v-452v452zM90 50q0 7 5 12.5t13 5.5t13 -5.5t5 -12.5t-5 -12.5t-13 -5.5t-13 5.5t-5 12.5zM90 50q0 7 5 12.5t13 5.5t13 -5.5t5 -12.5t-5 -12.5t-13 -5.5t-13 5.5t-5 12.5z" />
    <glyph glyph-name="quotedbl" unicode="&#x22;" horiz-adv-x="333" 
d="M238 656v-182v182zM96 656v-182v182z" />
    <glyph glyph-name="numbersign" unicode="#" 
d="M450 246h-372h372zM479 454h-373h373zM421 656l-86 -612zM230 656l-86 -612z" />
    <glyph glyph-name="dollar" unicode="$" 
d="M134 138h194q51 0 83.5 25t32.5 79q0 42 -23.5 71t-58 51t-75.5 40.5t-75.5 39.5t-58 47.5t-23.5 64.5q0 29 10.5 48.5t27 31t36.5 16t39 4.5h174h-174q-19 0 -39 -4.5t-36.5 -16t-27 -31t-10.5 -48.5q0 -38 23.5 -64.5t58 -47.5t75.5 -39.5t75.5 -40.5t58 -51t23.5 -71
q0 -54 -32.5 -79t-83.5 -25h-194zM288 738v-706v706z" />
    <glyph glyph-name="percent" horiz-adv-x="889" 
d="M636 668l-410 -636zM533 152q0 26 9.5 48t26 38t38.5 25t46 9t45.5 -9t38 -25t26.5 -38t10 -48t-10 -48t-26.5 -38t-38 -25t-45.5 -9t-46 9t-38.5 25t-26 38t-9.5 48zM90 548q0 26 9.5 48t26 38t38.5 25t46 9t45.5 -9t38 -25t26.5 -38t10 -48t-10 -48t-26.5 -38t-38 -25
t-45.5 -9t-46 9t-38.5 25t-26 38t-9.5 48zM90 548q0 26 9.5 48t26 38t38.5 25t46 9t45.5 -9t38 -25t26.5 -38t10 -48t-10 -48t-26.5 -38t-38 -25t-45.5 -9t-46 9t-38.5 25t-26 38t-9.5 48zM533 152q0 26 9.5 48t26 38t38.5 25t46 9t45.5 -9t38 -25t26.5 -38t10 -48t-10 -48
t-26.5 -38t-38 -25t-45.5 -9t-46 9t-38.5 25t-26 38t-9.5 48z" />
    <glyph glyph-name="ampersand" unicode="&#x26;" horiz-adv-x="667" 
d="M213 497q-36 -21 -61 -47.5t-40.5 -55.5t-22.5 -59.5t-7 -60.5q0 -51 18 -95.5t50.5 -77t78 -51t99.5 -18.5q58 0 104.5 18.5t79.5 51t50.5 77t17.5 96.5q0 85 -51 151q51 -66 51 -151q0 -52 -17.5 -96.5t-50.5 -77t-79.5 -51t-104.5 -18.5q-54 0 -99.5 18.5t-78 51
t-50.5 77t-18 95.5q0 30 7 60.5t22.5 59.5t40.5 55.5t61 47.5zM186 532q-9 12 -22 31t-13 39q0 21 14.5 37.5t46.5 16.5h239h-239q-32 0 -46.5 -16.5t-14.5 -37.5q0 -20 13 -39t22 -31l380 -488z" />
    <glyph glyph-name="quotesingle" unicode="'" horiz-adv-x="222" 
d="M111 656v-182v182z" />
    <glyph glyph-name="parenleft" unicode="(" horiz-adv-x="389" 
d="M276 -130q-43 40 -74 86.5t-51.5 97.5t-30 105.5t-9.5 108.5q0 111 39 212.5t126 178.5q-87 -77 -126 -178.5t-39 -212.5q0 -54 9.5 -108.5t30 -105.5t51.5 -97.5t74 -86.5z" />
    <glyph glyph-name="parenright" unicode=")" horiz-adv-x="389" 
d="M113 -130q43 40 74.5 86.5t51.5 97.5t29.5 105.5t9.5 108.5q0 111 -39 212.5t-126 178.5q87 -77 126 -178.5t39 -212.5q0 -54 -9.5 -108.5t-29.5 -105.5t-51.5 -97.5t-74.5 -86.5z" />
    <glyph glyph-name="asterisk" unicode="*" horiz-adv-x="500" 
d="M380 584l-260 -156zM250 656v-298v298zM380 428l-260 156z" />
    <glyph glyph-name="plus" unicode="+" horiz-adv-x="600" 
d="M496 240h-392h392zM300 436v-392v392z" />
    <glyph glyph-name="comma" unicode="," horiz-adv-x="278" 
d="M140 52l-28 -108z" />
    <glyph glyph-name="hyphen" unicode="-" horiz-adv-x="278" 
d="M207 240h-136h136z" />
    <glyph glyph-name="period" unicode="." horiz-adv-x="278" 
d="M124 53q0 7 4.5 11t10.5 4t10.5 -4t4.5 -11t-4.5 -11t-10.5 -4t-10.5 4t-4.5 11zM124 53q0 -7 4.5 -11t10.5 -4t10.5 4t4.5 11t-4.5 11t-10.5 4t-10.5 -4t-4.5 -11z" />
    <glyph glyph-name="slash" unicode="/" horiz-adv-x="278" 
d="M232 668l-186 -636z" />
    <glyph glyph-name="zero" unicode="0" 
d="M84 456q0 46 12.5 85t37.5 67.5t61 44t83 15.5t83 -16t61 -44t37.5 -67t12.5 -85v-208q0 -46 -12.5 -85.5t-37.5 -68.5t-61 -45.5t-83 -16.5t-83 16.5t-61 45.5t-37.5 68.5t-12.5 85.5v208zM84 456v-208q0 -46 12.5 -85.5t37.5 -68.5t61 -45.5t83 -16.5t83 16.5t61 45.5
t37.5 68.5t12.5 85.5v208q0 46 -12.5 85t-37.5 67t-61 44t-83 16t-83 -15.5t-61 -44t-37.5 -67.5t-12.5 -85z" />
    <glyph glyph-name="one" unicode="1" horiz-adv-x="488" 
d="M285 656h-117h117v-612v612z" />
    <glyph glyph-name="two" unicode="2" 
d="M126 44q-32 0 -41 8.5t-9 22.5q0 3 1 6t6.5 8t15.5 13.5t28 22.5l220 172q22 18 43.5 37.5t38 43t26.5 51.5t10 62q0 47 -16.5 80.5t-42.5 55t-58 31.5t-64 10q-34 0 -69 -10t-63 -32t-45.5 -57.5t-17.5 -85.5q0 -46 26 -88t72 -67q-46 25 -72 67t-26 88q0 50 17.5 85.5
t45.5 57.5t63 32t69 10q32 0 64 -10t58 -31.5t42.5 -55t16.5 -80.5q0 -34 -10 -62t-26.5 -51.5t-38 -43t-43.5 -37.5l-220 -172q-18 -14 -28 -22.5t-15.5 -13.5t-6.5 -8t-1 -6q0 -14 9 -22.5t41 -8.5h339h-339z" />
    <glyph glyph-name="three" unicode="3" 
d="M289 44q34 0 65.5 11t55.5 33.5t38.5 55.5t14.5 78t-18 76t-46 50t-62.5 27.5t-68.5 8.5h-54v35l156 141q14 12 28 28.5t14 29.5q0 15 -10.5 26.5t-38.5 11.5h-258h258q28 0 38.5 -11.5t10.5 -26.5q0 -13 -14 -29.5t-28 -28.5l-156 -141v-35h54q34 0 68.5 -8.5
t62.5 -27.5t46 -50t18 -76t-14.5 -78t-38.5 -55.5t-55.5 -33.5t-65.5 -11h-201h201z" />
    <glyph glyph-name="four" unicode="4" 
d="M375 552v-508v508zM79 272q-8 -14 -11.5 -23t-3.5 -14q0 -16 11 -22.5t22 -6.5h387h-387q-11 0 -22 6.5t-11 22.5q0 5 3.5 14t11.5 23l214 384z" />
    <glyph glyph-name="five" unicode="5" 
d="M298 44q31 0 61 10t54 30t39 51.5t15 75.5q0 87 -49.5 131t-153.5 44h-130v270h274h-274v-270h130q104 0 153.5 -44t49.5 -131q0 -44 -15 -75.5t-39 -51.5t-54 -30t-61 -10h-198h198z" />
    <glyph glyph-name="six" unicode="6" 
d="M150 426q-19 -27 -33.5 -49.5t-24.5 -45t-15 -46.5t-5 -52q0 -38 14.5 -74.5t41 -64.5t64 -45t83.5 -17q38 0 75.5 14t67 40t48 64.5t18.5 86.5q0 32 -8 66t-27.5 63.5t-53 51.5t-84.5 29q51 -7 84.5 -29t53 -51.5t27.5 -63.5t8 -66q0 -48 -18.5 -86.5t-48 -64.5t-67 -40
t-75.5 -14q-46 0 -83.5 17t-64 45t-41 64.5t-14.5 74.5q0 28 5 52t15 46.5t24.5 45t33.5 49.5l163 230z" />
    <glyph glyph-name="seven" unicode="7" 
d="M422 540q17 40 23.5 56t6.5 24q0 18 -14.5 27t-39.5 9h-310h310q25 0 39.5 -9t14.5 -27q0 -8 -6.5 -24t-23.5 -56l-221 -496z" />
    <glyph glyph-name="eight" unicode="8" 
d="M80 211q0 40 14.5 73t41 56.5t62.5 36.5t79 13t79.5 -12.5t63 -36t41.5 -56.5t15 -74q0 -51 -19 -85t-48 -55t-64 -30t-67 -9t-67 9t-64 30t-48 55t-19 85zM126 534q0 36 15 61.5t37.5 41.5t49 23.5t49.5 7.5t49.5 -7.5t48.5 -23.5t36.5 -41.5t14.5 -61.5t-12.5 -63
t-33 -45t-47.5 -27t-56 -9t-56.5 9t-48.5 27t-33.5 45t-12.5 63zM126 534q0 -36 12.5 -63t33.5 -45t48.5 -27t56.5 -9t56 9t47.5 27t33 45t12.5 63t-14.5 61.5t-36.5 41.5t-48.5 23.5t-49.5 7.5t-49.5 -7.5t-49 -23.5t-37.5 -41.5t-15 -61.5zM80 211q0 -51 19 -85t48 -55
t64 -30t67 -9t67 9t64 30t48 55t19 85q0 41 -15 74t-41.5 56.5t-63 36t-79.5 12.5t-79 -13t-62.5 -36.5t-41 -56.5t-14.5 -73z" />
    <glyph glyph-name="nine" unicode="9" 
d="M407 274q19 27 33 49.5t24 45t15 46t5 52.5q0 39 -14.5 75t-41 64t-64 45t-83.5 17q-38 0 -75.5 -14t-67 -40t-48 -64.5t-18.5 -86.5q0 -32 8 -66t27.5 -63.5t53 -51.5t84.5 -29q-51 7 -84.5 29t-53 51.5t-27.5 63.5t-8 66q0 48 18.5 86.5t48 64.5t67 40t75.5 14
q46 0 83.5 -17t64 -45t41 -64t14.5 -75q0 -29 -5 -52.5t-15 -46t-24 -45t-33 -49.5l-164 -230z" />
    <glyph glyph-name="colon" unicode=":" horiz-adv-x="278" 
d="M124 53q0 6 4.5 10.5t10.5 4.5t10.5 -4.5t4.5 -10.5t-4.5 -10.5t-10.5 -4.5t-10.5 4.5t-4.5 10.5zM124 341q0 7 4.5 11t10.5 4t10.5 -4t4.5 -11q0 -6 -4.5 -10.5t-10.5 -4.5t-10.5 4.5t-4.5 10.5zM124 341q0 -6 4.5 -10.5t10.5 -4.5t10.5 4.5t4.5 10.5q0 7 -4.5 11
t-10.5 4t-10.5 -4t-4.5 -11zM124 53q0 -6 4.5 -10.5t10.5 -4.5t10.5 4.5t4.5 10.5t-4.5 10.5t-10.5 4.5t-10.5 -4.5t-4.5 -10.5z" />
    <glyph glyph-name="semicolon" unicode=";" horiz-adv-x="278" 
d="M112 -56l28 108zM124 341q0 7 4.5 11t10.5 4t10.5 -4t4.5 -11q0 -6 -4.5 -10.5t-10.5 -4.5t-10.5 4.5t-4.5 10.5zM124 341q0 -6 4.5 -10.5t10.5 -4.5t10.5 4.5t4.5 10.5q0 7 -4.5 11t-10.5 4t-10.5 -4t-4.5 -11z" />
    <glyph glyph-name="less" unicode="&#x3c;" horiz-adv-x="600" 
d="M109 223v34l387 172l-387 -172v-34l387 -172z" />
    <glyph glyph-name="equal" unicode="=" horiz-adv-x="600" 
d="M496 141h-392h392zM496 339h-392h392z" />
    <glyph glyph-name="greater" unicode="&#x3e;" horiz-adv-x="600" 
d="M492 223v34l-388 172l388 -172v-34l-388 -172z" />
    <glyph glyph-name="question" unicode="?" horiz-adv-x="444" 
d="M77 534q6 34 21.5 59.5t37 42t47 24.5t52.5 8q33 0 61.5 -12.5t49.5 -34t33 -51.5t12 -66q0 -44 -15 -75.5t-39.5 -51.5t-55.5 -29.5t-63 -9.5v-134v134q32 0 63 9.5t55.5 29.5t39.5 51.5t15 75.5q0 36 -12 66t-33 51.5t-49.5 34t-61.5 12.5q-27 0 -52.5 -8t-47 -24.5
t-37 -42t-21.5 -59.5zM200 50q0 8 5 13t13 5t13 -5t5 -13q0 -7 -5 -12.5t-13 -5.5t-13 5.5t-5 12.5zM200 50q0 8 5 13t13 5t13 -5t5 -13q0 -7 -5 -12.5t-13 -5.5t-13 5.5t-5 12.5z" />
    <glyph glyph-name="at" unicode="@" horiz-adv-x="800" 
d="M685 126q-47 -45 -112.5 -72t-138.5 -27q-82 0 -145.5 27.5t-107 73t-66 105t-22.5 123.5q0 72 28 132t75 104t108.5 68.5t128.5 24.5q64 0 120.5 -20t97.5 -55.5t65 -85t24 -107.5q0 -41 -15 -85t-40 -80t-58 -59.5t-69 -23.5q-29 0 -43 17t-3 52l80 259l-80 -259
q-11 -35 3 -52t43 -17q36 0 69 23.5t58 59.5t40 80t15 85q0 58 -24 107.5t-65 85t-97.5 55.5t-120.5 20q-67 0 -128.5 -24.5t-108.5 -68.5t-75 -104t-28 -132q0 -64 22.5 -123.5t66 -105t107 -73t145.5 -27.5q73 0 138.5 27t112.5 72zM556 409q0 -35 -14 -76t-39 -76
t-58 -58.5t-70 -23.5q-19 0 -39 6t-37 19.5t-28 36.5t-11 58q0 31 11.5 71.5t35.5 76.5t61 61t88 25q14 0 31.5 -5t32.5 -18t25.5 -36.5t10.5 -60.5zM556 409q0 -35 -14 -76t-39 -76t-58 -58.5t-70 -23.5q-19 0 -39 6t-37 19.5t-28 36.5t-11 58q0 31 11.5 71.5t35.5 76.5
t61 61t88 25q14 0 31.5 -5t32.5 -18t25.5 -36.5t10.5 -60.5z" />
    <glyph glyph-name="A" unicode="A" 
d="M470 362h-255h255zM470 44v403q0 103 -52 162t-140 59q-43 0 -78.5 -15.5t-60.5 -44.5t-39 -69.5t-14 -91.5v-403v403q0 51 14 91.5t39 69.5t60.5 44.5t78.5 15.5q88 0 140 -59t52 -162v-403z" />
    <glyph glyph-name="B" unicode="B" 
d="M318 44q28 0 58.5 6.5t56.5 24t43 48t17 78.5q0 36 -10.5 65.5t-34 50.5t-61 33t-91.5 12h-63h63q45 0 76.5 13.5t51 35t28.5 48.5t9 55q0 32 -11 60t-33.5 49t-55.5 33t-76 12q-47 0 -81 -16t-56 -41t-32 -56.5t-10 -62.5v-448v448q0 31 10 62.5t32 56.5t56 41t81 16
q43 0 76 -12t55.5 -33t33.5 -49t11 -60q0 -28 -9 -55t-28.5 -48.5t-51 -35t-76.5 -13.5h-63h63q54 0 91.5 -12t61 -33t34 -50.5t10.5 -65.5q0 -48 -17 -78.5t-43 -48t-56.5 -24t-58.5 -6.5h-85h85z" />
    <glyph glyph-name="C" unicode="C" horiz-adv-x="500" 
d="M375 44q-54 0 -106 20t-93 59t-66.5 96t-25.5 131q0 55 21 110t62 98.5t101 70.5t138 27h25h-25q-78 0 -138 -27t-101 -70.5t-62 -98.5t-21 -110q0 -74 25.5 -131t66.5 -96t93 -59t106 -20h56h-56z" />
    <glyph glyph-name="D" unicode="D" horiz-adv-x="611" 
d="M240 44q55 0 107 21t92.5 60.5t65.5 96t25 128.5t-25 128.5t-67.5 96t-98 60.5t-116.5 21h-117v-612v612h117q61 0 116.5 -21t98 -60.5t67.5 -96t25 -128.5t-25 -128.5t-65.5 -96t-92.5 -60.5t-107 -21h-3h3z" />
    <glyph glyph-name="E" unicode="E" horiz-adv-x="500" 
d="M415 362h-347h347zM360 44q-56 0 -108.5 23.5t-93.5 65.5t-65.5 99t-24.5 124q0 76 29.5 132t74 93.5t97.5 56t100 18.5h46h-46q-47 0 -100 -18.5t-97.5 -56t-74 -93.5t-29.5 -132q0 -67 24.5 -124t65.5 -99t93.5 -65.5t108.5 -23.5h55h-55z" />
    <glyph glyph-name="F" unicode="F" horiz-adv-x="389" 
d="M317 348h-242h242zM75 470q0 92 44 139t133 47h65h-65q-89 0 -133 -47t-44 -139v-426v426z" />
    <glyph glyph-name="G" unicode="G" horiz-adv-x="778" 
d="M695 350v-30q0 -64 -24.5 -117t-66.5 -91t-97.5 -59t-117.5 -21q-69 0 -127 25.5t-100 69t-66 101t-24 122.5t24 122.5t66 101t100 69t127 25.5q76 0 130 -25.5t95 -60.5q-41 35 -95 60.5t-130 25.5q-69 0 -127 -25.5t-100 -69t-66 -101t-24 -122.5t24 -122.5t66 -101
t100 -69t127 -25.5q62 0 117.5 21t97.5 59t66.5 91t24.5 117v30h-249h249z" />
    <glyph glyph-name="H" unicode="H" horiz-adv-x="611" 
d="M504 656v-612v612zM504 362h-398h398zM106 656v-612v612z" />
    <glyph glyph-name="I" unicode="I" horiz-adv-x="222" 
d="M111 656v-612v612z" />
    <glyph glyph-name="J" unicode="J" horiz-adv-x="333" 
d="M46 44q58 0 95.5 14t60 38.5t31.5 57t9 69.5v433v-433q0 -37 -9 -69.5t-31.5 -57t-60 -38.5t-95.5 -14h-4h4z" />
    <glyph glyph-name="K" unicode="K" 
d="M465 194q0 33 -9 63.5t-29.5 54t-54 37t-83.5 13.5h-178h118q43 0 74 17t52 42t35 54t25 52l58 129l-58 -129q-11 -23 -25 -52t-35 -54t-52 -42t-74 -17h-118h178q50 0 83.5 -13.5t54 -37t29.5 -54t9 -63.5v-150v150zM111 656v-612v612z" />
    <glyph glyph-name="L" unicode="L" horiz-adv-x="389" 
d="M293 44q-34 0 -66.5 10t-58 33t-41.5 60t-16 91v418v-418q0 -54 16 -91t41.5 -60t58 -33t66.5 -10h54h-54z" />
    <glyph glyph-name="M" unicode="M" horiz-adv-x="778" 
d="M655 603q-1 9 -3.5 20.5t-6.5 21.5t-10.5 16.5t-15.5 6.5q-10 0 -17.5 -7.5t-13 -18t-9.5 -22.5l-7 -21l-146 -479q-9 -28 -19 -52t-18 -24t-18 24t-18 52l-146 479q-3 10 -7 22t-10 22.5t-13.5 17.5t-17.5 7q-9 0 -15.5 -6.5t-10.5 -16.5t-6.5 -21.5t-3.5 -20.5
l-69 -559l69 559q1 9 3.5 20.5t6.5 21.5t10.5 16.5t15.5 6.5q10 0 17.5 -7t13.5 -17.5t10 -22.5t7 -22l146 -479q8 -28 18 -52t18 -24t18 24t19 52l146 479l7 21t9.5 22.5t13 18t17.5 7.5q9 0 15.5 -6.5t10.5 -16.5t6.5 -21.5t3.5 -20.5l69 -559z" />
    <glyph glyph-name="N" unicode="N" horiz-adv-x="611" 
d="M97 597q0 22 3 35t8.5 19.5t11.5 8.5t12 2t12 -2t12.5 -9.5t15.5 -22t21 -39.5l237 -489q11 -23 18.5 -35.5t13.5 -18.5t12 -7t14 -1q5 0 9.5 2t8 8t5.5 18.5t2 33.5v556v-556q0 -21 -2 -33.5t-5.5 -18.5t-8 -8t-9.5 -2q-8 0 -14 1t-12 7t-13.5 18.5t-18.5 35.5l-237 489
q-12 25 -21 39.5t-15.5 22t-12.5 9.5t-12 2t-12 -2t-11.5 -8.5t-8.5 -19.5t-3 -35v-553v553z" />
    <glyph glyph-name="O" unicode="O" horiz-adv-x="778" 
d="M72 350q0 65 24 122.5t66 101t100 69t127 25.5t127 -25.5t100 -69t66 -101t24 -122.5t-24 -122.5t-66 -101t-100 -69t-127 -25.5t-127 25.5t-100 69t-66 101t-24 122.5zM72 350q0 -65 24 -122.5t66 -101t100 -69t127 -25.5t127 25.5t100 69t66 101t24 122.5t-24 122.5
t-66 101t-100 69t-127 25.5t-127 -25.5t-100 -69t-66 -101t-24 -122.5z" />
    <glyph glyph-name="P" unicode="P" horiz-adv-x="500" 
d="M87 474q0 36 10.5 70.5t32 62t55 44.5t80.5 17q48 0 82.5 -16.5t57 -42.5t33 -58t10.5 -64q0 -29 -9.5 -60.5t-29 -57.5t-50.5 -43.5t-74 -17.5h-70h70q43 0 74 17.5t50.5 43.5t29 57.5t9.5 60.5q0 32 -10.5 64t-33 58t-57 42.5t-82.5 16.5q-47 0 -80.5 -17t-55 -44.5
t-32 -62t-10.5 -70.5v-430v430z" />
    <glyph glyph-name="Q" unicode="Q" horiz-adv-x="778" 
d="M409 184v-284v284zM409 33q65 4 119.5 30.5t94 69.5t61.5 99t22 118q0 65 -24 122.5t-66 101t-100 69t-127 25.5t-127 -25.5t-100 -69t-66 -101t-24 -122.5q0 -50 14.5 -96t40.5 -84.5t63 -68t82 -47.5q-45 18 -82 47.5t-63 68t-40.5 84.5t-14.5 96q0 65 24 122.5t66 101
t100 69t127 25.5t127 -25.5t100 -69t66 -101t24 -122.5q0 -62 -22 -118t-61.5 -99t-94 -69.5t-119.5 -30.5z" />
    <glyph glyph-name="R" unicode="R" 
d="M97 476q0 31 9.5 64.5t31 62t57 47t87.5 18.5q39 0 70.5 -12.5t53 -33.5t33.5 -49.5t12 -60.5q0 -76 -52.5 -119t-140.5 -43h-29h60q81 0 127.5 -38t46.5 -119v-149v149q0 81 -46.5 119t-127.5 38h-60h29q88 0 140.5 43t52.5 119q0 32 -12 60.5t-33.5 49.5t-53 33.5
t-70.5 12.5q-52 0 -87.5 -18.5t-57 -47t-31 -62t-9.5 -64.5v-432v432z" />
    <glyph glyph-name="S" unicode="S" horiz-adv-x="500" 
d="M273 44q68 0 111.5 33t43.5 106q0 47 -26 78.5t-65 55t-85 42.5t-85 41.5t-65 52t-26 73.5q0 20 5.5 42.5t20.5 42t42 32.5t71 13h185h-185q-44 0 -71 -13t-42 -32.5t-20.5 -42t-5.5 -42.5q0 -44 26 -73.5t65 -52t85 -41.5t85 -42.5t65 -55t26 -78.5q0 -73 -43.5 -106
t-111.5 -33h-205h205z" />
    <glyph glyph-name="T" unicode="T" horiz-adv-x="444" 
d="M398 656h-352h352zM222 656v-612v612z" />
    <glyph glyph-name="U" unicode="U" 
d="M93 253q0 -51 13.5 -92t37.5 -69.5t58 -44t76 -15.5t76 15.5t58 44t37 69.5t13 92v403v-403q0 -51 -13 -92t-37 -69.5t-58 -44t-76 -15.5t-76 15.5t-58 44t-37.5 69.5t-13.5 92v403v-403z" />
    <glyph glyph-name="V" unicode="V" 
d="M240 96q14 -39 24 -51.5t18 -12.5q7 0 18 12.5t24 51.5l182 560l-182 -560q-13 -39 -24 -51.5t-18 -12.5q-8 0 -18 12.5t-24 51.5l-189 560z" />
    <glyph glyph-name="W" unicode="W" horiz-adv-x="889" 
d="M96 210q0 -42 12.5 -75.5t34.5 -56t52.5 -34.5t67.5 -12t69.5 9t57.5 29.5t39.5 54.5t14.5 85v446v-446q0 -51 14.5 -85t39 -54.5t57.5 -29.5t70 -9t67.5 12t52.5 34.5t34.5 56t12.5 75.5v446v-446q0 -42 -12.5 -75.5t-34.5 -56t-52.5 -34.5t-67.5 -12t-70 9t-57.5 29.5
t-39 54.5t-14.5 85v446v-446q0 -51 -14.5 -85t-39.5 -54.5t-57.5 -29.5t-69.5 -9t-67.5 12t-52.5 34.5t-34.5 56t-12.5 75.5v446v-446z" />
    <glyph glyph-name="X" unicode="X" 
d="M48 656q59 -11 102 -43.5t71.5 -76.5t42.5 -93t14 -93t-14 -93t-42.5 -93t-71.5 -76.5t-102 -43.5q59 11 102 43.5t71.5 76.5t42.5 93t14 93t-14 93t-42.5 93t-71.5 76.5t-102 43.5zM508 44q-59 11 -102 43.5t-71.5 76.5t-42.5 93t-14 93t14 93t42.5 93t71.5 76.5
t102 43.5q-59 -11 -102 -43.5t-71.5 -76.5t-42.5 -93t-14 -93t14 -93t42.5 -93t71.5 -76.5t102 -43.5z" />
    <glyph glyph-name="Y" unicode="Y" horiz-adv-x="500" 
d="M250 318v-274v274zM70 488q0 -44 15 -76t40.5 -53t57.5 -31t67 -10q34 0 66.5 10.5t57.5 31.5t40 53t15 75v168v-168q0 -43 -15 -75t-40 -53t-57.5 -31.5t-66.5 -10.5q-35 0 -67 10t-57.5 31t-40.5 53t-15 76v168v-168z" />
    <glyph glyph-name="Z" unicode="Z" horiz-adv-x="500" 
d="M101 44q-21 0 -30 8.5t-9 21.5t6.5 28t16.5 29l285 401q5 7 13.5 19t17 26t15 28t6.5 26q0 11 -8 18t-28 7h-293h293q20 0 28 -7t8 -18q0 -12 -6.5 -26t-15 -28t-17 -26t-13.5 -19l-285 -401q-10 -14 -16.5 -29t-6.5 -28t9 -21.5t30 -8.5h334h-334z" />
    <glyph glyph-name="bracketleft" unicode="[" horiz-adv-x="389" 
d="M156 -132v788h86h-86v-788h86h-86z" />
    <glyph glyph-name="backslash" unicode="\" horiz-adv-x="278" 
d="M-3 668l284 -636z" />
    <glyph glyph-name="bracketright" unicode="]" horiz-adv-x="389" 
d="M233 -132v788h-86h86v-788h-86h86z" />
    <glyph glyph-name="asciicircum" unicode="^" horiz-adv-x="600" 
d="M319 657h-38l-161 -327l161 327h38l161 -327z" />
    <glyph glyph-name="underscore" unicode="_" horiz-adv-x="500" 
d="M456 -100h-412h412z" />
    <glyph glyph-name="grave" unicode="`" horiz-adv-x="278" 
d="M95 636l42 -54z" />
    <glyph glyph-name="a" unicode="a" 
d="M348 51q-31 -19 -75 -19t-81.5 15.5t-64.5 43.5t-42 66.5t-15 84.5t15 84t42 65.5t64.5 43t81.5 15.5t80.5 -13.5t63 -37.5t41 -58t14.5 -75v-222v222q0 41 -14.5 75t-41 58t-63 37.5t-80.5 13.5t-81.5 -15.5t-64.5 -43t-42 -65.5t-15 -84t15 -84.5t42 -66.5t64.5 -43.5
t81.5 -15.5t75 19z" />
    <glyph glyph-name="b" unicode="b" 
d="M84 262q0 -55 14.5 -97.5t40.5 -72t62.5 -45t80.5 -15.5q43 0 80 14t64.5 41.5t43.5 67.5t16 92q0 46 -15.5 83t-42 63.5t-62 40.5t-74.5 14q-48 0 -85 -15q37 15 85 15q39 0 74.5 -14t62 -40.5t42 -63.5t15.5 -83q0 -52 -16 -92t-43.5 -67.5t-64.5 -41.5t-80 -14
q-44 0 -80.5 15.5t-62.5 45t-40.5 72t-14.5 97.5v394v-394z" />
    <glyph glyph-name="c" unicode="c" horiz-adv-x="389" 
d="M292 44q-42 0 -79 14t-64.5 39.5t-43.5 62t-16 80.5t16.5 80.5t43.5 62.5t61 40.5t70 14.5h44h-44q-36 0 -70 -14.5t-61 -40.5t-43.5 -62.5t-16.5 -80.5t16 -80.5t43.5 -62t64.5 -39.5t79 -14h32h-32z" />
    <glyph glyph-name="d" unicode="d" 
d="M472 262q0 -55 -14.5 -97.5t-40.5 -72t-62.5 -45t-80.5 -15.5q-43 0 -80 14t-64.5 41.5t-43.5 67.5t-16 92q0 46 15.5 83t42 63.5t62 40.5t75.5 14q46 0 84 -15q-38 15 -84 15q-40 0 -75.5 -14t-62 -40.5t-42 -63.5t-15.5 -83q0 -52 16 -92t43.5 -67.5t64.5 -41.5t80 -14
q44 0 80.5 15.5t62.5 45t40.5 72t14.5 97.5v394v-394z" />
    <glyph glyph-name="e" unicode="e" 
d="M475 176q-21 -71 -72.5 -107.5t-123.5 -36.5q-44 0 -81.5 15t-64.5 42.5t-42.5 66t-15.5 84.5t15.5 84.5t42.5 66t64.5 42.5t81.5 15q59 0 106.5 -27t64.5 -72l-242 -134l242 134q-17 45 -64.5 72t-106.5 27q-44 0 -81.5 -15t-64.5 -42.5t-42.5 -66t-15.5 -84.5
t15.5 -84.5t42.5 -66t64.5 -42.5t81.5 -15q72 0 123.5 36.5t72.5 107.5z" />
    <glyph glyph-name="f" unicode="f" horiz-adv-x="278" 
d="M240 438h-144h144zM96 526q0 22 7 45t22.5 42t40.5 31t62 12h24h-24q-37 0 -62 -12t-40.5 -31t-22.5 -42t-7 -45v-482v482z" />
    <glyph glyph-name="g" unicode="g" 
d="M160 -172q56 -14 103 -14q55 0 94.5 16.5t65 45t37.5 66.5t12 81v219q-1 42 -15 79.5t-39 65.5t-60.5 44.5t-79.5 16.5q-43 0 -80 -14.5t-64 -42t-42.5 -68t-15.5 -91.5q0 -46 16.5 -83t44 -63t65 -40t79.5 -14q35 0 68 12q-33 -12 -68 -12q-42 0 -79.5 14t-65 40t-44 63
t-16.5 83q0 51 15.5 91.5t42.5 68t64 42t80 14.5q44 0 79.5 -16.5t60.5 -44.5t39 -65.5t15 -79.5v-219q0 -43 -12 -81t-37.5 -66.5t-65 -45t-94.5 -16.5q-47 0 -103 14z" />
    <glyph glyph-name="h" unicode="h" horiz-adv-x="500" 
d="M89 656v-612v612zM411 280q0 30 -9 60t-28.5 54t-49 39t-71.5 15q-41 0 -72 -15t-51 -39t-30.5 -54t-10.5 -60v-236v236q0 30 10.5 60t30.5 54t51 39t72 15q42 0 71.5 -15t49 -39t28.5 -54t9 -60v-236v236z" />
    <glyph glyph-name="i" unicode="i" horiz-adv-x="278" 
d="M139 44v392v-392zM130 587q0 9 9 9t9 -9q0 -3 -2 -6t-7 -3t-7 3t-2 6zM130 587q0 -3 2 -6t7 -3t7 3t2 6q0 9 -9 9t-9 -9z" />
    <glyph glyph-name="j" unicode="j" horiz-adv-x="222" 
d="M-21 -173q24 1 48 6.5t42.5 21t30.5 43t12 71.5v467v-467q0 -44 -12 -71.5t-30.5 -43t-42.5 -21t-48 -6.5zM103 587q0 9 9 9t9 -9q0 -3 -2 -6t-7 -3t-7 3t-2 6zM103 587q0 -3 2 -6t7 -3t7 3t2 6q0 9 -9 9t-9 -9z" />
    <glyph glyph-name="k" unicode="k" horiz-adv-x="444" 
d="M96 260h144q52 0 87 -32t35 -92v-92v92q0 60 -35 92t-87 32h-144zM96 260h81q28 0 48.5 7.5t35.5 20t26.5 30t23.5 37.5l47 81l-47 -81q-12 -20 -23.5 -37.5t-26.5 -30t-35.5 -20t-48.5 -7.5h-81zM96 656v-612v612z" />
    <glyph glyph-name="l" unicode="l" horiz-adv-x="222" 
d="M111 656v-612v612z" />
    <glyph glyph-name="m" unicode="m" horiz-adv-x="722" 
d="M93 316q0 30 9.5 54.5t27 41.5t41 26.5t51.5 9.5q66 0 102.5 -41t36.5 -114v-249v249q0 73 36.5 114t102.5 41q28 0 51.5 -9.5t40.5 -26.5t27 -41.5t10 -54.5v-272v272q0 30 -10 54.5t-27 41.5t-40.5 26.5t-51.5 9.5q-66 0 -102.5 -41t-36.5 -114v-249v249
q0 73 -36.5 114t-102.5 41q-28 0 -51.5 -9.5t-41 -26.5t-27 -41.5t-9.5 -54.5v-272v272z" />
    <glyph glyph-name="n" unicode="n" horiz-adv-x="500" 
d="M89 280q0 30 10 60.5t30.5 54.5t50.5 39t70 15t70 -15t50 -39t30.5 -54.5t10.5 -60.5v-236v236q0 30 -10.5 60.5t-30.5 54.5t-50 39t-70 15t-70 -15t-50.5 -39t-30.5 -54.5t-10 -60.5v-236v236z" />
    <glyph glyph-name="o" unicode="o" 
d="M75 240q0 46 15 84.5t42 66t64.5 42.5t81.5 15t81.5 -15t64.5 -42.5t42 -66t15 -84.5t-15 -84.5t-42 -66t-64.5 -42.5t-81.5 -15t-81.5 15t-64.5 42.5t-42 66t-15 84.5zM75 240q0 -46 15 -84.5t42 -66t64.5 -42.5t81.5 -15t81.5 15t64.5 42.5t42 66t15 84.5t-15 84.5
t-42 66t-64.5 42.5t-81.5 15t-81.5 -15t-64.5 -42.5t-42 -66t-15 -84.5z" />
    <glyph glyph-name="p" unicode="p" 
d="M84 218q0 55 14.5 98t40.5 72t62.5 44.5t80.5 15.5q43 0 80 -14t64.5 -41.5t43.5 -67.5t16 -91q0 -46 -15.5 -83.5t-42 -63.5t-62 -40.5t-74.5 -14.5q-48 0 -85 15q37 -15 85 -15q39 0 74.5 14.5t62 40.5t42 63.5t15.5 83.5q0 51 -16 91t-43.5 67.5t-64.5 41.5t-80 14
q-44 0 -80.5 -15.5t-62.5 -44.5t-40.5 -72t-14.5 -98v-394v394z" />
    <glyph glyph-name="q" unicode="q" 
d="M472 218q0 55 -14.5 98t-40.5 72t-62.5 44.5t-80.5 15.5q-43 0 -80 -14t-64.5 -41.5t-43.5 -67.5t-16 -91q0 -46 15.5 -83.5t42 -63.5t62 -40.5t75.5 -14.5q46 0 84 15q-38 -15 -84 -15q-40 0 -75.5 14.5t-62 40.5t-42 63.5t-15.5 83.5q0 51 16 91t43.5 67.5t64.5 41.5
t80 14q44 0 80.5 -15.5t62.5 -44.5t40.5 -72t14.5 -98v-394v394z" />
    <glyph glyph-name="r" unicode="r" horiz-adv-x="278" 
d="M88 232q0 55 11.5 94.5t31.5 65t47 38.5t58 17q-31 -4 -58 -17t-47 -38.5t-31.5 -65t-11.5 -94.5v-188v188zM88 436v-392v392z" />
    <glyph glyph-name="s" unicode="s" horiz-adv-x="444" 
d="M274 44q51 0 77 20t26 68q0 35 -22.5 55.5t-56 34t-73 23t-73 22.5t-56 32.5t-22.5 52.5q0 27 9 43.5t24.5 25.5t35.5 12t41 3h171h-171q-21 0 -41 -3t-35.5 -12t-24.5 -25.5t-9 -43.5q0 -33 22.5 -52.5t56 -32.5t73 -22.5t73 -23t56 -34t22.5 -55.5q0 -48 -26 -68
t-77 -20h-202h202z" />
    <glyph glyph-name="t" unicode="t" horiz-adv-x="333" 
d="M275 438h-172h172zM207 44q-48 0 -76 24t-28 82v406v-406q0 -58 28 -82t76 -24h68h-68z" />
    <glyph glyph-name="u" unicode="u" horiz-adv-x="500" 
d="M89 200q0 -30 10 -60t30.5 -54t50.5 -39t70 -15t70 15t50 39t30.5 54t10.5 60v236v-236q0 -30 -10.5 -60t-30.5 -54t-50 -39t-70 -15t-70 15t-50.5 39t-30.5 54t-10 60v236v-236z" />
    <glyph glyph-name="v" unicode="v" horiz-adv-x="444" 
d="M189 71q8 -22 16.5 -30.5t16.5 -8.5t17.5 8t17.5 31l136 365l-136 -365q-8 -23 -17.5 -31t-17.5 -8t-16.5 8.5t-16.5 30.5l-137 365z" />
    <glyph glyph-name="w" unicode="w" horiz-adv-x="722" 
d="M93 164q0 -30 9.5 -54.5t27 -41.5t41 -26.5t51.5 -9.5q66 0 102.5 41t36.5 114v249v-249q0 -73 36.5 -114t102.5 -41q28 0 51.5 9.5t40.5 26.5t27 41.5t10 54.5v272v-272q0 -30 -10 -54.5t-27 -41.5t-40.5 -26.5t-51.5 -9.5q-66 0 -102.5 41t-36.5 114v249v-249
q0 -73 -36.5 -114t-102.5 -41q-28 0 -51.5 9.5t-41 26.5t-27 41.5t-9.5 54.5v272v-272z" />
    <glyph glyph-name="x" unicode="x" horiz-adv-x="389" 
d="M52 44q33 10 59.5 30t45 46.5t28.5 57.5t10 62t-10 62t-28.5 57.5t-45 46.5t-59.5 30q33 -10 59.5 -30t45 -46.5t28.5 -57.5t10 -62t-10 -62t-28.5 -57.5t-45 -46.5t-59.5 -30zM338 44q-33 10 -59.5 30t-45 46.5t-28.5 57.5t-10 62t10 62t28.5 57.5t45 46.5t59.5 30
q-33 -10 -59.5 -30t-45 -46.5t-28.5 -57.5t-10 -62t10 -62t28.5 -57.5t45 -46.5t59.5 -30z" />
    <glyph glyph-name="y" unicode="y" horiz-adv-x="500" 
d="M250 32v-203v203zM94 192q0 -34 10 -63t29.5 -50.5t48.5 -34t68 -12.5t68 12.5t48.5 34t29.5 50.5t10 63v241v-241q0 -34 -10 -63t-29.5 -50.5t-48.5 -34t-68 -12.5t-68 12.5t-48.5 34t-29.5 50.5t-10 63v241v-241z" />
    <glyph glyph-name="z" unicode="z" horiz-adv-x="389" 
d="M104 44q-21 0 -29 9t-8 20q0 10 5.5 20t18.5 27l213 260q5 5 6 12t1 14q0 11 -10 19t-36 8h-186h186q26 0 36 -8t10 -19q0 -7 -1 -14t-6 -12l-213 -260q-13 -17 -18.5 -27t-5.5 -20q0 -11 8 -20t29 -9h216h-216z" />
    <glyph glyph-name="braceleft" unicode="{" horiz-adv-x="389" 
d="M232 656q-32 0 -54 -25.5t-22 -72.5v-156q0 -19 -5 -38.5t-15 -37t-25 -31t-34 -19.5v-23q19 -9 34 -23t25 -31t15 -36t5 -38v-159q0 -46 22 -72t54 -26h7h-7q-32 0 -54 26t-22 72v159q0 19 -5 38t-15 36t-25 31t-34 23v23q19 6 34 19.5t25 31t15 37t5 38.5v156
q0 47 22 72.5t54 25.5h7h-7z" />
    <glyph glyph-name="bar" unicode="|" horiz-adv-x="222" 
d="M111 656v-612v612z" />
    <glyph glyph-name="braceright" unicode="}" horiz-adv-x="389" 
d="M157 656q32 0 54 -25.5t22 -72.5v-156q0 -19 5 -38.5t15 -37t24.5 -31t34.5 -19.5v-23q-20 -9 -34.5 -23t-24.5 -31t-15 -36t-5 -38v-159q0 -46 -22 -72t-54 -26h-7h7q32 0 54 26t22 72v159q0 19 5 38t15 36t24.5 31t34.5 23v23q-20 6 -34.5 19.5t-24.5 31t-15 37
t-5 38.5v156q0 47 -22 72.5t-54 25.5h-7h7z" />
    <glyph glyph-name="asciitilde" unicode="~" horiz-adv-x="600" 
d="M115 251q17 20 36.5 28t42.5 8q21 0 47.5 -11t54.5 -23.5t56.5 -23.5t54.5 -11q20 0 40.5 10t37.5 27q-17 -17 -37.5 -27t-40.5 -10q-26 0 -54.5 11t-56.5 23.5t-54.5 23.5t-47.5 11q-23 0 -42.5 -8t-36.5 -28z" />
    <glyph glyph-name="quotesinglbase" unicode="&#x201a;" horiz-adv-x="222" 
d="M105 56l-23 -114z" />
    <glyph glyph-name="florin" unicode="&#x192;" 
d="M55 -182q11 -2 20.5 -2h17.5q40 0 65.5 16.5t41 42t23.5 56t13 57.5l99 538q13 69 48 105.5t88 36.5h12t16 -2q-9 2 -16 2h-12q-53 0 -88 -36.5t-48 -105.5l-99 -538q-5 -27 -13 -57.5t-23.5 -56t-41 -42t-65.5 -16.5h-17.5t-20.5 2zM456 388h-288h288z" />
    <glyph glyph-name="quotedblbase" unicode="&#x201e;" horiz-adv-x="389" 
d="M296 56l-23 -114zM111 56l-23 -114z" />
    <glyph glyph-name="ellipsis" unicode="&#x2026;" horiz-adv-x="1000" 
d="M152 53q0 7 4.5 11t10.5 4t10.5 -4t4.5 -11q0 -6 -4.5 -10.5t-10.5 -4.5t-10.5 4.5t-4.5 10.5zM485 53q0 7 4.5 11t10.5 4t10.5 -4t4.5 -11q0 -6 -4.5 -10.5t-10.5 -4.5t-10.5 4.5t-4.5 10.5zM818 53q0 7 4.5 11t10.5 4t10.5 -4t4.5 -11q0 -6 -4.5 -10.5t-10.5 -4.5
t-10.5 4.5t-4.5 10.5zM152 53q0 -6 4.5 -10.5t10.5 -4.5t10.5 4.5t4.5 10.5q0 7 -4.5 11t-10.5 4t-10.5 -4t-4.5 -11zM485 53q0 -6 4.5 -10.5t10.5 -4.5t10.5 4.5t4.5 10.5q0 7 -4.5 11t-10.5 4t-10.5 -4t-4.5 -11zM818 53q0 -6 4.5 -10.5t10.5 -4.5t10.5 4.5t4.5 10.5
q0 7 -4.5 11t-10.5 4t-10.5 -4t-4.5 -11z" />
    <glyph glyph-name="dagger" unicode="&#x2020;" horiz-adv-x="500" 
d="M250 656v-746v746zM391 476h-282h282z" />
    <glyph glyph-name="daggerdbl" unicode="&#x2021;" horiz-adv-x="500" 
d="M391 91h-282h282zM391 476h-282h282zM250 656v-746v746z" />
    <glyph glyph-name="circumflex" unicode="&#x2c6;" horiz-adv-x="278" 
d="M102 636h74l38 -54l-38 54h-74l-38 -54z" />
    <glyph glyph-name="perthousand" unicode="&#x2030;" horiz-adv-x="1000" 
d="M535 668l-408 -636zM735 152q0 26 9.5 48t26 38t38.5 25t46 9t45.5 -9t38 -25t26.5 -38t10 -48t-10 -48t-26.5 -38t-38 -25t-45.5 -9t-46 9t-38.5 25t-26 38t-9.5 48zM379 152q0 26 9.5 48t26 38t38.5 25t46 9t45.5 -9t38 -25t26.5 -38t10 -48t-10 -48t-26.5 -38t-38 -25
t-45.5 -9t-46 9t-38.5 25t-26 38t-9.5 48zM33 548q0 26 9.5 48t26 38t38.5 25t46 9t45.5 -9t38 -25t26.5 -38t10 -48t-10 -48t-26.5 -38t-38 -25t-45.5 -9t-46 9t-38.5 25t-26 38t-9.5 48zM33 548q0 26 9.5 48t26 38t38.5 25t46 9t45.5 -9t38 -25t26.5 -38t10 -48t-10 -48
t-26.5 -38t-38 -25t-45.5 -9t-46 9t-38.5 25t-26 38t-9.5 48zM735 152q0 26 9.5 48t26 38t38.5 25t46 9t45.5 -9t38 -25t26.5 -38t10 -48t-10 -48t-26.5 -38t-38 -25t-45.5 -9t-46 9t-38.5 25t-26 38t-9.5 48zM379 152q0 26 9.5 48t26 38t38.5 25t46 9t45.5 -9t38 -25
t26.5 -38t10 -48t-10 -48t-26.5 -38t-38 -25t-45.5 -9t-46 9t-38.5 25t-26 38t-9.5 48z" />
    <glyph glyph-name="Scaron" unicode="&#x160;" horiz-adv-x="500" 
d="M236 784h74l38 54l-38 -54h-74l-38 54zM68 44h205q34 0 62.5 7.5t49 24t32 43t11.5 64.5q0 47 -26 78.5t-65 55t-85 42.5t-85 41t-65 51.5t-26 74.5q0 20 5.5 43t20.5 42.5t42 32t71 12.5h185h-185q-44 0 -71 -12.5t-42 -32t-20.5 -42.5t-5.5 -43q0 -45 26 -74.5
t65 -51.5t85 -41t85 -42.5t65 -55t26 -78.5q0 -38 -11.5 -64.5t-32 -43t-49 -24t-62.5 -7.5h-205z" />
    <glyph glyph-name="guilsinglleft" unicode="&#x2039;" horiz-adv-x="333" 
d="M107 240l89 110l-89 -110l93 -110z" />
    <glyph glyph-name="OE" unicode="&#x152;" horiz-adv-x="1000" 
d="M636 362h308h-308zM944 44h-5q-63 0 -118 20t-96 59t-65 96t-24 131t27 131t70.5 96t98.5 59t112 20q-57 0 -112 -20t-98.5 -59t-70.5 -96t-27 -131t24 -131t65 -96t96 -59t118 -20h5zM48 350q0 65 22 122.5t61 101t93 69t118 25.5t118 -25.5t93 -69t61 -101t22 -122.5
t-22 -122.5t-61 -101t-93 -69t-118 -25.5t-118 25.5t-93 69t-61 101t-22 122.5zM48 350q0 -65 22 -122.5t61 -101t93 -69t118 -25.5t118 25.5t93 69t61 101t22 122.5t-22 122.5t-61 101t-93 69t-118 25.5t-118 -25.5t-93 -69t-61 -101t-22 -122.5z" />
    <glyph glyph-name="quoteleft" unicode="&#x2018;" horiz-adv-x="222" 
d="M97 656l23 -114z" />
    <glyph glyph-name="quoteright" unicode="&#x2019;" horiz-adv-x="222" 
d="M125 656l-23 -114z" />
    <glyph glyph-name="quotedblleft" unicode="&#x201c;" horiz-adv-x="389" 
d="M278 656l23 -114zM93 656l23 -114z" />
    <glyph glyph-name="quotedblright" unicode="&#x201d;" horiz-adv-x="389" 
d="M296 656l-23 -114zM111 656l-23 -114z" />
    <glyph glyph-name="bullet" unicode="&#x2022;" horiz-adv-x="500" 
d="M119 350q0 27 10 51t28 42t42 28t51 10t51 -10t42 -28t28 -42t10 -51t-10 -51t-28 -42t-42 -28t-51 -10t-51 10t-42 28t-28 42t-10 51zM119 350q0 -27 10 -51t28 -42t42 -28t51 -10t51 10t42 28t28 42t10 51t-10 51t-28 42t-42 28t-51 10t-51 -10t-42 -28t-28 -42
t-10 -51z" />
    <glyph glyph-name="endash" unicode="&#x2013;" horiz-adv-x="500" 
d="M456 240h-412h412z" />
    <glyph glyph-name="emdash" unicode="&#x2014;" horiz-adv-x="1000" 
d="M956 240h-912h912z" />
    <glyph glyph-name="tilde" unicode="&#x2dc;" horiz-adv-x="278" 
d="M5 590q11 17 27.5 25.5t33.5 8.5q18 0 35.5 -6t35.5 -13t36.5 -13t37.5 -6q18 0 33 9.5t25 23.5q-10 -14 -25 -23.5t-33 -9.5q-19 0 -37.5 6t-36.5 13t-35.5 13t-35.5 6q-17 0 -33.5 -8.5t-27.5 -25.5z" />
    <glyph glyph-name="trademark" unicode="&#x2122;" horiz-adv-x="990" 
d="M504 332v324v-324zM568 656l124 -324h16l123 324h63v-324v324h-63l-123 -324h-16l-124 324h-64h64zM220 656v-324v324zM342 656h-244h244z" />
    <glyph glyph-name="scaron" unicode="&#x161;" horiz-adv-x="444" 
d="M185 582h74l38 54l-38 -54h-74l-38 54zM274 44q51 0 77 20t26 68q0 35 -22.5 55.5t-56 33.5t-73 22.5t-73 22.5t-56 32.5t-22.5 53.5q0 27 9 43.5t24.5 25.5t35.5 12t41 3h171h-171q-21 0 -41 -3t-35.5 -12t-24.5 -25.5t-9 -43.5q0 -34 22.5 -53.5t56 -32.5t73 -22.5
t73 -22.5t56 -33.5t22.5 -55.5q0 -48 -26 -68t-77 -20h-202h202z" />
    <glyph glyph-name="guilsinglright" unicode="&#x203a;" horiz-adv-x="333" 
d="M226 240l-88 110l88 -110l-93 -110z" />
    <glyph glyph-name="oe" unicode="&#x153;" horiz-adv-x="944" 
d="M871 161q-27 -63 -71.5 -96t-121.5 -33q-45 0 -83 19t-65.5 49t-42.5 67t-15 73q0 43 13.5 80.5t40 66t66 45t91.5 16.5q61 0 109 -28.5t71 -89.5l-254 -109l254 109q-23 61 -71 89.5t-109 28.5q-52 0 -91.5 -16.5t-66 -45t-40 -66t-13.5 -80.5q0 -36 15 -73t42.5 -67
t65.5 -49t83 -19q77 0 121.5 33t71.5 96zM60 240q0 46 15 84.5t42 66t64.5 42.5t81.5 15t82.5 -15t66.5 -42.5t44 -66t16 -84.5t-16 -84.5t-44 -66t-66.5 -42.5t-82.5 -15t-81.5 15t-64.5 42.5t-42 66t-15 84.5zM60 240q0 46 15 84.5t42 66t64.5 42.5t81.5 15t82.5 -15
t66.5 -42.5t44 -66t16 -84.5t-16 -84.5t-44 -66t-66.5 -42.5t-82.5 -15t-81.5 15t-64.5 42.5t-42 66t-15 84.5z" />
    <glyph glyph-name="Ydieresis" unicode="&#x178;" horiz-adv-x="500" 
d="M345 802q0 -12 -12 -12t-12 12t12 12t12 -12zM185 802q0 -12 -12 -12t-12 12t12 12t12 -12zM250 318v-274v274zM429 656v-168q0 -43 -15 -75t-40 -53t-57.5 -31.5t-66.5 -10.5q-35 0 -67 10t-57.5 31t-40.5 53t-15 76v168v-168q0 -44 15 -76t40.5 -53t57.5 -31t67 -10
q34 0 66.5 10.5t57.5 31.5t40 53t15 75v168zM345 802q0 -12 -12 -12t-12 12t12 12t12 -12zM185 802q0 -12 -12 -12t-12 12t12 12t12 -12z" />
    <glyph glyph-name="nonbreakingspace" unicode="&#xa0;" horiz-adv-x="500" 
 />
    <glyph glyph-name="exclamdown" unicode="&#xa1;" horiz-adv-x="222" 
d="M114 -172v452v-452zM96 434q0 8 5 13t13 5t13 -5t5 -13q0 -7 -5 -12.5t-13 -5.5t-13 5.5t-5 12.5zM96 434q0 -7 5 -12.5t13 -5.5t13 5.5t5 12.5q0 8 -5 13t-13 5t-13 -5t-5 -13z" />
    <glyph glyph-name="cent" unicode="&#xa2;" 
d="M269 228q-27 0 -53.5 9.5t-48.5 28t-35.5 47t-13.5 67.5t13.5 67.5t35 47t48.5 28t54 9.5h80h-80q-27 0 -54 -9.5t-48.5 -28t-35 -47t-13.5 -67.5t13.5 -67.5t35.5 -47t48.5 -28t53.5 -9.5h80h-80zM290 656v-124v124zM290 228v-129v129z" />
    <glyph glyph-name="sterling" unicode="&#xa3;" 
d="M494 221q0 -52 -14.5 -86t-39 -54.5t-56.5 -28.5t-67 -8h-273q69 0 99.5 41.5t28.5 104.5l-7 303q-1 46 12.5 79t37 54.5t53.5 31.5t62 10q14 0 29.5 -1.5t32.5 -6.5q-17 5 -32.5 6.5t-29.5 1.5q-32 0 -62 -10t-53.5 -31.5t-37 -54.5t-12.5 -79l7 -303
q2 -63 -28.5 -104.5t-99.5 -41.5h273q35 0 67 8t56.5 28.5t39 54.5t14.5 86v56v-56zM287 366h-190h190z" />
    <glyph glyph-name="currency" unicode="&#xa4;" 
d="M80 152l56 57zM419 493l58 56zM136 492l-56 57zM477 152l-58 57zM81 350q0 42 15.5 79t42 65t62.5 44t77 16t77 -16t62.5 -44t42 -65t15.5 -79t-15.5 -79t-42 -64.5t-62.5 -44t-77 -16.5t-77 16.5t-62.5 44t-42 64.5t-15.5 79zM81 350q0 -42 15.5 -79t42 -64.5t62.5 -44
t77 -16.5t77 16.5t62.5 44t42 64.5t15.5 79t-15.5 79t-42 65t-62.5 44t-77 16t-77 -16t-62.5 -44t-42 -65t-15.5 -79z" />
    <glyph glyph-name="yen" unicode="&#xa5;" 
d="M274 44v306q0 51 15.5 101.5t44 93t69.5 72.5t93 39q-52 -9 -93 -39t-69.5 -72.5t-44 -93t-15.5 -101.5v-306zM274 44v306q0 51 -15 101.5t-43.5 93t-70 72.5t-93.5 39q52 -9 93.5 -39t70 -72.5t43.5 -93t15 -101.5v-306zM466 280h-384h384zM466 428h-384h384z" />
    <glyph glyph-name="brokenbar" unicode="&#xa6;" horiz-adv-x="222" 
d="M111 218v-174v174zM111 656v-174v174z" />
    <glyph glyph-name="section" unicode="&#xa7;" horiz-adv-x="500" 
d="M93 -45h166q68 0 99.5 25.5t31.5 63.5q0 17 -4.5 31t-17 27t-34 27.5t-55.5 33.5l-108 61q-33 18 -54.5 40t-21.5 57q0 27 18 59.5t66 56.5l51 22l-51 -22q-48 -24 -66 -56.5t-18 -59.5q0 -35 21.5 -57t54.5 -40l108 -61q34 -19 55.5 -33.5t34 -27.5t17 -27t4.5 -31
q0 -38 -31.5 -63.5t-99.5 -25.5h-166zM279 163l46 27q17 10 32 20.5t25.5 23.5t16.5 29.5t6 38.5q0 38 -20 60t-56 42l-99 55q-30 16 -51.5 30t-35.5 28t-20.5 29t-6.5 33q0 50 39.5 69.5t104.5 19.5h94h-94q-65 0 -104.5 -19.5t-39.5 -69.5q0 -18 6.5 -33t20.5 -29
t35.5 -28t51.5 -30l99 -55q36 -20 56 -42t20 -60q0 -22 -6 -38.5t-16.5 -29.5t-25.5 -23.5t-32 -20.5z" />
    <glyph glyph-name="dieresis" unicode="&#xa8;" horiz-adv-x="278" 
d="M207 600q0 12 12 12t12 -12t-12 -12t-12 12zM47 600q0 12 12 12t12 -12t-12 -12t-12 12zM47 600q0 -12 12 -12t12 12t-12 12t-12 -12zM207 600q0 -12 12 -12t12 12t-12 12t-12 -12z" />
    <glyph glyph-name="copyright" unicode="&#xa9;" horiz-adv-x="800" 
d="M554 247q-14 -29 -46.5 -53.5t-84.5 -24.5q-44 0 -77 15.5t-55.5 41.5t-34 60.5t-11.5 73.5q0 36 9.5 70t30.5 60.5t54 42.5t80 16q38 0 76.5 -17.5t58.5 -57.5q-20 40 -58.5 57.5t-76.5 17.5q-47 0 -80 -16t-54 -42.5t-30.5 -60.5t-9.5 -70q0 -39 11.5 -73.5t34 -60.5
t55.5 -41.5t77 -15.5q52 0 84.5 24.5t46.5 53.5zM77 359q0 69 25 129t69.5 104.5t105.5 70t132 25.5q69 0 129 -25t104.5 -69.5t70 -104.5t25.5 -130q0 -77 -27 -138.5t-73 -105t-105.5 -66.5t-123.5 -23q-67 0 -127.5 24.5t-106 68.5t-72 105t-26.5 135zM77 359
q0 -74 26.5 -135t72 -105t106 -68.5t127.5 -24.5q64 0 123.5 23t105.5 66.5t73 105t27 138.5q0 70 -25.5 130t-70 104.5t-104.5 69.5t-129 25q-71 0 -132 -25.5t-105.5 -70t-69.5 -104.5t-25 -129z" />
    <glyph glyph-name="ordfeminine" unicode="&#xaa;" horiz-adv-x="334" 
d="M210 446q-17 -8 -46 -8q-27 0 -50 9t-40.5 25.5t-27 39.5t-9.5 51q0 57 36 90t96 33q27 0 50 -6.5t40.5 -20t27.5 -34t10 -47.5v-116v116q0 27 -10 47.5t-27.5 34t-40.5 20t-50 6.5q-60 0 -96 -33t-36 -90q0 -28 9.5 -51t27 -39.5t40.5 -25.5t50 -9q29 0 46 8z" />
    <glyph glyph-name="guillemotleft" unicode="&#xab;" horiz-adv-x="500" 
d="M272 240l89 110l-89 -110l93 -110zM102 240l89 110l-89 -110l93 -110z" />
    <glyph glyph-name="logicalnot" unicode="&#xac;" horiz-adv-x="600" 
d="M501 339v-193v193h-397h397z" />
    <glyph glyph-name="minus" unicode="&#x2212;" horiz-adv-x="600" 
d="M502 253h-404h404z" />
    <glyph glyph-name="registered" unicode="&#xae;" horiz-adv-x="800" 
d="M302 190v349h123q67 0 92 -24t25 -65q0 -29 -9 -47t-26.5 -28t-42.5 -13.5t-57 -3.5h-105h105q32 0 57 3.5t42.5 13.5t26.5 28t9 47q0 41 -25 65t-92 24h-123v-349zM526 190l-105 168zM77 359q0 70 26 130.5t71 104.5t105.5 69t129.5 25t129 -24.5t104.5 -68.5t70 -104
t25.5 -132q0 -71 -26 -132t-70.5 -105.5t-104.5 -70t-128 -25.5q-69 0 -129.5 25.5t-105.5 70t-71 105.5t-26 132zM77 359q0 -71 26 -132t71 -105.5t105.5 -70t129.5 -25.5q68 0 128 25.5t104.5 70t70.5 105.5t26 132q0 72 -25.5 132t-70 104t-104.5 68.5t-129 24.5
t-129.5 -25t-105.5 -69t-71 -104.5t-26 -130.5z" />
    <glyph glyph-name="macron" unicode="&#xaf;" horiz-adv-x="278" 
d="M250 601h-222h222z" />
    <glyph glyph-name="degree" unicode="&#xb0;" horiz-adv-x="400" 
d="M101 610q0 26 16 42t42 16q27 0 42.5 -16t15.5 -42t-15.5 -42t-42.5 -16q-26 0 -42 16t-16 42zM101 610q0 -26 16 -42t42 -16q27 0 42.5 16t15.5 42t-15.5 42t-42.5 16q-26 0 -42 -16t-16 -42z" />
    <glyph glyph-name="plusminus" unicode="&#xb1;" horiz-adv-x="600" 
d="M300 441v-280v280zM496 301h-392h392zM496 44h-392h392z" />
    <glyph glyph-name="twosuperior" unicode="&#xb2;" horiz-adv-x="333" 
d="M94 490q-20 13 -33 33t-13 52q0 22 7.5 42t23.5 35t40 24t56 9q30 0 52 -9.5t36.5 -25t21.5 -34t7 -36.5q0 -33 -18.5 -60.5t-57.5 -56.5l-143 -103q-17 -11 -21 -15t-4 -7q0 -9 16 -9h219h-219q-16 0 -16 9q0 3 4 7t21 15l143 103q39 29 57.5 56.5t18.5 60.5
q0 18 -7 36.5t-21.5 34t-36.5 25t-52 9.5q-32 0 -56 -9t-40 -24t-23.5 -35t-7.5 -42q0 -32 13 -52t33 -33z" />
    <glyph glyph-name="threesuperior" unicode="&#xb3;" horiz-adv-x="333" 
d="M222 678q17 0 24.5 -7t7.5 -16q0 -13 -27 -36l-103 -82v-23h36q33 0 57 -8t39.5 -21t23 -30.5t7.5 -36.5q0 -26 -9 -43t-24.5 -27t-36.5 -14.5t-44 -4.5h-114h114q23 0 44 4.5t36.5 14.5t24.5 27t9 43q0 19 -7.5 36.5t-23 30.5t-39.5 21t-57 8h-36v23l103 82q27 23 27 36
q0 9 -7.5 16t-24.5 7h-152h152z" />
    <glyph glyph-name="acute" unicode="&#xb4;" horiz-adv-x="278" 
d="M183 636l-42 -54z" />
    <glyph glyph-name="mu" unicode="&#xb5;" horiz-adv-x="500" 
d="M89 436v-608v608zM89 200q0 -30 10 -60t30.5 -54t50.5 -39t70 -15t70 15t50 39t30.5 54t10.5 60v236v-236q0 -30 -10.5 -60t-30.5 -54t-50 -39t-70 -15t-70 15t-50.5 39t-30.5 54t-10 60v236v-236z" />
    <glyph glyph-name="paragraph" unicode="&#xb6;" horiz-adv-x="600" 
d="M480 -90v746h-219q-92 0 -140.5 -34.5t-48.5 -109.5q0 -25 11 -50t33 -44.5t53.5 -31.5t72.5 -12h42h-42q-41 0 -72.5 12t-53.5 31.5t-33 44.5t-11 50q0 75 48.5 109.5t140.5 34.5h219v-746zM284 656v-746v746z" />
    <glyph glyph-name="periodcentered" unicode="&#xb7;" horiz-adv-x="278" 
d="M124 240q0 6 4.5 10.5t10.5 4.5t10.5 -4.5t4.5 -10.5t-4.5 -10.5t-10.5 -4.5t-10.5 4.5t-4.5 10.5zM124 240q0 -6 4.5 -10.5t10.5 -4.5t10.5 4.5t4.5 10.5t-4.5 10.5t-10.5 4.5t-10.5 -4.5t-4.5 -10.5z" />
    <glyph glyph-name="cedilla" unicode="&#xb8;" horiz-adv-x="278" 
d="M82 -189q10 -2 20 -3t20 -1q42 0 64.5 19.5t22.5 47.5q0 22 -15.5 39t-65.5 17q-5 0 -9.5 -1t-9.5 -3l-9 10l22 30l-22 -30l9 -10q5 2 9.5 3t9.5 1q50 0 65.5 -17t15.5 -39q0 -28 -22.5 -47.5t-64.5 -19.5q-10 0 -20 1t-20 3z" />
    <glyph glyph-name="onesuperior" unicode="&#xb9;" horiz-adv-x="333" 
d="M175 678h-60h60v-349v349z" />
    <glyph glyph-name="ordmasculine" unicode="&#xba;" horiz-adv-x="334" 
d="M167 456q-48 0 -78 29t-30 77t30 77t78 29t78 -29t30 -77t-30 -77t-78 -29zM167 456q48 0 78 29t30 77t-30 77t-78 29t-78 -29t-30 -77t30 -77t78 -29z" />
    <glyph glyph-name="guillemotright" unicode="&#xbb;" horiz-adv-x="500" 
d="M228 240l-88 110l88 -110l-93 -110zM398 240l-88 110l88 -110l-93 -110z" />
    <glyph glyph-name="onequarter" unicode="&#xbc;" horiz-adv-x="834" 
d="M704 329v-285v285zM508 163q-5 -9 -7 -13t-2 -9q0 -9 4.5 -13.5t16.5 -4.5h239h-239q-12 0 -16.5 4.5t-4.5 13.5q0 5 2 9t7 13l129 213zM175 678v-349v349h-60h60zM604 668l-379 -636z" />
    <glyph glyph-name="onehalf" unicode="&#xbd;" horiz-adv-x="852" 
d="M594 205q-20 13 -33 33t-13 52q0 45 31 77.5t96 32.5q30 0 52 -9.5t36.5 -25t21.5 -34t7 -36.5q0 -33 -18.5 -60.5t-57.5 -56.5l-143 -102q-17 -12 -21 -16t-4 -7q0 -9 16 -9h219h-219q-16 0 -16 9q0 3 4 7t21 16l143 102q39 29 57.5 56.5t18.5 60.5q0 18 -7 36.5
t-21.5 34t-36.5 25t-52 9.5q-65 0 -96 -32.5t-31 -77.5q0 -32 13 -52t33 -33zM175 678h-60h60v-349v349zM592 668l-379 -636z" />
    <glyph glyph-name="threequarters" unicode="&#xbe;" horiz-adv-x="852" 
d="M242 678q17 0 24.5 -7t7.5 -16q0 -12 -27 -35l-103 -83v-23h36q33 0 57 -8t39.5 -21t23 -30.5t7.5 -36.5q0 -25 -9 -42t-24.5 -27.5t-36 -15t-44.5 -4.5h-114h114q24 0 44.5 4.5t36 15t24.5 27.5t9 42q0 19 -7.5 36.5t-23 30.5t-39.5 21t-57 8h-36v23l103 83q27 23 27 35
q0 9 -7.5 16t-24.5 7h-152h152zM724 329v-285v285zM540 123q-12 0 -16.5 4.5t-4.5 13.5q0 5 2 9t7 13l129 213l-129 -213q-5 -9 -7 -13t-2 -9q0 -9 4.5 -13.5t16.5 -4.5h239h-239zM654 668l-379 -636z" />
    <glyph glyph-name="questiondown" unicode="&#xbf;" horiz-adv-x="444" 
d="M367 -50q-6 -35 -21.5 -60t-37 -41.5t-47 -24.5t-51.5 -8q-33 0 -61.5 12.5t-50 34.5t-33.5 52t-12 65q0 44 15 75.5t39.5 51.5t55.5 29.5t63 9.5v134v-134q-32 0 -63 -9.5t-55.5 -29.5t-39.5 -51.5t-15 -75.5q0 -35 12 -65t33.5 -52t50 -34.5t61.5 -12.5q26 0 51.5 8
t47 24.5t37 41.5t21.5 60zM244 434q0 -7 -5 -12.5t-13 -5.5t-13 5.5t-5 12.5q0 8 5 13t13 5t13 -5t5 -13zM244 434q0 -7 -5 -12.5t-13 -5.5t-13 5.5t-5 12.5q0 8 5 13t13 5t13 -5t5 -13zM244 434q0 8 -5 13t-13 5t-13 -5t-5 -13q0 -7 5 -12.5t13 -5.5t13 5.5t5 12.5z
M244 434q0 8 -5 13t-13 5t-13 -5t-5 -13q0 -7 5 -12.5t13 -5.5t13 5.5t5 12.5z" />
    <glyph glyph-name="Agrave" unicode="&#xc0;" 
d="M470 362h-255h255zM470 44v403q0 103 -52 162t-140 59q-43 0 -78.5 -15.5t-60.5 -44.5t-39 -69.5t-14 -91.5v-403v403q0 51 14 91.5t39 69.5t60.5 44.5t78.5 15.5q88 0 140 -59t52 -162v-403zM234 838l42 -54z" />
    <glyph glyph-name="Aacute" unicode="&#xc1;" 
d="M470 362h-255h255zM470 44v403q0 103 -52 162t-140 59q-43 0 -78.5 -15.5t-60.5 -44.5t-39 -69.5t-14 -91.5v-403v403q0 51 14 91.5t39 69.5t60.5 44.5t78.5 15.5q88 0 140 -59t52 -162v-403zM322 838l-42 -54z" />
    <glyph glyph-name="Acircumflex" unicode="&#xc2;" 
d="M470 362h-255h255zM470 44v403q0 103 -52 162t-140 59q-43 0 -78.5 -15.5t-60.5 -44.5t-39 -69.5t-14 -91.5v-403v403q0 51 14 91.5t39 69.5t60.5 44.5t78.5 15.5q88 0 140 -59t52 -162v-403zM241 838h74l38 -54l-38 54h-74l-38 -54z" />
    <glyph glyph-name="Atilde" unicode="&#xc3;" 
d="M470 362h-255h255zM470 44v403q0 103 -52 162t-140 59q-43 0 -78.5 -15.5t-60.5 -44.5t-39 -69.5t-14 -91.5v-403v403q0 51 14 91.5t39 69.5t60.5 44.5t78.5 15.5q88 0 140 -59t52 -162v-403zM144 792q11 17 27.5 25.5t33.5 8.5q18 0 35.5 -6t35.5 -13t36.5 -13t37.5 -6
q18 0 33 9.5t25 23.5q-10 -14 -25 -23.5t-33 -9.5q-19 0 -37.5 6t-36.5 13t-35.5 13t-35.5 6q-17 0 -33.5 -8.5t-27.5 -25.5z" />
    <glyph glyph-name="Adieresis" unicode="&#xc4;" 
d="M215 362h255h-255zM470 44v403q0 103 -52 162t-140 59q-43 0 -78.5 -15.5t-60.5 -44.5t-39 -69.5t-14 -91.5v-403v403q0 51 14 91.5t39 69.5t60.5 44.5t78.5 15.5q88 0 140 -59t52 -162v-403zM346 802q0 12 12 12t12 -12t-12 -12t-12 12zM186 802q0 12 12 12t12 -12
t-12 -12t-12 12zM186 802q0 -12 12 -12t12 12t-12 12t-12 -12zM346 802q0 -12 12 -12t12 12t-12 12t-12 -12z" />
    <glyph glyph-name="Aring" unicode="&#xc5;" horiz-adv-x="565" 
d="M215 362h255h-255zM470 44v403q0 103 -52 162t-140 59q-43 0 -78.5 -15.5t-60.5 -44.5t-39 -69.5t-14 -91.5v-403v403q0 51 14 91.5t39 69.5t60.5 44.5t78.5 15.5q88 0 140 -59t52 -162v-403zM223 835q0 23 16 39t39 16t39 -16t16 -39t-16 -39t-39 -16t-39 16t-16 39z
M223 835q0 -23 16 -39t39 -16t39 16t16 39t-16 39t-39 16t-39 -16t-16 -39z" />
    <glyph glyph-name="AE" unicode="&#xc6;" horiz-adv-x="889" 
d="M205 362h607h-607zM757 44q-56 0 -108 23.5t-92.5 65.5t-65 99t-24.5 124q0 76 29.5 132t73.5 93.5t96.5 56t99.5 18.5h46h-46q-47 0 -99.5 -18.5t-96.5 -56t-73.5 -93.5t-29.5 -132q0 -67 24.5 -124t65 -99t92.5 -65.5t108 -23.5h55h-55zM74 44v403q0 46 12.5 86.5
t36.5 70.5t60.5 47t84.5 17q97 0 148 -59t51 -162v-403v403q0 103 -51 162t-148 59q-48 0 -84.5 -17t-60.5 -47t-36.5 -70.5t-12.5 -86.5v-403z" />
    <glyph glyph-name="Ccedilla" unicode="&#xc7;" horiz-adv-x="500" 
d="M286 -189q10 -2 20 -3t20 -1q42 0 64.5 19.5t22.5 47.5q0 22 -15.5 39t-65.5 17q-5 0 -9.5 -1t-9.5 -3l-9 10l80 108l-80 -108l9 -10q5 2 9.5 3t9.5 1q50 0 65.5 -17t15.5 -39q0 -28 -22.5 -47.5t-64.5 -19.5q-10 0 -20 1t-20 3zM420 44h-56q-54 0 -106 20t-93.5 59
t-66.5 96t-25 131q0 55 21 110t61.5 98.5t101 70.5t138.5 27h25h-25q-78 0 -138.5 -27t-101 -70.5t-61.5 -98.5t-21 -110q0 -74 25 -131t66.5 -96t93.5 -59t106 -20h56z" />
    <glyph glyph-name="Egrave" unicode="&#xc8;" horiz-adv-x="500" 
d="M415 362h-347h347zM360 44q-56 0 -108.5 23.5t-93.5 65.5t-65.5 99t-24.5 124q0 76 29.5 132t74 93.5t97.5 56t100 18.5h46h-46q-47 0 -100 -18.5t-97.5 -56t-74 -93.5t-29.5 -132q0 -67 24.5 -124t65.5 -99t93.5 -65.5t108.5 -23.5h55h-55zM293 838l42 -54z" />
    <glyph glyph-name="Eacute" unicode="&#xc9;" horiz-adv-x="500" 
d="M414 362h-347h347zM359 44q-56 0 -108.5 23.5t-93.5 65.5t-65.5 99t-24.5 124q0 76 29.5 132t74 93.5t97.5 56t100 18.5h46h-46q-47 0 -100 -18.5t-97.5 -56t-74 -93.5t-29.5 -132q0 -67 24.5 -124t65.5 -99t93.5 -65.5t108.5 -23.5h55h-55zM380 838l-42 -54z" />
    <glyph glyph-name="Ecircumflex" unicode="&#xca;" horiz-adv-x="500" 
d="M415 362h-347h347zM360 44q-56 0 -108.5 23.5t-93.5 65.5t-65.5 99t-24.5 124q0 76 29.5 132t74 93.5t97.5 56t100 18.5h46h-46q-47 0 -100 -18.5t-97.5 -56t-74 -93.5t-29.5 -132q0 -67 24.5 -124t65.5 -99t93.5 -65.5t108.5 -23.5h55h-55zM300 838h74l38 -54l-38 54
h-74l-38 -54z" />
    <glyph glyph-name="Edieresis" unicode="&#xcb;" horiz-adv-x="500" 
d="M68 362h347h-347zM415 44h-55q-56 0 -108.5 23.5t-93.5 65.5t-65.5 99t-24.5 124q0 76 29.5 132t74 93.5t97.5 56t100 18.5h46h-46q-47 0 -100 -18.5t-97.5 -56t-74 -93.5t-29.5 -132q0 -67 24.5 -124t65.5 -99t93.5 -65.5t108.5 -23.5h55zM405 802q0 12 12 12t12 -12
t-12 -12t-12 12zM245 802q0 12 12 12t12 -12t-12 -12t-12 12zM245 802q0 -12 12 -12t12 12t-12 12t-12 -12zM405 802q0 -12 12 -12t12 12t-12 12t-12 -12z" />
    <glyph glyph-name="Igrave" unicode="&#xcc;" horiz-adv-x="222" 
d="M111 656v-612v612zM61 838l42 -54z" />
    <glyph glyph-name="Iacute" unicode="&#xcd;" horiz-adv-x="222" 
d="M111 656v-612v612zM149 838l-42 -54z" />
    <glyph glyph-name="Icircumflex" unicode="&#xce;" horiz-adv-x="222" 
d="M111 656v-612v612zM68 838h74l38 -54l-38 54h-74l-38 -54z" />
    <glyph glyph-name="Idieresis" unicode="&#xcf;" horiz-adv-x="222" 
d="M111 44v612v-612zM173 802q0 12 12 12t12 -12t-12 -12t-12 12zM13 802q0 12 12 12t12 -12t-12 -12t-12 12zM13 802q0 -12 12 -12t12 12t-12 12t-12 -12zM173 802q0 -12 12 -12t12 12t-12 12t-12 -12z" />
    <glyph glyph-name="Eth" unicode="&#xd0;" horiz-adv-x="611" 
d="M276 362h-252h252zM237 44q55 0 107 21t92.5 60.5t65.5 96t25 128.5t-25 128.5t-67.5 96t-98 60.5t-116.5 21h-117v-612v612h117q61 0 116.5 -21t98 -60.5t67.5 -96t25 -128.5t-25 -128.5t-65.5 -96t-92.5 -60.5t-107 -21h-3h3z" />
    <glyph glyph-name="Ntilde" unicode="&#xd1;" horiz-adv-x="611" 
d="M97 597q0 22 3 35t8.5 19.5t11.5 8.5t12 2t12 -2t12.5 -9.5t15.5 -22t21 -39.5l237 -489q11 -23 18.5 -35.5t13.5 -18.5t12 -7t14 -1q5 0 9.5 2t8 8t5.5 18.5t2 33.5v556v-556q0 -21 -2 -33.5t-5.5 -18.5t-8 -8t-9.5 -2q-8 0 -14 1t-12 7t-13.5 18.5t-18.5 35.5l-237 489
q-12 25 -21 39.5t-15.5 22t-12.5 9.5t-12 2t-12 -2t-11.5 -8.5t-8.5 -19.5t-3 -35v-553v553zM184 792q11 17 27.5 25.5t33.5 8.5q18 0 35.5 -6t35.5 -13t36.5 -13t37.5 -6q18 0 33 9.5t25 23.5q-10 -14 -25 -23.5t-33 -9.5q-19 0 -37.5 6t-36.5 13t-35.5 13t-35.5 6
q-17 0 -33.5 -8.5t-27.5 -25.5z" />
    <glyph glyph-name="Ograve" unicode="&#xd2;" horiz-adv-x="778" 
d="M72 350q0 65 24 122.5t66 101t100 69t127 25.5t127 -25.5t100 -69t66 -101t24 -122.5t-24 -122.5t-66 -101t-100 -69t-127 -25.5t-127 25.5t-100 69t-66 101t-24 122.5zM72 350q0 65 24 122.5t66 101t100 69t127 25.5t127 -25.5t100 -69t66 -101t24 -122.5t-24 -122.5
t-66 -101t-100 -69t-127 -25.5t-127 25.5t-100 69t-66 101t-24 122.5zM345 838l42 -54z" />
    <glyph glyph-name="Oacute" unicode="&#xd3;" horiz-adv-x="778" 
d="M72 350q0 65 24 122.5t66 101t100 69t127 25.5t127 -25.5t100 -69t66 -101t24 -122.5t-24 -122.5t-66 -101t-100 -69t-127 -25.5t-127 25.5t-100 69t-66 101t-24 122.5zM72 350q0 65 24 122.5t66 101t100 69t127 25.5t127 -25.5t100 -69t66 -101t24 -122.5t-24 -122.5
t-66 -101t-100 -69t-127 -25.5t-127 25.5t-100 69t-66 101t-24 122.5zM433 838l-42 -54z" />
    <glyph glyph-name="Ocircumflex" unicode="&#xd4;" horiz-adv-x="778" 
d="M72 350q0 65 24 122.5t66 101t100 69t127 25.5t127 -25.5t100 -69t66 -101t24 -122.5t-24 -122.5t-66 -101t-100 -69t-127 -25.5t-127 25.5t-100 69t-66 101t-24 122.5zM72 350q0 65 24 122.5t66 101t100 69t127 25.5t127 -25.5t100 -69t66 -101t24 -122.5t-24 -122.5
t-66 -101t-100 -69t-127 -25.5t-127 25.5t-100 69t-66 101t-24 122.5zM352 838h74l38 -54l-38 54h-74l-38 -54z" />
    <glyph glyph-name="Otilde" unicode="&#xd5;" horiz-adv-x="778" 
d="M72 350q0 65 24 122.5t66 101t100 69t127 25.5t127 -25.5t100 -69t66 -101t24 -122.5t-24 -122.5t-66 -101t-100 -69t-127 -25.5t-127 25.5t-100 69t-66 101t-24 122.5zM72 350q0 65 24 122.5t66 101t100 69t127 25.5t127 -25.5t100 -69t66 -101t24 -122.5t-24 -122.5
t-66 -101t-100 -69t-127 -25.5t-127 25.5t-100 69t-66 101t-24 122.5zM255 792q11 17 27.5 25.5t33.5 8.5q18 0 35.5 -6t35.5 -13t36.5 -13t37.5 -6q18 0 33 9.5t25 23.5q-10 -14 -25 -23.5t-33 -9.5q-19 0 -37.5 6t-36.5 13t-35.5 13t-35.5 6q-17 0 -33.5 -8.5t-27.5 -25.5
z" />
    <glyph glyph-name="Odieresis" unicode="&#xd6;" horiz-adv-x="778" 
d="M72 350q0 65 24 122.5t66 101t100 69t127 25.5t127 -25.5t100 -69t66 -101t24 -122.5t-24 -122.5t-66 -101t-100 -69t-127 -25.5t-127 25.5t-100 69t-66 101t-24 122.5zM72 350q0 -65 24 -122.5t66 -101t100 -69t127 -25.5t127 25.5t100 69t66 101t24 122.5t-24 122.5
t-66 101t-100 69t-127 25.5t-127 -25.5t-100 -69t-66 -101t-24 -122.5zM457 802q0 12 12 12t12 -12t-12 -12t-12 12zM297 802q0 12 12 12t12 -12t-12 -12t-12 12zM297 802q0 -12 12 -12t12 12t-12 12t-12 -12zM457 802q0 -12 12 -12t12 12t-12 12t-12 -12z" />
    <glyph glyph-name="multiply" unicode="&#xd7;" horiz-adv-x="600" 
d="M481 421l-362 -362zM119 421l362 -362z" />
    <glyph glyph-name="Oslash" unicode="&#xd8;" horiz-adv-x="778" 
d="M72 350q0 65 24 122.5t66 101t100 69t127 25.5t127 -25.5t100 -69t66 -101t24 -122.5t-24 -122.5t-66 -101t-100 -69t-127 -25.5t-127 25.5t-100 69t-66 101t-24 122.5zM80 32l618 636zM72 350q0 -65 24 -122.5t66 -101t100 -69t127 -25.5t127 25.5t100 69t66 101
t24 122.5t-24 122.5t-66 101t-100 69t-127 25.5t-127 -25.5t-100 -69t-66 -101t-24 -122.5z" />
    <glyph glyph-name="Ugrave" unicode="&#xd9;" 
d="M93 656v-403q0 -51 13.5 -92t37.5 -69.5t58 -44t76 -15.5t76 15.5t58 44t37 69.5t13 92v403v-403q0 -51 -13 -92t-37 -69.5t-58 -44t-76 -15.5t-76 15.5t-58 44t-37.5 69.5t-13.5 92v403zM234 838l42 -54z" />
    <glyph glyph-name="Uacute" unicode="&#xda;" 
d="M93 656v-403q0 -51 13.5 -92t37.5 -69.5t58 -44t76 -15.5t76 15.5t58 44t37 69.5t13 92v403v-403q0 -51 -13 -92t-37 -69.5t-58 -44t-76 -15.5t-76 15.5t-58 44t-37.5 69.5t-13.5 92v403zM322 838l-42 -54z" />
    <glyph glyph-name="Ucircumflex" unicode="&#xdb;" 
d="M93 656v-403q0 -51 13.5 -92t37.5 -69.5t58 -44t76 -15.5t76 15.5t58 44t37 69.5t13 92v403v-403q0 -51 -13 -92t-37 -69.5t-58 -44t-76 -15.5t-76 15.5t-58 44t-37.5 69.5t-13.5 92v403zM241 838h74l38 -54l-38 54h-74l-38 -54z" />
    <glyph glyph-name="Udieresis" unicode="&#xdc;" 
d="M93 656v-403q0 -51 13.5 -92t37.5 -69.5t58 -44t76 -15.5t76 15.5t58 44t37 69.5t13 92v403v-403q0 -51 -13 -92t-37 -69.5t-58 -44t-76 -15.5t-76 15.5t-58 44t-37.5 69.5t-13.5 92v403zM346 802q0 12 12 12t12 -12t-12 -12t-12 12zM186 802q0 12 12 12t12 -12t-12 -12
t-12 12zM186 802q0 -12 12 -12t12 12t-12 12t-12 -12zM346 802q0 -12 12 -12t12 12t-12 12t-12 -12z" />
    <glyph glyph-name="Yacute" unicode="&#xdd;" horiz-adv-x="500" 
d="M250 318v-274v274zM70 488q0 -44 15 -76t40.5 -53t57.5 -31t67 -10q34 0 66.5 10.5t57.5 31.5t40 53t15 75v168v-168q0 -43 -15 -75t-40 -53t-57.5 -31.5t-66.5 -10.5q-35 0 -67 10t-57.5 31t-40.5 53t-15 76v168v-168zM317 838l-42 -54z" />
    <glyph glyph-name="Thorn" unicode="&#xde;" horiz-adv-x="500" 
d="M280 182q41 0 72.5 15.5t52.5 40.5t32 57t11 66q0 32 -11.5 64.5t-34 58.5t-57 42t-80.5 16q-35 0 -67 -11.5t-57 -35.5t-39.5 -59.5t-14.5 -83.5q0 48 14.5 83.5t39.5 59.5t57 35.5t67 11.5q46 0 80.5 -16t57 -42t34 -58.5t11.5 -64.5q0 -34 -11 -66t-32 -57
t-52.5 -40.5t-72.5 -15.5h-65h65zM87 656v-612v612z" />
    <glyph glyph-name="germandbls" unicode="&#xdf;" horiz-adv-x="611" 
d="M154 418h-92h92zM276 44h99q40 0 69.5 12.5t48 32.5t27.5 44.5t9 49.5q0 45 -16.5 76.5t-41.5 53t-54.5 36t-54.5 25t-41.5 20t-16.5 20.5t8.5 19t21.5 15t28.5 15t28.5 20t21.5 29t8.5 41q0 20 -7 38.5t-22 33t-38.5 23t-57.5 8.5q-41 0 -68 -13t-43.5 -34t-23.5 -47
t-7 -51v-467v467q0 25 7 51t23.5 47t43.5 34t68 13q34 0 57.5 -8.5t38.5 -23t22 -33t7 -38.5q0 -25 -8.5 -41.5t-21.5 -28.5t-28.5 -20t-28.5 -15t-21.5 -15t-8.5 -19q0 -12 16.5 -21t41.5 -19.5t54.5 -25t54.5 -36t41.5 -53t16.5 -76.5q0 -25 -9 -49.5t-27.5 -44.5
t-48 -32.5t-69.5 -12.5h-99z" />
    <glyph glyph-name="agrave" unicode="&#xe0;" 
d="M348 51q-31 -19 -75 -19t-81.5 15.5t-64.5 43.5t-42 66.5t-15 84.5t15 84t42 65.5t64.5 43t81.5 15.5t80.5 -13.5t63 -37.5t41 -58t14.5 -75v-222v222q0 41 -14.5 75t-41 58t-63 37.5t-80.5 13.5t-81.5 -15.5t-64.5 -43t-42 -65.5t-15 -84t15 -84.5t42 -66.5t64.5 -43.5
t81.5 -15.5t75 19zM234 636l42 -54z" />
    <glyph glyph-name="aacute" unicode="&#xe1;" 
d="M348 51q-31 -19 -75 -19t-81.5 15.5t-64.5 43.5t-42 66.5t-15 84.5t15 84t42 65.5t64.5 43t81.5 15.5t80.5 -13.5t63 -37.5t41 -58t14.5 -75v-222v222q0 41 -14.5 75t-41 58t-63 37.5t-80.5 13.5t-81.5 -15.5t-64.5 -43t-42 -65.5t-15 -84t15 -84.5t42 -66.5t64.5 -43.5
t81.5 -15.5t75 19zM322 636l-42 -54z" />
    <glyph glyph-name="acircumflex" unicode="&#xe2;" 
d="M348 51q-31 -19 -75 -19t-81.5 15.5t-64.5 43.5t-42 66.5t-15 84.5t15 84t42 65.5t64.5 43t81.5 15.5t80.5 -13.5t63 -37.5t41 -58t14.5 -75v-222v222q0 41 -14.5 75t-41 58t-63 37.5t-80.5 13.5t-81.5 -15.5t-64.5 -43t-42 -65.5t-15 -84t15 -84.5t42 -66.5t64.5 -43.5
t81.5 -15.5t75 19zM241 636h74l38 -54l-38 54h-74l-38 -54z" />
    <glyph glyph-name="atilde" unicode="&#xe3;" 
d="M348 51q-31 -19 -75 -19t-81.5 15.5t-64.5 43.5t-42 66.5t-15 84.5t15 84t42 65.5t64.5 43t81.5 15.5t80.5 -13.5t63 -37.5t41 -58t14.5 -75v-222v222q0 41 -14.5 75t-41 58t-63 37.5t-80.5 13.5t-81.5 -15.5t-64.5 -43t-42 -65.5t-15 -84t15 -84.5t42 -66.5t64.5 -43.5
t81.5 -15.5t75 19zM144 590q11 17 27.5 25.5t33.5 8.5q18 0 35.5 -6t35.5 -13t36.5 -13t37.5 -6q18 0 33 9.5t25 23.5q-10 -14 -25 -23.5t-33 -9.5q-19 0 -37.5 6t-36.5 13t-35.5 13t-35.5 6q-17 0 -33.5 -8.5t-27.5 -25.5z" />
    <glyph glyph-name="adieresis" unicode="&#xe4;" 
d="M348 51q-31 -19 -75 -19t-81.5 15.5t-64.5 43.5t-42 66.5t-15 84.5t15 84t42 65.5t64.5 43t81.5 15.5t80.5 -13.5t63 -37.5t41 -58t14.5 -75v-222v222q0 41 -14.5 75t-41 58t-63 37.5t-80.5 13.5t-81.5 -15.5t-64.5 -43t-42 -65.5t-15 -84t15 -84.5t42 -66.5t64.5 -43.5
t81.5 -15.5t75 19zM346 600q0 12 12 12t12 -12t-12 -12t-12 12zM186 600q0 12 12 12t12 -12t-12 -12t-12 12zM186 600q0 -12 12 -12t12 12t-12 12t-12 -12zM346 600q0 -12 12 -12t12 12t-12 12t-12 -12z" />
    <glyph glyph-name="aring" unicode="&#xe5;" 
d="M348 51q-31 -19 -75 -19t-81.5 15.5t-64.5 43.5t-42 66.5t-15 84.5t15 84t42 65.5t64.5 43t81.5 15.5t80.5 -13.5t63 -37.5t41 -58t14.5 -75v-222v222q0 41 -14.5 75t-41 58t-63 37.5t-80.5 13.5t-81.5 -15.5t-64.5 -43t-42 -65.5t-15 -84t15 -84.5t42 -66.5t64.5 -43.5
t81.5 -15.5t75 19zM218 660q0 23 16 39t39 16t39 -16t16 -39t-16 -39t-39 -16t-39 16t-16 39zM218 660q0 -23 16 -39t39 -16t39 16t16 39t-16 39t-39 16t-39 -16t-16 -39z" />
    <glyph glyph-name="ae" unicode="&#xe6;" horiz-adv-x="889" 
d="M407 322q-77 -9 -140.5 -25.5t-108.5 -40.5t-70 -54.5t-25 -66.5q0 -21 7 -39.5t23.5 -33t43 -22.5t65.5 -8q53 0 93.5 18t68 47t41.5 66t14 76q0 102 -53.5 155.5t-143.5 53.5q-39 0 -72 -8t-64 -21q31 13 64 21t72 8q90 0 143.5 -53.5t53.5 -155.5q0 -39 -14 -76
t-41.5 -66t-68 -47t-93.5 -18q-39 0 -65.5 8t-43 22.5t-23.5 33t-7 39.5q0 36 25 66.5t70 54.5t108.5 40.5t140.5 25.5zM559 237l236 99q-6 13 -18 32.5t-33 37t-52.5 30t-77.5 12.5q-44 0 -80 -18t-61.5 -47t-39.5 -66.5t-14 -77.5q0 -39 14.5 -76t42 -66t66.5 -47t87 -18
q60 0 108 29.5t76 91.5q-28 -62 -76 -91.5t-108 -29.5q-48 0 -87 18t-66.5 47t-42 66t-14.5 76q0 40 14 77.5t39.5 66.5t61.5 47t80 18q46 0 77.5 -12.5t52.5 -30t33 -37t18 -32.5z" />
    <glyph glyph-name="ccedilla" unicode="&#xe7;" horiz-adv-x="389" 
d="M182 -189q10 -2 20 -3t20 -1q42 0 64.5 19.5t22.5 47.5q0 10 -3 20t-12 18t-25 12.5t-41 4.5q-11 0 -19 -4l-9 10l80 109l-80 -109l9 -10q8 4 19 4q25 0 41 -4.5t25 -12.5t12 -18t3 -20q0 -28 -22.5 -47.5t-64.5 -19.5q-10 0 -20 1t-20 3zM310 44h-32q-42 0 -79 14
t-64.5 39.5t-43.5 62t-16 80.5t16.5 80.5t43.5 62.5t61 40.5t70 14.5h44h-44q-36 0 -70 -14.5t-61 -40.5t-43.5 -62.5t-16.5 -80.5t16 -80.5t43.5 -62t64.5 -39.5t79 -14h32z" />
    <glyph glyph-name="egrave" unicode="&#xe8;" 
d="M475 176q-21 -71 -72.5 -107.5t-123.5 -36.5q-44 0 -81.5 15t-64.5 42.5t-42.5 66t-15.5 84.5t15.5 84.5t42.5 66t64.5 42.5t81.5 15q59 0 106.5 -27t64.5 -72l-242 -134l242 134q-17 45 -64.5 72t-106.5 27q-44 0 -81.5 -15t-64.5 -42.5t-42.5 -66t-15.5 -84.5
t15.5 -84.5t42.5 -66t64.5 -42.5t81.5 -15q72 0 123.5 36.5t72.5 107.5zM234 636l42 -54z" />
    <glyph glyph-name="eacute" unicode="&#xe9;" 
d="M475 176q-21 -71 -72.5 -107.5t-123.5 -36.5q-44 0 -81.5 15t-64.5 42.5t-42.5 66t-15.5 84.5t15.5 84.5t42.5 66t64.5 42.5t81.5 15q59 0 106.5 -27t64.5 -72l-242 -134l242 134q-17 45 -64.5 72t-106.5 27q-44 0 -81.5 -15t-64.5 -42.5t-42.5 -66t-15.5 -84.5
t15.5 -84.5t42.5 -66t64.5 -42.5t81.5 -15q72 0 123.5 36.5t72.5 107.5zM322 636l-42 -54z" />
    <glyph glyph-name="ecircumflex" unicode="&#xea;" 
d="M475 176q-21 -71 -72.5 -107.5t-123.5 -36.5q-44 0 -81.5 15t-64.5 42.5t-42.5 66t-15.5 84.5t15.5 84.5t42.5 66t64.5 42.5t81.5 15q59 0 106.5 -27t64.5 -72l-242 -134l242 134q-17 45 -64.5 72t-106.5 27q-44 0 -81.5 -15t-64.5 -42.5t-42.5 -66t-15.5 -84.5
t15.5 -84.5t42.5 -66t64.5 -42.5t81.5 -15q72 0 123.5 36.5t72.5 107.5zM241 636h74l38 -54l-38 54h-74l-38 -54z" />
    <glyph glyph-name="edieresis" unicode="&#xeb;" 
d="M475 176q-21 -71 -72.5 -107.5t-123.5 -36.5q-44 0 -81.5 15t-64.5 42.5t-42.5 66t-15.5 84.5t15.5 84.5t42.5 66t64.5 42.5t81.5 15q59 0 106.5 -27t64.5 -72l-242 -134l242 134q-17 45 -64.5 72t-106.5 27q-44 0 -81.5 -15t-64.5 -42.5t-42.5 -66t-15.5 -84.5
t15.5 -84.5t42.5 -66t64.5 -42.5t81.5 -15q72 0 123.5 36.5t72.5 107.5zM346 600q0 12 12 12t12 -12t-12 -12t-12 12zM186 600q0 12 12 12t12 -12t-12 -12t-12 12zM186 600q0 -12 12 -12t12 12t-12 12t-12 -12zM346 600q0 -12 12 -12t12 12t-12 12t-12 -12z" />
    <glyph glyph-name="igrave" unicode="&#xec;" horiz-adv-x="278" 
d="M95 636l42 -54zM139 436v-392v392z" />
    <glyph glyph-name="iacute" unicode="&#xed;" horiz-adv-x="278" 
d="M183 636l-42 -54zM139 436v-392v392z" />
    <glyph glyph-name="icircumflex" unicode="&#xee;" horiz-adv-x="278" 
d="M102 636h74l38 -54l-38 54h-74l-38 -54zM139 436v-392v392z" />
    <glyph glyph-name="idieresis" unicode="&#xef;" horiz-adv-x="278" 
d="M207 600q0 12 12 12t12 -12t-12 -12t-12 12zM47 600q0 12 12 12t12 -12t-12 -12t-12 12zM139 44v392v-392zM47 600q0 -12 12 -12t12 12t-12 12t-12 -12zM207 600q0 -12 12 -12t12 12t-12 12t-12 -12z" />
    <glyph glyph-name="eth" unicode="&#xf0;" 
d="M311 446q-9 1 -17 1.5t-16 0.5q-42 0 -79 -14t-64.5 -41t-43.5 -65.5t-16 -87.5q0 -51 17 -89.5t45.5 -65t65 -40t75.5 -13.5q38 0 74.5 13.5t65 42t46 73t17.5 107.5q0 61 -21 120.5t-57 111.5t-84 95t-102 71q54 -28 102 -71t84 -95t57 -111.5t21 -120.5
q0 -63 -17.5 -107.5t-46 -73t-65 -42t-74.5 -13.5q-39 0 -75.5 13.5t-65 40t-45.5 65t-17 89.5q0 49 16 87.5t43.5 65.5t64.5 41t79 14q8 0 16 -0.5t17 -1.5zM398 658l-193 -102z" />
    <glyph glyph-name="ntilde" unicode="&#xf1;" horiz-adv-x="500" 
d="M89 280q0 30 10 60.5t30.5 54.5t50.5 39t70 15t70 -15t50 -39t30.5 -54.5t10.5 -60.5v-236v236q0 30 -10.5 60.5t-30.5 54.5t-50 39t-70 15t-70 -15t-50.5 -39t-30.5 -54.5t-10 -60.5v-236v236zM116 590q11 17 27.5 25.5t33.5 8.5q18 0 35.5 -6t35.5 -13t36.5 -13
t37.5 -6q18 0 33 9.5t25 23.5q-10 -14 -25 -23.5t-33 -9.5q-19 0 -37.5 6t-36.5 13t-35.5 13t-35.5 6q-17 0 -33.5 -8.5t-27.5 -25.5z" />
    <glyph glyph-name="ograve" unicode="&#xf2;" 
d="M75 240q0 46 15 84.5t42 66t64.5 42.5t81.5 15t81.5 -15t64.5 -42.5t42 -66t15 -84.5t-15 -84.5t-42 -66t-64.5 -42.5t-81.5 -15t-81.5 15t-64.5 42.5t-42 66t-15 84.5zM75 240q0 46 15 84.5t42 66t64.5 42.5t81.5 15t81.5 -15t64.5 -42.5t42 -66t15 -84.5t-15 -84.5
t-42 -66t-64.5 -42.5t-81.5 -15t-81.5 15t-64.5 42.5t-42 66t-15 84.5zM234 636l42 -54z" />
    <glyph glyph-name="oacute" unicode="&#xf3;" 
d="M75 240q0 46 15 84.5t42 66t64.5 42.5t81.5 15t81.5 -15t64.5 -42.5t42 -66t15 -84.5t-15 -84.5t-42 -66t-64.5 -42.5t-81.5 -15t-81.5 15t-64.5 42.5t-42 66t-15 84.5zM75 240q0 46 15 84.5t42 66t64.5 42.5t81.5 15t81.5 -15t64.5 -42.5t42 -66t15 -84.5t-15 -84.5
t-42 -66t-64.5 -42.5t-81.5 -15t-81.5 15t-64.5 42.5t-42 66t-15 84.5zM322 636l-42 -54z" />
    <glyph glyph-name="ocircumflex" unicode="&#xf4;" 
d="M75 240q0 46 15 84.5t42 66t64.5 42.5t81.5 15t81.5 -15t64.5 -42.5t42 -66t15 -84.5t-15 -84.5t-42 -66t-64.5 -42.5t-81.5 -15t-81.5 15t-64.5 42.5t-42 66t-15 84.5zM75 240q0 46 15 84.5t42 66t64.5 42.5t81.5 15t81.5 -15t64.5 -42.5t42 -66t15 -84.5t-15 -84.5
t-42 -66t-64.5 -42.5t-81.5 -15t-81.5 15t-64.5 42.5t-42 66t-15 84.5zM241 636h74l38 -54l-38 54h-74l-38 -54z" />
    <glyph glyph-name="otilde" unicode="&#xf5;" 
d="M75 240q0 46 15 84.5t42 66t64.5 42.5t81.5 15t81.5 -15t64.5 -42.5t42 -66t15 -84.5t-15 -84.5t-42 -66t-64.5 -42.5t-81.5 -15t-81.5 15t-64.5 42.5t-42 66t-15 84.5zM75 240q0 46 15 84.5t42 66t64.5 42.5t81.5 15t81.5 -15t64.5 -42.5t42 -66t15 -84.5t-15 -84.5
t-42 -66t-64.5 -42.5t-81.5 -15t-81.5 15t-64.5 42.5t-42 66t-15 84.5zM144 590q11 17 27.5 25.5t33.5 8.5q18 0 35.5 -6t35.5 -13t36.5 -13t37.5 -6q18 0 33 9.5t25 23.5q-10 -14 -25 -23.5t-33 -9.5q-19 0 -37.5 6t-36.5 13t-35.5 13t-35.5 6q-17 0 -33.5 -8.5
t-27.5 -25.5z" />
    <glyph glyph-name="odieresis" unicode="&#xf6;" 
d="M75 240q0 46 15 84.5t42 66t64.5 42.5t81.5 15t81.5 -15t64.5 -42.5t42 -66t15 -84.5t-15 -84.5t-42 -66t-64.5 -42.5t-81.5 -15t-81.5 15t-64.5 42.5t-42 66t-15 84.5zM75 240q0 -46 15 -84.5t42 -66t64.5 -42.5t81.5 -15t81.5 15t64.5 42.5t42 66t15 84.5t-15 84.5
t-42 66t-64.5 42.5t-81.5 15t-81.5 -15t-64.5 -42.5t-42 -66t-15 -84.5zM346 600q0 12 12 12t12 -12t-12 -12t-12 12zM186 600q0 12 12 12t12 -12t-12 -12t-12 12zM186 600q0 -12 12 -12t12 12t-12 12t-12 -12zM346 600q0 -12 12 -12t12 12t-12 12t-12 -12z" />
    <glyph glyph-name="divide" unicode="&#xf7;" horiz-adv-x="600" 
d="M104 240h392h-392zM276 436q0 10 6.5 17t17.5 7t17.5 -7t6.5 -17q0 -9 -6.5 -16.5t-17.5 -7.5t-17.5 7.5t-6.5 16.5zM276 44q0 9 6.5 16.5t17.5 7.5t17.5 -7.5t6.5 -16.5t-6.5 -16.5t-17.5 -7.5t-17.5 7.5t-6.5 16.5zM276 436q0 -9 6.5 -16.5t17.5 -7.5t17.5 7.5
t6.5 16.5q0 10 -6.5 17t-17.5 7t-17.5 -7t-6.5 -17zM276 44q0 -9 6.5 -16.5t17.5 -7.5t17.5 7.5t6.5 16.5t-6.5 16.5t-17.5 7.5t-17.5 -7.5t-6.5 -16.5z" />
    <glyph glyph-name="oslash" unicode="&#xf8;" 
d="M75 240q0 46 15 84.5t42 66t64.5 42.5t81.5 15t81.5 -15t64.5 -42.5t42 -66t15 -84.5t-15 -84.5t-42 -66t-64.5 -42.5t-81.5 -15t-81.5 15t-64.5 42.5t-42 66t-15 84.5zM79 34l398 412zM75 240q0 -46 15 -84.5t42 -66t64.5 -42.5t81.5 -15t81.5 15t64.5 42.5t42 66
t15 84.5t-15 84.5t-42 66t-64.5 42.5t-81.5 15t-81.5 -15t-64.5 -42.5t-42 -66t-15 -84.5z" />
    <glyph glyph-name="ugrave" unicode="&#xf9;" horiz-adv-x="500" 
d="M89 200q0 -30 10 -60t30.5 -54t50.5 -39t70 -15t70 15t50 39t30.5 54t10.5 60v236v-236q0 -30 -10.5 -60t-30.5 -54t-50 -39t-70 -15t-70 15t-50.5 39t-30.5 54t-10 60v236v-236zM206 636l42 -54z" />
    <glyph glyph-name="uacute" unicode="&#xfa;" horiz-adv-x="500" 
d="M89 200q0 -30 10 -60t30.5 -54t50.5 -39t70 -15t70 15t50 39t30.5 54t10.5 60v236v-236q0 -30 -10.5 -60t-30.5 -54t-50 -39t-70 -15t-70 15t-50.5 39t-30.5 54t-10 60v236v-236zM294 636l-42 -54z" />
    <glyph glyph-name="ucircumflex" unicode="&#xfb;" horiz-adv-x="500" 
d="M89 200q0 -30 10 -60t30.5 -54t50.5 -39t70 -15t70 15t50 39t30.5 54t10.5 60v236v-236q0 -30 -10.5 -60t-30.5 -54t-50 -39t-70 -15t-70 15t-50.5 39t-30.5 54t-10 60v236v-236zM213 636h74l38 -54l-38 54h-74l-38 -54z" />
    <glyph glyph-name="udieresis" unicode="&#xfc;" horiz-adv-x="500" 
d="M89 436v-236q0 -30 10 -60t30.5 -54t50.5 -39t70 -15t70 15t50 39t30.5 54t10.5 60v236v-236q0 -30 -10.5 -60t-30.5 -54t-50 -39t-70 -15t-70 15t-50.5 39t-30.5 54t-10 60v236zM318 600q0 12 12 12t12 -12t-12 -12t-12 12zM158 600q0 12 12 12t12 -12t-12 -12t-12 12z
M158 600q0 -12 12 -12t12 12t-12 12t-12 -12zM318 600q0 -12 12 -12t12 12t-12 12t-12 -12z" />
    <glyph glyph-name="yacute" unicode="&#xfd;" horiz-adv-x="500" 
d="M250 32v-203v203zM94 192q0 -34 10 -63t29.5 -50.5t48.5 -34t68 -12.5t68 12.5t48.5 34t29.5 50.5t10 63v241v-241q0 -34 -10 -63t-29.5 -50.5t-48.5 -34t-68 -12.5t-68 12.5t-48.5 34t-29.5 50.5t-10 63v241v-241zM294 636l-42 -54z" />
    <glyph glyph-name="thorn" unicode="&#xfe;" 
d="M201 49q22 -9 45.5 -13t45.5 -4q24 0 57.5 9.5t63.5 32.5t51.5 62t21.5 98q0 55 -18 95.5t-47 67t-65.5 39t-73.5 12.5q-47 0 -83.5 -18t-62 -48.5t-39 -71t-13.5 -84.5q0 44 13.5 84.5t39 71t62 48.5t83.5 18q37 0 73.5 -12.5t65.5 -39t47 -67t18 -95.5q0 -59 -21.5 -98
t-51.5 -62t-63.5 -32.5t-57.5 -9.5q-22 0 -45.5 4t-45.5 13zM84 656v-828v828z" />
    <glyph glyph-name="ydieresis" unicode="&#xff;" horiz-adv-x="500" 
d="M250 -171v203v-203zM94 433v-241q0 -34 10 -63t29.5 -50.5t48.5 -34t68 -12.5t68 12.5t48.5 34t29.5 50.5t10 63v241v-241q0 -34 -10 -63t-29.5 -50.5t-48.5 -34t-68 -12.5t-68 12.5t-48.5 34t-29.5 50.5t-10 63v241zM318 600q0 12 12 12t12 -12t-12 -12t-12 12zM158 600
q0 12 12 12t12 -12t-12 -12t-12 12zM158 600q0 -12 12 -12t12 12t-12 12t-12 -12zM318 600q0 -12 12 -12t12 12t-12 12t-12 -12z" />
    </font>
</defs>
</svg>
