<?xml version="1.0" standalone="no"?>
<!DOCTYPE svg PUBLIC "-//W3C//DTD SVG 1.1//EN" "http://www.w3.org/Graphics/SVG/1.1/DTD/svg11.dtd" >
<svg xmlns="http://www.w3.org/2000/svg" xmlns:xlink="http://www.w3.org/1999/xlink" version="1.1">
<metadata>
Created by FontForge 20200511 at Sat Sep 19 13:27:37 2009
 By convertio
Copyright (c) 2009 by Johan Aakerlund. All rights reserved.
</metadata>
<defs>
<font id="Lastwaerkthin" horiz-adv-x="1270" >
  <font-face 
    font-family="Lastwaerk thin"
    font-weight="400"
    font-stretch="normal"
    units-per-em="2048"
    panose-1="2 11 4 4 4 0 0 4 0 4"
    ascent="1638"
    descent="-410"
    x-height="1073"
    cap-height="1430"
    bbox="-242 -410 3168 2000"
    underline-thickness="150"
    underline-position="-292"
    unicode-range="U+0020-F002"
  />
<missing-glyph horiz-adv-x="1024" 
d="M100 0v1434h824v-1434h-824zM150 50h724v1334h-724v-1334zM325 1148q31 28 58 43q53 30 112 30q92 0 148 -47.5t56 -127.5q0 -49 -23 -98.5t-87 -129.5q-63 -80 -99 -132t-36 -99q0 -38 24 -133h-32q-35 97 -35 148q0 76 81.5 218t81.5 217q0 57 -33 90t-91 33
q-38 0 -69 -17q-26 -15 -56 -40v45zM389 334l57 58q11 10 20 10q10 0 22 -11l56 -60q9 -11 9 -20q0 -11 -10 -22l-56 -62q-14 -14 -21 -14q-11 0 -20 10l-61 71q-7 9 -7 18q0 10 11 22z" />
    <glyph glyph-name=".notdef" horiz-adv-x="1024" 
d="M100 0v1434h824v-1434h-824zM150 50h724v1334h-724v-1334zM325 1148q31 28 58 43q53 30 112 30q92 0 148 -47.5t56 -127.5q0 -49 -23 -98.5t-87 -129.5q-63 -80 -99 -132t-36 -99q0 -38 24 -133h-32q-35 97 -35 148q0 76 81.5 218t81.5 217q0 57 -33 90t-91 33
q-38 0 -69 -17q-26 -15 -56 -40v45zM389 334l57 58q11 10 20 10q10 0 22 -11l56 -60q9 -11 9 -20q0 -11 -10 -22l-56 -62q-14 -14 -21 -14q-11 0 -20 10l-61 71q-7 9 -7 18q0 10 11 22z" />
    <glyph glyph-name="NULL" horiz-adv-x="0" 
 />
    <glyph glyph-name="nonmarkingreturn" horiz-adv-x="508" 
 />
    <glyph glyph-name="space" unicode=" " horiz-adv-x="600" 
 />
    <glyph glyph-name="space" unicode="&#xa0;" horiz-adv-x="600" 
 />
    <glyph glyph-name="exclam" unicode="!" horiz-adv-x="489" 
d="M240 1430h19v-1218h-19v1218zM233 35h29v-36h-29v36z" />
    <glyph glyph-name="quotedbl" unicode="&#x22;" horiz-adv-x="863" 
d="M250 1430h19v-360h-19v360zM624 1430v-359h-23v359h23z" />
    <glyph glyph-name="numbersign" unicode="#" horiz-adv-x="1262" 
d="M459 1432v-490h336v490h24v-490h345v-24h-345v-369h345v-24h-345v-525h-24v525h-336v-525h-24v525h-345v24h345v369h-345v24h345v490h24zM459 918v-369h336v369h-336z" />
    <glyph glyph-name="dollar" unicode="$" horiz-adv-x="1253" 
d="M631 1606h23v-169h170q227 0 338 -235q23 -66 23 -132h-23q0 197 -193 315q-78 33 -221 33h-94v-691h165q249 0 352 -263q14 -56 14 -103q0 -240 -253 -348q-63 -19 -155 -19h-123v-164h-23v164h-160q-254 0 -357 264q-14 50 -14 103h19q0 -130 98 -240
q105 -103 245 -103h169v686h-169q-200 0 -324 202q-38 81 -38 169q0 238 254 348l108 14h169v169zM119 1070q0 -208 216 -319q72 -24 131 -24h165v691h-94q-279 0 -362 -164q-56 -82 -56 -184zM654 704v-686h165q233 0 329 240q14 50 14 84v42q0 164 -174 278
q-50 33 -169 42h-165z" />
    <glyph glyph-name="percent" unicode="%" horiz-adv-x="1968" 
d="M451 1434h33q156 0 281 -159q61 -91 61 -211q0 -228 -243 -338q-55 -18 -113 -18h-14q-234 0 -342 253q-14 49 -14 98v24q0 217 230 328q52 23 121 23zM1342 1429l14 -9l-712 -1415l-14 9zM119 1068q0 -197 192 -304q78 -38 155 -38q163 0 276 146q66 95 66 201
q0 195 -193 305q-71 37 -154 37q-205 0 -314 -206q-28 -72 -28 -141zM1520 726h23q189 0 314 -206q33 -84 33 -164q0 -196 -192 -314q-81 -42 -150 -42h-33q-232 0 -342 258l-14 108q0 200 202 323q81 37 159 37zM1183 366v-5q0 -226 234 -324q62 -18 112 -18q219 0 324 234
l14 89v42q0 190 -216 300q-59 19 -126 24q-208 0 -319 -216q-23 -65 -23 -126z" />
    <glyph glyph-name="ampersand" unicode="&#x26;" horiz-adv-x="1446" 
d="M462 1426q217 0 335 -223q28 -74 28 -149q0 -192 -200 -315l-33 -14h47q197 0 316 -191q41 -82 41 -162q199 0 307 209q19 35 28 134h20q-2 -206 -192 -320q-80 -42 -158 -42q0 -198 214 -311q57 -20 105 -20q10 0 20 1v-23q-216 0 -330 214q-18 40 -20 60
q-41 -138 -133 -200q-95 -74 -223 -74h-176q-234 0 -344 255l-14 107q0 199 190 316q62 33 84 37q-69 0 -186 112q-88 109 -88 237q0 231 246 343zM123 1068v-9q0 -233 251 -325l70 -9h37q177 0 288 190q32 71 32 130v37q0 181 -199 293q-63 28 -144 28q-224 0 -321 -237
q-14 -49 -14 -98zM123 376v-32q0 -172 181 -284q58 -41 242 -41q227 0 302 74q130 107 130 269q0 237 -256 330l-92 9h-168q-236 0 -329 -250z" />
    <glyph glyph-name="quotesingle" unicode="'" horiz-adv-x="493" 
d="M240 1430h19v-360h-19v360z" />
    <glyph glyph-name="parenleft" unicode="(" horiz-adv-x="564" 
d="M469 1625v-23q-155 -1 -265 -119q-85 -85 -85 -283v-955q0 -263 165 -349q80 -57 185 -57v-19q-219 0 -336 213q-33 73 -33 151v1077q0 239 255 350z" />
    <glyph glyph-name="parenright" unicode=")" horiz-adv-x="564" 
d="M213 1611q256 -111 256 -350v-1077q0 -78 -34 -151q-116 -213 -335 -213v19q105 0 184 57q166 86 166 349v955q0 198 -85 283q-110 118 -265 120v22l58 -3z" />
    <glyph glyph-name="asterisk" unicode="*" horiz-adv-x="802" 
d="M413 1732v-8q0 -46 11 -84q86 -204 284 -204v-23h-12q-29 0 -56 -4q-228 -76 -228 -285h-20q0 169 -164 264q-60 28 -128 28v20q193 0 276 196q11 25 19 99zM296 1484q-92 -56 -120 -58q65 -2 172 -110q52 -84 56 -116q37 123 116 172q69 46 109 52q-101 22 -165 108
q-60 87 -62 120q-2 -60 -106 -168z" />
    <glyph glyph-name="plus" unicode="+" horiz-adv-x="1266" 
d="M623 1250h24v-523h523v-24h-523v-523h-24v523h-523v24h523v523z" />
    <glyph glyph-name="comma" unicode="," horiz-adv-x="564" 
d="M426 32h23q0 -279 -254 -372q-57 -14 -99 -14v23h22q154 0 263 163q45 74 45 200z" />
    <glyph glyph-name="hyphen" unicode="-" horiz-adv-x="923" 
d="M100 540h709v-24h-709v24z" />
    <glyph glyph-name="hyphen" unicode="&#xad;" horiz-adv-x="923" 
d="M100 540h709v-24h-709v24z" />
    <glyph glyph-name="period" unicode="." horiz-adv-x="520" 
d="M233 35h29v-36h-29v36z" />
    <glyph glyph-name="slash" unicode="/" horiz-adv-x="944" 
d="M834 1623l24 -9l-738 -1844l-20 5z" />
    <glyph glyph-name="zero" unicode="0" horiz-adv-x="1086" 
d="M505 1430h89q289 0 382 -238q23 -51 23 -121v-708q0 -251 -261 -349q-48 -14 -98 -14h-186q-206 0 -321 210q-33 72 -33 149v712q0 144 112 257q98 102 293 102zM119 1020v-601q0 -252 153 -340q75 -60 224 -60h70q218 0 298 88q116 94 116 298v620q0 269 -219 358
q-55 24 -125 24h-173q-198 0 -302 -182q-42 -68 -42 -205z" />
    <glyph glyph-name="one" unicode="1" horiz-adv-x="564" 
d="M449 1428h23v-1428h-23v1296q-51 -131 -184 -203q-82 -33 -165 -38v20q150 21 207 70q142 112 142 283z" />
    <glyph glyph-name="two" unicode="2" horiz-adv-x="1086" 
d="M505 1428h88q289 0 381 -237q24 -51 24 -121v-186q0 -209 -205 -321q-76 -37 -163 -37h-167q-198 0 -303 -182q-41 -68 -41 -204v-121h869v-19h-888v191q0 143 112 256q97 102 293 102h135q138 0 241 102q98 92 98 279v93q0 269 -218 358q-56 24 -126 24h-172
q-232 0 -326 -237l-18 -103h-19q0 148 112 261q97 102 293 102z" />
    <glyph glyph-name="three" unicode="3" horiz-adv-x="1095" 
d="M505 1428h88q289 0 381 -237q24 -51 24 -121q-11 -286 -270 -358l33 -10q237 -112 237 -335q0 -255 -261 -353q-48 -14 -97 -14h-186q-206 0 -321 209q-33 72 -33 154h19q0 -219 228 -326q74 -18 148 -18h70q237 0 321 111q93 102 93 233q0 200 -200 307q-63 32 -158 32
h-154v24h191q190 0 298 214q18 58 23 125q0 206 -214 316q-68 24 -130 24h-172q-232 0 -326 -237l-20 -103h-17q0 148 112 261q97 102 293 102z" />
    <glyph glyph-name="four" unicode="4" horiz-adv-x="1085" 
d="M100 1425h19v-301q0 -242 141 -334q90 -66 183 -66h546v701h19v-1425h-19v701h-527q-238 0 -348 254l-14 108v362z" />
    <glyph glyph-name="five" unicode="5" horiz-adv-x="1086" 
d="M988 1428v-19h-869v-507h516q244 0 349 -255q14 -59 14 -103v-186q0 -219 -228 -330q-63 -28 -219 -28h-93q-198 0 -321 200q-37 80 -37 163h19q0 -206 214 -316q71 -24 130 -24h158q253 0 344 247q14 64 14 130v98q0 278 -228 363q-43 18 -107 18h-544v549h888z" />
    <glyph glyph-name="six" unicode="6" horiz-adv-x="1091" 
d="M547 1428q266 0 348 -116q103 -101 103 -251h-19q0 237 -256 334l-102 10h-144q-269 0 -349 -270l-9 -130v-107h521q206 0 321 -200q37 -71 37 -163v-181q0 -223 -237 -335q-66 -19 -117 -19h-204q-190 0 -312 214q-28 74 -28 149v698q0 209 191 320q67 47 256 47z
M119 879v-474q0 -264 200 -354q66 -32 158 -32h125q277 0 363 246q14 64 14 130v98q0 260 -200 354q-61 32 -214 32h-446z" />
    <glyph glyph-name="seven" unicode="7" horiz-adv-x="1091" 
d="M100 1428h885v-23q-230 0 -328 -239q-14 -49 -14 -99v-346h342v-23h-342v-698h-23v698h-337v23h337v314q0 268 234 370h-754v23z" />
    <glyph glyph-name="eight" unicode="8" horiz-adv-x="1095" 
d="M458 1428h182q198 0 321 -200q37 -81 37 -158q0 -256 -270 -358l33 -10q237 -112 237 -335q0 -255 -261 -353q-48 -14 -97 -14h-186q-206 0 -321 209q-33 72 -33 149q0 226 219 335l57 18q-140 41 -216 150q-60 94 -60 209q0 215 223 330q52 20 135 28zM119 1065
q0 -219 228 -325q74 -19 148 -19l163 5q190 0 298 214q18 58 23 125q0 206 -214 316q-68 24 -130 24h-172q-247 0 -335 -265zM119 363q0 -219 228 -326q74 -18 148 -18l163 4q190 0 298 214q18 58 23 126q0 200 -200 307q-63 32 -158 32h-144q-269 0 -349 -269z" />
    <glyph glyph-name="nine" unicode="9" horiz-adv-x="1095" 
d="M588 1426q259 0 353 -167q60 -81 60 -191v-729q0 -174 -190 -302q-91 -37 -149 -37h-209q-221 0 -330 237q-18 62 -18 125h18q0 -212 214 -316q52 -27 172 -27h88q278 0 367 232l14 101v173h-516q-223 0 -334 227q-28 63 -28 223q0 245 98 330q92 121 339 121h51z
M123 1003v-60q0 -259 172 -348q72 -47 167 -47h516v534q0 154 -153 265q-85 56 -191 56h-153q-277 0 -353 -288z" />
    <glyph glyph-name="colon" unicode=":" horiz-adv-x="485" 
d="M238 940h29v-36h-29v36zM233 35h29v-36h-29v36z" />
    <glyph glyph-name="semicolon" unicode=";" horiz-adv-x="560" 
d="M428 940h30v-36h-30v36zM436 32h23q0 -279 -254 -372q-57 -14 -99 -14v23h22q154 0 263 163q45 74 45 200z" />
    <glyph glyph-name="semicolon" unicode="&#x37e;" horiz-adv-x="560" 
d="M428 940h30v-36h-30v36zM436 32h23q0 -279 -254 -372q-57 -14 -99 -14v23h22q154 0 263 163q45 74 45 200z" />
    <glyph glyph-name="less" unicode="&#x3c;" horiz-adv-x="947" 
d="M638 1274l10 -14l-511 -516l511 -520l-14 -14l-530 534z" />
    <glyph glyph-name="equal" unicode="=" horiz-adv-x="1078" 
d="M100 822h878v-19h-878v19zM100 473h878v-23h-878v23z" />
    <glyph glyph-name="greater" unicode="&#x3e;" horiz-adv-x="952" 
d="M838 744l-530 -534l-14 14l511 520l-511 516l9 14z" />
    <glyph glyph-name="question" unicode="?" horiz-adv-x="1266" 
d="M495 1434h296q281 0 376 -254q19 -53 19 -113v-80q0 -164 -174 -249q-46 -17 -174 -28q-183 -73 -183 -254l1 -244h-25v239q0 207 202 278l142 19q192 65 192 282q0 263 -225 362q-67 18 -118 18h-362q-188 0 -296 -173q-47 -90 -47 -170h-19q0 207 197 325q75 42 198 42
zM631 38h24v-38h-24v38z" />
    <glyph glyph-name="at" unicode="@" horiz-adv-x="1801" 
d="M535 1398h718q261 0 343 -116q102 -100 102 -241v-894h-24q-174 0 -296 181q-37 65 -40 97q-43 -148 -159 -222q-83 -56 -278 -56q-242 0 -324 93q-125 108 -125 273v172q0 236 246 342q62 19 125 19h162q248 0 352 -264q14 -81 14 -171v-104q0 -154 134 -272
q104 -64 194 -64v824q0 271 -226 361q-67 19 -130 19h-848q-147 0 -245 -93q-107 -103 -107 -245v-880q0 -135 97 -237q92 -101 283 -101h1186v-19h-1246q-177 0 -301 190q-42 83 -42 213v778q0 254 162 352q75 65 273 65zM804 1023q-201 0 -306 -209q-23 -52 -23 -120v-204
q0 -184 209 -296q79 -23 143 -23h144q265 0 347 264l9 92v144q0 253 -250 343l-92 9h-181z" />
    <glyph glyph-name="A" unicode="A" horiz-adv-x="1276" 
d="M508 1430h314q208 0 333 -220q28 -81 28 -155v-1055h-23v699h-1041v-699h-19v1069q0 144 113 258q98 103 295 103zM119 1017v-295h1041v366q0 159 -169 272q-76 47 -174 47h-351q-200 0 -305 -183q-42 -69 -42 -207z" />
    <glyph glyph-name="B" unicode="B" horiz-adv-x="1275" 
d="M815 1426q206 0 330 -218q28 -80 28 -154q0 -172 -163 -292q-76 -47 -111 -47q274 -97 274 -362q0 -203 -209 -320q-76 -33 -149 -33h-715v1426h715zM119 1403v-678h697q173 0 287 162q47 82 47 153v47q0 158 -167 269q-76 47 -172 47h-692zM119 701v-682h622
q250 0 334 130q75 88 75 190v42q0 194 -223 302q-68 18 -130 18h-678z" />
    <glyph glyph-name="C" unicode="C" 
d="M505 1428h311q195 0 317 -195q41 -81 41 -169h-23q0 183 -167 294q-76 47 -172 47h-349q-198 0 -303 -182q-41 -68 -41 -204v-600q0 -252 153 -340q75 -60 223 -60h247q250 0 335 130q74 88 74 214h23q0 -215 -209 -330q-76 -33 -149 -33h-362q-206 0 -321 209
q-33 72 -33 149v712q0 143 112 256q97 102 293 102z" />
    <glyph glyph-name="D" unicode="D" 
d="M816 1428q206 0 331 -219q27 -80 27 -153v-689q0 -250 -255 -353q-59 -14 -103 -14h-716v1428h716zM119 1405v-1386h623q274 0 358 162q56 63 56 252v548q0 216 -75 294q-108 130 -269 130h-693z" />
    <glyph glyph-name="E" unicode="E" horiz-adv-x="1275" 
d="M1167 1430v-23h-1048v-680h689v-24h-689v-684h1048v-19h-1067v1430h1067z" />
    <glyph glyph-name="F" unicode="F" 
d="M1167 1430v-23h-1048v-680h689v-24h-689v-703h-19v1430h1067z" />
    <glyph glyph-name="G" unicode="G" 
d="M505 1428h311q195 0 317 -195q41 -81 41 -168h-22q-1 182 -168 293q-76 47 -172 47h-349q-198 0 -303 -182q-41 -68 -41 -204v-600q0 -252 153 -340q75 -60 223 -60h247q274 0 358 162q56 63 56 252v269h-344v24h362v-359q0 -250 -255 -353q-59 -14 -103 -14h-362
q-206 0 -321 209q-33 72 -33 149v712q0 143 112 256q97 102 293 102z" />
    <glyph glyph-name="H" unicode="H" 
d="M100 1434h19v-705h1051v705h23v-1434h-23v705h-1051v-705h-19v1434z" />
    <glyph glyph-name="I" unicode="I" horiz-adv-x="502" 
d="M230 1430h21v-1430h-21v1430z" />
    <glyph glyph-name="J" unicode="J" horiz-adv-x="1266" 
d="M1168 1435h19v-1063q0 -253 -259 -358q-59 -14 -103 -14h-367q-228 0 -334 235q-24 66 -24 132v358h19v-308q0 -162 89 -275q95 -123 301 -123h240q277 0 363 164q56 63 56 255v997z" />
    <glyph glyph-name="K" unicode="K" horiz-adv-x="1273" 
d="M917 938l251 496l21 -9q-249 -512 -310 -590q-70 -98 -186 -117q119 -19 196 -127l299 -583l-22 -8l-293 574q-84 134 -323 134h-431v-708h-19v1434h19v-706h424q202 0 282 81q35 27 92 129z" />
    <glyph glyph-name="L" unicode="L" horiz-adv-x="1266" 
d="M100 1435h19v-997q0 -219 89 -302q95 -117 301 -117h236q239 0 324 113q94 103 94 235h19q0 -254 -263 -353q-49 -14 -99 -14h-362q-224 0 -334 235q-24 66 -24 132v1068z" />
    <glyph glyph-name="M" unicode="M" horiz-adv-x="1450" 
d="M123 1434l607 -1051l603 1051h23v-1434h-23v1382l-603 -1041l-607 1041v-1382h-23v1434h23z" />
    <glyph glyph-name="N" unicode="N" horiz-adv-x="1275" 
d="M100 1432h14l1048 -1390v1391h20v-1433h-15l-1048 1390v-1390h-19v1432z" />
    <glyph glyph-name="O" unicode="O" 
d="M507 1435h313q207 0 332 -220q28 -80 28 -154v-692q0 -251 -257 -355q-59 -14 -103 -14h-365q-207 0 -322 210q-33 73 -33 150v715q0 144 112 257q98 103 295 103zM119 1024v-603q0 -253 154 -342q75 -60 224 -60h248q275 0 360 163q56 63 56 253v551q0 216 -75 295
q-108 131 -271 131h-350q-199 0 -304 -183q-42 -68 -42 -205z" />
    <glyph glyph-name="P" unicode="P" horiz-adv-x="1258" 
d="M821 1428q207 0 332 -220q29 -81 29 -155q0 -204 -211 -323q-77 -32 -150 -32h-702v-698h-19v1428h721zM119 1405v-684h721q160 0 271 164q47 78 47 154v47q0 160 -168 272q-77 47 -174 47h-697z" />
    <glyph glyph-name="Q" unicode="Q" 
d="M506 1434h313q207 0 332 -220q28 -80 28 -154v-691q0 -190 -163 -313q80 -31 154 -32v-24h-15q-85 0 -168 42q-84 -42 -168 -42h-364q-207 0 -322 210q-33 72 -33 150v714q0 144 112 257q98 103 294 103zM119 1023v-603q0 -252 154 -341q75 -60 224 -60h248q175 0 224 42
q-164 111 -164 303h22q2 -184 165 -294q108 60 154 201q14 62 14 163v552q0 216 -74 294q-109 131 -271 131h-351q-198 0 -303 -183q-42 -68 -42 -205z" />
    <glyph glyph-name="R" unicode="R" 
d="M825 1435q232 -15 334 -221q28 -81 28 -155q0 -206 -212 -325l-61 -22l33 -11q240 -114 240 -339v-362h-19v301q1 15 1 29q0 239 -208 338q-52 33 -155 33h-687v-701h-19v1435h725zM119 1411v-686h724q161 0 273 164q47 79 47 155q0 208 -169 320q-77 47 -174 47h-701z
" />
    <glyph glyph-name="S" unicode="S" 
d="M507 1435h313q196 0 318 -196q42 -81 42 -169h-24q0 183 -168 295q-76 47 -173 47h-350q-249 0 -337 -267l-9 -75q1 -205 210 -317q69 -24 112 -24h290q209 0 290 -65q159 -117 159 -309q0 -204 -211 -322q-76 -33 -149 -33h-365q-207 0 -322 210q-33 73 -33 155h19
q0 -220 229 -328q75 -18 149 -18h248q252 0 337 131q74 88 74 191v42q-16 202 -224 304q-68 19 -131 19h-341q-257 7 -346 252l-12 61l-2 56q0 144 112 257q98 103 295 103z" />
    <glyph glyph-name="T" unicode="T" horiz-adv-x="1279" 
d="M100 1434h1067v-24h-522v-1410h-23v1410h-522v24z" />
    <glyph glyph-name="U" unicode="U" horiz-adv-x="1275" 
d="M100 1434h19v-1011q0 -254 155 -343q76 -61 226 -61h249q277 0 362 164q56 63 56 254v997h19v-1063q0 -253 -259 -357q-59 -14 -103 -14h-367q-208 0 -324 212q-33 72 -33 150v1072z" />
    <glyph glyph-name="V" unicode="V" horiz-adv-x="1268" 
d="M119 1434l524 -1392l524 1392h25l-542 -1434h-15l-542 1434h26z" />
    <glyph glyph-name="W" unicode="W" horiz-adv-x="1632" 
d="M100 1430h23v-1083q0 -188 207 -300q80 -28 136 -28q226 0 328 239l14 89v1083h23v-1069q0 -137 99 -239q107 -103 244 -103q220 3 328 234l14 89v1088h23v-1060q-16 -303 -290 -365l-66 -5h-28q-179 0 -305 192q-28 65 -31 86q-2 -84 -138 -212q-110 -66 -197 -66h-37
q-187 0 -309 202q-38 83 -38 178v1050z" />
    <glyph glyph-name="X" unicode="X" horiz-adv-x="1275" 
d="M119 1434l523 -698l519 698l19 -14l-526 -703l526 -703l-19 -14l-520 699l-522 -699l-19 14l527 703l-527 703z" />
    <glyph glyph-name="Y" unicode="Y" horiz-adv-x="1275" 
d="M100 1430h19v-302q0 -236 132 -326q90 -75 208 -75h368q233 0 330 250q14 63 14 179v274h19v-359q0 -214 -207 -330q-78 -38 -166 -38h-160v-703h-24v703h-165q-247 0 -354 260q-14 59 -14 104v363z" />
    <glyph glyph-name="Z" unicode="Z" horiz-adv-x="1268" 
d="M109 1430h1081l-1059 -1411h1036v-19h-1080l1056 1407h-1034v23z" />
    <glyph glyph-name="bracketleft" unicode="[" horiz-adv-x="568" 
d="M465 1599v-19h-346v-1751h346v-19h-365v1789h365z" />
    <glyph glyph-name="backslash" unicode="\" horiz-adv-x="945" 
d="M858 -225l-20 -5l-738 1844l24 9z" />
    <glyph glyph-name="bracketright" unicode="]" horiz-adv-x="564" 
d="M465 1599v-1789h-365v19h347v1751h-347v19h365z" />
    <glyph glyph-name="asciicircum" unicode="^" horiz-adv-x="916" 
d="M456 1614l349 -349l-14 -14l-336 331l-335 -332l-14 15z" />
    <glyph glyph-name="underscore" unicode="_" horiz-adv-x="1029" 
d="M-14 23h1055v-23h-1055v23z" />
    <glyph glyph-name="grave" unicode="`" horiz-adv-x="700" 
d="M127 1378l422 -239l-14 -19l-417 239z" />
    <glyph glyph-name="a" unicode="a" horiz-adv-x="1273" 
d="M544 1074h181q251 0 338 -101q83 -95 88 -140v240h23v-1072h-23v240q-35 -106 -158 -190q-86 -51 -226 -51h-301q-219 0 -329 204q-37 66 -37 162v342q0 209 190 320q67 46 254 46zM119 653v-236q0 -267 180 -352q65 -42 157 -42h352q207 0 310 199q33 64 33 213v204
q0 277 -167 361q-74 51 -190 51h-319q-268 0 -347 -269z" />
    <glyph glyph-name="b" unicode="b" horiz-adv-x="1266" 
d="M100 1434h19v-592q97 244 376 244h296q281 0 376 -254q19 -53 19 -113v-348q0 -274 -291 -366l-66 -5h-386q-180 0 -301 193l-23 47v-231h-19v1425zM119 672v-263q0 -266 202 -357q67 -33 160 -33h296q263 0 357 202q33 66 33 216v198q0 220 -75 296q-108 132 -268 132
h-362q-200 0 -306 -193q-37 -64 -37 -198z" />
    <glyph glyph-name="c" unicode="c" horiz-adv-x="1262" 
d="M531 1075h195q21 1 42 1q184 0 297 -106q6 -2 59 -76q46 -90 46 -185h-23q0 215 -208 315q-59 28 -149 28h-315q-254 0 -343 -250q-13 -62 -13 -163v-194q0 -241 97 -315q100 -107 232 -107h352q259 0 343 269q8 42 8 68v6h20q-1 -240 -246 -347q-60 -19 -167 -19h-297
q-209 0 -324 199q-37 77 -37 144v375q0 229 246 338q74 19 185 19z" />
    <glyph glyph-name="d" unicode="d" horiz-adv-x="1266" 
d="M1186 9h-19v231l-23 -47q-121 -193 -301 -193h-386l-65 5q-292 92 -292 366v348q0 60 19 113q95 254 376 254h296q279 0 376 -244v592h19v-1425zM1130 870q-106 193 -306 193h-362q-160 0 -268 -132q-75 -76 -75 -296v-198q0 -150 33 -216q94 -202 357 -202h296
q93 0 160 33q202 91 202 357v263q0 134 -37 198z" />
    <glyph glyph-name="e" unicode="e" horiz-adv-x="1266" 
d="M544 1072h180q206 0 286 -65q157 -115 157 -305q0 -202 -208 -318q-75 -33 -147 -33h-694q0 -128 116 -245q100 -83 222 -83h351q229 0 323 236q14 49 14 102h23q0 -236 -249 -343q-62 -18 -153 -18h-300q-218 0 -328 203q-37 66 -37 162v342q0 208 189 319q67 46 255 46
zM118 652v-282h620q248 0 332 129q74 88 74 189v42q0 194 -222 300q-67 19 -129 19h-319q-267 0 -346 -268z" />
    <glyph glyph-name="f" unicode="f" horiz-adv-x="700" 
d="M643 1429v-23h-163q-246 -6 -347 -258l-10 -70v-361h272v-19h-272v-698h-23v1045q1 279 272 370q62 14 147 14h124z" />
    <glyph glyph-name="g" unicode="g" horiz-adv-x="1266" 
d="M548 1074h183q208 0 289 -65q159 -117 159 -309v-700q0 -203 -192 -318q-80 -42 -149 -42h-383q-207 0 -322 210q-33 72 -33 154h19q0 -219 229 -327q75 -18 149 -18h304q257 0 345 252q14 62 14 163v159q-35 -107 -158 -191q-88 -52 -229 -52h-304q-221 0 -332 206
q-37 66 -37 163v346q0 210 192 322q67 47 256 47zM119 649v-238q0 -269 182 -355q65 -42 159 -42h355q208 0 313 201q32 64 32 214v206q0 279 -168 364q-75 52 -191 52h-323q-270 0 -350 -271z" />
    <glyph glyph-name="h" unicode="h" horiz-adv-x="1266" 
d="M100 1435h19v-597q51 130 147 185q96 62 203 62h356q250 0 355 -266q14 -56 14 -104v-715h-19v630q0 222 -76 298q-74 87 -142 109q-27 14 -132 24h-365q-126 0 -227 -90q-114 -93 -114 -313v-658h-19v1435z" />
    <glyph glyph-name="i" unicode="i" horiz-adv-x="493" 
d="M230 1313h19v-38h-19v38zM230 1071h19v-1071h-19v1071z" />
    <glyph glyph-name="j" unicode="j" horiz-adv-x="560" 
d="M444 1317h23v-38h-23v38zM467 1073v-1028q0 -306 -273 -396l-45 -7l-49 -2v19q133 0 240 99q104 104 104 244v1071h23z" />
    <glyph glyph-name="k" unicode="k" horiz-adv-x="1272" 
d="M100 1434h19v-1052l1052 698l12 -16l-399 -267l406 -792l-19 -5l-406 783l-646 -434v-344h-19v1429z" />
    <glyph glyph-name="l" unicode="l" horiz-adv-x="568" 
d="M100 1434h19v-1025q0 -290 240 -371q51 -19 108 -19v-19q-215 0 -339 216q-28 75 -28 151v1067z" />
    <glyph glyph-name="m" unicode="m" horiz-adv-x="1626" 
d="M456 1074h33q184 0 310 -206l23 -66q34 124 132 197q91 75 211 75h32q184 0 310 -206q33 -82 33 -165v-703h-19v638q0 280 -164 361q-77 56 -183 56q-205 0 -314 -206q-28 -72 -28 -141v-708h-24v732q0 192 -216 300q-70 23 -131 23q-220 0 -323 -239l-15 -89v-727h-23
v1068h23v-224q111 230 333 230z" />
    <glyph glyph-name="n" unicode="n" 
d="M466 1075h352q249 0 352 -263q14 -56 14 -103v-709h-18v624q0 220 -75 296q-74 86 -141 108q-27 14 -132 24h-361q-125 0 -226 -90q-112 -91 -112 -309v-653h-19v1066h19v-235q50 129 145 183q95 61 202 61z" />
    <glyph glyph-name="o" unicode="o" horiz-adv-x="1266" 
d="M545 1075h181q206 0 287 -65q157 -116 157 -306v-343q0 -236 -250 -342q-62 -19 -153 -19h-301q-219 0 -329 204q-37 66 -37 162v343q0 208 190 320q67 46 255 46zM119 653v-236q0 -266 180 -352q65 -42 158 -42h352q207 0 310 199q33 64 33 214v203q0 278 -167 362
q-75 51 -190 51h-320q-268 0 -347 -269z" />
    <glyph glyph-name="p" unicode="p" 
d="M552 1075h183q210 0 292 -66q160 -117 160 -310v-349q0 -240 -254 -348q-63 -19 -155 -19h-306q-227 0 -339 217l-14 28v-588h-19v1426h19v-236q42 116 150 184q74 61 283 61zM119 647v-240q0 -271 183 -358q66 -42 160 -42h358q210 0 315 202q33 65 33 217v207
q0 281 -169 367q-76 51 -193 51h-325q-272 0 -353 -272z" />
    <glyph glyph-name="q" unicode="q" horiz-adv-x="1266" 
d="M1017 1014q109 -68 151 -184v236h19v-1426h-19v588l-14 -28q-112 -217 -339 -217h-306q-92 0 -155 19q-254 108 -254 348v349q0 193 160 310q82 66 292 66h183q208 0 282 -61zM1159 779q-81 272 -353 272h-325q-117 0 -193 -51q-169 -86 -169 -367v-207q0 -152 33 -217
q105 -202 315 -202h358q94 0 160 42q183 87 183 358v240z" />
    <glyph glyph-name="r" unicode="r" horiz-adv-x="912" 
d="M466 1075h352v-23h-361q-125 0 -226 -90q-112 -91 -112 -309v-653h-19v1066h19v-235q50 129 145 183q95 61 202 61z" />
    <glyph glyph-name="s" unicode="s" horiz-adv-x="1283" 
d="M475 1075h251q251 0 333 -107q111 -104 111 -255h-21q-2 213 -224 320q-68 19 -130 19h-389q-205 0 -264 -190l-10 -65q0 -156 163 -232q38 -18 102 -18h486q196 0 273 -195l10 -69v-19q0 -180 -204 -255l-79 -9h-417q-269 0 -361 292l-5 69h19q0 -127 97 -236
q103 -102 241 -102h454q130 0 208 139q28 60 28 111q0 178 -194 246q-56 9 -153 9h-436q-140 0 -232 167q-18 53 -18 93q0 186 181 268q37 19 180 19z" />
    <glyph glyph-name="t" unicode="t" horiz-adv-x="918" 
d="M404 1435h23v-345h274v-23h-274v-699q0 -141 100 -245q106 -104 250 -104v-19q-243 0 -354 250q-19 76 -19 189v628h-274v23h274v345z" />
    <glyph glyph-name="u" unicode="u" 
d="M100 1074h19v-652q0 -270 183 -356q65 -43 159 -43h357q209 0 314 202q33 64 33 216v633h18v-1065h-18v235q-36 -107 -160 -192q-87 -52 -230 -52h-304q-222 0 -333 206q-38 67 -38 165v703z" />
    <glyph glyph-name="v" unicode="v" horiz-adv-x="1263" 
d="M123 1074l516 -1037l512 1037l23 -5l-535 -1069l-539 1069z" />
    <glyph glyph-name="w" unicode="w" horiz-adv-x="1633" 
d="M100 1074h23v-714q0 -216 220 -313q51 -24 121 -24q228 0 327 238l14 89v724h23v-710q0 -236 248 -327q34 -14 93 -14q215 0 318 210q28 62 28 173v668h19v-714q0 -217 -225 -332q-52 -20 -135 -28q-208 0 -327 201q-28 52 -31 79q-2 -79 -123 -196q-111 -84 -233 -84
q-187 0 -318 191q-42 98 -42 192v691z" />
    <glyph glyph-name="x" unicode="x" horiz-adv-x="1267" 
d="M114 1075l522 -521l525 521l16 -13l-525 -524l519 -524l-15 -14l-521 522l-520 -522l-17 12l521 526l-524 524z" />
    <glyph glyph-name="y" unicode="y" horiz-adv-x="1262" 
d="M100 1074h19v-656q0 -236 132 -325q90 -76 208 -76h367q233 0 331 250q14 64 14 180v627h19v-1071q0 -204 -194 -321q-81 -42 -151 -42h-401q-196 0 -320 226q-24 77 -25 142h20q0 -219 222 -326q66 -23 141 -23h326q259 0 349 255q14 62 14 165v160q-21 -79 -128 -170
q-101 -75 -226 -75h-349q-247 0 -354 259q-14 60 -14 104v717z" />
    <glyph glyph-name="z" unicode="z" 
d="M109 1073h994v-13l-968 -1038h960v-22h-995v13l969 1038h-960v22z" />
    <glyph glyph-name="braceleft" unicode="{" horiz-adv-x="776" 
d="M694 1605l50 3v-19q-154 -4 -263 -122q-85 -84 -85 -282v-122q0 -229 -234 -338l-33 -13l84 -34q183 -128 183 -301v-141q0 -262 165 -347q79 -57 183 -57v-18q-217 0 -334 211q-32 73 -32 150v113q0 239 -118 324q-102 89 -230 89v24q170 0 287 150q61 80 61 268v103
q0 238 253 348z" />
    <glyph glyph-name="bar" unicode="|" horiz-adv-x="502" 
d="M253 1730v-2136h-24v2136h24z" />
    <glyph glyph-name="braceright" unicode="}" horiz-adv-x="777" 
d="M143 1594q253 -110 253 -348v-103q0 -188 61 -268q117 -150 287 -150v-24q-128 0 -230 -89q-118 -85 -118 -324v-113q0 -77 -32 -150q-117 -211 -334 -211v18q104 0 183 57q165 85 165 347v141q0 173 183 301l84 34l-33 13q-234 109 -234 338v122q0 198 -85 282
q-109 118 -263 122v19l50 -3z" />
    <glyph glyph-name="asciitilde" unicode="~" horiz-adv-x="1203" 
d="M355 860q158 0 294 -142q107 -65 197 -65q126 0 238 101l14 -14q-101 -105 -252 -105q-158 0 -275 124q-98 78 -220 78q-124 0 -230 -97l-18 14q115 106 252 106z" />
    <glyph glyph-name="exclamdown" unicode="&#xa1;" horiz-adv-x="498" 
d="M240 867h19v-1218h-19v1218zM233 1080h29v-36h-29v36z" />
    <glyph glyph-name="cent" unicode="&#xa2;" horiz-adv-x="1279" 
d="M820 1238h24l-38 -142q270 0 374 -265l13 -108h-22q0 221 -228 330q-69 19 -138 19l-65 -237l-223 -814h308q235 0 331 241q15 51 15 106h23q0 -244 -256 -352q-63 -19 -156 -19h-270l-38 -147l-19 9l33 138h-14q-223 0 -336 208q-38 68 -38 166v351q0 213 194 327
q69 47 261 47h232zM119 665v-242q0 -272 185 -360q66 -42 161 -42h33l279 1051h-293q-274 0 -356 -275z" />
    <glyph glyph-name="sterling" unicode="&#xa3;" horiz-adv-x="1272" 
d="M491 1430h326q195 0 317 -196q42 -80 42 -167h-23q0 181 -168 293q-76 47 -172 47h-354q-222 0 -322 -233l-18 -103q167 -340 177 -344h512v-24h-503q168 -335 168 -349q0 -198 -201 -317l-42 -18h24l559 4h8q171 0 285 163q47 83 47 177h23q0 -238 -247 -344
q-63 -19 -126 -19h-694v23q183 0 294 163q46 78 46 154v14l-167 349h-173v24h159l-168 335v9q0 201 196 317q73 42 195 42z" />
    <glyph glyph-name="currency" unicode="&#xa4;" horiz-adv-x="845" 
d="M407 1064h28q99 0 197 -83l86 88l12 -17l-82 -86q86 -95 86 -225q0 -109 -86 -213l82 -82v-4l-8 -8h-4l-86 82q-92 -86 -213 -86h-4q-120 0 -217 86l-86 -82l-12 12l86 86q-86 90 -86 197v28q0 114 82 209l-82 86l15 16l83 -85q89 81 209 81zM215 966l56 -55l-18 -15
l-54 54q-83 -81 -83 -205q0 -115 82 -200l57 53l13 -13l-58 -57q89 -78 197 -78h28q105 0 184 82l-53 53l13 13l53 -53q82 79 82 184v36q0 103 -81 185l-54 -54l-14 16l54 54q-88 82 -204 82q-118 0 -200 -82z" />
    <glyph glyph-name="yen" unicode="&#xa5;" horiz-adv-x="1272" 
d="M100 1434h19v-312q0 -268 203 -360q68 -33 161 -33h299q264 0 359 203q33 67 33 218v284h19v-350q0 -245 -241 -355h232v-24h-526v-336h526v-19h-526v-350h-23v350h-526v19h526v336h-526v24h232q-116 42 -184 151q-57 85 -57 199v355z" />
    <glyph glyph-name="brokenbar" unicode="&#xa6;" horiz-adv-x="498" 
d="M230 1421h19v-714h-19v714zM230 354h19v-714h-19v714z" />
    <glyph glyph-name="section" unicode="&#xa7;" horiz-adv-x="907" 
d="M461 1730q186 0 305 -187q41 -79 41 -169h-18q0 226 -237 319q-48 14 -96 14q-187 0 -292 -169q-46 -87 -46 -164q0 -126 96 -233q94 -105 301 -105q146 -39 210 -123q82 -103 82 -205v-37q0 -198 -205 -310q-36 -18 -59 -25l73 -25q191 -116 191 -306v-36
q0 -175 -191 -292q-72 -37 -151 -37q-220 0 -333 205q-32 71 -32 151h18q0 -223 238 -324l109 -14q183 0 292 192q32 70 32 146q0 220 -238 314q-200 24 -264 60q-187 116 -187 310q0 216 210 329l59 22q-70 1 -182 110q-87 102 -87 238q0 201 201 314q76 37 160 37z
M118 685q0 -215 228 -313l105 -25l28 -2q155 7 264 171q46 74 46 169q0 232 -251 324l-91 9q-176 0 -283 -169q-46 -87 -46 -164z" />
    <glyph glyph-name="dieresis" unicode="&#xa8;" horiz-adv-x="974" 
d="M129 1267h29v-36h-29v36zM815 1269h29v-36h-29v36z" />
    <glyph glyph-name="copyright" unicode="&#xa9;" horiz-adv-x="1796" 
d="M455 1490h876q239 0 345 -258q14 -79 14 -184v-779q-5 -212 -203 -332q-63 -28 -156 -37h-876q-196 0 -318 198q-37 80 -37 166v867q0 241 253 345q59 14 102 14zM118 1061v-755q0 -273 217 -360q60 -23 124 -23h872q218 0 318 226q18 63 18 115v867q0 205 -198 308
q-57 33 -212 33h-728q-247 0 -328 -125q-83 -74 -83 -286zM897 1144q249 0 332 -106q111 -110 111 -258h-19l-14 97q-93 244 -341 244h-133q-258 0 -350 -235l-14 -106v-170q0 -200 189 -304q61 -33 138 -33h203q176 0 285 189q33 71 33 129v19h23q0 -218 -221 -332
q-70 -28 -148 -28h-166q-238 0 -346 258q-13 81 -13 185q0 247 96 332q92 119 337 119h18z" />
    <glyph glyph-name="ordfeminine" unicode="&#xaa;" horiz-adv-x="916" 
d="M431 1425h27q219 0 330 -242v238h23v-696h-28v224q-41 -112 -146 -178q-88 -55 -192 -55q-167 0 -284 151q-64 93 -64 201q0 237 238 339q54 18 96 18zM115 1073q0 -205 206 -311q68 -23 110 -23h23q224 0 315 238q14 47 14 96q0 130 -96 233q-103 101 -242 101
q-164 0 -275 -156q-55 -90 -55 -178z" />
    <glyph glyph-name="guillemotleft" unicode="&#xab;" horiz-adv-x="1178" 
d="M976 871l-336 -336l336 -337l-14 -18l-350 355l346 350zM458 871l-332 -336l332 -337l-9 -18l-355 353l350 352z" />
    <glyph glyph-name="logicalnot" unicode="&#xac;" horiz-adv-x="1259" 
d="M100 894h1047v-704h-18v681h-1029v23z" />
    <glyph glyph-name="registered" unicode="&#xae;" horiz-adv-x="1800" 
d="M547 1490h701q259 0 341 -115q101 -100 101 -240v-885q0 -220 -235 -332q-65 -18 -115 -18h-899q-177 0 -304 198q-37 74 -37 244v710q0 253 124 341q78 97 323 97zM123 1098v-839q0 -224 230 -322q59 -19 148 -19h797q275 0 360 245q14 63 14 129v797q0 270 -226 360
q-66 18 -129 18h-839q-251 0 -341 -244q-14 -57 -14 -125zM1031 1107q130 0 217 -78q96 -99 96 -207q-4 -151 -129 -245q-59 -36 -83 -41q208 -79 208 -281h-16q-1 35 -17 92q-78 180 -267 180h-534v-271h-19v851h544zM506 1084v-539h543q158 0 245 152q27 58 27 120
q0 159 -152 240q-48 27 -129 27h-534z" />
    <glyph glyph-name="macron" unicode="&#xaf;" horiz-adv-x="1260" 
d="M98 1682h1058v-23h-1058v23z" />
    <glyph glyph-name="degree" unicode="&#xb0;" horiz-adv-x="912" 
d="M451 1434h33q156 0 281 -159q61 -91 61 -211q0 -228 -243 -338q-55 -18 -113 -18h-14q-234 0 -342 253q-14 49 -14 98v24q0 217 230 328q52 23 121 23zM119 1068q0 -197 192 -304q78 -38 155 -38q163 0 276 146q66 95 66 201q0 195 -193 305q-71 37 -154 37
q-205 0 -314 -206q-28 -72 -28 -141z" />
    <glyph glyph-name="plusminus" unicode="&#xb1;" horiz-adv-x="1267" 
d="M619 1425h23v-519h519v-23h-519v-519h-23v519h-519v23h519v519zM100 23h1061v-23h-1061v23z" />
    <glyph glyph-name="uni00B2" unicode="&#xb2;" horiz-adv-x="650" 
d="M331 1421q170 0 214 -128l9 -64v-82q0 -143 -164 -178l-78 -5h-32q-110 0 -155 -128v-110h420v-18h-443v114q0 92 119 156l192 13q119 55 119 142v119q-32 146 -174 146h-59q-139 0 -174 -137l-3 -27h-20v22q0 94 128 156z" />
    <glyph glyph-name="uni00B3" unicode="&#xb3;" horiz-adv-x="648" 
d="M329 1421q172 0 217 -136l4 -58q0 -87 -94 -149l-28 -14q66 -20 104 -90q18 -42 18 -77q0 -123 -131 -176l-40 -5h-118q-158 39 -158 181h23q0 -121 131 -158l54 -5h41q147 0 176 149v27q0 87 -109 136q-17 9 -49 9h-91v23h104q96 0 145 131v31q0 115 -131 154l-41 4h-59
q-137 0 -171 -135v-27h-23q0 142 158 180z" />
    <glyph glyph-name="acute" unicode="&#xb4;" horiz-adv-x="698" 
d="M549 1359l-417 -239l-14 19l422 239z" />
    <glyph glyph-name="mu" unicode="&#xb5;" 
d="M100 1074h18v-654q0 -265 180 -350q64 -41 156 -41h349q205 0 307 198q33 63 33 211v635h19v-1058h-19v230q-35 -105 -157 -188q-85 -51 -225 -51h-300q-252 0 -343 239v-574h-18v1403z" />
    <glyph glyph-name="paragraph" unicode="&#xb6;" horiz-adv-x="1272" 
d="M464 1425h701v-23h-341v-1402h-23v1402h-332v-1402h-23v705q-93 0 -196 66q-150 119 -150 299q0 149 145 271q109 75 219 84z" />
    <glyph glyph-name="periodcentered" unicode="&#xb7;" horiz-adv-x="516" 
d="M243 555h29v-36h-29v36z" />
    <glyph glyph-name="periodcentered" unicode="&#x2219;" horiz-adv-x="516" 
d="M243 555h29v-36h-29v36z" />
    <glyph glyph-name="cedilla" unicode="&#xb8;" horiz-adv-x="565" 
d="M444 2h18q0 -230 -232 -339q-67 -23 -130 -23v19q160 0 283 143q61 104 61 200z" />
    <glyph glyph-name="uni00B9" unicode="&#xb9;" horiz-adv-x="382" 
d="M267 1416h23v-706h-23v608q-59 -92 -167 -93v18q27 1 74 20q93 59 93 153z" />
    <glyph glyph-name="ordmasculine" unicode="&#xba;" horiz-adv-x="650" 
d="M118 1190v-235q0 -217 194 -217q165 0 199 100q14 25 14 49v371q0 90 -113 135q-18 9 -50 9h-90q-93 0 -145 -113q-9 -38 -9 -99zM257 718q-157 41 -157 174v370q0 46 54 113q56 50 149 50h50q83 0 136 -50q58 -52 58 -140v-330q0 -134 -144 -185q-45 -9 -73 -9h-12
q-28 0 -61 7z" />
    <glyph glyph-name="guillemotright" unicode="&#xbb;" horiz-adv-x="1183" 
d="M212 885l346 -350l-350 -355l-14 18l336 337l-336 336zM726 885l350 -355l-355 -350l-14 14l337 341l-332 336z" />
    <glyph glyph-name="onequarter" unicode="&#xbc;" horiz-adv-x="1556" 
d="M288 1425v-712h-24v609q-69 -89 -164 -89v23q66 0 122 52q47 57 47 117h19zM1052 1425l14 -9l-713 -1416l-14 9zM991 713h23v-146q0 -148 113 -187q18 -10 51 -10h258v343h23v-708h-23v342h-258q-127 0 -178 141q-9 39 -9 103v122z" />
    <glyph glyph-name="onehalf" unicode="&#xbd;" horiz-adv-x="1552" 
d="M287 1425v-710h-23v607q-70 -89 -164 -89v24q65 0 121 51q47 57 47 117h19zM1048 1425l14 -9l-710 -1411l-14 9zM1259 729q127 0 182 -126q14 -31 14 -75v-70q0 -133 -126 -182q-31 -14 -75 -14h-89q-83 0 -140 -103q-14 -41 -14 -94v-46h435v-19h-458v42q0 182 117 229
l84 14h74q134 0 169 150v116q0 95 -127 150l-70 4h-37q-130 0 -178 -116l-9 -52h-19v24q0 94 131 159l46 8z" />
    <glyph glyph-name="threequarters" unicode="&#xbe;" horiz-adv-x="1663" 
d="M338 1425q166 0 214 -121l14 -75q0 -68 -70 -139q-40 -28 -56 -31q57 -16 102 -86q24 -61 24 -88q0 -125 -131 -177l-37 -9h-130q-79 0 -145 97q-17 34 -21 89h21q0 -114 121 -159q21 -9 61 -9h56q181 17 181 172q-5 113 -139 159h-117v23h103q99 0 149 126l4 37
q0 145 -172 168h-74q-124 0 -168 -131l-5 -37h-23q0 134 154 186zM1180 1416l14 -10l-707 -1406l-14 9zM1120 708h23v-145q0 -147 112 -186q18 -9 51 -9h256v340h24v-703h-24v340h-256q-126 0 -177 139q-9 40 -9 103v121z" />
    <glyph glyph-name="questiondown" unicode="&#xbf;" horiz-adv-x="1267" 
d="M297 -338q-197 118 -197 325h19q0 -80 47 -170q108 -173 296 -173h362q51 0 118 18q225 99 225 362q0 217 -192 282l-142 19q-202 71 -202 278v239h24v-244q0 -181 183 -254q128 -11 174 -28q174 -85 174 -249v-80q0 -60 -19 -113q-95 -254 -376 -254h-296
q-123 0 -198 42zM631 1054h24v-38h-24v38z" />
    <glyph glyph-name="Agrave" unicode="&#xc0;" horiz-adv-x="1271" 
d="M442 1829l422 -239l-14 -19l-417 239zM508 1430h314q208 0 333 -220q28 -81 28 -155v-1055h-23v699h-1041v-699h-19v1069q0 145 113 258q98 103 295 103zM119 1018v-296h1041v366q0 160 -169 272q-76 47 -174 47h-351q-200 0 -305 -183q-42 -69 -42 -206z" />
    <glyph glyph-name="Aacute" unicode="&#xc1;" horiz-adv-x="1267" 
d="M864 1810l-417 -239l-14 19l422 239zM508 1430h314q208 0 333 -220q28 -81 28 -155v-1055h-23v699h-1041v-699h-19v1069q0 145 113 258q98 103 295 103zM119 1018v-296h1041v366q0 160 -169 272q-76 47 -174 47h-351q-200 0 -305 -183q-42 -69 -42 -206z" />
    <glyph glyph-name="Acircumflex" unicode="&#xc2;" horiz-adv-x="1272" 
d="M508 1430h314q208 0 333 -220q28 -81 28 -155v-1055h-23v699h-1041v-699h-19v1069q0 145 113 258q98 103 295 103zM119 1018v-296h1041v366q0 160 -169 272q-76 47 -174 47h-351q-200 0 -305 -183q-42 -69 -42 -206zM638 1970l349 -349l-14 -14l-335 333l-337 -335
l-12 16z" />
    <glyph glyph-name="Atilde" unicode="&#xc3;" horiz-adv-x="1271" 
d="M508 1430h314q208 0 333 -220q28 -81 28 -155v-1055h-23v699h-1041v-699h-19v1069q0 145 113 258q98 103 295 103zM119 1018v-296h1041v366q0 160 -169 272q-76 47 -174 47h-351q-200 0 -305 -183q-42 -69 -42 -206zM396 1809q158 0 294 -142q107 -65 197 -65
q126 0 238 101l14 -14q-101 -105 -248 -105q-162 0 -279 124q-98 78 -220 78q-124 0 -230 -97l-18 14q115 106 252 106z" />
    <glyph glyph-name="Adieresis" unicode="&#xc4;" horiz-adv-x="1276" 
d="M508 1430h314q208 0 333 -220q28 -81 28 -155v-1055h-23v699h-1041v-699h-19v1069q0 145 113 258q98 103 295 103zM119 1018v-296h1041v366q0 160 -169 272q-76 47 -174 47h-351q-200 0 -305 -183q-42 -69 -42 -206zM279 1647h29v-36h-29v36zM965 1649h29v-36h-29v36z
" />
    <glyph glyph-name="Aring" unicode="&#xc5;" horiz-adv-x="1276" 
d="M643 1908q167 0 221 -187v-52q0 -135 -164 -201l-47 -5h-28q-124 0 -192 145q-14 36 -14 84q0 136 154 207zM442 1678q0 -128 145 -187l42 -9q150 0 207 150l9 46q0 153 -169 207h-42q-136 0 -187 -160zM508 1430h314q208 0 333 -220q28 -81 28 -155v-1055h-23v699h-1041
v-699h-19v1069q0 145 113 258q98 103 295 103zM119 1018v-296h1041v366q0 160 -169 272q-76 47 -174 47h-351q-200 0 -305 -183q-42 -69 -42 -206z" />
    <glyph glyph-name="AE" unicode="&#xc6;" horiz-adv-x="1628" 
d="M460 1434h1065v-23h-696v-682h341v-24h-341v-686h696v-19h-720v705h-682v-696h-23v1051q0 248 243 351q28 14 117 23zM123 1088v-359h682v682h-341q-239 0 -331 -253z" />
    <glyph glyph-name="Ccedilla" unicode="&#xc7;" horiz-adv-x="1267" 
d="M491 1434h294q278 0 372 -252q19 -52 19 -111h-23v23q0 160 -177 279q-83 38 -159 38h-358q-198 0 -303 -191q-37 -64 -37 -196v-601q0 -240 139 -330q89 -66 182 -66h376q176 0 290 163q47 83 47 154v23h23q0 -253 -275 -354l-79 -9q0 -190 -191 -312q-92 -42 -172 -43
v20q162 0 279 144q65 95 65 191h-344q-236 0 -345 252l-14 107v712q0 201 196 317q73 42 195 42z" />
    <glyph glyph-name="Egrave" unicode="&#xc8;" horiz-adv-x="1280" 
d="M1167 1430v-23h-1048v-680h689v-24h-689v-684h1048v-19h-1067v1430h1067zM442 1829l422 -239l-14 -19l-417 239z" />
    <glyph glyph-name="Eacute" unicode="&#xc9;" horiz-adv-x="1272" 
d="M1167 1430v-23h-1048v-680h689v-24h-689v-684h1048v-19h-1067v1430h1067zM864 1810l-417 -239l-14 19l422 239z" />
    <glyph glyph-name="Ecircumflex" unicode="&#xca;" horiz-adv-x="1267" 
d="M1167 1430v-23h-1048v-680h689v-24h-689v-684h1048v-19h-1067v1430h1067zM638 1970l349 -349l-14 -14l-335 333l-337 -335l-12 16z" />
    <glyph glyph-name="Edieresis" unicode="&#xcb;" horiz-adv-x="1272" 
d="M1167 1430v-23h-1048v-680h689v-24h-689v-684h1048v-19h-1067v1430h1067zM279 1647h29v-36h-29v36zM965 1649h29v-36h-29v36z" />
    <glyph glyph-name="Igrave" unicode="&#xcc;" horiz-adv-x="543" 
d="M260 1430h21v-1430h-21v1430zM62 1829l422 -239l-14 -19l-417 239z" />
    <glyph glyph-name="Iacute" unicode="&#xcd;" horiz-adv-x="547" 
d="M260 1430h21v-1430h-21v1430zM484 1810l-417 -239l-14 19l422 239z" />
    <glyph glyph-name="Icircumflex" unicode="&#xce;" horiz-adv-x="899" 
d="M440 1430h21v-1430h-21v1430zM458 1970l349 -349l-14 -14l-335 333l-337 -335l-12 16z" />
    <glyph glyph-name="Idieresis" unicode="&#xcf;" horiz-adv-x="752" 
d="M360 1430h21v-1430h-21v1430zM19 1647h29v-36h-29v36zM705 1649h29v-36h-29v36z" />
    <glyph glyph-name="Eth" unicode="&#xd0;" horiz-adv-x="1616" 
d="M441 1434h673q291 0 387 -243q24 -63 24 -210v-542q0 -257 -131 -350q-101 -89 -234 -89h-719v705h-341v24h341v705zM464 1411v-682h519v-24h-519v-686h612q223 0 299 79q126 107 126 280v678q0 243 -233 336q-48 19 -112 19h-692z" />
    <glyph glyph-name="Ntilde" unicode="&#xd1;" horiz-adv-x="1272" 
d="M100 1432h14l1048 -1390v1385h19v-1427h-14l-1048 1390v-1381h-19v1423zM386 1809q158 0 294 -142q107 -65 197 -65q126 0 238 101l14 -14q-101 -105 -248 -105h-4q-158 0 -275 124q-98 78 -220 78q-124 0 -230 -97h-4l-14 14q115 106 252 106z" />
    <glyph glyph-name="Ograve" unicode="&#xd2;" horiz-adv-x="1267" 
d="M507 1435h313q207 0 332 -220q28 -80 28 -154v-692q0 -251 -257 -355q-59 -14 -103 -14h-365q-207 0 -322 210q-33 73 -33 150v715q0 144 112 257q98 103 295 103zM119 1024v-603q0 -253 154 -342q75 -60 224 -60h248q275 0 360 163q56 63 56 253v551q0 216 -75 295
q-108 131 -271 131h-350q-199 0 -304 -183q-42 -68 -42 -205zM432 1829l422 -239l-14 -19l-417 239z" />
    <glyph glyph-name="Oacute" unicode="&#xd3;" horiz-adv-x="1263" 
d="M507 1435h313q207 0 332 -220q28 -80 28 -154v-692q0 -251 -257 -355q-59 -14 -103 -14h-365q-207 0 -322 210q-33 73 -33 150v715q0 144 112 257q98 103 295 103zM119 1024v-603q0 -253 154 -342q75 -60 224 -60h248q275 0 360 163q56 63 56 253v551q0 216 -75 295
q-108 131 -271 131h-350q-199 0 -304 -183q-42 -68 -42 -205zM854 1810l-417 -239l-14 19l422 239z" />
    <glyph glyph-name="Ocircumflex" unicode="&#xd4;" horiz-adv-x="1267" 
d="M507 1435h313q207 0 332 -220q28 -80 28 -154v-692q0 -251 -257 -355q-59 -14 -103 -14h-365q-207 0 -322 210q-33 73 -33 150v715q0 144 112 257q98 103 295 103zM119 1024v-603q0 -253 154 -342q75 -60 224 -60h248q275 0 360 163q56 63 56 253v551q0 216 -75 295
q-108 131 -271 131h-350q-199 0 -304 -183q-42 -68 -42 -205zM638 1970l349 -349l-14 -14l-335 333l-337 -335l-12 16z" />
    <glyph glyph-name="Otilde" unicode="&#xd5;" horiz-adv-x="1267" 
d="M507 1435h313q207 0 332 -220q28 -80 28 -154v-692q0 -251 -257 -355q-59 -14 -103 -14h-365q-207 0 -322 210q-33 73 -33 150v715q0 144 112 257q98 103 295 103zM119 1024v-603q0 -253 154 -342q75 -60 224 -60h248q275 0 360 163q56 63 56 253v551q0 216 -75 295
q-108 131 -271 131h-350q-199 0 -304 -183q-42 -68 -42 -205zM386 1809q158 0 294 -142q107 -65 197 -65q126 0 238 101l14 -14q-101 -105 -252 -105q-158 0 -275 124q-98 78 -220 78q-124 0 -230 -97l-18 14q115 106 252 106z" />
    <glyph glyph-name="Odieresis" unicode="&#xd6;" horiz-adv-x="1267" 
d="M507 1435h313q207 0 332 -220q28 -80 28 -154v-692q0 -251 -257 -355q-59 -14 -103 -14h-365q-207 0 -322 210q-33 73 -33 150v715q0 144 112 257q98 103 295 103zM119 1024v-603q0 -253 154 -342q75 -60 224 -60h248q275 0 360 163q56 63 56 253v551q0 216 -75 295
q-108 131 -271 131h-350q-199 0 -304 -183q-42 -68 -42 -205zM279 1647h29v-36h-29v36zM965 1649h29v-36h-29v36z" />
    <glyph glyph-name="multiply" unicode="&#xd7;" horiz-adv-x="906" 
d="M115 1070l332 -332l333 332l13 -18l-332 -332l332 -337l-15 -17l-331 336l-334 -333l-16 18l332 333l-332 337z" />
    <glyph glyph-name="Oslash" unicode="&#xd8;" horiz-adv-x="1267" 
d="M507 1434h313q140 0 260 -116l85 111l15 -18l-85 -108q84 -107 84 -243v-691q0 -251 -257 -355q-58 -14 -102 -14h-365q-141 0 -257 112l-84 -107l-16 13l86 108q-84 110 -84 234v714q0 144 112 257q98 103 295 103zM119 1023v-603q0 -199 77 -275l871 1158
q-109 108 -252 108h-350q-199 0 -304 -183q-42 -68 -42 -205zM1080 1287l-868 -1161q103 -107 285 -107h248q275 0 360 163q56 63 56 252v552q0 216 -81 301z" />
    <glyph glyph-name="Ugrave" unicode="&#xd9;" horiz-adv-x="1267" 
d="M100 1434h19v-1011q0 -254 155 -343q76 -61 226 -61h249q277 0 362 164q56 63 56 254v997h19v-1063q0 -253 -259 -357q-59 -14 -103 -14h-367q-208 0 -324 212q-33 72 -33 150v1072zM442 1829l422 -239l-14 -19l-417 239z" />
    <glyph glyph-name="Uacute" unicode="&#xda;" horiz-adv-x="1267" 
d="M100 1434h19v-1011q0 -254 155 -343q76 -61 226 -61h249q277 0 362 164q56 63 56 254v997h19v-1063q0 -253 -259 -357q-59 -14 -103 -14h-367q-208 0 -324 212q-33 72 -33 150v1072zM864 1810l-417 -239l-14 19l422 239z" />
    <glyph glyph-name="Ucircumflex" unicode="&#xdb;" horiz-adv-x="1263" 
d="M100 1434h19v-1011q0 -254 155 -343q76 -61 226 -61h249q277 0 362 164q56 63 56 254v997h19v-1063q0 -253 -259 -357q-59 -14 -103 -14h-367q-208 0 -324 212q-33 72 -33 150v1072zM638 1970l349 -349l-14 -14l-335 333l-337 -335l-12 16z" />
    <glyph glyph-name="Udieresis" unicode="&#xdc;" horiz-adv-x="1267" 
d="M100 1434h19v-1011q0 -254 155 -343q76 -61 226 -61h249q277 0 362 164q56 63 56 254v997h19v-1063q0 -253 -259 -357q-59 -14 -103 -14h-367q-208 0 -324 212q-33 72 -33 150v1072zM279 1647h29v-36h-29v36zM965 1649h29v-36h-29v36z" />
    <glyph glyph-name="Yacute" unicode="&#xdd;" horiz-adv-x="1272" 
d="M100 1430h19v-302q0 -236 132 -326q90 -75 208 -75h368q233 0 330 250q14 63 14 179v274h19v-359q0 -214 -207 -330q-78 -38 -166 -38h-160v-703h-24v703h-165q-247 0 -354 260q-14 59 -14 104v363zM864 1810l-417 -239l-14 19l422 239z" />
    <glyph glyph-name="Thorn" unicode="&#xde;" horiz-adv-x="1268" 
d="M100 1434h24v-241h658q294 0 392 -246q24 -66 24 -199v-133q-5 -212 -204 -336q-81 -38 -160 -38h-710v-241h-24v1434zM124 1169v-909h662q288 0 374 246q14 60 14 105v198q0 247 -236 341q-48 19 -114 19h-700z" />
    <glyph glyph-name="germandbls" unicode="&#xdf;" horiz-adv-x="1100" 
d="M464 1434q198 0 318 -192q42 -82 42 -149v-37q0 -203 -224 -327q292 0 387 -262q15 -49 15 -98v-14q0 -138 -103 -248q-112 -107 -252 -107h-15q-227 0 -340 248l-11 57l-4 59h19q0 -235 248 -331l93 -14q202 0 308 191q38 77 38 154q0 211 -220 318q-63 23 -182 23h-121
v24h28q159 0 271 168q46 76 46 173q0 238 -257 331l-93 10q-186 0 -294 -183q-42 -68 -42 -205v-1014h-19v1065q0 217 224 332q52 20 140 28z" />
    <glyph glyph-name="agrave" unicode="&#xe0;" horiz-adv-x="1263" 
d="M544 1074h181q251 0 338 -101q83 -95 88 -140v240h23v-1072h-23v240q-35 -106 -158 -190q-86 -51 -226 -51h-301q-219 0 -329 204q-37 66 -37 162v342q0 209 190 320q67 46 254 46zM119 653v-236q0 -267 180 -352q65 -42 157 -42h352q207 0 310 199q33 64 33 213v204
q0 277 -167 361q-74 51 -190 51h-319q-268 0 -347 -269zM432 1479l422 -239l-14 -19l-417 239z" />
    <glyph glyph-name="aacute" unicode="&#xe1;" horiz-adv-x="1258" 
d="M544 1074h181q251 0 338 -101q83 -95 88 -140v240h23v-1072h-23v240q-35 -106 -158 -190q-86 -51 -226 -51h-301q-219 0 -329 204q-37 66 -37 162v342q0 209 190 320q67 46 254 46zM119 653v-236q0 -267 180 -352q65 -42 157 -42h352q207 0 310 199q33 64 33 213v204
q0 277 -167 361q-74 51 -190 51h-319q-268 0 -347 -269zM854 1460l-417 -239l-14 19l422 239z" />
    <glyph glyph-name="acircumflex" unicode="&#xe2;" horiz-adv-x="1258" 
d="M544 1074h181q251 0 338 -101q83 -95 88 -140v240h23v-1072h-23v240q-35 -106 -158 -190q-86 -51 -226 -51h-301q-219 0 -329 204q-37 66 -37 162v342q0 209 190 320q67 46 254 46zM119 653v-236q0 -267 180 -352q65 -42 157 -42h352q207 0 310 199q33 64 33 213v204
q0 277 -167 361q-74 51 -190 51h-319q-268 0 -347 -269zM638 1620l349 -349l-14 -14l-335 333l-337 -335l-12 16z" />
    <glyph glyph-name="atilde" unicode="&#xe3;" horiz-adv-x="1263" 
d="M544 1074h181q251 0 338 -101q83 -95 88 -140v240h23v-1072h-23v240q-35 -106 -158 -190q-86 -51 -226 -51h-301q-219 0 -329 204q-37 66 -37 162v342q0 209 190 320q67 46 254 46zM119 653v-236q0 -267 180 -352q65 -42 157 -42h352q207 0 310 199q33 64 33 213v204
q0 277 -167 361q-74 51 -190 51h-319q-268 0 -347 -269zM386 1449q158 0 294 -142q107 -65 197 -65q126 0 238 101l14 -14q-101 -105 -248 -105q-162 0 -279 124q-98 78 -220 78q-124 0 -230 -97l-18 14q115 106 252 106z" />
    <glyph glyph-name="adieresis" unicode="&#xe4;" horiz-adv-x="1263" 
d="M544 1074h181q251 0 338 -101q83 -95 88 -140v240h23v-1072h-23v240q-35 -106 -158 -190q-86 -51 -226 -51h-301q-219 0 -329 204q-37 66 -37 162v342q0 209 190 320q67 46 254 46zM119 653v-236q0 -267 180 -352q65 -42 157 -42h352q207 0 310 199q33 64 33 213v204
q0 277 -167 361q-74 51 -190 51h-319q-268 0 -347 -269zM279 1307h29v-36h-29v36zM965 1309h29v-36h-29v36z" />
    <glyph glyph-name="aring" unicode="&#xe5;" horiz-adv-x="1258" 
d="M544 1074h181q251 0 338 -101q83 -95 88 -140v240h23v-1072h-23v240q-35 -106 -158 -190q-86 -51 -226 -51h-301q-219 0 -329 204q-37 66 -37 162v342q0 209 190 320q67 46 254 46zM119 653v-236q0 -267 180 -352q65 -42 157 -42h352q207 0 310 199q33 64 33 213v204
q0 277 -167 361q-74 51 -190 51h-319q-268 0 -347 -269zM643 1608q167 0 221 -187v-52q0 -135 -164 -201l-47 -5h-28q-124 0 -192 145q-14 36 -14 84q0 136 154 207zM442 1378q0 -128 145 -187l42 -9q150 0 207 150l9 46q0 153 -169 207h-42q-136 0 -187 -160z" />
    <glyph glyph-name="ae" unicode="&#xe6;" horiz-adv-x="1979" 
d="M544 1074q258 0 338 -106q55 -47 93 -135v232h18v-236q44 111 130 176q89 69 301 69q244 0 319 -93q125 -106 125 -263v-14q0 -207 -208 -320q-73 -32 -148 -32h-514q0 -197 208 -306q64 -23 125 -23h172q251 0 338 259l10 79h17q0 -234 -245 -342q-74 -19 -157 -19h-125
q-222 0 -334 213l-14 28v-232h-18v232q-35 -104 -144 -181q-86 -60 -240 -60h-125q-219 0 -329 204q-37 66 -37 162v342q0 209 190 320q67 46 254 46zM119 653v-236q0 -267 180 -352q65 -42 157 -42h176q213 0 315 208q28 62 28 172v268q0 271 -227 361q-66 19 -130 19h-143
q-268 0 -347 -269zM998 731v-361h431q220 0 296 79q125 111 125 264q0 175 -162 287q-80 51 -195 51h-143q-254 0 -343 -250z" />
    <glyph glyph-name="ccedilla" unicode="&#xe7;" horiz-adv-x="1277" 
d="M805 -10h-336q-221 0 -332 205q-37 67 -37 164v345q0 210 191 322q68 47 257 47h182q253 0 336 -107q112 -105 112 -261h-23v23q0 195 -224 303q-68 19 -131 19h-322q-270 0 -350 -271l-9 -131v-238q0 -268 182 -355q65 -42 158 -42h355q232 0 327 238q14 50 14 84v19h23
q0 -225 -228 -336q-42 -19 -126 -28q0 -190 -197 -313q-80 -37 -163 -37v19q212 0 322 224q19 46 19 107z" />
    <glyph glyph-name="egrave" unicode="&#xe8;" horiz-adv-x="1267" 
d="M544 1072h180q206 0 286 -65q157 -115 157 -305q0 -202 -208 -318q-75 -33 -147 -33h-694q0 -128 116 -245q100 -83 222 -83h351q229 0 323 236q14 49 14 102h23q0 -236 -249 -343q-62 -18 -153 -18h-300q-218 0 -328 203q-37 66 -37 162v342q0 208 189 319q67 46 255 46
zM118 652v-282h620q248 0 332 129q74 88 74 189v42q0 194 -222 300q-67 19 -129 19h-319q-267 0 -346 -268zM432 1479l422 -239l-14 -19l-417 239z" />
    <glyph glyph-name="eacute" unicode="&#xe9;" horiz-adv-x="1267" 
d="M544 1072h180q206 0 286 -65q157 -115 157 -305q0 -202 -208 -318q-75 -33 -147 -33h-694q0 -128 116 -245q100 -83 222 -83h351q229 0 323 236q14 49 14 102h23q0 -236 -249 -343q-62 -18 -153 -18h-300q-218 0 -328 203q-37 66 -37 162v342q0 208 189 319q67 46 255 46
zM118 652v-282h620q248 0 332 129q74 88 74 189v42q0 194 -222 300q-67 19 -129 19h-319q-267 0 -346 -268zM854 1460l-417 -239l-14 19l422 239z" />
    <glyph glyph-name="ecircumflex" unicode="&#xea;" horiz-adv-x="1263" 
d="M544 1072h180q206 0 286 -65q157 -115 157 -305q0 -202 -208 -318q-75 -33 -147 -33h-694q0 -128 116 -245q100 -83 222 -83h351q229 0 323 236q14 49 14 102h23q0 -236 -249 -343q-62 -18 -153 -18h-300q-218 0 -328 203q-37 66 -37 162v342q0 208 189 319q67 46 255 46
zM118 652v-282h620q248 0 332 129q74 88 74 189v42q0 194 -222 300q-67 19 -129 19h-319q-267 0 -346 -268zM638 1620l349 -349l-14 -14l-335 333l-337 -335l-12 16z" />
    <glyph glyph-name="edieresis" unicode="&#xeb;" horiz-adv-x="1263" 
d="M544 1072h180q206 0 286 -65q157 -115 157 -305q0 -202 -208 -318q-75 -33 -147 -33h-694q0 -128 116 -245q100 -83 222 -83h351q229 0 323 236q14 49 14 102h23q0 -236 -249 -343q-62 -18 -153 -18h-300q-218 0 -328 203q-37 66 -37 162v342q0 208 189 319q67 46 255 46
zM118 652v-282h620q248 0 332 129q74 88 74 189v42q0 194 -222 300q-67 19 -129 19h-319q-267 0 -346 -268zM279 1307h29v-36h-29v36zM965 1309h29v-36h-29v36z" />
    <glyph glyph-name="igrave" unicode="&#xec;" horiz-adv-x="698" 
d="M340 1071h19v-1071h-19v1071zM152 1469l422 -239l-14 -19l-417 239z" />
    <glyph glyph-name="iacute" unicode="&#xed;" horiz-adv-x="703" 
d="M340 1071h19v-1071h-19v1071zM574 1450l-417 -239l-14 19l422 239z" />
    <glyph glyph-name="icircumflex" unicode="&#xee;" horiz-adv-x="920" 
d="M450 1071h19v-1071h-19v1071zM458 1620l349 -349l-14 -14l-335 333l-337 -335l-12 16z" />
    <glyph glyph-name="idieresis" unicode="&#xef;" horiz-adv-x="898" 
d="M440 1071h19v-1071h-19v1071zM89 1307h29v-36h-29v36zM775 1309h29v-36h-29v36z" />
    <glyph glyph-name="eth" unicode="&#xf0;" horiz-adv-x="1299" 
d="M469 1434h262q244 0 336 -103l98 98l9 -14l-93 -98q98 -108 98 -257v-691q0 -273 -290 -364l-65 -5h-383q-190 0 -313 215q-28 74 -28 149v355q0 201 196 318q74 42 196 42h295q274 0 373 -243v159q0 227 -98 308l-135 -135l-10 14l131 135q-96 94 -247 94h-332v23z
M119 668v-262q0 -264 201 -355q66 -32 158 -32h295q261 0 355 201q32 66 32 214v197q0 218 -74 294q-108 131 -267 131h-359q-199 0 -304 -192q-37 -64 -37 -196z" />
    <glyph glyph-name="ntilde" unicode="&#xf1;" horiz-adv-x="1272" 
d="M466 1075h352q249 0 352 -263q14 -56 14 -103v-709h-18v624q0 220 -75 296q-74 86 -141 108q-27 14 -132 24h-361q-125 0 -226 -90q-112 -91 -112 -309v-653h-19v1066h19v-235q50 129 145 183q95 61 202 61zM386 1449q158 0 294 -142q107 -65 197 -65q126 0 238 101
l14 -14q-101 -105 -252 -105q-158 0 -275 124q-98 78 -220 78q-124 0 -230 -97l-18 14q115 106 252 106z" />
    <glyph glyph-name="ograve" unicode="&#xf2;" horiz-adv-x="1267" 
d="M545 1075h181q206 0 287 -65q157 -116 157 -306v-343q0 -236 -250 -342q-62 -19 -153 -19h-301q-219 0 -329 204q-37 66 -37 162v343q0 208 190 320q67 46 255 46zM119 653v-236q0 -266 180 -352q65 -42 158 -42h352q207 0 310 199q33 64 33 214v203q0 278 -167 362
q-75 51 -190 51h-320q-268 0 -347 -269zM432 1479l422 -239l-14 -19l-417 239z" />
    <glyph glyph-name="oacute" unicode="&#xf3;" horiz-adv-x="1263" 
d="M545 1075h181q206 0 287 -65q157 -116 157 -306v-343q0 -236 -250 -342q-62 -19 -153 -19h-301q-219 0 -329 204q-37 66 -37 162v343q0 208 190 320q67 46 255 46zM119 653v-236q0 -266 180 -352q65 -42 158 -42h352q207 0 310 199q33 64 33 214v203q0 278 -167 362
q-75 51 -190 51h-320q-268 0 -347 -269zM854 1460l-417 -239l-14 19l422 239z" />
    <glyph glyph-name="ocircumflex" unicode="&#xf4;" horiz-adv-x="1263" 
d="M545 1075h181q206 0 287 -65q157 -116 157 -306v-343q0 -236 -250 -342q-62 -19 -153 -19h-301q-219 0 -329 204q-37 66 -37 162v343q0 208 190 320q67 46 255 46zM119 653v-236q0 -266 180 -352q65 -42 158 -42h352q207 0 310 199q33 64 33 214v203q0 278 -167 362
q-75 51 -190 51h-320q-268 0 -347 -269zM638 1620l349 -349l-14 -14l-335 333l-337 -335l-12 16z" />
    <glyph glyph-name="otilde" unicode="&#xf5;" horiz-adv-x="1263" 
d="M545 1075h181q206 0 287 -65q157 -116 157 -306v-343q0 -236 -250 -342q-62 -19 -153 -19h-301q-219 0 -329 204q-37 66 -37 162v343q0 208 190 320q67 46 255 46zM119 653v-236q0 -266 180 -352q65 -42 158 -42h352q207 0 310 199q33 64 33 214v203q0 278 -167 362
q-75 51 -190 51h-320q-268 0 -347 -269zM386 1449q158 0 294 -142q107 -65 197 -65q126 0 238 101l14 -14q-101 -105 -248 -105q-162 0 -279 124q-98 78 -220 78q-124 0 -230 -97l-18 14q115 106 252 106z" />
    <glyph glyph-name="odieresis" unicode="&#xf6;" horiz-adv-x="1263" 
d="M545 1075h181q206 0 287 -65q157 -116 157 -306v-343q0 -236 -250 -342q-62 -19 -153 -19h-301q-219 0 -329 204q-37 66 -37 162v343q0 208 190 320q67 46 255 46zM119 653v-236q0 -266 180 -352q65 -42 158 -42h352q207 0 310 199q33 64 33 214v203q0 278 -167 362
q-75 51 -190 51h-320q-268 0 -347 -269zM279 1307h29v-36h-29v36zM965 1309h29v-36h-29v36z" />
    <glyph glyph-name="divide" unicode="&#xf7;" horiz-adv-x="912" 
d="M100 514h709v-23h-709v23zM435 849h29v-36h-29v36zM435 209h29v-36h-29v36z" />
    <glyph glyph-name="oslash" unicode="&#xf8;" horiz-adv-x="1267" 
d="M544 1074h181q242 0 333 -102l97 97l10 -14l-93 -97q97 -107 97 -254v-343q0 -236 -250 -342q-62 -19 -152 -19h-301q-138 0 -255 97l-92 -96l-14 18l92 97q-97 104 -97 250v342q0 209 190 320q67 46 254 46zM119 653v-236q0 -210 97 -287l824 828q-95 93 -246 93h-319
q-268 0 -347 -269zM1054 944l-824 -828q91 -93 226 -93h352q207 0 310 199q33 64 33 213v204q0 225 -97 305z" />
    <glyph glyph-name="ugrave" unicode="&#xf9;" horiz-adv-x="1263" 
d="M100 1074h19v-652q0 -270 183 -356q65 -43 159 -43h357q209 0 314 202q33 64 33 216v633h18v-1065h-18v235q-36 -107 -160 -192q-87 -52 -230 -52h-304q-222 0 -333 206q-38 67 -38 165v703zM432 1479l422 -239l-14 -19l-417 239z" />
    <glyph glyph-name="uacute" unicode="&#xfa;" horiz-adv-x="1267" 
d="M100 1074h19v-652q0 -270 183 -356q65 -43 159 -43h357q209 0 314 202q33 64 33 216v633h18v-1065h-18v235q-36 -107 -160 -192q-87 -52 -230 -52h-304q-222 0 -333 206q-38 67 -38 165v703zM854 1460l-417 -239l-14 19l422 239z" />
    <glyph glyph-name="ucircumflex" unicode="&#xfb;" horiz-adv-x="1263" 
d="M100 1074h19v-652q0 -270 183 -356q65 -43 159 -43h357q209 0 314 202q33 64 33 216v633h18v-1065h-18v235q-36 -107 -160 -192q-87 -52 -230 -52h-304q-222 0 -333 206q-38 67 -38 165v703zM638 1620l349 -349l-14 -14l-335 333l-337 -335l-12 16z" />
    <glyph glyph-name="udieresis" unicode="&#xfc;" horiz-adv-x="1258" 
d="M100 1074h19v-652q0 -270 183 -356q65 -43 159 -43h357q209 0 314 202q33 64 33 216v633h18v-1065h-18v235q-36 -107 -160 -192q-87 -52 -230 -52h-304q-222 0 -333 206q-38 67 -38 165v703zM279 1307h29v-36h-29v36zM965 1309h29v-36h-29v36z" />
    <glyph glyph-name="yacute" unicode="&#xfd;" horiz-adv-x="1263" 
d="M100 1074h19v-656q0 -236 132 -325q90 -76 208 -76h367q233 0 331 250q14 64 14 180v627h19v-1071q0 -204 -194 -321q-81 -42 -151 -42h-401q-196 0 -320 226q-24 77 -24 142h19q0 -219 222 -326q66 -23 141 -23h326q259 0 349 255q14 62 14 165v160q-21 -79 -128 -170
q-101 -75 -226 -75h-349q-247 0 -354 259q-14 60 -14 104v717zM854 1460l-417 -239l-14 19l422 239z" />
    <glyph glyph-name="thorn" unicode="&#xfe;" horiz-adv-x="1267" 
d="M100 1414h19v-580q41 114 148 181q73 60 278 60h181q207 0 288 -65q158 -116 158 -306v-343q0 -237 -251 -344q-62 -18 -153 -18h-301q-224 0 -335 213l-13 28v-580h-19v1754zM119 653v-237q0 -267 181 -352q64 -42 157 -42h353q207 0 311 199q32 64 32 214v204
q0 278 -167 362q-74 51 -190 51h-320q-269 0 -348 -269z" />
    <glyph glyph-name="ydieresis" unicode="&#xff;" horiz-adv-x="1263" 
d="M100 1074h19v-656q0 -236 132 -325q90 -76 208 -76h367q233 0 331 250q14 64 14 180v627h19v-1071q0 -204 -194 -321q-81 -42 -151 -42h-401q-196 0 -320 226q-24 77 -24 142h19q0 -219 222 -326q66 -23 141 -23h326q259 0 349 255q14 62 14 165v160q-21 -79 -128 -170
q-101 -75 -226 -75h-349q-247 0 -354 259q-14 60 -14 104v717zM279 1307h29v-36h-29v36zM965 1309h29v-36h-29v36z" />
    <glyph glyph-name="dotlessi" unicode="&#x131;" horiz-adv-x="502" 
d="M230 1071h19v-1071h-19v1071z" />
    <glyph glyph-name="circumflex" unicode="&#x2c6;" horiz-adv-x="921" 
d="M458 1620l349 -349l-14 -14l-335 333l-337 -335l-12 16z" />
    <glyph glyph-name="caron" unicode="&#x2c7;" horiz-adv-x="921" 
d="M109 1514l12 16l337 -335l335 333l14 -14l-349 -349z" />
    <glyph glyph-name="uni02C9" unicode="&#x2c9;" horiz-adv-x="916" 
d="M100 1250h709v-24h-709v24z" />
    <glyph glyph-name="breve" unicode="&#x2d8;" horiz-adv-x="913" 
d="M100 1419h18q0 -206 208 -313q68 -23 110 -23h23q226 0 318 239q14 48 14 97h18q0 -228 -230 -336q-65 -23 -129 -23q-168 0 -286 152q-64 93 -64 207z" />
    <glyph glyph-name="dotaccent" unicode="&#x2d9;" horiz-adv-x="525" 
d="M245 1259h29v-36h-29v36z" />
    <glyph glyph-name="ring" unicode="&#x2da;" horiz-adv-x="632" 
d="M318 1461q167 0 221 -187v-52q0 -135 -164 -201l-47 -5h-28q-124 0 -192 145q-14 36 -14 84q0 136 154 207zM117 1231q0 -128 145 -187l42 -9q150 0 207 150l9 46q0 153 -169 207h-42q-136 0 -187 -160z" />
    <glyph glyph-name="ogonek" unicode="&#x2db;" horiz-adv-x="569" 
d="M179 -198q123 -143 283 -143v-19q-63 0 -130 23q-232 109 -232 339h18q0 -96 61 -200z" />
    <glyph glyph-name="tilde" unicode="&#x2dc;" horiz-adv-x="1214" 
d="M366 1359q158 0 294 -142q107 -65 197 -65q126 0 238 101l14 -14q-101 -105 -252 -105q-158 0 -275 124q-98 78 -220 78q-124 0 -230 -97l-18 14q115 106 252 106z" />
    <glyph glyph-name="hungarumlaut" unicode="&#x2dd;" horiz-adv-x="1250" 
d="M558 1444l14 -15l-366 -362l-15 15zM1043 1444l15 -15l-367 -362l-14 12z" />
    <glyph glyph-name="endash" unicode="&#x2013;" horiz-adv-x="1263" 
d="M1165 549v-19h-1065v19h1065z" />
    <glyph glyph-name="emdash" unicode="&#x2014;" horiz-adv-x="2109" 
d="M0 550h2112v-23h-2112v23z" />
    <glyph glyph-name="quoteleft" unicode="&#x2018;" horiz-adv-x="557" 
d="M125 1505v-127q0 -276 226 -362l86 -13h23v-23q-218 0 -326 213q-32 62 -32 208v104h23z" />
    <glyph glyph-name="quoteright" unicode="&#x2019;" horiz-adv-x="557" 
d="M437 980v127q0 276 -226 362l-86 13h-23v23q217 0 326 -213q32 -62 32 -208v-104h-23z" />
    <glyph glyph-name="quotesinglbase" unicode="&#x201a;" horiz-adv-x="557" 
d="M437 -270v127q0 276 -226 362l-86 13h-23v23q217 0 326 -213q32 -62 32 -208v-104h-23z" />
    <glyph glyph-name="quotedblleft" unicode="&#x201c;" horiz-adv-x="907" 
d="M125 1505v-127q0 -276 226 -362l86 -13h23v-23q-218 0 -326 213q-32 62 -32 208v104h23zM446 1505h23v-172q0 -232 244 -321l68 -9h18v-23q-225 0 -330 226q-23 70 -23 127v172z" />
    <glyph glyph-name="quotedblright" unicode="&#x201d;" horiz-adv-x="907" 
d="M776 980v127q0 276 -226 362l-86 13h-23v23q218 0 326 -213q32 -62 32 -208v-104h-23zM455 980h-23v172q0 232 -244 321l-68 9h-18v23q224 0 330 -226q23 -70 23 -127v-172z" />
    <glyph glyph-name="quotedblbase" unicode="&#x201e;" horiz-adv-x="907" 
d="M776 -270v127q0 276 -226 362l-86 13h-23v23q218 0 326 -213q32 -62 32 -208v-104h-23zM455 -270h-23v172q0 232 -244 321l-68 9h-18v23q224 0 330 -226q23 -70 23 -127v-172z" />
    <glyph glyph-name="dagger" unicode="&#x2020;" horiz-adv-x="916" 
d="M445 1434h24v-345h346v-24h-346v-1065h-24v1065h-345v24h345v345z" />
    <glyph glyph-name="daggerdbl" unicode="&#x2021;" horiz-adv-x="907" 
d="M445 1434h24v-345h346v-24h-346v-691h346v-24h-346v-350h-24v350h-345v24h345v691h-345v24h345v345z" />
    <glyph glyph-name="bullet" unicode="&#x2022;" horiz-adv-x="907" 
d="M450 995q238 0 341 -253l14 -102q0 -167 -152 -285q-96 -65 -203 -65q-213 0 -327 226q-23 70 -23 133q0 200 203 314q75 32 147 32z" />
    <glyph glyph-name="ellipsis" unicode="&#x2026;" horiz-adv-x="1561" 
d="M233 35h29v-36h-29v36zM763 35h29v-36h-29v36zM1283 35h29v-36h-29v36z" />
    <glyph glyph-name="guilsinglleft" unicode="&#x2039;" horiz-adv-x="649" 
d="M468 871l-336 -336l336 -337l-14 -18l-350 355l346 350z" />
    <glyph glyph-name="guilsinglright" unicode="&#x203a;" horiz-adv-x="658" 
d="M212 885l346 -350l-350 -355l-14 18l336 337l-336 336z" />
    <glyph glyph-name="fraction" unicode="&#x2044;" horiz-adv-x="298" 
d="M512 1429l14 -9l-712 -1415l-14 9z" />
    <glyph glyph-name="fraction" unicode="&#x2215;" horiz-adv-x="298" 
d="M512 1429l14 -9l-712 -1415l-14 9z" />
    <glyph glyph-name="franc" unicode="&#x20a3;" horiz-adv-x="1614" 
d="M447 1430h1074v-23h-1055v-685h703v-23h-703v-404h347v-23h-347v-272h-19v272h-347v23h347v1135z" />
    <glyph glyph-name="lira" unicode="&#x20a4;" horiz-adv-x="1276" 
d="M491 1430h326q195 0 317 -196q42 -80 42 -167h-23v23q0 158 -168 270q-76 47 -172 47h-354q-222 0 -322 -233l-18 -103l153 -312h545v-18h-531l27 -55h504v-20h-493l149 -312q0 -198 -201 -317l-42 -18h583q176 0 293 167q47 83 47 154v23h23q0 -238 -247 -344
q-63 -19 -126 -19h-694v22l24 1q159 0 270 163q46 78 46 154v14l-149 312h-190v20h178l-25 55h-154v18h140l-149 303v9q0 201 196 317q73 42 195 42z" />
    <glyph glyph-name="peseta" unicode="&#x20a7;" horiz-adv-x="2690" 
d="M100 1430h736q181 0 303 -196l18 -37v224h24v-345h340v-19h-340v-698q0 -218 228 -317q60 -19 116 -19q57 0 145 38q-163 127 -163 302h23q0 -181 168 -288q163 110 163 293h23q0 -188 -163 -303q53 -42 168 -42h419q184 0 247 201l4 46v14q0 151 -163 228
q-37 19 -139 19h-457q-211 0 -275 224l-4 55q0 153 158 243q56 28 130 28h401q275 0 368 -280l9 -84h-23q0 236 -247 326q-34 14 -93 14h-419q-209 0 -261 -223v-28q0 -169 177 -242l56 -10h428q235 0 285 -74q93 -81 93 -205q0 -105 -75 -186q-95 -89 -181 -89h-480
q-67 5 -149 47q-98 -47 -177 -47q-227 0 -340 233q-24 68 -24 130v578q-49 -125 -172 -196q-87 -37 -144 -37h-718v-699h-23v1421zM123 1411v-684h680q0 169 168 293q88 56 182 56q0 185 -187 298q-74 37 -200 37h-643zM827 727q111 0 233 102q93 110 93 224
q-152 0 -266 -145q-60 -94 -60 -181z" />
    <glyph glyph-name="Euro" unicode="&#x20ac;" horiz-adv-x="1272" 
d="M506 1434h313q196 0 318 -196q42 -81 42 -173h-20q-3 187 -172 299q-75 47 -172 47h-351q-198 0 -303 -183q-42 -68 -42 -205v-262h700v-23h-700v-47h700v-23h-700v-248q0 -252 154 -341q75 -60 224 -60h248q251 0 336 130q75 89 77 215h21q0 -215 -210 -331
q-77 -33 -150 -33h-364q-207 0 -322 210q-33 72 -33 150v714q0 144 112 257q98 103 294 103z" />
    <glyph glyph-name="afii61352" unicode="&#x2116;" horiz-adv-x="2151" 
d="M100 1434h23l1041 -1387v1382h23v-1429h-23l-1041 1387v-1378h-23v1425zM1614 1261h173q198 0 262 -146q24 -43 24 -117v-220q0 -170 -178 -239l-80 -9h-234q-163 0 -230 178q-9 20 -9 75v234q0 167 183 234zM1365 1026v-262q0 -116 122 -188q41 -23 84 -23h258
q147 0 211 159l9 66v234q0 158 -173 220l-66 5h-220q-156 0 -220 -169zM1351 375h713v-24h-713v24z" />
    <glyph glyph-name="trademark" unicode="&#x2122;" horiz-adv-x="1503" 
d="M100 1418h524v-23h-253v-685h-18v685h-253v23zM845 1413h46q93 -5 150 -115q66 115 158 115h41q106 -7 156 -142l5 -65v-496h-23v510q0 124 -115 166l-50 9q-102 0 -152 -115l-4 -55v-515h-25v513q-18 143 -152 167q-159 -8 -174 -151v-529h-22v529q0 135 161 174z" />
    <glyph glyph-name="partialdiff" unicode="&#x2202;" horiz-adv-x="1267" 
d="M460 1434h271q208 0 289 -65q159 -117 159 -309v-691q0 -273 -290 -364l-65 -5h-383q-190 0 -313 215q-28 74 -28 149v355q0 201 196 318q74 42 196 42h295q274 0 373 -243v159q0 279 -168 364q-75 52 -191 52h-341v23zM119 668v-262q0 -264 201 -355q66 -32 158 -32h295
q261 0 355 201q32 66 32 214v197q0 218 -74 294q-108 131 -267 131h-359q-199 0 -304 -192q-37 -64 -37 -196z" />
    <glyph glyph-name="Delta" unicode="&#x2206;" horiz-adv-x="1267" 
d="M639 1452l544 -1452h-1083zM639 1392l-511 -1373h1026z" />
    <glyph glyph-name="product" unicode="&#x220f;" horiz-adv-x="1635" 
d="M1531 1416v-24h-345v-1582h-23v1582h-690v-1582h-23v1582h-350l1 24h1430z" />
    <glyph glyph-name="minus" unicode="&#x2212;" horiz-adv-x="916" 
d="M100 540h709v-24h-709v24z" />
    <glyph glyph-name="infinity" unicode="&#x221e;" horiz-adv-x="1613" 
d="M448 900h28q179 0 298 -197q27 -58 31 -88q31 127 111 194q101 91 229 91h27q176 0 298 -192q37 -81 37 -156q0 -248 -257 -348q-57 -14 -100 -14q-200 0 -312 197q-32 64 -33 91q-4 -83 -114 -196q-103 -92 -247 -92q-183 0 -307 197q-37 100 -37 156q0 231 238 339
q54 18 110 18zM123 543q0 -226 243 -321l69 -9h27q226 0 316 247l9 65v41q0 187 -210 293q-71 23 -124 23q-201 0 -307 -211q-23 -61 -23 -128zM820 543q0 -192 187 -298q61 -32 138 -32q234 0 330 238l14 96q0 179 -170 289q-83 46 -165 46q-200 0 -307 -202
q-27 -70 -27 -137z" />
    <glyph glyph-name="approxequal" unicode="&#x2248;" horiz-adv-x="1201" 
d="M353 864q158 0 294 -143q108 -64 198 -64q127 0 239 101l14 -14q-101 -105 -253 -105q-158 0 -276 124q-98 78 -221 78q-124 0 -230 -97l-18 14q115 106 253 106zM362 445q142 0 271 -128q94 -74 207 -74h10q130 0 234 97l14 -14q-102 -106 -258 -106q-155 0 -289 143
q-100 59 -198 59q-127 0 -239 -96h-5l-9 14q107 105 262 105z" />
    <glyph glyph-name="lessequal" unicode="&#x2264;" horiz-adv-x="921" 
d="M633 1357l13 -14l-514 -514l510 -520l-14 -14l-528 534zM105 133h704v-23h-704v23z" />
    <glyph glyph-name="greaterequal" unicode="&#x2265;" horiz-adv-x="920" 
d="M809 829l-528 -534l-14 14l510 520l-514 514l13 14zM804 110h-704v23h704v-23z" />
    <glyph glyph-name="uniF001" unicode="&#xf001;" horiz-adv-x="1025" 
d="M785 1434v-24h-150q-263 0 -352 -236l-19 -111v-344h272v-18h-272v-701h-24v978q0 248 99 334q94 122 343 122h103zM776 1067h19v-1067h-19v1067z" />
    <glyph glyph-name="uniF001" unicode="&#xfb01;" horiz-adv-x="1025" 
d="M785 1434v-24h-150q-263 0 -352 -236l-19 -111v-344h272v-18h-272v-701h-24v978q0 248 99 334q94 122 343 122h103zM776 1067h19v-1067h-19v1067z" />
    <glyph glyph-name="uniF002" unicode="&#xf002;" horiz-adv-x="1100" 
d="M538 1434h112l-1 -1075q8 -233 247 -326q54 -14 93 -14v-19q-196 0 -321 191q-42 82 -42 214v1006h-149q-257 0 -344 -256l-10 -70v-359h270v-18h-270v-694h-23v1038q0 272 270 368q70 14 168 14z" />
    <glyph glyph-name="uniF002" unicode="&#xfb02;" horiz-adv-x="1100" 
d="M538 1434h112l-1 -1075q8 -233 247 -326q54 -14 93 -14v-19q-196 0 -321 191q-42 82 -42 214v1006h-149q-257 0 -344 -256l-10 -70v-359h270v-18h-270v-694h-23v1038q0 272 270 368q70 14 168 14z" />
    <glyph glyph-name="Lslash" unicode="&#x141;" horiz-adv-x="1556" 
d="M392 1434h18v-719l264 150l9 -19l-273 -160v-249q0 -218 90 -301q94 -117 301 -117h235q239 0 324 113q94 103 94 235h19q0 -254 -263 -353q-49 -14 -99 -14h-362q-224 0 -334 235q-23 66 -23 132v310l-283 -160l-9 19l292 165v733z" />
    <glyph glyph-name="lslash" unicode="&#x142;" horiz-adv-x="1014" 
d="M392 1434h18v-649l264 151l9 -19l-273 -160v-348q0 -290 240 -371q52 -19 108 -19v-19h-23q-191 0 -315 216q-28 75 -28 151v381l-283 -160l-9 19l292 167v660z" />
    <glyph glyph-name="OE" unicode="&#x152;" horiz-adv-x="1627" 
d="M464 1434q221 0 337 -229l16 -42q13 73 110 178q96 93 285 93h313v-23h-346q-246 0 -336 -243q-14 -34 -14 -94v-345h341v-24h-341v-359q0 -181 196 -295q77 -32 182 -32h318v-19h-379q-178 0 -299 192q-28 51 -30 79q-6 -27 -16 -47q-116 -224 -332 -224h-28
q-194 0 -318 224q-23 82 -23 136v705q0 257 266 355zM123 1074v-728q0 -187 206 -299l121 -28q230 0 332 224q23 59 23 163v622q0 268 -224 364q-76 19 -117 19q-184 0 -294 -169q-47 -75 -47 -168z" />
    <glyph glyph-name="oe" unicode="&#x153;" horiz-adv-x="1983" 
d="M544 1074h20q233 0 332 -110q54 -58 88 -163q19 92 130 194q85 79 305 79q249 0 324 -93q125 -106 125 -277q0 -207 -208 -320q-73 -32 -148 -32h-514v-9q0 -188 208 -297q64 -23 125 -23h172q251 0 338 259l7 79h20q0 -234 -245 -342q-74 -19 -157 -19h-125
q-248 0 -357 262l-37 -81q-109 -181 -356 -181h-125q-219 0 -329 204q-37 66 -37 162v342q0 209 190 320q67 46 254 46zM119 653v-236q0 -267 180 -352q65 -42 157 -42h176q213 0 315 208q28 62 28 172v268q0 271 -227 361q-66 19 -130 19h-143q-268 0 -347 -269zM998 731
v-361h431q220 0 296 79q125 111 125 264q0 175 -162 287q-80 51 -195 51h-143q-254 0 -343 -250z" />
    <glyph glyph-name="scaron" unicode="&#x161;" horiz-adv-x="1258" 
d="M475 1075h251q251 0 333 -107q111 -104 111 -255h-21q-2 213 -224 320q-68 19 -130 19h-389q-205 0 -264 -190l-10 -65q0 -156 163 -232q38 -18 102 -18h486q196 0 273 -195l10 -69v-19q0 -180 -204 -255l-79 -9h-417q-269 0 -361 292l-5 69h19q0 -127 97 -236
q103 -102 241 -102h454q130 0 208 139q28 60 28 111q0 178 -194 246q-56 9 -153 9h-436q-140 0 -232 167q-18 53 -18 93v23q0 163 181 245q37 19 180 19zM289 1514l12 16l337 -335l335 333l14 -14l-349 -349z" />
    <glyph glyph-name="Scaron" unicode="&#x160;" horiz-adv-x="1267" 
d="M507 1435h313q196 0 318 -196q42 -81 42 -169h-22q-2 183 -170 295q-76 47 -173 47h-350q-249 0 -337 -267l-9 -75q0 -208 210 -317q69 -24 112 -24h290q209 0 290 -65q159 -117 159 -309q0 -204 -211 -322q-76 -33 -149 -33h-365q-207 0 -322 210q-33 73 -33 155h19
q0 -220 229 -328q75 -18 149 -18h248q252 0 337 131q74 88 74 191v42q0 196 -224 304q-68 19 -131 19h-341q-236 0 -346 252l-12 61l-2 56q0 144 112 257q98 103 295 103zM289 1864l12 16l337 -335l335 333l14 -14l-349 -349z" />
    <glyph glyph-name="Zcaron" unicode="&#x17d;" horiz-adv-x="1267" 
d="M109 1430h1081l-1059 -1411h1036v-19h-1080l1056 1407h-1034v23zM289 1864l12 16l337 -335l335 333l14 -14l-349 -349z" />
    <glyph glyph-name="zcaron" unicode="&#x17e;" horiz-adv-x="1258" 
d="M109 1073h994v-13l-968 -1038h960v-22h-995v13l969 1038h-960v22zM289 1514l12 16l337 -335l335 333l14 -14l-349 -349z" />
    <glyph glyph-name="Ydieresis" unicode="&#x178;" horiz-adv-x="1272" 
d="M100 1430h19v-302q0 -236 132 -326q90 -75 208 -75h368q233 0 330 250q14 63 14 179v274h19v-359q0 -214 -207 -330q-78 -38 -166 -38h-160v-703h-24v703h-165q-247 0 -354 260q-14 59 -14 104v363zM279 1647h29v-36h-29v36zM965 1649h29v-36h-29v36z" />
    <glyph glyph-name="perthousand" unicode="&#x2030;" horiz-adv-x="2770" 
d="M451 1434h33q156 0 281 -159q61 -91 61 -211q0 -228 -243 -338q-55 -18 -113 -18h-14q-234 0 -342 253q-14 49 -14 98v24q0 217 230 328q52 23 121 23zM1342 1429l14 -9l-712 -1415l-14 9zM119 1068q0 -197 192 -304q78 -38 155 -38q163 0 276 146q66 95 66 201
q0 195 -193 305q-71 37 -154 37q-205 0 -314 -206q-28 -72 -28 -141zM1520 726h23q189 0 314 -206q33 -84 33 -164q0 -196 -192 -314q-81 -42 -150 -42h-33q-232 0 -342 258l-14 108q0 200 202 323q81 37 159 37zM1183 366v-5q0 -226 234 -324q62 -18 112 -18q219 0 324 234
l14 89v42q0 190 -216 300q-59 19 -126 24q-208 0 -319 -216q-23 -65 -23 -126zM2330 726h23q189 0 314 -206q33 -84 33 -164q0 -196 -192 -314q-81 -42 -150 -42h-33q-232 0 -342 258l-14 108q0 200 202 323q81 37 159 37zM1993 366v-5q0 -226 234 -324q62 -18 112 -18
q219 0 324 234l14 89v42q0 190 -216 300q-59 19 -126 24q-208 0 -319 -216q-23 -65 -23 -126z" />
    <glyph glyph-name="Amacron" unicode="&#x100;" horiz-adv-x="1276" 
d="M508 1430h314q208 0 333 -220q28 -81 28 -155v-1055h-23v699h-1041v-699h-19v1069q0 144 113 258q98 103 295 103zM119 1017v-295h1041v366q0 159 -169 272q-76 47 -174 47h-351q-200 0 -305 -183q-42 -69 -42 -207zM287 1691h709v-24h-709v24z" />
    <glyph glyph-name="amacron" unicode="&#x101;" horiz-adv-x="1273" 
d="M544 1074h181q251 0 338 -101q83 -95 88 -140v240h23v-1072h-23v240q-35 -106 -158 -190q-86 -51 -226 -51h-301q-219 0 -329 204q-37 66 -37 162v342q0 209 190 320q67 46 254 46zM119 653v-236q0 -267 180 -352q65 -42 157 -42h352q207 0 310 199q33 64 33 213v204
q0 277 -167 361q-74 51 -190 51h-319q-268 0 -347 -269zM283 1330h709v-24h-709v24z" />
    <glyph glyph-name="Abreve" unicode="&#x102;" horiz-adv-x="1276" 
d="M508 1430h314q208 0 333 -220q28 -81 28 -155v-1055h-23v699h-1041v-699h-19v1069q0 144 113 258q98 103 295 103zM119 1017v-295h1041v366q0 159 -169 272q-76 47 -174 47h-351q-200 0 -305 -183q-42 -69 -42 -207zM287 1860h18q0 -206 208 -313q68 -23 110 -23h23
q226 0 318 239q14 48 14 97h18q0 -228 -230 -336q-65 -23 -129 -23q-168 0 -286 152q-64 93 -64 207z" />
    <glyph glyph-name="abreve" unicode="&#x103;" horiz-adv-x="1273" 
d="M544 1074h181q251 0 338 -101q83 -95 88 -140v240h23v-1072h-23v240q-35 -106 -158 -190q-86 -51 -226 -51h-301q-219 0 -329 204q-37 66 -37 162v342q0 209 190 320q67 46 254 46zM119 653v-236q0 -267 180 -352q65 -42 157 -42h352q207 0 310 199q33 64 33 213v204
q0 277 -167 361q-74 51 -190 51h-319q-268 0 -347 -269zM283 1499h18q0 -206 208 -313q68 -23 110 -23h23q226 0 318 239q14 48 14 97h18q0 -228 -230 -336q-65 -23 -129 -23q-168 0 -286 152q-64 93 -64 207z" />
    <glyph glyph-name="Aogonek" unicode="&#x104;" horiz-adv-x="1276" 
d="M119 1017v-295h1041v366q0 159 -169 272q-76 47 -174 47h-351q-200 0 -305 -183q-42 -69 -42 -207zM1160 0v699h-1041v-699h-19v1069q0 144 113 258q98 103 295 103h314q208 0 333 -220q28 -81 28 -155v-1064q0 -91 57 -189q123 -143 283 -143v-19q-63 0 -130 23
q-231 109 -233 337z" />
    <glyph glyph-name="aogonek" unicode="&#x105;" horiz-adv-x="1273" 
d="M119 653v-236q0 -267 180 -352q65 -42 157 -42h352q207 0 310 199q33 64 33 213v204q0 277 -167 361q-74 51 -190 51h-319q-268 0 -347 -269zM1151 1v240q-35 -106 -158 -190q-86 -51 -226 -51h-301q-219 0 -329 204q-37 66 -37 162v342q0 209 190 320q67 46 254 46h181
q251 0 338 -101q83 -95 88 -140v240h23v-1084q0 -90 57 -187q123 -143 283 -143v-19q-63 0 -130 23q-231 109 -233 338z" />
    <glyph glyph-name="Cacute" unicode="&#x106;" 
d="M505 1428h311q195 0 317 -195q41 -81 41 -169h-23q0 183 -167 294q-76 47 -172 47h-349q-198 0 -303 -182q-41 -68 -41 -204v-600q0 -252 153 -340q75 -60 223 -60h247q250 0 335 130q74 88 74 214h23q0 -215 -209 -330q-76 -33 -149 -33h-362q-206 0 -321 209
q-33 72 -33 149v712q0 143 112 256q97 102 293 102zM844 1800l-417 -239l-14 19l422 239z" />
    <glyph glyph-name="cacute" unicode="&#x107;" horiz-adv-x="1262" 
d="M531 1075h195q21 1 42 1q184 0 297 -106q6 -2 59 -76q46 -90 46 -185h-23q0 215 -208 315q-59 28 -149 28h-315q-254 0 -343 -250q-13 -62 -13 -163v-194q0 -241 97 -315q100 -107 232 -107h352q259 0 343 269q8 42 8 68v6h20q-1 -240 -246 -347q-60 -19 -167 -19h-297
q-209 0 -324 199q-37 77 -37 144v375q0 229 246 338q74 19 185 19zM843 1439l-417 -239l-14 19l422 239z" />
    <glyph glyph-name="Ccircumflex" unicode="&#x108;" 
d="M505 1428h311q195 0 317 -195q41 -81 41 -169h-23q0 183 -167 294q-76 47 -172 47h-349q-198 0 -303 -182q-41 -68 -41 -204v-600q0 -252 153 -340q75 -60 223 -60h247q250 0 335 130q74 88 74 214h23q0 -215 -209 -330q-76 -33 -149 -33h-362q-206 0 -321 209
q-33 72 -33 149v712q0 143 112 256q97 102 293 102zM637 1981l349 -349l-14 -14l-335 333l-337 -335l-12 16z" />
    <glyph glyph-name="ccircumflex" unicode="&#x109;" horiz-adv-x="1262" 
d="M531 1075h195q21 1 42 1q184 0 297 -106q6 -2 59 -76q46 -90 46 -185h-23q0 215 -208 315q-59 28 -149 28h-315q-254 0 -343 -250q-13 -62 -13 -163v-194q0 -241 97 -315q100 -107 232 -107h352q259 0 343 269q8 42 8 68v6h20q-1 -240 -246 -347q-60 -19 -167 -19h-297
q-209 0 -324 199q-37 77 -37 144v375q0 229 246 338q74 19 185 19zM636 1620l349 -349l-14 -14l-335 333l-337 -335l-12 16z" />
    <glyph glyph-name="Cdotaccent" unicode="&#x10a;" 
d="M505 1428h311q195 0 317 -195q41 -81 41 -169h-23q0 183 -167 294q-76 47 -172 47h-349q-198 0 -303 -182q-41 -68 -41 -204v-600q0 -252 153 -340q75 -60 223 -60h247q250 0 335 130q74 88 74 214h23q0 -215 -209 -330q-76 -33 -149 -33h-362q-206 0 -321 209
q-33 72 -33 149v712q0 143 112 256q97 102 293 102zM623 1700h29v-36h-29v36z" />
    <glyph glyph-name="cdotaccent" unicode="&#x10b;" horiz-adv-x="1262" 
d="M531 1075h195q21 1 42 1q184 0 297 -106q6 -2 59 -76q46 -90 46 -185h-23q0 215 -208 315q-59 28 -149 28h-315q-254 0 -343 -250q-13 -62 -13 -163v-194q0 -241 97 -315q100 -107 232 -107h352q259 0 343 269q8 42 8 68v6h20q-1 -240 -246 -347q-60 -19 -167 -19h-297
q-209 0 -324 199q-37 77 -37 144v375q0 229 246 338q74 19 185 19zM621 1339h29v-36h-29v36z" />
    <glyph glyph-name="Ccaron" unicode="&#x10c;" 
d="M505 1428h311q195 0 317 -195q41 -81 41 -169h-23q0 183 -167 294q-76 47 -172 47h-349q-198 0 -303 -182q-41 -68 -41 -204v-600q0 -252 153 -340q75 -60 223 -60h247q250 0 335 130q74 88 74 214h23q0 -215 -209 -330q-76 -33 -149 -33h-362q-206 0 -321 209
q-33 72 -33 149v712q0 143 112 256q97 102 293 102zM288 1875l12 16l337 -335l335 333l14 -14l-349 -349z" />
    <glyph glyph-name="ccaron" unicode="&#x10d;" horiz-adv-x="1262" 
d="M531 1075h195q21 1 42 1q184 0 297 -106q6 -2 59 -76q46 -90 46 -185h-23q0 215 -208 315q-59 28 -149 28h-315q-254 0 -343 -250q-13 -62 -13 -163v-194q0 -241 97 -315q100 -107 232 -107h352q259 0 343 269q8 42 8 68v6h20q-1 -240 -246 -347q-60 -19 -167 -19h-297
q-209 0 -324 199q-37 77 -37 144v375q0 229 246 338q74 19 185 19zM287 1514l12 16l337 -335l335 333l14 -14l-349 -349z" />
    <glyph glyph-name="Dcaron" unicode="&#x10e;" 
d="M816 1428q206 0 331 -219q27 -80 27 -153v-689q0 -250 -255 -353q-59 -14 -103 -14h-716v1428h716zM119 1405v-1386h623q274 0 358 162q56 63 56 252v548q0 216 -75 294q-108 130 -269 130h-693zM288 1875l12 16l337 -335l335 333l14 -14l-349 -349z" />
    <glyph glyph-name="dcaron" unicode="&#x10f;" horiz-adv-x="1700" 
d="M1186 9h-19v231l-23 -47q-121 -193 -301 -193h-386l-65 5q-292 92 -292 366v348q0 60 19 113q95 254 376 254h296q279 0 376 -244v592h19v-1425zM1130 870q-106 193 -306 193h-362q-160 0 -268 -132q-75 -76 -75 -296v-198q0 -150 33 -216q94 -202 357 -202h296
q93 0 160 33q202 91 202 357v263q0 134 -37 198zM1578 1432h23q0 -279 -254 -372q-57 -14 -99 -14v23h22q154 0 263 163q45 74 45 200z" />
    <glyph glyph-name="Dcroat" unicode="&#x110;" horiz-adv-x="1616" 
d="M441 1434h673q291 0 387 -243q24 -63 24 -210v-542q0 -257 -131 -350q-101 -89 -234 -89h-719v705h-341v24h341v705zM464 1411v-682h519v-24h-519v-686h612q223 0 299 79q126 107 126 280v678q0 243 -233 336q-48 19 -112 19h-692z" />
    <glyph glyph-name="dcroat" unicode="&#x111;" horiz-adv-x="1266" 
d="M1130 870q-106 193 -306 193h-362q-160 0 -268 -132q-75 -76 -75 -296v-198q0 -150 33 -216q94 -202 357 -202h296q93 0 160 33q202 91 202 357v263q0 134 -37 198zM1186 1240v-1231h-19v231l-23 -47q-121 -193 -301 -193h-386l-65 5q-292 92 -292 366v348q0 60 19 113
q95 254 376 254h296q279 0 376 -244v398h-743v23h743v171h19v-171h82v-23h-82z" />
    <glyph glyph-name="Emacron" unicode="&#x112;" horiz-adv-x="1275" 
d="M1167 1430v-23h-1048v-680h689v-24h-689v-684h1048v-19h-1067v1430h1067zM279 1691h709v-24h-709v24z" />
    <glyph glyph-name="emacron" unicode="&#x113;" horiz-adv-x="1266" 
d="M544 1072h180q206 0 286 -65q157 -115 157 -305q0 -202 -208 -318q-75 -33 -147 -33h-694q0 -128 116 -245q100 -83 222 -83h351q229 0 323 236q14 49 14 102h23q0 -236 -249 -343q-62 -18 -153 -18h-300q-218 0 -328 203q-37 66 -37 162v342q0 208 189 319q67 46 255 46
zM118 652v-282h620q248 0 332 129q74 88 74 189v42q0 194 -222 300q-67 19 -129 19h-319q-267 0 -346 -268zM279 1330h709v-24h-709v24z" />
    <glyph glyph-name="Ebreve" unicode="&#x114;" horiz-adv-x="1275" 
d="M1167 1430v-23h-1048v-680h689v-24h-689v-684h1048v-19h-1067v1430h1067zM279 1860h18q0 -206 208 -313q68 -23 110 -23h23q226 0 318 239q14 48 14 97h18q0 -228 -230 -336q-65 -23 -129 -23q-168 0 -286 152q-64 93 -64 207z" />
    <glyph glyph-name="ebreve" unicode="&#x115;" horiz-adv-x="1266" 
d="M544 1072h180q206 0 286 -65q157 -115 157 -305q0 -202 -208 -318q-75 -33 -147 -33h-694q0 -128 116 -245q100 -83 222 -83h351q229 0 323 236q14 49 14 102h23q0 -236 -249 -343q-62 -18 -153 -18h-300q-218 0 -328 203q-37 66 -37 162v342q0 208 189 319q67 46 255 46
zM118 652v-282h620q248 0 332 129q74 88 74 189v42q0 194 -222 300q-67 19 -129 19h-319q-267 0 -346 -268zM279 1499h18q0 -206 208 -313q68 -23 110 -23h23q226 0 318 239q14 48 14 97h18q0 -228 -230 -336q-65 -23 -129 -23q-168 0 -286 152q-64 93 -64 207z" />
    <glyph glyph-name="Edotaccent" unicode="&#x116;" horiz-adv-x="1275" 
d="M1167 1430v-23h-1048v-680h689v-24h-689v-684h1048v-19h-1067v1430h1067zM619 1700h29v-36h-29v36z" />
    <glyph glyph-name="edotaccent" unicode="&#x117;" horiz-adv-x="1266" 
d="M544 1072h180q206 0 286 -65q157 -115 157 -305q0 -202 -208 -318q-75 -33 -147 -33h-694q0 -128 116 -245q100 -83 222 -83h351q229 0 323 236q14 49 14 102h23q0 -236 -249 -343q-62 -18 -153 -18h-300q-218 0 -328 203q-37 66 -37 162v342q0 208 189 319q67 46 255 46
zM118 652v-282h620q248 0 332 129q74 88 74 189v42q0 194 -222 300q-67 19 -129 19h-319q-267 0 -346 -268zM619 1339h29v-36h-29v36z" />
    <glyph glyph-name="Eogonek" unicode="&#x118;" horiz-adv-x="1275" 
d="M805 0h-705v1430h1067v-23h-1048v-680h689v-24h-689v-684h1048v-19h-344q1 -95 61 -198q123 -143 283 -143v-19q-63 0 -130 23q-231 109 -232 337z" />
    <glyph glyph-name="eogonek" unicode="&#x119;" horiz-adv-x="1266" 
d="M118 652v-282h620q248 0 332 129q74 88 74 189v42q0 194 -222 300q-67 19 -129 19h-319q-267 0 -346 -268zM501 0h-36q-218 0 -328 203q-37 66 -37 162v342q0 208 189 319q67 46 255 46h180q206 0 286 -65q157 -115 157 -305q0 -202 -208 -318q-75 -33 -147 -33h-694
q0 -128 116 -245q100 -83 222 -83h351q229 0 323 236q14 49 14 102h23q0 -236 -249 -343q-62 -18 -153 -18h-246q5 -89 61 -185q123 -143 283 -143v-19q-63 0 -130 23q-224 105 -232 324z" />
    <glyph glyph-name="Ecaron" unicode="&#x11a;" horiz-adv-x="1275" 
d="M1167 1430v-23h-1048v-680h689v-24h-689v-684h1048v-19h-1067v1430h1067zM285 1875l12 16l337 -335l335 333l14 -14l-349 -349z" />
    <glyph glyph-name="ecaron" unicode="&#x11b;" horiz-adv-x="1266" 
d="M544 1072h180q206 0 286 -65q157 -115 157 -305q0 -202 -208 -318q-75 -33 -147 -33h-694q0 -128 116 -245q100 -83 222 -83h351q229 0 323 236q14 49 14 102h23q0 -236 -249 -343q-62 -18 -153 -18h-300q-218 0 -328 203q-37 66 -37 162v342q0 208 189 319q67 46 255 46
zM118 652v-282h620q248 0 332 129q74 88 74 189v42q0 194 -222 300q-67 19 -129 19h-319q-267 0 -346 -268zM285 1514l12 16l337 -335l335 333l14 -14l-349 -349z" />
    <glyph glyph-name="Gcircumflex" unicode="&#x11c;" 
d="M505 1428h311q195 0 317 -195q41 -81 41 -168h-22q-1 182 -168 293q-76 47 -172 47h-349q-198 0 -303 -182q-41 -68 -41 -204v-600q0 -252 153 -340q75 -60 223 -60h247q274 0 358 162q56 63 56 252v269h-344v24h362v-359q0 -250 -255 -353q-59 -14 -103 -14h-362
q-206 0 -321 209q-33 72 -33 149v712q0 143 112 256q97 102 293 102zM637 1981l349 -349l-14 -14l-335 333l-337 -335l-12 16z" />
    <glyph glyph-name="gcircumflex" unicode="&#x11d;" horiz-adv-x="1266" 
d="M548 1074h183q208 0 289 -65q159 -117 159 -309v-700q0 -203 -192 -318q-80 -42 -149 -42h-383q-207 0 -322 210q-33 72 -33 154h19q0 -219 229 -327q75 -18 149 -18h304q257 0 345 252q14 62 14 163v159q-35 -107 -158 -191q-88 -52 -229 -52h-304q-221 0 -332 206
q-37 66 -37 163v346q0 210 192 322q67 47 256 47zM119 649v-238q0 -269 182 -355q65 -42 159 -42h355q208 0 313 201q32 64 32 214v206q0 279 -168 364q-75 52 -191 52h-323q-270 0 -350 -271zM640 1620l349 -349l-14 -14l-335 333l-337 -335l-12 16z" />
    <glyph glyph-name="Gbreve" unicode="&#x11e;" 
d="M505 1428h311q195 0 317 -195q41 -81 41 -168h-22q-1 182 -168 293q-76 47 -172 47h-349q-198 0 -303 -182q-41 -68 -41 -204v-600q0 -252 153 -340q75 -60 223 -60h247q274 0 358 162q56 63 56 252v269h-344v24h362v-359q0 -250 -255 -353q-59 -14 -103 -14h-362
q-206 0 -321 209q-33 72 -33 149v712q0 143 112 256q97 102 293 102zM283 1860h18q0 -206 208 -313q68 -23 110 -23h23q226 0 318 239q14 48 14 97h18q0 -228 -230 -336q-65 -23 -129 -23q-168 0 -286 152q-64 93 -64 207z" />
    <glyph glyph-name="gbreve" unicode="&#x11f;" horiz-adv-x="1266" 
d="M548 1074h183q208 0 289 -65q159 -117 159 -309v-700q0 -203 -192 -318q-80 -42 -149 -42h-383q-207 0 -322 210q-33 72 -33 154h19q0 -219 229 -327q75 -18 149 -18h304q257 0 345 252q14 62 14 163v159q-35 -107 -158 -191q-88 -52 -229 -52h-304q-221 0 -332 206
q-37 66 -37 163v346q0 210 192 322q67 47 256 47zM119 649v-238q0 -269 182 -355q65 -42 159 -42h355q208 0 313 201q32 64 32 214v206q0 279 -168 364q-75 52 -191 52h-323q-270 0 -350 -271zM285 1499h18q0 -206 208 -313q68 -23 110 -23h23q226 0 318 239q14 48 14 97h18
q0 -228 -230 -336q-65 -23 -129 -23q-168 0 -286 152q-64 93 -64 207z" />
    <glyph glyph-name="Gdotaccent" unicode="&#x120;" 
d="M505 1428h311q195 0 317 -195q41 -81 41 -168h-22q-1 182 -168 293q-76 47 -172 47h-349q-198 0 -303 -182q-41 -68 -41 -204v-600q0 -252 153 -340q75 -60 223 -60h247q274 0 358 162q56 63 56 252v269h-344v24h362v-359q0 -250 -255 -353q-59 -14 -103 -14h-362
q-206 0 -321 209q-33 72 -33 149v712q0 143 112 256q97 102 293 102zM623 1700h29v-36h-29v36z" />
    <glyph glyph-name="gdotaccent" unicode="&#x121;" horiz-adv-x="1266" 
d="M548 1074h183q208 0 289 -65q159 -117 159 -309v-700q0 -203 -192 -318q-80 -42 -149 -42h-383q-207 0 -322 210q-33 72 -33 154h19q0 -219 229 -327q75 -18 149 -18h304q257 0 345 252q14 62 14 163v159q-35 -107 -158 -191q-88 -52 -229 -52h-304q-221 0 -332 206
q-37 66 -37 163v346q0 210 192 322q67 47 256 47zM119 649v-238q0 -269 182 -355q65 -42 159 -42h355q208 0 313 201q32 64 32 214v206q0 279 -168 364q-75 52 -191 52h-323q-270 0 -350 -271zM625 1339h29v-36h-29v36z" />
    <glyph glyph-name="Gcommaaccent" unicode="&#x122;" 
d="M794 0h-340q-206 0 -321 209q-33 72 -33 149v712q0 143 112 256q97 102 293 102h311q195 0 317 -195q41 -81 41 -168h-22q-1 182 -168 293q-76 47 -172 47h-349q-198 0 -303 -182q-41 -68 -41 -204v-600q0 -252 153 -340q75 -60 223 -60h247q274 0 358 162q56 63 56 252
v269h-344v24h362v-359q0 -250 -255 -353q-59 -14 -103 -14h-4q-1 -228 -232 -337q-67 -23 -130 -23v19q160 0 283 143q60 103 61 198z" />
    <glyph glyph-name="gcommaaccent" unicode="&#x123;" horiz-adv-x="1266" 
d="M548 1074h183q208 0 289 -65q159 -117 159 -309v-700q0 -203 -192 -318q-80 -42 -149 -42h-383q-207 0 -322 210q-33 72 -33 154h19q0 -219 229 -327q75 -18 149 -18h304q257 0 345 252q14 62 14 163v159q-35 -107 -158 -191q-88 -52 -229 -52h-304q-221 0 -332 206
q-37 66 -37 163v346q0 210 192 322q67 47 256 47zM119 649v-238q0 -269 182 -355q65 -42 159 -42h355q208 0 313 201q32 64 32 214v206q0 279 -168 364q-75 52 -191 52h-323q-270 0 -350 -271zM473 1165h-23q0 279 254 372q57 14 99 14v-23h-22q-154 0 -263 -163
q-45 -74 -45 -200z" />
    <glyph glyph-name="Hcircumflex" unicode="&#x124;" 
d="M100 1434h19v-705h1051v705h23v-1434h-23v705h-1051v-705h-19v1434zM647 1981l349 -349l-14 -14l-335 333l-337 -335l-12 16z" />
    <glyph glyph-name="hcircumflex" unicode="&#x125;" horiz-adv-x="1266" 
d="M100 1435h19v-597q51 130 147 185q96 62 203 62h356q250 0 355 -266q14 -56 14 -104v-715h-19v630q0 222 -76 298q-74 87 -142 109q-27 14 -132 24h-365q-126 0 -227 -90q-114 -93 -114 -313v-658h-19v1435zM647 2000l349 -349l-14 -14l-335 333l-337 -335l-12 16z" />
    <glyph glyph-name="Hbar" unicode="&#x126;" 
d="M1170 1075v359h23v-1434h-23v705h-1051v-705h-19v1434h19v-359h1051zM119 1052v-323h1051v323h-1051z" />
    <glyph glyph-name="hbar" unicode="&#x127;" horiz-adv-x="1266" 
d="M100 1263v172h19v-172h728v-23h-728v-402q51 130 147 185q96 62 203 62h356q250 0 355 -266q14 -56 14 -104v-715h-19v630q0 222 -76 298q-74 87 -142 109q-27 14 -132 24h-365q-126 0 -227 -90q-114 -93 -114 -313v-658h-19v1240h-97v23h97z" />
    <glyph glyph-name="Itilde" unicode="&#x128;" horiz-adv-x="800" 
d="M390 1430h21v-1430h-21v1430zM155 1800q158 0 294 -142q107 -65 197 -65q126 0 238 101l14 -14q-101 -105 -252 -105q-158 0 -275 124q-98 78 -220 78q-124 0 -230 -97l-18 14q115 106 252 106z" />
    <glyph glyph-name="itilde" unicode="&#x129;" horiz-adv-x="800" 
d="M390 1071h19v-1071h-19v1071zM154 1439q158 0 294 -142q107 -65 197 -65q126 0 238 101l14 -14q-101 -105 -252 -105q-158 0 -275 124q-98 78 -220 78q-124 0 -230 -97l-18 14q115 106 252 106z" />
    <glyph glyph-name="Imacron" unicode="&#x12a;" horiz-adv-x="800" 
d="M390 1430h21v-1430h-21v1430zM46 1691h709v-24h-709v24z" />
    <glyph glyph-name="imacron" unicode="&#x12b;" horiz-adv-x="800" 
d="M390 1071h19v-1071h-19v1071zM45 1330h709v-24h-709v24z" />
    <glyph glyph-name="Ibreve" unicode="&#x12c;" horiz-adv-x="800" 
d="M390 1430h21v-1430h-21v1430zM46 1860h18q0 -206 208 -313q68 -23 110 -23h23q226 0 318 239q14 48 14 97h18q0 -228 -230 -336q-65 -23 -129 -23q-168 0 -286 152q-64 93 -64 207z" />
    <glyph glyph-name="ibreve" unicode="&#x12d;" horiz-adv-x="800" 
d="M390 1071h19v-1071h-19v1071zM45 1499h18q0 -206 208 -313q68 -23 110 -23h23q226 0 318 239q14 48 14 97h18q0 -228 -230 -336q-65 -23 -129 -23q-168 0 -286 152q-64 93 -64 207z" />
    <glyph glyph-name="Iogonek" unicode="&#x12e;" horiz-adv-x="502" 
d="M230 0v1430h21v-1430q0 -95 60 -198q123 -143 283 -143v-19q-63 0 -130 23q-231 109 -234 337z" />
    <glyph glyph-name="iogonek" unicode="&#x12f;" horiz-adv-x="493" 
d="M230 1313h19v-38h-19v38zM230 0v1071h19v-1069q0 -96 61 -200q123 -143 283 -143v-19q-63 0 -130 23q-231 109 -233 337z" />
    <glyph glyph-name="Idotaccent" unicode="&#x130;" horiz-adv-x="502" 
d="M230 1430h21v-1430h-21v1430zM226 1700h29v-36h-29v36z" />
    <glyph glyph-name="IJ" unicode="&#x132;" horiz-adv-x="1768" 
d="M230 1430h21v-1430h-21v1430zM1670 1435h19v-1063q0 -253 -259 -358q-59 -14 -103 -14h-367q-228 0 -334 235q-24 66 -24 132v358h19v-308q0 -162 89 -275q95 -123 301 -123h240q277 0 363 164q56 63 56 255v997z" />
    <glyph glyph-name="ij" unicode="&#x133;" horiz-adv-x="1053" 
d="M230 1313h19v-38h-19v38zM230 1071h19v-1071h-19v1071zM937 1317h23v-38h-23v38zM960 1073v-1028q0 -306 -273 -396l-45 -7l-49 -2v19q133 0 240 99q104 104 104 244v1071h23z" />
    <glyph glyph-name="Jcircumflex" unicode="&#x134;" horiz-adv-x="1266" 
d="M1168 1435h19v-1063q0 -253 -259 -358q-59 -14 -103 -14h-367q-228 0 -334 235q-24 66 -24 132v358h19v-308q0 -162 89 -275q95 -123 301 -123h240q277 0 363 164q56 63 56 255v997zM1164 1981l349 -349l-14 -14l-335 333l-337 -335l-12 16z" />
    <glyph glyph-name="jcircumflex" unicode="&#x135;" horiz-adv-x="620" 
d="M467 1073v-1028q0 -306 -273 -396l-45 -7l-49 -2v19q133 0 240 99q104 104 104 244v1071h23zM456 1674l349 -349l-14 -14l-336 331l-335 -332l-14 15z" />
    <glyph glyph-name="Kcommaaccent" unicode="&#x136;" horiz-adv-x="1273" 
d="M917 938l251 496l21 -9q-249 -512 -310 -590q-70 -98 -186 -117q119 -19 196 -127l299 -583l-22 -8l-293 574q-84 134 -323 134h-431v-708h-19v1434h19v-706h424q202 0 282 81q35 27 92 129zM794 -48h18q0 -230 -232 -339q-67 -23 -130 -23v19q160 0 283 143
q61 104 61 200z" />
    <glyph glyph-name="kcommaaccent" unicode="&#x137;" horiz-adv-x="1272" 
d="M100 1434h19v-1052l1052 698l12 -16l-399 -267l406 -792l-19 -5l-406 783l-646 -434v-344h-19v1429zM794 -48h18q0 -230 -232 -339q-67 -23 -130 -23v19q160 0 283 143q61 104 61 200z" />
    <glyph glyph-name="kgreenlandic" unicode="&#x138;" horiz-adv-x="1272" 
d="M100 1074h19v-692l1052 698l12 -16l-399 -267l406 -792l-19 -5l-406 783l-646 -434v-344h-19v1069z" />
    <glyph glyph-name="Lacute" unicode="&#x139;" horiz-adv-x="1266" 
d="M100 1435h19v-997q0 -219 89 -302q95 -117 301 -117h236q239 0 324 113q94 103 94 235h19q0 -254 -263 -353q-49 -14 -99 -14h-362q-224 0 -334 235q-24 66 -24 132v1068zM928 1720l-417 -239l-14 19l422 239z" />
    <glyph glyph-name="lacute" unicode="&#x13a;" horiz-adv-x="568" 
d="M100 1434h19v-1025q0 -290 240 -371q51 -19 108 -19v-19q-215 0 -339 216q-28 75 -28 151v1067zM499 1981l-417 -239l-14 19l422 239z" />
    <glyph glyph-name="Lcommaaccent" unicode="&#x13b;" horiz-adv-x="1266" 
d="M100 1435h19v-997q0 -219 89 -302q95 -117 301 -117h236q239 0 324 113q94 103 94 235h19q0 -254 -263 -353q-49 -14 -99 -14h-362q-224 0 -334 235q-24 66 -24 132v1068zM794 -48h18q0 -230 -232 -339q-67 -23 -130 -23v19q160 0 283 143q61 104 61 200z" />
    <glyph glyph-name="lcommaaccent" unicode="&#x13c;" horiz-adv-x="568" 
d="M100 1434h19v-1025q0 -290 240 -371q51 -19 108 -19v-19q-215 0 -339 216q-28 75 -28 151v1067zM444 -48h18q0 -230 -232 -339q-67 -23 -130 -23v19q160 0 283 143q61 104 61 200z" />
    <glyph glyph-name="Lcaron" unicode="&#x13d;" horiz-adv-x="1266" 
d="M100 1435h19v-997q0 -219 89 -302q95 -117 301 -117h236q239 0 324 113q94 103 94 235h19q0 -254 -263 -353q-49 -14 -99 -14h-362q-224 0 -334 235q-24 66 -24 132v1068zM1152 1432h23q0 -279 -254 -372q-57 -14 -99 -14v23h22q154 0 263 163q45 74 45 200z" />
    <glyph glyph-name="lcaron" unicode="&#x13e;" horiz-adv-x="950" 
d="M100 1434h19v-1025q0 -290 240 -371q51 -19 108 -19v-19q-215 0 -339 216q-28 75 -28 151v1067zM830 1432h23q0 -279 -254 -372q-57 -14 -99 -14v23h22q154 0 263 163q45 74 45 200z" />
    <glyph glyph-name="Ldot" unicode="&#x13f;" horiz-adv-x="1266" 
d="M100 1435h19v-997q0 -219 89 -302q95 -117 301 -117h236q239 0 324 113q94 103 94 235h19q0 -254 -263 -353q-49 -14 -99 -14h-362q-224 0 -334 235q-24 66 -24 132v1068zM624 736h29v-36h-29v36z" />
    <glyph glyph-name="ldot" unicode="&#x140;" horiz-adv-x="597" 
d="M100 1434h19v-1025q0 -290 240 -371q51 -19 108 -19v-19q-215 0 -339 216q-28 75 -28 151v1067zM467 735h29v-36h-29v36z" />
    <glyph glyph-name="Nacute" unicode="&#x143;" horiz-adv-x="1275" 
d="M100 1432h14l1048 -1390v1391h20v-1433h-15l-1048 1390v-1390h-19v1432zM848 1800l-417 -239l-14 19l422 239z" />
    <glyph glyph-name="nacute" unicode="&#x144;" 
d="M466 1075h352q249 0 352 -263q14 -56 14 -103v-709h-18v624q0 220 -75 296q-74 86 -141 108q-27 14 -132 24h-361q-125 0 -226 -90q-112 -91 -112 -309v-653h-19v1066h19v-235q50 129 145 183q95 61 202 61zM849 1439l-417 -239l-14 19l422 239z" />
    <glyph glyph-name="Ncommaaccent" unicode="&#x145;" horiz-adv-x="1275" 
d="M100 1432h14l1048 -1390v1391h20v-1433h-15l-1048 1390v-1390h-19v1432zM794 -48h18q0 -230 -232 -339q-67 -23 -130 -23v19q160 0 283 143q61 104 61 200z" />
    <glyph glyph-name="ncommaaccent" unicode="&#x146;" 
d="M466 1075h352q249 0 352 -263q14 -56 14 -103v-709h-18v624q0 220 -75 296q-74 86 -141 108q-27 14 -132 24h-361q-125 0 -226 -90q-112 -91 -112 -309v-653h-19v1066h19v-235q50 129 145 183q95 61 202 61zM794 -48h18q0 -230 -232 -339q-67 -23 -130 -23v19
q160 0 283 143q61 104 61 200z" />
    <glyph glyph-name="Ncaron" unicode="&#x147;" horiz-adv-x="1275" 
d="M100 1432h14l1048 -1390v1391h20v-1433h-15l-1048 1390v-1390h-19v1432zM292 1875l12 16l337 -335l335 333l14 -14l-349 -349z" />
    <glyph glyph-name="ncaron" unicode="&#x148;" 
d="M466 1075h352q249 0 352 -263q14 -56 14 -103v-709h-18v624q0 220 -75 296q-74 86 -141 108q-27 14 -132 24h-361q-125 0 -226 -90q-112 -91 -112 -309v-653h-19v1066h19v-235q50 129 145 183q95 61 202 61zM293 1514l12 16l337 -335l335 333l14 -14l-349 -349z" />
    <glyph glyph-name="napostrophe" unicode="&#x149;" horiz-adv-x="1670" 
d="M866 1075h352q249 0 352 -263q14 -56 14 -103v-709h-18v624q0 220 -75 296q-74 86 -141 108q-27 14 -132 24h-361q-125 0 -226 -90q-112 -91 -112 -309v-653h-19v1066h19v-235q50 129 145 183q95 61 202 61zM426 1432h23q0 -279 -254 -372q-57 -14 -99 -14v23h22
q154 0 263 163q45 74 45 200z" />
    <glyph glyph-name="Eng" unicode="&#x14a;" horiz-adv-x="1275" 
d="M1184 380q0 -277 -253 -370q-57 -14 -99 -14v23h22q154 0 263 163q45 74 49 200v602q0 220 -75 296q-74 86 -141 108q-27 14 -132 24h-361q-125 0 -226 -90q-112 -91 -112 -309v-1013h-19v1426h19v-235q50 129 145 183q95 61 202 61h352q249 0 352 -263q14 -56 14 -103
v-689z" />
    <glyph glyph-name="eng" unicode="&#x14b;" 
d="M1166 32v592q0 220 -75 296q-74 86 -141 108q-27 14 -132 24h-361q-125 0 -226 -90q-112 -91 -112 -309v-653h-19v1066h19v-235q50 129 145 183q95 61 202 61h352q249 0 352 -263q14 -56 14 -103v-684q0 -273 -251 -365q-57 -14 -99 -14v23h22q154 0 263 163
q45 74 47 200z" />
    <glyph glyph-name="Omacron" unicode="&#x14c;" 
d="M507 1435h313q207 0 332 -220q28 -80 28 -154v-692q0 -251 -257 -355q-59 -14 -103 -14h-365q-207 0 -322 210q-33 73 -33 150v715q0 144 112 257q98 103 295 103zM119 1024v-603q0 -253 154 -342q75 -60 224 -60h248q275 0 360 163q56 63 56 253v551q0 216 -75 295
q-108 131 -271 131h-350q-199 0 -304 -183q-42 -68 -42 -205zM286 1691h709v-24h-709v24z" />
    <glyph glyph-name="omacron" unicode="&#x14d;" horiz-adv-x="1266" 
d="M545 1075h181q206 0 287 -65q157 -116 157 -306v-343q0 -236 -250 -342q-62 -19 -153 -19h-301q-219 0 -329 204q-37 66 -37 162v343q0 208 190 320q67 46 255 46zM119 653v-236q0 -266 180 -352q65 -42 158 -42h352q207 0 310 199q33 64 33 214v203q0 278 -167 362
q-75 51 -190 51h-320q-268 0 -347 -269zM281 1330h709v-24h-709v24z" />
    <glyph glyph-name="Obreve" unicode="&#x14e;" 
d="M507 1435h313q207 0 332 -220q28 -80 28 -154v-692q0 -251 -257 -355q-59 -14 -103 -14h-365q-207 0 -322 210q-33 73 -33 150v715q0 144 112 257q98 103 295 103zM119 1024v-603q0 -253 154 -342q75 -60 224 -60h248q275 0 360 163q56 63 56 253v551q0 216 -75 295
q-108 131 -271 131h-350q-199 0 -304 -183q-42 -68 -42 -205zM286 1860h18q0 -206 208 -313q68 -23 110 -23h23q226 0 318 239q14 48 14 97h18q0 -228 -230 -336q-65 -23 -129 -23q-168 0 -286 152q-64 93 -64 207z" />
    <glyph glyph-name="obreve" unicode="&#x14f;" horiz-adv-x="1266" 
d="M545 1075h181q206 0 287 -65q157 -116 157 -306v-343q0 -236 -250 -342q-62 -19 -153 -19h-301q-219 0 -329 204q-37 66 -37 162v343q0 208 190 320q67 46 255 46zM119 653v-236q0 -266 180 -352q65 -42 158 -42h352q207 0 310 199q33 64 33 214v203q0 278 -167 362
q-75 51 -190 51h-320q-268 0 -347 -269zM281 1499h18q0 -206 208 -313q68 -23 110 -23h23q226 0 318 239q14 48 14 97h18q0 -228 -230 -336q-65 -23 -129 -23q-168 0 -286 152q-64 93 -64 207z" />
    <glyph glyph-name="Ohungarumlaut" unicode="&#x150;" 
d="M507 1435h313q207 0 332 -220q28 -80 28 -154v-692q0 -251 -257 -355q-59 -14 -103 -14h-365q-207 0 -322 210q-33 73 -33 150v715q0 144 112 257q98 103 295 103zM119 1024v-603q0 -253 154 -342q75 -60 224 -60h248q275 0 360 163q56 63 56 253v551q0 216 -75 295
q-108 131 -271 131h-350q-199 0 -304 -183q-42 -68 -42 -205zM574 1905l14 -15l-366 -362l-15 15zM1059 1905l15 -15l-367 -362l-14 12z" />
    <glyph glyph-name="ohungarumlaut" unicode="&#x151;" horiz-adv-x="1266" 
d="M545 1075h181q206 0 287 -65q157 -116 157 -306v-343q0 -236 -250 -342q-62 -19 -153 -19h-301q-219 0 -329 204q-37 66 -37 162v343q0 208 190 320q67 46 255 46zM119 653v-236q0 -266 180 -352q65 -42 158 -42h352q207 0 310 199q33 64 33 214v203q0 278 -167 362
q-75 51 -190 51h-320q-268 0 -347 -269zM569 1544l14 -15l-366 -362l-15 15zM1054 1544l15 -15l-367 -362l-14 12z" />
    <glyph glyph-name="Racute" unicode="&#x154;" 
d="M825 1435q232 -15 334 -221q28 -81 28 -155q0 -206 -212 -325l-61 -22l33 -11q240 -114 240 -339v-362h-19v301q1 15 1 29q0 239 -208 338q-52 33 -155 33h-687v-701h-19v1435h725zM119 1411v-686h724q161 0 273 164q47 79 47 155q0 208 -169 320q-77 47 -174 47h-701z
M851 1800l-417 -239l-14 19l422 239z" />
    <glyph glyph-name="racute" unicode="&#x155;" horiz-adv-x="912" 
d="M466 1075h352v-23h-361q-125 0 -226 -90q-112 -91 -112 -309v-653h-19v1066h19v-235q50 129 145 183q95 61 202 61zM746 1439l-417 -239l-14 19l422 239z" />
    <glyph glyph-name="Rcommaaccent" unicode="&#x156;" 
d="M825 1435q232 -15 334 -221q28 -81 28 -155q0 -206 -212 -325l-61 -22l33 -11q240 -114 240 -339v-362h-19v301q1 15 1 29q0 239 -208 338q-52 33 -155 33h-687v-701h-19v1435h725zM119 1411v-686h724q161 0 273 164q47 79 47 155q0 208 -169 320q-77 47 -174 47h-701z
M794 -48h18q0 -230 -232 -339q-67 -23 -130 -23v19q160 0 283 143q61 104 61 200z" />
    <glyph glyph-name="rcommaaccent" unicode="&#x157;" horiz-adv-x="912" 
d="M466 1075h352v-23h-361q-125 0 -226 -90q-112 -91 -112 -309v-653h-19v1066h19v-235q50 129 145 183q95 61 202 61zM644 -48h18q0 -230 -232 -339q-67 -23 -130 -23v19q160 0 283 143q61 104 61 200z" />
    <glyph glyph-name="Rcaron" unicode="&#x158;" 
d="M825 1435q232 -15 334 -221q28 -81 28 -155q0 -206 -212 -325l-61 -22l33 -11q240 -114 240 -339v-362h-19v301q1 15 1 29q0 239 -208 338q-52 33 -155 33h-687v-701h-19v1435h725zM119 1411v-686h724q161 0 273 164q47 79 47 155q0 208 -169 320q-77 47 -174 47h-701z
M295 1875l12 16l337 -335l335 333l14 -14l-349 -349z" />
    <glyph glyph-name="rcaron" unicode="&#x159;" horiz-adv-x="912" 
d="M466 1075h352v-23h-361q-125 0 -226 -90q-112 -91 -112 -309v-653h-19v1066h19v-235q50 129 145 183q95 61 202 61zM110 1514l12 16l337 -335l335 333l14 -14l-349 -349z" />
    <glyph glyph-name="Sacute" unicode="&#x15a;" 
d="M507 1435h313q196 0 318 -196q42 -81 42 -169h-24q0 183 -168 295q-76 47 -173 47h-350q-249 0 -337 -267l-9 -75q1 -205 210 -317q69 -24 112 -24h290q209 0 290 -65q159 -117 159 -309q0 -204 -211 -322q-76 -33 -149 -33h-365q-207 0 -322 210q-33 73 -33 155h19
q0 -220 229 -328q75 -18 149 -18h248q252 0 337 131q74 88 74 191v42q-16 202 -224 304q-68 19 -131 19h-341q-257 7 -346 252l-12 61l-2 56q0 144 112 257q98 103 295 103zM847 1800l-417 -239l-14 19l422 239z" />
    <glyph glyph-name="sacute" unicode="&#x15b;" horiz-adv-x="1283" 
d="M475 1075h251q251 0 333 -107q111 -104 111 -255h-21q-2 213 -224 320q-68 19 -130 19h-389q-205 0 -264 -190l-10 -65q0 -156 163 -232q38 -18 102 -18h486q196 0 273 -195l10 -69v-19q0 -180 -204 -255l-79 -9h-417q-269 0 -361 292l-5 69h19q0 -127 97 -236
q103 -102 241 -102h454q130 0 208 139q28 60 28 111q0 178 -194 246q-56 9 -153 9h-436q-140 0 -232 167q-18 53 -18 93q0 186 181 268q37 19 180 19zM842 1439l-417 -239l-14 19l422 239z" />
    <glyph glyph-name="Scircumflex" unicode="&#x15c;" 
d="M507 1435h313q196 0 318 -196q42 -81 42 -169h-24q0 183 -168 295q-76 47 -173 47h-350q-249 0 -337 -267l-9 -75q1 -205 210 -317q69 -24 112 -24h290q209 0 290 -65q159 -117 159 -309q0 -204 -211 -322q-76 -33 -149 -33h-365q-207 0 -322 210q-33 73 -33 155h19
q0 -220 229 -328q75 -18 149 -18h248q252 0 337 131q74 88 74 191v42q-16 202 -224 304q-68 19 -131 19h-341q-257 7 -346 252l-12 61l-2 56q0 144 112 257q98 103 295 103zM640 1981l349 -349l-14 -14l-335 333l-337 -335l-12 16z" />
    <glyph glyph-name="scircumflex" unicode="&#x15d;" horiz-adv-x="1283" 
d="M475 1075h251q251 0 333 -107q111 -104 111 -255h-21q-2 213 -224 320q-68 19 -130 19h-389q-205 0 -264 -190l-10 -65q0 -156 163 -232q38 -18 102 -18h486q196 0 273 -195l10 -69v-19q0 -180 -204 -255l-79 -9h-417q-269 0 -361 292l-5 69h19q0 -127 97 -236
q103 -102 241 -102h454q130 0 208 139q28 60 28 111q0 178 -194 246q-56 9 -153 9h-436q-140 0 -232 167q-18 53 -18 93q0 186 181 268q37 19 180 19zM635 1620l349 -349l-14 -14l-335 333l-337 -335l-12 16z" />
    <glyph glyph-name="Scedilla" unicode="&#x15e;" 
d="M803 0h-348q-207 0 -322 210q-33 73 -33 155h19q0 -220 229 -328q75 -18 149 -18h248q252 0 337 131q74 88 74 191v42q-16 202 -224 304q-68 19 -131 19h-341q-257 7 -346 252l-12 61l-2 56q0 144 112 257q98 103 295 103h313q196 0 318 -196q42 -81 42 -169h-24
q0 183 -168 295q-76 47 -173 47h-350q-249 0 -337 -267l-9 -75q1 -205 210 -317q69 -24 112 -24h290q209 0 290 -65q159 -117 159 -309q0 -204 -211 -322q-75 -33 -148 -33q-1 -228 -232 -337q-67 -23 -130 -23v19q160 0 283 143q60 103 61 198z" />
    <glyph glyph-name="scedilla" unicode="&#x15f;" horiz-adv-x="1283" 
d="M798 0h-332q-269 0 -361 292l-5 69h19q0 -127 97 -236q103 -102 241 -102h454q130 0 208 139q28 60 28 111q0 178 -194 246q-56 9 -153 9h-436q-140 0 -232 167q-18 53 -18 93q0 186 181 268q37 19 180 19h251q251 0 333 -107q111 -104 111 -255h-21q-2 213 -224 320
q-68 19 -130 19h-389q-205 0 -264 -190l-10 -65q0 -156 163 -232q38 -18 102 -18h486q196 0 273 -195l10 -69v-19q0 -180 -204 -255l-79 -9h-67q-1 -228 -232 -337q-67 -23 -130 -23v19q160 0 283 143q60 103 61 198z" />
    <glyph glyph-name="Tcommaaccent" unicode="&#x162;" horiz-adv-x="1279" 
d="M100 1434h1067v-24h-522v-1410h-23v1410h-522v24zM797 -48h18q0 -230 -232 -339q-67 -23 -130 -23v19q160 0 283 143q61 104 61 200z" />
    <glyph glyph-name="tcommaaccent" unicode="&#x163;" horiz-adv-x="918" 
d="M404 1435h23v-345h274v-23h-274v-699q0 -141 100 -245q106 -104 250 -104v-19q-243 0 -354 250q-19 76 -19 189v628h-274v23h274v345zM627 -48h18q0 -230 -232 -339q-67 -23 -130 -23v19q160 0 283 143q61 104 61 200z" />
    <glyph glyph-name="Tcaron" unicode="&#x164;" horiz-adv-x="1279" 
d="M100 1434h1067v-24h-522v-1410h-23v1410h-522v24zM285 1875l12 16l337 -335l335 333l14 -14l-349 -349z" />
    <glyph glyph-name="tcaron" unicode="&#x165;" horiz-adv-x="1250" 
d="M404 1435h23v-345h274v-23h-274v-699q0 -141 100 -245q106 -104 250 -104v-19q-243 0 -354 250q-19 76 -19 189v628h-274v23h274v345zM1131 1428h23q0 -279 -254 -372q-57 -14 -99 -14v23h22q154 0 263 163q45 74 45 200z" />
    <glyph glyph-name="Tbar" unicode="&#x166;" horiz-adv-x="1279" 
d="M622 729v681h-522v24h1067v-24h-522v-681h408v-23h-408v-706h-23v706h-413v23h413z" />
    <glyph glyph-name="tbar" unicode="&#x167;" horiz-adv-x="918" 
d="M404 586v481h-274v23h274v345h23v-345h274v-23h-274v-481h234v-23h-234v-195q0 -141 100 -245q106 -104 250 -104v-19q-243 0 -354 250q-19 76 -19 189v124h-271v23h271z" />
    <glyph glyph-name="Utilde" unicode="&#x168;" horiz-adv-x="1275" 
d="M100 1434h19v-1011q0 -254 155 -343q76 -61 226 -61h249q277 0 362 164q56 63 56 254v997h19v-1063q0 -253 -259 -357q-59 -14 -103 -14h-367q-208 0 -324 212q-33 72 -33 150v1072zM398 1800q158 0 294 -142q107 -65 197 -65q126 0 238 101l14 -14q-101 -105 -252 -105
q-158 0 -275 124q-98 78 -220 78q-124 0 -230 -97l-18 14q115 106 252 106z" />
    <glyph glyph-name="utilde" unicode="&#x169;" 
d="M100 1074h19v-652q0 -270 183 -356q65 -43 159 -43h357q209 0 314 202q33 64 33 216v633h18v-1065h-18v235q-36 -107 -160 -192q-87 -52 -230 -52h-304q-222 0 -333 206q-38 67 -38 165v703zM396 1439q158 0 294 -142q107 -65 197 -65q126 0 238 101l14 -14
q-101 -105 -252 -105q-158 0 -275 124q-98 78 -220 78q-124 0 -230 -97l-18 14q115 106 252 106z" />
    <glyph glyph-name="Umacron" unicode="&#x16a;" horiz-adv-x="1275" 
d="M100 1434h19v-1011q0 -254 155 -343q76 -61 226 -61h249q277 0 362 164q56 63 56 254v997h19v-1063q0 -253 -259 -357q-59 -14 -103 -14h-367q-208 0 -324 212q-33 72 -33 150v1072zM289 1691h709v-24h-709v24z" />
    <glyph glyph-name="umacron" unicode="&#x16b;" 
d="M100 1074h19v-652q0 -270 183 -356q65 -43 159 -43h357q209 0 314 202q33 64 33 216v633h18v-1065h-18v235q-36 -107 -160 -192q-87 -52 -230 -52h-304q-222 0 -333 206q-38 67 -38 165v703zM287 1330h709v-24h-709v24z" />
    <glyph glyph-name="Ubreve" unicode="&#x16c;" horiz-adv-x="1275" 
d="M100 1434h19v-1011q0 -254 155 -343q76 -61 226 -61h249q277 0 362 164q56 63 56 254v997h19v-1063q0 -253 -259 -357q-59 -14 -103 -14h-367q-208 0 -324 212q-33 72 -33 150v1072zM289 1860h18q0 -206 208 -313q68 -23 110 -23h23q226 0 318 239q14 48 14 97h18
q0 -228 -230 -336q-65 -23 -129 -23q-168 0 -286 152q-64 93 -64 207z" />
    <glyph glyph-name="ubreve" unicode="&#x16d;" 
d="M100 1074h19v-652q0 -270 183 -356q65 -43 159 -43h357q209 0 314 202q33 64 33 216v633h18v-1065h-18v235q-36 -107 -160 -192q-87 -52 -230 -52h-304q-222 0 -333 206q-38 67 -38 165v703zM287 1499h18q0 -206 208 -313q68 -23 110 -23h23q226 0 318 239q14 48 14 97
h18q0 -228 -230 -336q-65 -23 -129 -23q-168 0 -286 152q-64 93 -64 207z" />
    <glyph glyph-name="Uring" unicode="&#x16e;" horiz-adv-x="1275" 
d="M100 1434h19v-1011q0 -254 155 -343q76 -61 226 -61h249q277 0 362 164q56 63 56 254v997h19v-1063q0 -253 -259 -357q-59 -14 -103 -14h-367q-208 0 -324 212q-33 72 -33 150v1072zM645 1902q167 0 221 -187v-52q0 -135 -164 -201l-47 -5h-28q-124 0 -192 145
q-14 36 -14 84q0 136 154 207zM444 1672q0 -128 145 -187l42 -9q150 0 207 150l9 46q0 153 -169 207h-42q-136 0 -187 -160z" />
    <glyph glyph-name="uring" unicode="&#x16f;" 
d="M100 1074h19v-652q0 -270 183 -356q65 -43 159 -43h357q209 0 314 202q33 64 33 216v633h18v-1065h-18v235q-36 -107 -160 -192q-87 -52 -230 -52h-304q-222 0 -333 206q-38 67 -38 165v703zM643 1541q167 0 221 -187v-52q0 -135 -164 -201l-47 -5h-28q-124 0 -192 145
q-14 36 -14 84q0 136 154 207zM442 1311q0 -128 145 -187l42 -9q150 0 207 150l9 46q0 153 -169 207h-42q-136 0 -187 -160z" />
    <glyph glyph-name="Uhungarumlaut" unicode="&#x170;" horiz-adv-x="1275" 
d="M100 1434h19v-1011q0 -254 155 -343q76 -61 226 -61h249q277 0 362 164q56 63 56 254v997h19v-1063q0 -253 -259 -357q-59 -14 -103 -14h-367q-208 0 -324 212q-33 72 -33 150v1072zM577 1905l14 -15l-366 -362l-15 15zM1062 1905l15 -15l-367 -362l-14 12z" />
    <glyph glyph-name="uhungarumlaut" unicode="&#x171;" 
d="M100 1074h19v-652q0 -270 183 -356q65 -43 159 -43h357q209 0 314 202q33 64 33 216v633h18v-1065h-18v235q-36 -107 -160 -192q-87 -52 -230 -52h-304q-222 0 -333 206q-38 67 -38 165v703zM575 1544l14 -15l-366 -362l-15 15zM1060 1544l15 -15l-367 -362l-14 12z" />
    <glyph glyph-name="Uogonek" unicode="&#x172;" horiz-adv-x="1275" 
d="M500 0h-43q-208 0 -324 212q-33 72 -33 150v1072h19v-1011q0 -254 155 -343q76 -61 226 -61h249q277 0 362 164q56 63 56 254v997h19v-1063q0 -253 -259 -357q-59 -14 -103 -14h-306q2 -94 61 -195q123 -143 283 -143v-19q-63 0 -130 23q-229 108 -232 334z" />
    <glyph glyph-name="uogonek" unicode="&#x173;" 
d="M1165 244q-36 -107 -160 -192q-87 -52 -230 -52h-304q-222 0 -333 206q-38 67 -38 165v703h19v-652q0 -270 183 -356q65 -43 159 -43h357q209 0 314 202q33 64 33 216v633h18v-1065q0 -95 60 -197q123 -143 283 -143v-19q-63 0 -130 23q-231 109 -231 337v234z" />
    <glyph glyph-name="Wcircumflex" unicode="&#x174;" horiz-adv-x="1632" 
d="M100 1430h23v-1083q0 -188 207 -300q80 -28 136 -28q226 0 328 239l14 89v1083h23v-1069q0 -137 99 -239q107 -103 244 -103q220 3 328 234l14 89v1088h23v-1060q-16 -303 -290 -365l-66 -5h-28q-179 0 -305 192q-28 65 -31 86q-2 -84 -138 -212q-110 -66 -197 -66h-37
q-187 0 -309 202q-38 83 -38 178v1050zM820 1981l349 -349l-14 -14l-335 333l-337 -335l-12 16z" />
    <glyph glyph-name="wcircumflex" unicode="&#x175;" horiz-adv-x="1633" 
d="M100 1074h23v-714q0 -216 220 -313q51 -24 121 -24q228 0 327 238l14 89v724h23v-710q0 -236 248 -327q34 -14 93 -14q215 0 318 210q28 62 28 173v668h19v-714q0 -217 -225 -332q-52 -20 -135 -28q-208 0 -327 201q-28 52 -31 79q-2 -79 -123 -196q-111 -84 -233 -84
q-187 0 -318 191q-42 98 -42 192v691zM817 1620l349 -349l-14 -14l-335 333l-337 -335l-12 16z" />
    <glyph glyph-name="Ycircumflex" unicode="&#x176;" horiz-adv-x="1275" 
d="M100 1430h19v-302q0 -236 132 -326q90 -75 208 -75h368q233 0 330 250q14 63 14 179v274h19v-359q0 -214 -207 -330q-78 -38 -166 -38h-160v-703h-24v703h-165q-247 0 -354 260q-14 59 -14 104v363zM645 1981l349 -349l-14 -14l-335 333l-337 -335l-12 16z" />
    <glyph glyph-name="ycircumflex" unicode="&#x177;" horiz-adv-x="1262" 
d="M100 1074h19v-656q0 -236 132 -325q90 -76 208 -76h367q233 0 331 250q14 64 14 180v627h19v-1071q0 -204 -194 -321q-81 -42 -151 -42h-401q-196 0 -320 226q-24 77 -25 142h20q0 -219 222 -326q66 -23 141 -23h326q259 0 349 255q14 62 14 165v160q-21 -79 -128 -170
q-101 -75 -226 -75h-349q-247 0 -354 259q-14 60 -14 104v717zM645 1620l349 -349l-14 -14l-335 333l-337 -335l-12 16z" />
    <glyph glyph-name="Zacute" unicode="&#x179;" horiz-adv-x="1268" 
d="M109 1430h1081l-1059 -1411h1036v-19h-1080l1056 1407h-1034v23zM846 1800l-417 -239l-14 19l422 239z" />
    <glyph glyph-name="zacute" unicode="&#x17a;" 
d="M109 1073h994v-13l-968 -1038h960v-22h-995v13l969 1038h-960v22zM809 1439l-417 -239l-14 19l422 239z" />
    <glyph glyph-name="Zdotaccent" unicode="&#x17b;" horiz-adv-x="1268" 
d="M109 1430h1081l-1059 -1411h1036v-19h-1080l1056 1407h-1034v23zM624 1700h29v-36h-29v36z" />
    <glyph glyph-name="zdotaccent" unicode="&#x17c;" 
d="M109 1073h994v-13l-968 -1038h960v-22h-995v13l969 1038h-960v22zM587 1339h29v-36h-29v36z" />
    <glyph glyph-name="longs" unicode="&#x17f;" horiz-adv-x="700" 
d="M643 1429v-23h-163q-246 -6 -347 -258l-10 -70v-1078h-23v1045q1 279 272 370q62 14 147 14h124z" />
    <glyph glyph-name="florin" unicode="&#x192;" horiz-adv-x="750" 
d="M100 1045q1 279 272 370q62 14 147 14h124v-23h-163q-246 -6 -347 -258l-10 -70v-361h272v-19h-272v-698q-4 -228 -235 -337q-67 -23 -130 -23v19q160 0 283 143q59 101 59 195v1048z" />
    <glyph glyph-name="Aringacute" unicode="&#x1fa;" 
d="M119 1018v-296h1041v366q0 160 -169 272q-76 47 -174 47h-351q-200 0 -305 -183q-42 -69 -42 -206zM525 1799q-51 -40 -78 -124l-5 -47q0 -128 145 -187l42 -9q150 0 207 150l9 46q0 153 -169 207h-42q-37 0 -68 -12zM727 1430h95q208 0 333 -220q28 -81 28 -155v-1055
h-23v699h-1041v-699h-19v1069q0 145 113 258q98 103 295 103h39q-69 33 -114 128q-14 36 -14 84q0 67 37 118l-35 -20l-14 19l422 239l9 -19l-216 -124l21 3q167 0 221 -187v-52q0 -123 -137 -189z" />
    <glyph glyph-name="aringacute" unicode="&#x1fb;" horiz-adv-x="1273" 
d="M119 653v-236q0 -267 180 -352q65 -42 157 -42h352q207 0 310 199q33 64 33 213v204q0 277 -167 361q-74 51 -190 51h-319q-268 0 -347 -269zM438 1271q0 -128 145 -187l42 -9q150 0 207 150l9 46q0 153 -169 207h-42q-136 0 -187 -160zM725 1074q251 0 338 -101
q83 -95 88 -140v240h23v-1072h-23v240q-35 -106 -158 -190q-86 -51 -226 -51h-301q-219 0 -329 204q-37 66 -37 162v342q0 209 190 320q66 46 251 46q-68 33 -112 127q-14 36 -14 84q0 82 56 140l-44 -25l-14 19l422 239l9 -19l-251 -144l46 6q167 0 221 -187v-52
q0 -122 -135 -188z" />
    <glyph glyph-name="AEacute" unicode="&#x1fc;" horiz-adv-x="1628" 
d="M460 1434h1065v-23h-696v-682h341v-24h-341v-686h696v-19h-720v705h-682v-696h-23v1051q0 248 243 351q28 14 117 23zM123 1088v-359h682v682h-341q-239 0 -331 -253zM1100 1800l-417 -239l-14 19l422 239z" />
    <glyph glyph-name="aeacute" unicode="&#x1fd;" horiz-adv-x="1979" 
d="M544 1074q258 0 338 -106q55 -47 93 -135v232h18v-236q44 111 130 176q89 69 301 69q244 0 319 -93q125 -106 125 -263v-14q0 -207 -208 -320q-73 -32 -148 -32h-514q0 -197 208 -306q64 -23 125 -23h172q251 0 338 259l10 79h17q0 -234 -245 -342q-74 -19 -157 -19h-125
q-222 0 -334 213l-14 28v-232h-18v232q-35 -104 -144 -181q-86 -60 -240 -60h-125q-219 0 -329 204q-37 66 -37 162v342q0 209 190 320q67 46 254 46zM119 653v-236q0 -267 180 -352q65 -42 157 -42h176q213 0 315 208q28 62 28 172v268q0 271 -227 361q-66 19 -130 19h-143
q-268 0 -347 -269zM998 731v-361h431q220 0 296 79q125 111 125 264q0 175 -162 287q-80 51 -195 51h-143q-254 0 -343 -250zM1271 1439l-417 -239l-14 19l422 239z" />
    <glyph glyph-name="Oslashacute" unicode="&#x1fe;" horiz-adv-x="1267" 
d="M507 1434h313q140 0 260 -116l85 111l15 -18l-85 -108q84 -107 84 -243v-691q0 -251 -257 -355q-58 -14 -102 -14h-365q-141 0 -257 112l-84 -107l-16 13l86 108q-84 110 -84 234v714q0 144 112 257q98 103 295 103zM119 1023v-603q0 -199 77 -275l871 1158
q-109 108 -252 108h-350q-199 0 -304 -183q-42 -68 -42 -205zM1080 1287l-868 -1161q103 -107 285 -107h248q275 0 360 163q56 63 56 252v552q0 216 -81 301zM846 1800l-417 -239l-14 19l422 239z" />
    <glyph glyph-name="oslashacute" unicode="&#x1ff;" horiz-adv-x="1267" 
d="M544 1074h181q242 0 333 -102l97 97l10 -14l-93 -97q97 -107 97 -254v-343q0 -236 -250 -342q-62 -19 -152 -19h-301q-138 0 -255 97l-92 -96l-14 18l92 97q-97 104 -97 250v342q0 209 190 320q67 46 254 46zM119 653v-236q0 -210 97 -287l824 828q-95 93 -246 93h-319
q-268 0 -347 -269zM1054 944l-824 -828q91 -93 226 -93h352q207 0 310 199q33 64 33 213v204q0 225 -97 305zM842 1439l-417 -239l-14 19l422 239z" />
    <glyph glyph-name="afii00208" unicode="&#x2015;" horiz-adv-x="3072" 
d="M0 550h3168v-23h-3168v23z" />
    <glyph glyph-name="underscoredbl" unicode="&#x2017;" horiz-adv-x="1029" 
d="M-14 -204h1055v-23h-1055v23zM-14 23h1055v-23h-1055v23z" />
    <glyph glyph-name="quotereversed" unicode="&#x201b;" horiz-adv-x="557" 
d="M102 980v104q0 146 32 208q109 213 326 213v-23h-23l-86 -13q-226 -86 -226 -362v-127h-23z" />
    <glyph glyph-name="minute" unicode="&#x2032;" horiz-adv-x="493" 
d="M240 1430h19v-360h-19v360z" />
    <glyph glyph-name="second" unicode="&#x2033;" horiz-adv-x="900" 
d="M240 1430h19v-360h-19v360zM638 1430h19v-360h-19v360z" />
    <glyph glyph-name="exclamdbl" unicode="&#x203c;" horiz-adv-x="978" 
d="M240 1430h19v-1218h-19v1218zM233 35h29v-36h-29v36zM729 1430h19v-1218h-19v1218zM722 35h29v-36h-29v36z" />
    <glyph glyph-name="uni203E" unicode="&#x203e;" horiz-adv-x="1029" 
d="M-14 1578h1055v-23h-1055v23z" />
    <glyph glyph-name="uni207F" unicode="&#x207f;" 
d="M466 1435h352q249 0 352 -263q14 -56 14 -103v-709h-18v624q0 220 -75 296q-74 86 -141 108q-27 14 -132 24h-361q-125 0 -226 -90q-112 -91 -112 -309v-653h-19v1066h19v-235q50 129 145 183q95 61 202 61z" />
    <glyph glyph-name="afii61248" unicode="&#x2105;" horiz-adv-x="2243" 
d="M423 1434h147q15 1 31 1q138 0 223 -79q4 -2 44 -57q35 -68 35 -139h-18q0 161 -156 236q-44 21 -111 21h-237q-190 0 -257 -187q-10 -47 -10 -123v-145q0 -181 73 -236q75 -81 174 -81h264q194 0 257 202q6 32 6 51v5h15q0 -180 -184 -261q-45 -14 -125 -14h-223
q-157 0 -243 149q-28 58 -28 108v282q0 171 185 253q55 14 138 14zM1484 1429l14 -9l-712 -1415l-14 9zM1679 806h136q154 0 215 -48q118 -87 118 -230v-257q0 -177 -188 -257q-46 -14 -115 -14h-225q-165 0 -247 153q-28 50 -28 122v257q0 156 143 240q50 34 191 34z
M1359 490v-177q0 -200 135 -264q49 -32 119 -32h264q155 0 232 150q25 48 25 160v152q0 209 -125 272q-56 38 -143 38h-240q-201 0 -260 -202z" />
    <glyph glyph-name="notequal" unicode="&#x2260;" horiz-adv-x="1078" 
d="M659 803h-559v19h574l220 277l24 -4l-219 -273h279v-19h-294l-264 -330h558v-23h-576l-222 -277l-20 2l218 275h-278v23h297z" />
    <glyph glyph-name="equivalence" unicode="&#x2261;" horiz-adv-x="916" 
d="M100 540h709v-24h-709v24zM100 272h709v-24h-709v24zM100 808h709v-24h-709v24z" />
    </font>
</defs>
</svg>
