<?xml version="1.0" standalone="no"?>
<!DOCTYPE svg PUBLIC "-//W3C//DTD SVG 1.1//EN" "http://www.w3.org/Graphics/SVG/1.1/DTD/svg11.dtd" >
<svg xmlns="http://www.w3.org/2000/svg" xmlns:xlink="http://www.w3.org/1999/xlink" version="1.1">
<metadata>
Created by FontForge 20200511 at Wed Oct 17 16:46:13 2001
 By convertio
Copyright 1990-2001 Bitstream Inc. All rights reserved.
</metadata>
<defs>
<font id="OCRAbyBT-Regular" horiz-adv-x="1266" >
  <font-face 
    font-family="OCR-A BT"
    font-weight="400"
    font-stretch="normal"
    units-per-em="2048"
    panose-1="2 15 5 1 2 2 4 2 3 4"
    ascent="1556"
    descent="-492"
    x-height="881"
    cap-height="1241"
    bbox="96 -446 3936 1802"
    underline-thickness="123"
    underline-position="-284"
    unicode-range="U+0020-203A"
  />
<missing-glyph 
d="M121 -362v1806h1024v-1806h-1024zM236 -248h794v1577h-794v-1577z" />
    <glyph glyph-name=".notdef" 
d="M121 -362v1806h1024v-1806h-1024zM236 -248h794v1577h-794v-1577z" />
    <glyph glyph-name=".null" horiz-adv-x="0" 
 />
    <glyph glyph-name="nonmarkingreturn" horiz-adv-x="633" 
 />
    <glyph glyph-name="space" unicode=" " horiz-adv-x="633" 
 />
    <glyph glyph-name="exclam" unicode="!" 
d="M592 158h82q38 0 63 -26.5t25 -68.5v-53q0 -43 -25 -69.5t-63 -26.5h-82q-38 0 -62 27t-24 69v53q0 44 23.5 69.5t62.5 25.5zM586 1241h94q34 0 58 -26t24 -64v-8l-41 -628q-4 -46 -26.5 -70.5t-59.5 -24.5q-38 0 -61.5 24.5t-26.5 67.5l-41 631v8q0 40 22.5 65t57.5 25z
" />
    <glyph glyph-name="quotedbl" unicode="&#x22;" 
d="M1057 1141l-76 -410q-8 -44 -33.5 -70t-60.5 -26q-38 0 -59 22t-31 74l-66 338h-196l-66 -338q-10 -50 -31.5 -73t-58.5 -23q-35 0 -60 25.5t-32 70.5l-78 410v100h848v-100z" />
    <glyph glyph-name="numbersign" unicode="#" 
d="M551 780v-188h164v188h-164zM961 952q43 0 69.5 -24t26.5 -62q0 -37 -27 -61.5t-69 -24.5h-74v-188h74q43 0 69.5 -24t26.5 -62t-27.5 -63t-68.5 -25h-74v-193q0 -43 -24 -68.5t-62 -25.5t-62 26t-24 68v193h-164v-193q0 -43 -24 -68.5t-62 -25.5t-62 26t-24 68v193h-74
q-43 0 -69.5 24.5t-26.5 63.5q0 37 27 61.5t69 24.5h74v188h-74q-44 0 -70 24t-26 62t27 62t69 24h74v193q0 44 23.5 70t62.5 26q37 0 61.5 -27t24.5 -69v-193h164v193q0 44 23.5 70t62.5 26q37 0 61.5 -27t24.5 -69v-193h74z" />
    <glyph glyph-name="dollar" unicode="$" 
d="M719 1145v-193h242q43 0 69.5 -24t26.5 -62q0 -37 -27 -61.5t-69 -24.5h-580v-116h590q37 0 61.5 -27t24.5 -70v-268q0 -44 -23.5 -70t-62.5 -26h-252v-193q0 -43 -24 -69.5t-62 -26.5t-62 27t-24 69v193h-242q-44 0 -70 23.5t-26 62.5q0 37 27 61.5t69 24.5h580v117
h-590q-38 0 -62 27t-24 69v268q0 44 23.5 70t62.5 26h252v193q0 44 23.5 70t62.5 26q37 0 61.5 -27t24.5 -69z" />
    <glyph glyph-name="percent" unicode="%" 
d="M803 231h168q37 0 61.5 -27t24.5 -69v-125q0 -43 -24 -69.5t-62 -26.5h-168q-38 0 -62 27t-24 69v125q0 44 23.5 70t62.5 26zM1032 952l-663 -854q-16 -20 -33.5 -29.5t-40.5 -9.5q-36 0 -61 24.5t-25 59.5q0 15 6 30.5t18 31.5l664 852q16 20 34.5 30.5t39.5 10.5
q34 0 60 -25t26 -59q0 -15 -6.5 -30.5t-18.5 -31.5zM295 1241h168q37 0 61.5 -27t24.5 -69v-125q0 -44 -23.5 -70t-62.5 -26h-168q-38 0 -62 27t-24 69v125q0 44 23.5 70t62.5 26z" />
    <glyph glyph-name="ampersand" unicode="&#x26;" 
d="M516 365l-135 -113v-80q0 -36 25.5 -61t60.5 -25h135l98 84zM469 924q-34 0 -61 -25.5t-27 -60.5v-82l145 -156l189 160v78q0 35 -26 60.5t-60 25.5h-160zM467 1098h162q107 0 182.5 -76t75.5 -184v-101q0 -28 -8.5 -47.5t-28.5 -38.5l-203 -176l184 -192l76 65
q18 14 33.5 20.5t32.5 6.5q33 0 58.5 -25.5t25.5 -58.5q0 -20 -9.5 -38.5t-27.5 -33.5l-74 -61l80 -92q17 -20 24 -35t7 -33q0 -34 -25 -59t-59 -25q-19 0 -38 9t-34 26l-84 94l-151 -129h-197q-108 0 -184 75.5t-76 182.5v102q0 30 8.5 50t28.5 36l153 127l-159 170
q-17 18 -24 36.5t-7 54.5v90q0 106 76 183t182 77z" />
    <glyph glyph-name="quotesingle" unicode="'" 
d="M801 1131l-84 -422q-6 -34 -29 -54t-55 -20t-55 20t-29 54l-82 422q-1 4 -1.5 9t-0.5 15q0 45 26.5 65.5t83.5 20.5h115q59 0 86 -21.5t27 -68.5q0 -7 -0.5 -11.5t-1.5 -8.5z" />
    <glyph glyph-name="parenleft" unicode="(" 
d="M864 1093l-184 -235q-21 -27 -33 -60t-12 -63v-315q0 -29 12 -61.5t33 -61.5l184 -237q11 -15 17 -30t6 -30q0 -35 -25 -59.5t-59 -24.5q-23 0 -42 10t-34 29l-170 219q-49 64 -71.5 123t-22.5 123v315q0 63 22 121.5t72 122.5l170 219q16 20 35 30.5t41 10.5
q34 0 59 -25.5t25 -60.5q0 -15 -6 -30t-17 -30z" />
    <glyph glyph-name="parenright" unicode=")" 
d="M538 1199l171 -220q48 -64 71 -122.5t23 -121.5v-315q0 -64 -22.5 -123t-71.5 -123l-170 -219q-15 -19 -34.5 -29t-41.5 -10q-35 0 -59.5 24.5t-24.5 59.5q0 13 6.5 29t18.5 31l182 237q21 27 33 60t12 63v315q0 30 -12 63t-33 60l-182 235q-12 15 -18.5 31t-6.5 29
q0 35 25 60.5t59 25.5q21 0 40.5 -10.5t34.5 -29.5z" />
    <glyph glyph-name="asterisk" unicode="*" 
d="M719 1001v-237l188 162q16 14 31 20t33 6q34 0 59 -25t25 -59q0 -21 -9 -39t-26 -32l-254 -219l254 -218q17 -14 26 -32t9 -39q0 -34 -24 -60t-54 -26q-21 0 -38 6.5t-31 19.5l-189 160v-235q0 -44 -24 -70.5t-62 -26.5t-62 27t-24 70v235l-189 -160q-19 -16 -33 -21
t-34 -5q-32 0 -56 25t-24 61q0 21 8.5 39t26.5 32l252 218l-252 219q-19 15 -28 32.5t-9 36.5q0 36 24.5 61t59.5 25q19 0 35 -6.5t30 -19.5l189 -164v239q0 44 23.5 70.5t62.5 26.5q37 0 61.5 -27t24.5 -70z" />
    <glyph glyph-name="plus" unicode="+" 
d="M547 250v242h-242q-44 0 -70 23.5t-26 62.5q0 37 27 61.5t69 24.5h242v241q0 44 23.5 70t62.5 26q37 0 61.5 -27t24.5 -69v-241h242q43 0 69.5 -24t26.5 -62t-27 -62t-69 -24h-242v-242q0 -43 -24 -69.5t-62 -26.5t-62 27t-24 69z" />
    <glyph glyph-name="comma" unicode="," 
d="M473 518h328q38 0 62 -26t24 -68v-414q0 -43 -24 -69.5t-62 -26.5t-62 27t-24 69v336h-242q-44 0 -69 23.5t-25 62.5q0 38 26 62t68 24z" />
    <glyph glyph-name="hyphen" unicode="-" 
d="M305 664h656q43 0 69.5 -24t26.5 -62v-72q0 -38 -27.5 -63t-68.5 -25h-656q-43 0 -69.5 24.5t-26.5 63.5v72q0 37 27 61.5t69 24.5z" />
    <glyph glyph-name="period" unicode="." 
d="M549 446h168q38 0 62 -26t24 -68v-127q0 -44 -23.5 -70t-62.5 -26h-168q-38 0 -62 27t-24 69v127q0 44 23.5 69t62.5 25z" />
    <glyph glyph-name="slash" unicode="/" 
d="M1040 1106l-665 -1141q-16 -25 -35.5 -37t-44.5 -12q-37 0 -61.5 23.5t-24.5 60.5q0 12 4 25.5t12 25.5l666 1141q15 25 35 37t45 12q35 0 60.5 -24.5t25.5 -61.5q0 -11 -4.5 -24t-12.5 -25z" />
    <glyph glyph-name="zero" unicode="0" 
d="M381 1069v-983h504v983h-504zM399 1241h467q92 0 141.5 -49t49.5 -141v-947q0 -92 -49.5 -141t-141.5 -49h-467q-92 0 -141 49t-49 141v947q0 92 49 141t141 49z" />
    <glyph glyph-name="one" unicode="1" 
d="M305 1241h414v-1155h166v338q0 44 23.5 69t62.5 25q38 0 62 -26t24 -68v-424q0 -38 -27 -62t-69 -24h-656q-43 0 -69.5 24t-26.5 62t27 62t69 24h242v983h-242q-44 0 -70 23.5t-26 62.5q0 38 27 62t69 24z" />
    <glyph glyph-name="two" unicode="2" 
d="M305 1241h580q71 0 121.5 -50t50.5 -122v-405q0 -72 -50.5 -122t-121.5 -50h-504v-406h580q43 0 69.5 -24t26.5 -62t-27 -62t-69 -24h-752v578q0 71 50 121.5t122 50.5h504v405h-580q-44 0 -70 23.5t-26 62.5q0 38 27 62t69 24z" />
    <glyph glyph-name="three" unicode="3" 
d="M305 1241h580q70 0 121 -50.5t51 -121.5v-319q0 -45 -16 -87t-48 -83q32 -44 48 -88.5t16 -88.5v-317q0 -71 -50.5 -121.5t-121.5 -50.5h-580q-43 0 -69.5 24t-26.5 62t27 62t69 24h578v320q0 34 -25.5 60t-60.5 26h-324q-44 0 -69 23t-25 63q0 37 26 61.5t68 24.5h324
q35 0 60.5 25.5t25.5 60.5v319h-578q-44 0 -70 23.5t-26 62.5q0 38 27 62t69 24z" />
    <glyph glyph-name="four" unicode="4" 
d="M424 1145v-627h334v483q0 44 23.5 70.5t62.5 26.5q37 0 61.5 -27t24.5 -70v-483q37 -3 61.5 -27t24.5 -59q0 -34 -23.5 -57.5t-62.5 -28.5v-336q0 -43 -24 -69.5t-62 -26.5t-62 27t-24 69v336h-506v799q0 44 23.5 70t62.5 26q37 0 61.5 -27t24.5 -69z" />
    <glyph glyph-name="five" unicode="5" 
d="M379 1241h582q43 0 69.5 -24t26.5 -62q0 -37 -27 -61.5t-69 -24.5h-410v-405h334q70 0 121 -51t51 -121v-406q0 -71 -50.5 -121.5t-121.5 -50.5h-381q-23 0 -48.5 5.5t-49.5 14.5l-136 56q-29 12 -45 33.5t-16 50.5q0 35 24.5 59.5t61.5 24.5q9 0 19.5 -2.5t22.5 -7.5
l134 -54q10 -5 17 -6.5t14 -1.5h383v406h-506v749z" />
    <glyph glyph-name="six" unicode="6" 
d="M381 346v-260h504v260h-504zM295 1241h76q43 0 69.5 -24t26.5 -62q0 -34 -23.5 -57.5t-62.5 -28.5v-551h485q92 0 141.5 -49t49.5 -141v-224q0 -92 -49.5 -141t-141.5 -49h-467q-92 0 -141 49t-49 141v1041q0 44 23.5 70t62.5 26z" />
    <glyph glyph-name="seven" unicode="7" 
d="M295 1241h762v-514q0 -27 -7 -43t-36 -41l-295 -252v-381q0 -43 -24 -69.5t-62 -26.5t-62 27t-24 69v414q0 27 7 43t36 41l295 250v311h-504q-9 -34 -31.5 -53t-54.5 -19q-38 0 -62 26.5t-24 68.5v53q0 44 23.5 70t62.5 26z" />
    <glyph glyph-name="eight" unicode="8" 
d="M381 492v-406h504v406h-504zM551 1069v-405h164v405h-164zM465 1241h336q37 0 61.5 -27t24.5 -69v-481q83 -8 126.5 -56.5t43.5 -134.5v-369q0 -92 -49.5 -141t-141.5 -49h-467q-92 0 -141 49t-49 141v369q0 86 43.5 135t126.5 56v481q0 44 23.5 70t62.5 26z" />
    <glyph glyph-name="nine" unicode="9" 
d="M381 1069v-260h504v260h-504zM399 1241h467q92 0 141.5 -50t49.5 -142v-1041q0 -43 -24 -68.5t-62 -25.5h-76q-43 0 -69.5 24t-26.5 62q0 34 23 57.5t63 29.5v548h-486q-91 0 -140.5 50t-49.5 142v222q0 92 49.5 142t140.5 50z" />
    <glyph glyph-name="colon" unicode=":" 
d="M549 446h168q38 0 62 -26t24 -68v-127q0 -44 -23.5 -70t-62.5 -26h-168q-38 0 -62 27t-24 69v127q0 44 23.5 69t62.5 25zM549 1024h168q37 0 61.5 -27t24.5 -69v-125q0 -44 -23.5 -70t-62.5 -26h-168q-38 0 -62 27t-24 69v125q0 44 23.5 70t62.5 26z" />
    <glyph glyph-name="semicolon" unicode=";" 
d="M473 518h328q38 0 62 -26t24 -68v-414q0 -43 -24 -69.5t-62 -26.5t-62 27t-24 69v336h-242q-44 0 -69 23.5t-25 62.5q0 38 26 62t68 24zM549 1024h168q37 0 61.5 -27t24.5 -69v-125q0 -44 -23.5 -70t-62.5 -26h-168q-38 0 -62 27t-24 69v125q0 44 23.5 70t62.5 26z" />
    <glyph glyph-name="less" unicode="&#x3c;" 
d="M919 76l-659 387q-24 15 -37.5 36t-13.5 44v69q0 24 13.5 45.5t37.5 34.5l659 387q18 10 29 13.5t21 3.5q36 0 62 -24.5t26 -59.5q0 -24 -13.5 -45.5t-37.5 -34.5l-607 -352l607 -357q24 -15 37.5 -36t13.5 -44q0 -36 -25.5 -60t-62.5 -24q-10 0 -21 3.5t-29 13.5z" />
    <glyph glyph-name="equal" unicode="=" 
d="M305 881h656q42 0 69 -25t27 -63t-27 -62t-69 -24h-656q-44 0 -70 23.5t-26 62.5q0 38 27 63t69 25zM305 518h656q43 0 69.5 -24t26.5 -62q0 -37 -27 -61.5t-69 -24.5h-656q-44 0 -70 23.5t-26 62.5q0 38 27 62t69 24z" />
    <glyph glyph-name="greater" unicode="&#x3e;" 
d="M346 1079l660 -387q24 -13 37.5 -34.5t13.5 -45.5v-69q0 -24 -13.5 -45.5t-37.5 -34.5l-660 -387q-16 -9 -27.5 -13t-21.5 -4q-37 0 -62.5 24.5t-25.5 59.5q0 24 13.5 45.5t37.5 34.5l606 352l-606 357q-25 16 -38 36t-13 44q0 35 25.5 59.5t62.5 24.5q10 0 22 -4t27 -13
z" />
    <glyph glyph-name="question" unicode="?" 
d="M463 86q36 0 61 -25t25 -61t-25.5 -61t-60.5 -25q-34 0 -59 26t-25 60q0 35 24 60.5t60 25.5zM897 1190l88 -76l1 -1q71 -61 71 -112v-124q0 -28 -7.5 -45t-35.5 -41l-463 -396v-96q0 -43 -24 -69.5t-62 -26.5t-62 27t-24 69v125q0 27 7 43t36 41l463 395v72l-82 67
l-445 -378q-17 -15 -33.5 -21t-35.5 -6q-31 0 -55.5 24.5t-24.5 57.5q0 21 9.5 40t27.5 34l493 421q17 16 31 21.5t31 5.5q19 0 37.5 -9t58.5 -42z" />
    <glyph glyph-name="at" unicode="@" 
d="M209 170v309q0 106 75.5 181t180.5 75h168q37 0 61.5 -27t24.5 -69v-469q0 -37 23.5 -60.5t58.5 -23.5q34 0 59 24.5t25 59.5v770q0 54 -38 91.5t-91 37.5h-256q-37 0 -65 -16.5t-48 -51.5q-2 -3 -5 -9q-36 -66 -87 -66q-34 0 -60 25t-26 59q0 77 89.5 154t201.5 77h254
q125 0 214 -88t89 -213v-770q0 -105 -75.5 -180.5t-180.5 -75.5q-44 0 -85.5 15.5t-86.5 50.5q-42 -36 -80 -51t-84 -15q-105 0 -180.5 75t-75.5 181zM547 170v393h-82q-34 0 -59 -25t-25 -59v-309q0 -35 25 -59.5t59 -24.5t58 24.5t24 59.5z" />
    <glyph glyph-name="A" unicode="A" 
d="M633 848l-139 -473h276zM725 1145l324 -1113q3 -9 4.5 -18t1.5 -16q0 -35 -25 -59.5t-59 -24.5q-30 0 -53.5 19.5t-32.5 51.5l-64 218h-375l-65 -217q-12 -37 -33.5 -54.5t-54.5 -17.5t-57.5 24.5t-24.5 57.5q0 15 1 22.5t3 14.5l324 1112q15 54 36.5 75t57.5 21
q35 0 56 -20t36 -76z" />
    <glyph glyph-name="B" unicode="B" 
d="M381 492v-406h330q72 0 123 50.5t51 121.5v61q0 71 -51.5 122t-122.5 51h-330zM381 1069v-405h330q72 0 123 50.5t51 121.5v61q0 70 -51.5 121t-122.5 51h-330zM209 1241h502q141 0 243.5 -102t102.5 -242v-59q0 -76 -32.5 -147.5t-86.5 -112.5q57 -53 88 -120t31 -139
v-59q0 -142 -102 -244t-244 -102h-502v1327z" />
    <glyph glyph-name="C" unicode="C" 
d="M657 -86q-80 0 -138.5 39t-100.5 123l-178 354q-16 31 -23.5 67t-7.5 78q0 44 7.5 82t23.5 68l178 354q40 83 99 122.5t140 39.5h304q43 0 69.5 -24t26.5 -62q0 -37 -27 -61.5t-69 -24.5h-304q-25 0 -47 -14t-35 -39l-176 -357q-8 -18 -12 -38t-4 -43q0 -24 4 -44t12 -38
l176 -355q13 -25 35 -40t47 -15h304q43 0 69.5 -24t26.5 -62t-27 -62t-69 -24h-304z" />
    <glyph glyph-name="D" unicode="D" 
d="M608 1069h-57v-983h57q26 0 48 14t34 39l176 357q9 18 13 38t4 44q0 23 -4 43t-13 38l-176 355q-13 25 -35 40t-47 15zM608 1241q81 0 139 -39t101 -123l178 -354q15 -31 23 -67.5t8 -79.5t-8 -80t-23 -68l-178 -354q-41 -83 -99.5 -122.5t-140.5 -39.5h-303
q-43 0 -69.5 24t-26.5 62t27 62t69 24h74v983h-74q-43 0 -69.5 24t-26.5 62t27 62t69 24h303z" />
    <glyph glyph-name="E" unicode="E" 
d="M209 1241h752q43 0 69.5 -24t26.5 -62q0 -37 -27 -61.5t-69 -24.5h-580v-405h244q42 0 68 -24t26 -62t-26 -62t-68 -24h-244v-406h580q43 0 69.5 -24t26.5 -62t-27 -62t-69 -24h-752v1327z" />
    <glyph glyph-name="F" unicode="F" 
d="M209 1241h752q43 0 69.5 -24t26.5 -62q0 -37 -27 -61.5t-69 -24.5h-580v-262h412q42 0 68 -24t26 -62t-26.5 -62t-67.5 -24h-412v-625q0 -43 -24 -69.5t-62 -26.5t-62 27t-24 69v1231z" />
    <glyph glyph-name="G" unicode="G" 
d="M713 1241h248q43 0 69.5 -24t26.5 -62q0 -37 -27 -61.5t-69 -24.5h-246q-17 0 -36 -8.5t-26 -18.5l-221 -286q-30 -40 -40.5 -66.5t-10.5 -56.5v-461q0 -35 26 -60.5t60 -25.5h330q34 0 60 25.5t26 60.5v174h-156q-44 0 -70 23.5t-26 62.5q0 38 27 62t69 24h330v-346
q0 -106 -76 -182t-182 -76h-330q-108 0 -184 75.5t-76 182.5v461q0 59 20 112t78 132l199 264q33 43 91 71.5t116 28.5z" />
    <glyph glyph-name="H" unicode="H" 
d="M381 1145v-481h504v481q0 44 23.5 70t62.5 26q37 0 61.5 -27t24.5 -69v-1135q0 -43 -24 -69.5t-62 -26.5t-62 27t-24 69v482h-504v-482q0 -43 -24 -69.5t-62 -26.5t-62 27t-24 69v1135q0 44 23.5 70t62.5 26q37 0 61.5 -27t24.5 -69z" />
    <glyph glyph-name="I" unicode="I" 
d="M961 1241q43 0 69.5 -24t26.5 -62q0 -37 -27 -61.5t-69 -24.5h-242v-983h242q43 0 69.5 -24t26.5 -62t-27 -62t-69 -24h-656q-43 0 -69.5 24t-26.5 62t27 62t69 24h242v983h-242q-43 0 -69.5 24t-26.5 62t27 62t69 24h656z" />
    <glyph glyph-name="J" unicode="J" 
d="M973 1145v-973q0 -106 -77 -182t-183 -76h-160q-108 0 -184 75.5t-76 182.5v252q0 44 23.5 69t62.5 25q38 0 63 -26.5t25 -67.5v-252q0 -36 25.5 -61t60.5 -25h160q34 0 61 26t27 60v973q0 44 23.5 70t62.5 26q37 0 61.5 -27t24.5 -69z" />
    <glyph glyph-name="K" unicode="K" 
d="M381 1145v-381l526 450q16 15 31 21t33 6q35 0 60.5 -24.5t25.5 -57.5q0 -21 -9.5 -40t-27.5 -34l-594 -507l594 -508q17 -16 27 -35.5t10 -38.5q0 -33 -25.5 -57.5t-60.5 -24.5q-18 0 -33 6t-31 21l-526 450v-381q0 -43 -24 -69.5t-62 -26.5t-62 27t-24 69v1135
q0 44 23.5 70t62.5 26q37 0 61.5 -27t24.5 -69z" />
    <glyph glyph-name="L" unicode="L" 
d="M381 1145v-1059h580q43 0 69.5 -24t26.5 -62t-27 -62t-69 -24h-752v1231q0 44 23.5 70t62.5 26q37 0 61.5 -27t24.5 -69z" />
    <glyph glyph-name="M" unicode="M" 
d="M209 1241h213l211 -299l211 299h213v-1231q0 -43 -24 -69.5t-62 -26.5t-62 27t-24 69v987l-166 -229v-37q0 -43 -24 -69.5t-62 -26.5t-62 27t-24 69v37l-166 229v-987q0 -43 -24 -69.5t-62 -26.5t-62 27t-24 69v1231z" />
    <glyph glyph-name="N" unicode="N" 
d="M209 1241h227l449 -1022v926q0 44 23.5 70t62.5 26q37 0 61.5 -27t24.5 -69v-1231h-228l-448 1018v-922q0 -43 -24 -69.5t-62 -26.5t-62 27t-24 69v1231z" />
    <glyph glyph-name="O" unicode="O" 
d="M678 1036q-11 19 -20.5 26t-24.5 7q-14 0 -27 -9t-20 -23l-185 -364q-9 -18 -14.5 -44t-5.5 -51q0 -26 5.5 -52t14.5 -44l187 -363q10 -19 20 -26t25 -7q14 0 27 8.5t20 24.5l184 362q9 18 15 44.5t6 52.5t-6 53t-15 43zM842 1096l178 -351q17 -33 27 -77t10 -90
q0 -47 -10 -91t-27 -77l-178 -351q-42 -79 -90 -112t-119 -33q-72 0 -120 33t-89 112l-178 351q-18 35 -27.5 78.5t-9.5 89.5t9.5 90t27.5 77l178 351q41 79 89 112t120 33q71 0 119 -33t90 -112z" />
    <glyph glyph-name="P" unicode="P" 
d="M381 1069v-477h416q35 0 60.5 26t25.5 60v305q0 34 -25.5 60t-60.5 26h-416zM209 1241h588q106 0 183 -76t77 -182v-305q0 -107 -76 -183.5t-184 -76.5h-416v-408q0 -43 -24 -69.5t-62 -26.5t-62 27t-24 69v1231z" />
    <glyph glyph-name="Q" unicode="Q" 
d="M1057 1032v-485q0 -69 -29.5 -138t-73.5 -106l-133 -115l41 -102h99q43 0 69.5 -24t26.5 -62t-27 -62t-69 -24h-216l-61 156l-115 -95q-34 -30 -73 -45.5t-78 -15.5q-86 0 -147.5 61.5t-61.5 147.5v481q0 69 29.5 139t72.5 107l391 330q38 32 72.5 46.5t73.5 14.5
q86 0 147.5 -61.5t61.5 -147.5zM885 1032q0 15 -11 26t-26 11q-6 0 -12.5 -3t-12.5 -9l-391 -330q-22 -19 -36.5 -53.5t-14.5 -69.5v-481q0 -15 11 -26t26 -11q5 0 12 3.5t12 8.5l174 144l-59 153q-6 15 -8 22t-2 13q0 38 25 63t61 25q28 0 50.5 -16.5t33.5 -44.5l37 -99
l80 66q21 18 36 53t15 70v485z" />
    <glyph glyph-name="R" unicode="R" 
d="M381 1069v-262h416q35 0 60.5 27t25.5 61v88q0 34 -26 60t-60 26h-416zM209 1241h588q106 0 183 -76t77 -182v-88q0 -107 -76 -183.5t-184 -76.5h-92l335 -584q9 -15 13 -27t4 -22q0 -36 -25 -61t-61 -25q-25 0 -46 13t-34 36l-387 670h-123v-625q0 -43 -24 -69.5
t-62 -26.5t-62 27t-24 69v1231z" />
    <glyph glyph-name="S" unicode="S" 
d="M401 1241h424q93 0 162.5 -67.5t69.5 -153.5q0 -43 -24 -69.5t-62 -26.5q-37 0 -57 19.5t-33 82.5q-3 16 -20 29.5t-36 13.5h-424q-7 0 -13.5 -6.5t-6.5 -13.5q0 -3 1.5 -6.5t4.5 -8.5l617 -792q27 -36 40 -69t13 -67q0 -79 -56.5 -135.5t-136.5 -56.5h-424
q-92 0 -161.5 68t-69.5 153q0 43 24 69.5t62 26.5q36 0 56 -19.5t34 -82.5q3 -16 20 -29.5t35 -13.5h424q9 0 15 6t6 14q0 3 -1.5 6.5t-4.5 8.5l-617 792q-27 36 -40 69t-13 67q0 79 56.5 135.5t135.5 56.5z" />
    <glyph glyph-name="T" unicode="T" 
d="M209 1241h848v-221q0 -43 -24 -69.5t-62 -26.5t-62 27t-24 69v49h-166v-1059q0 -43 -24 -69.5t-62 -26.5t-62 27t-24 69v1059h-166v-49q0 -43 -24 -69.5t-62 -26.5t-62 27t-24 69v221z" />
    <glyph glyph-name="U" unicode="U" 
d="M381 1145v-973q0 -36 25.5 -61t60.5 -25h330q34 0 61 26t27 60v973q0 44 23.5 70t62.5 26q37 0 61.5 -27t24.5 -69v-973q0 -106 -76 -182t-182 -76h-330q-108 0 -184 75.5t-76 182.5v973q0 44 23.5 70t62.5 26q37 0 61.5 -27t24.5 -69z" />
    <glyph glyph-name="V" unicode="V" 
d="M381 1145v-260l252 -662l252 662v260q0 42 24 69t62 27t62 -26.5t24 -69.5v-293l-338 -864q-16 -43 -35.5 -58.5t-50.5 -15.5q-32 0 -53 17t-35 57l-336 864v293q0 44 23.5 70t62.5 26q37 0 61.5 -27t24.5 -69z" />
    <glyph glyph-name="W" unicode="W" 
d="M381 1145v-979l49 -80h72l45 80v547q0 43 23.5 68.5t62.5 25.5q38 0 62 -26t24 -68v-547l45 -80h72l49 80v979q0 42 24 69t62 27t62 -26.5t24 -69.5v-993q0 -16 -3.5 -29.5t-8.5 -21.5l-64 -113q-21 -38 -44.5 -56t-51.5 -18h-166q-37 0 -61.5 26t-24.5 66v4v-4
q0 -40 -24.5 -66t-61.5 -26h-166q-28 0 -50.5 17.5t-43.5 56.5l-66 112q-6 11 -9 23.5t-3 28.5v993q0 44 23.5 70t62.5 26q37 0 61.5 -27t24.5 -69z" />
    <glyph glyph-name="X" unicode="X" 
d="M375 1192l258 -444l258 444q15 25 35 37t45 12q35 0 60.5 -24.5t25.5 -61.5q0 -11 -4.5 -24t-12.5 -25l-309 -528l309 -528q10 -18 13.5 -29t3.5 -21q0 -36 -26 -62t-60 -26q-22 0 -42.5 13.5t-35.5 37.5l-262 443l-260 -443q-17 -26 -36 -38.5t-42 -12.5q-35 0 -59.5 25
t-24.5 63q0 12 3.5 25t10.5 24l307 524l-304 532q-10 16 -13.5 27t-3.5 23q0 37 25 61.5t61 24.5q23 0 45 -13t35 -36z" />
    <glyph glyph-name="Y" unicode="Y" 
d="M381 1145v-107l252 -315l252 315v107q0 42 24 69t62 27t62 -26.5t24 -69.5v-166l-338 -426v-543q0 -43 -24 -69.5t-62 -26.5t-62 27t-24 69v543l-338 426v166q0 44 23.5 70t62.5 26q37 0 61.5 -27t24.5 -69z" />
    <glyph glyph-name="Z" unicode="Z" 
d="M305 1241h752v-113l-608 -1042h512q43 0 69.5 -24t26.5 -62t-27 -62t-69 -24h-752v113l612 1042h-516q-44 0 -70 23.5t-26 62.5q0 38 27 62t69 24z" />
    <glyph glyph-name="bracketleft" unicode="[" 
d="M381 1069v-983h82v983h-82zM305 1241h656q43 0 69.5 -24t26.5 -62q0 -37 -27 -61.5t-69 -24.5h-326v-983h326q43 0 69.5 -24t26.5 -62t-27 -62t-69 -24h-656q-44 0 -70 23.5t-26 62.5v1155q0 38 27 62t69 24z" />
    <glyph glyph-name="backslash" unicode="\" 
d="M225 1106q-8 13 -12 25.5t-4 23.5q0 37 24.5 61.5t61.5 24.5q25 0 44.5 -12t35.5 -37l665 -1141q8 -12 12.5 -26t4.5 -25q0 -37 -25.5 -61.5t-60.5 -24.5q-24 0 -44 13t-36 38z" />
    <glyph glyph-name="bracketright" unicode="]" 
d="M803 1069v-983h82v983h-82zM305 1241h656q43 0 69.5 -24t26.5 -62v-1155q0 -38 -27 -62t-69 -24h-656q-43 0 -69.5 24t-26.5 62t27 62t69 24h326v983h-326q-44 0 -70 23.5t-26 62.5q0 38 27 62t69 24z" />
    <glyph glyph-name="asciicircum" unicode="^" 
d="M1042 265q8 -16 11.5 -28.5t3.5 -23.5q0 -33 -25.5 -57.5t-60.5 -24.5q-25 0 -45 13t-39 42l-254 389l-254 -389q-20 -29 -39.5 -42t-44.5 -13q-36 0 -60 24t-24 58q0 14 3 26.5t9 24.5l316 615q20 38 42.5 55.5t51.5 17.5q28 0 50.5 -17.5t43.5 -55.5z" />
    <glyph glyph-name="a" unicode="a" 
d="M463 348q-32 0 -57 -25t-25 -59v-96q0 -33 24.5 -57.5t59.5 -24.5h229l185 104l-2 76q0 35 -25 58.5t-59 23.5h-330zM473 881h305q104 0 178 -72t78 -182l23 -615v-4q0 -40 -24.5 -67t-59.5 -27q-36 0 -59 22.5t-29 63.5l-100 -63q-16 -10 -37.5 -16.5t-38.5 -6.5h-244
q-106 0 -181 74.5t-75 179.5v96q0 105 76 180.5t180 75.5h328q21 0 39.5 -3.5t35.5 -10.5l-6 121q-2 37 -25 59.5t-59 22.5h-305q-43 0 -67.5 23t-24.5 63q0 38 25.5 62t66.5 24z" />
    <glyph glyph-name="b" unicode="b" 
d="M608 709q-16 0 -30.5 -6t-28.5 -19l-146 -117q-9 -8 -15.5 -24.5t-6.5 -34.5v-219q0 -20 6 -36t17 -24l145 -118q15 -12 30 -18.5t29 -6.5h133q15 0 28 5t31 19l58 46q10 8 17.5 25t7.5 34v367q0 15 -7.5 32t-17.5 25l-57 45q-17 15 -30 20t-30 5h-133zM381 1145v-379
l63 55q33 28 76.5 44t87.5 16h133q46 0 88 -15t78 -45l58 -45q39 -30 65.5 -84t26.5 -104v-373q0 -54 -26 -109t-66 -88l-58 -45q-37 -29 -78.5 -44t-87.5 -15h-133q-44 0 -87.5 15.5t-76.5 43.5l-63 56v-19q0 -43 -24 -69.5t-62 -26.5t-62 27t-24 69v1135q0 44 23.5 70
t62.5 26q37 0 61.5 -27t24.5 -69z" />
    <glyph glyph-name="c" unicode="c" 
d="M618 881h343q42 0 69 -24.5t27 -61.5q0 -39 -25.5 -61.5t-70.5 -22.5h-343q-15 0 -29 -6.5t-30 -20.5l-153 -133q-11 -9 -18 -25t-7 -32v-191q0 -17 7 -33.5t17 -25.5l155 -134q18 -14 31 -19t27 -5h343q43 0 69.5 -24t26.5 -62t-27 -62t-69 -24h-343q-43 0 -88.5 16.5
t-76.5 42.5l-154 136q-44 39 -67 89t-23 105v189q0 54 23 104.5t67 89.5l154 135q31 27 76.5 43.5t88.5 16.5z" />
    <glyph glyph-name="d" unicode="d" 
d="M522 709q-27 0 -56 -23q-2 -1 -3 -2l-57 -45q-11 -9 -18 -25t-7 -32v-367q0 -17 7 -34t18 -25l57 -45l2 -2q30 -23 57 -23h133q15 0 29.5 6t30.5 19l145 118q10 8 16.5 25t6.5 35v219q0 18 -6.5 34.5t-16.5 24.5l-145 117q-15 13 -29 19t-31 6h-133zM1057 1145v-1135
q0 -42 -25 -69t-63 -27q-39 0 -62.5 26t-23.5 70v19l-64 -56q-32 -28 -75.5 -43.5t-88.5 -15.5h-133q-44 0 -85.5 15t-78.5 44l-59 45q-42 33 -67 86.5t-25 110.5v373q0 50 26.5 104t65.5 84l59 45q38 30 78.5 45t85.5 15h133q45 0 88.5 -16t75.5 -44l64 -55v379q0 42 24 69
t62 27t63 -26.5t25 -69.5z" />
    <glyph glyph-name="e" unicode="e" 
d="M539 711q-13 0 -26.5 -5.5t-27.5 -15.5l-73 -61q-14 -11 -22.5 -28.5t-8.5 -35.5v-116h504v116q0 18 -8.5 35.5t-21.5 27.5l-75 62q-13 10 -26.5 15.5t-26.5 5.5h-188zM537 881h190q43 0 85.5 -15.5t78.5 -44.5l74 -59q42 -35 67 -88t25 -109v-205q0 -37 -27 -61.5
t-69 -24.5h-580v-45q0 -18 8.5 -35t22.5 -28l73 -62q12 -9 24.5 -13.5t29.5 -4.5h422q43 0 69.5 -24t26.5 -62t-27 -62t-69 -24h-424q-43 0 -84 15t-78 44l-74 62q-43 35 -67.5 87t-24.5 107v336q0 56 24.5 109t67.5 88l74 59q37 30 78 45t84 15z" />
    <glyph glyph-name="f" unicode="f" 
d="M719 1241h199q43 0 69.5 -24t26.5 -62q0 -37 -27 -61.5t-69 -24.5h-199q-52 0 -90.5 -39t-38.5 -90v-59h160q43 0 69.5 -24t26.5 -62t-27 -62t-69 -24h-160v-699q0 -43 -24 -69.5t-62 -26.5t-62 27t-24 69v699h-72q-44 0 -70 23.5t-26 62.5q0 37 27 61.5t69 24.5h72v59
q0 124 89 212.5t212 88.5z" />
    <glyph glyph-name="g" unicode="g" 
d="M883 786q0 43 23.5 69t62.5 26q38 0 63 -26.5t25 -68.5v-917q0 -55 -24.5 -107t-67.5 -88l-76 -61q-37 -29 -78 -44t-84 -15h-336q-42 0 -69 24t-27 62t26.5 62t69.5 24h334q19 0 31 4t24 14l75 62q12 10 19.5 26.5t8.5 36.5v160l-64 -56q-32 -28 -75.5 -43.5
t-88.5 -15.5h-133q-45 0 -85.5 14.5t-78.5 44.5l-59 45q-39 31 -65.5 85t-26.5 104v375q0 54 25.5 108t66.5 86l59 45q38 30 78.5 45t85.5 15h133q45 0 88.5 -16t75.5 -44l64 -55v20zM885 287v219q0 17 -7.5 34t-17.5 25l-145 119q-15 12 -30.5 18.5t-29.5 6.5h-133
q-16 0 -30 -5.5t-29 -19.5l-57 -45q-11 -9 -18 -25.5t-7 -33.5v-367q0 -16 7 -32.5t18 -24.5l56 -45l3 -2q29 -23 57 -23h133q17 0 31 6t29 19l145 116q10 9 17.5 26t7.5 34z" />
    <glyph glyph-name="h" unicode="h" 
d="M381 1145v-406l125 82q4 3 10 7q78 53 154 53h108q105 0 178.5 -72t77.5 -182l21 -615v-4q0 -40 -24 -67t-58 -27q-39 0 -63.5 25t-26.5 67l-21 621q-2 36 -25.5 59t-58.5 23h-110q-15 0 -27.5 -5t-34.5 -20l-225 -152v-522q0 -43 -24 -69.5t-62 -26.5t-62 27t-24 69
v1135q0 44 23.5 70t62.5 26q37 0 61.5 -27t24.5 -69z" />
    <glyph glyph-name="i" unicode="i" 
d="M389 881h234q43 0 69.5 -24t26.5 -62v-709h158q42 0 68 -23.5t26 -62.5q0 -38 -26.5 -62t-67.5 -24h-488q-43 0 -69.5 24t-26.5 62t27 62t69 24h156v623h-156q-44 0 -70 23.5t-26 62.5q0 37 27 61.5t69 24.5zM557 1313h84q29 0 53.5 -26t24.5 -60v-72q0 -37 -27 -61.5
t-69 -24.5h-66q-44 0 -70 23.5t-26 62.5v72q0 38 26.5 62t69.5 24z" />
    <glyph glyph-name="j" unicode="j" 
d="M557 881h328q38 0 62 -26.5t24 -68.5v-958q0 -105 -76 -180.5t-180 -75.5h-168q-99 0 -176.5 72t-77.5 149q0 33 24.5 54.5t59.5 21.5q45 0 83 -62.5t87 -62.5h170q33 0 57.5 25t24.5 59v881h-242q-44 0 -70 23.5t-26 62.5q0 37 27 61.5t69 24.5zM809 1313h84
q29 0 53.5 -26t24.5 -60v-72q0 -37 -27 -61.5t-70 -24.5h-65q-44 0 -70 23.5t-26 62.5v72q0 38 26.5 62t69.5 24z" />
    <glyph glyph-name="k" unicode="k" 
d="M381 1145v-672l444 383q19 15 33.5 21t30.5 6q35 0 59.5 -25t24.5 -59q0 -19 -9 -37.5t-26 -34.5l-340 -295l422 -360q19 -16 28 -33t9 -37q0 -36 -24 -61t-58 -25q-19 0 -35.5 6t-32.5 19l-442 378l-84 -71v-238q0 -43 -24 -69.5t-62 -26.5t-62 27t-24 69v1135
q0 44 23.5 70t62.5 26q37 0 61.5 -27t24.5 -69z" />
    <glyph glyph-name="l" unicode="l" 
d="M389 1241h234q43 0 69.5 -24t26.5 -62v-1069h158q42 0 68 -23.5t26 -62.5q0 -38 -26.5 -62t-67.5 -24h-488q-43 0 -69.5 24t-26.5 62t27 62t69 24h156v983h-156q-44 0 -70 23.5t-26 62.5q0 38 27 62t69 24z" />
    <glyph glyph-name="m" unicode="m" 
d="M1053 684l22 -672v-4q0 -40 -24.5 -67t-59.5 -27q-38 0 -62 25t-26 68l-22 669q0 14 -9.5 23.5t-23.5 9.5q-6 0 -12.5 -2.5t-10.5 -6.5l-106 -92v-598q0 -43 -24 -69.5t-62 -26.5t-62 27t-24 69v662q0 14 -12 25.5t-27 11.5q-7 0 -13.5 -3t-11.5 -8l-121 -98v-590
q0 -43 -23.5 -69.5t-62.5 -26.5q-37 0 -61.5 27t-24.5 69v776q0 44 23.5 69.5t62.5 25.5q30 0 50 -16t32 -48l29 23q28 21 56.5 31t64.5 10q49 0 90.5 -19.5t79.5 -60.5l20 16q46 37 77 50.5t67 13.5q89 0 148 -56t63 -141z" />
    <glyph glyph-name="n" unicode="n" 
d="M381 784v-53l100 68l6 4q110 78 207 78h78q131 0 196 -79t70 -242l19 -550v-4q0 -40 -24.5 -66t-61.5 -26q-38 0 -61 25.5t-25 70.5l-21 556q-3 72 -29.5 106.5t-78.5 34.5h-56q-46 0 -114 -44l-6 -4l-199 -131v-518q0 -43 -24 -69.5t-62 -26.5t-62 27t-24 69v774
q0 44 23.5 70.5t62.5 26.5q37 0 61.5 -27t24.5 -70z" />
    <glyph glyph-name="o" unicode="o" 
d="M539 711q-13 0 -26.5 -5.5t-27.5 -15.5l-73 -61q-14 -11 -22.5 -28.5t-8.5 -35.5v-336q0 -18 8.5 -35t22.5 -28l74 -62q12 -9 25.5 -13.5t27.5 -4.5h188q14 0 28 5t26 14l73 61q13 10 22 28t9 35v336q0 18 -8.5 35.5t-21.5 27.5l-75 62q-13 10 -26.5 15.5t-26.5 5.5h-188
zM537 881h190q43 0 85.5 -15.5t78.5 -44.5l74 -59q42 -35 67 -88t25 -109v-336q0 -55 -24.5 -107t-67.5 -87l-74 -62q-36 -28 -78.5 -43.5t-85.5 -15.5h-190q-43 0 -84 15t-78 44l-74 62q-43 35 -67.5 87t-24.5 107v336q0 56 24.5 109t67.5 88l74 59q37 30 78 45t84 15z" />
    <glyph glyph-name="p" unicode="p" 
d="M614 743q-15 0 -30 -6t-27 -18l-154 -152q-11 -11 -16.5 -26t-5.5 -33v-219q0 -19 5.5 -33.5t16.5 -26.5l154 -151q12 -12 27.5 -19.5t29.5 -7.5h39q15 0 32 7t30 18l143 121q10 8 17.5 25.5t7.5 33.5v285q0 16 -7.5 34.5t-17.5 26.5l-143 121q-12 10 -27.5 15t-34.5 5
h-39zM381 821v-35l41 41q45 46 93 68.5t99 22.5h45q41 0 84.5 -17t79.5 -47l142 -119q42 -35 67 -87.5t25 -106.5v-285q0 -55 -25 -107.5t-67 -87.5l-146 -120q-33 -29 -76.5 -45.5t-87.5 -16.5h-39q-52 0 -100.5 22.5t-93.5 67.5l-41 41v-360q0 -43 -24 -69.5t-62 -26.5
t-62 27t-24 69v1171q0 44 23.5 70.5t62.5 26.5q37 0 61.5 -27.5t24.5 -69.5z" />
    <glyph glyph-name="q" unicode="q" 
d="M522 709q-14 0 -27 -5t-32 -20l-57 -45q-11 -9 -18 -25.5t-7 -33.5v-367q0 -17 7 -33t18 -24l56 -45l6 -4q27 -21 54 -21h133q17 0 31 6t29 19l145 116q10 8 16.5 25t6.5 35v219q0 18 -6.5 34.5t-16.5 24.5l-145 119q-15 12 -30.5 18.5t-29.5 6.5h-133zM522 881h133
q45 0 88.5 -16t75.5 -44l64 -55v20q0 44 23.5 69.5t62.5 25.5q38 0 63 -26.5t25 -68.5v-1136q0 -43 -25 -69.5t-63 -26.5t-62 27t-24 69v379l-64 -56q-32 -28 -75.5 -43.5t-88.5 -15.5h-133q-45 0 -85.5 14.5t-78.5 44.5l-59 45q-40 31 -66 84.5t-26 104.5v375
q0 54 25.5 108t66.5 86l59 45q38 30 78.5 45t85.5 15z" />
    <glyph glyph-name="r" unicode="r" 
d="M381 786v-90l143 125q32 28 76.5 44t87.5 16h113q105 0 180.5 -75t75.5 -179v-39q0 -43 -24 -69.5t-62 -26.5t-62 27t-24 69v39q0 33 -25 58.5t-59 25.5h-113q-14 0 -32.5 -7.5t-28.5 -17.5l-246 -217v-459q0 -43 -24 -69.5t-62 -26.5t-62 27t-24 69v776q0 44 23.5 69.5
t62.5 25.5q38 0 62 -26.5t24 -68.5z" />
    <glyph glyph-name="s" unicode="s" 
d="M449 881h364q84 0 153.5 -52t69.5 -106q0 -36 -25.5 -61t-60.5 -25q-32 0 -68.5 36t-70.5 36h-362q-22 0 -36 -14.5t-14 -39.5q0 -11 9 -23t22 -18l465 -198q74 -33 117 -97.5t43 -144.5q0 -107 -77 -183.5t-183 -76.5h-338q-90 0 -169 52.5t-79 105.5q0 34 24.5 60
t59.5 26q28 0 76 -36t88 -36h338q35 0 61.5 26t26.5 62q0 27 -15 49.5t-41 32.5l-462 201q-64 27 -101 82t-37 120q0 92 65 157t157 65z" />
    <glyph glyph-name="t" unicode="t" 
d="M551 1075v-194h326q43 0 69.5 -24t26.5 -62t-27 -62t-69 -24h-326v-541q0 -35 23.5 -58.5t58.5 -23.5h170q27 0 48 15.5t32 44.5q1 3 5 14q23 71 83 71q35 0 59.5 -24.5t24.5 -56.5q0 -89 -76 -162.5t-178 -73.5h-168q-106 0 -181 75.5t-75 180.5v539h-72q-44 0 -70 23.5
t-26 62.5q0 37 27 61.5t69 24.5h72v194q0 44 23.5 69t62.5 25q38 0 63 -26t25 -68z" />
    <glyph glyph-name="u" unicode="u" 
d="M381 784l20 -556q4 -74 30.5 -108t78.5 -34h55q44 0 110 42q8 5 11 7l199 129v520q0 44 23.5 70.5t62.5 26.5q37 0 61.5 -27t24.5 -70v-774q0 -43 -24 -69.5t-62 -26.5t-62 27t-24 69v53l-101 -69l-1 -1q-112 -79 -212 -79h-77q-131 0 -196.5 79t-70.5 243l-18 548v4
q0 40 24.5 66.5t61.5 26.5q38 0 61 -26t25 -71z" />
    <glyph glyph-name="v" unicode="v" 
d="M381 786v-112l252 -576l252 576v112q0 42 24 68.5t62 26.5t62 -26t24 -69v-127q0 -13 -3 -25t-9 -25l-271 -621q-19 -43 -39 -58.5t-49 -15.5h-106q-30 0 -49 15t-39 59l-271 620q-7 15 -9.5 26t-2.5 25v127q0 44 23.5 69.5t62.5 25.5q38 0 62 -26.5t24 -68.5z" />
    <glyph glyph-name="w" unicode="w" 
d="M365 788l14 -489l57 -184l111 196v187q0 42 24 68t62 26q37 0 61.5 -27t24.5 -67v-187l108 -196l58 184l16 489q2 43 25.5 68t62.5 25q36 0 60 -26.5t24 -66.5v-4l-16 -508l-88 -292q-10 -37 -35.5 -53.5t-71.5 -16.5h-67q-24 0 -42.5 12.5t-33.5 38.5l-86 146l-86 -146
q-15 -25 -34.5 -38t-43.5 -13h-66q-45 0 -70.5 16.5t-35.5 53.5l-88 292l-16 508v4q0 41 23 67t58 26q40 0 64.5 -25.5t26.5 -67.5z" />
    <glyph glyph-name="x" unicode="x" 
d="M385 844l250 -301l244 301q14 18 33.5 27.5t39.5 9.5q35 0 59.5 -25t24.5 -59q0 -17 -6 -32.5t-18 -31.5l-267 -323l285 -349q13 -14 19 -28.5t6 -32.5q0 -35 -24.5 -59.5t-59.5 -24.5q-20 0 -40 10t-34 27l-264 321l-266 -321q-16 -19 -34.5 -28t-39.5 -9
q-36 0 -60 23.5t-24 58.5q0 17 6.5 33.5t17.5 29.5l289 347l-270 325q-13 16 -19 32.5t-6 37.5q0 29 25.5 53.5t56.5 24.5q22 0 41.5 -9.5t34.5 -27.5z" />
    <glyph glyph-name="y" unicode="y" 
d="M381 786v-112l225 -514h53l226 514v112q0 42 24 68.5t62 26.5t62 -26t24 -69v-127q0 -11 -2.5 -22t-10.5 -29l-440 -1012q-9 -17 -33 -29.5t-53 -12.5h-215q-43 0 -68.5 23.5t-25.5 62.5q0 37 26 61.5t68 24.5h170l113 260h-29q-30 0 -53 11.5t-31 31.5l-252 579
q-7 15 -9.5 26t-2.5 25v127q0 44 23.5 69.5t62.5 25.5q38 0 62 -26.5t24 -68.5z" />
    <glyph glyph-name="z" unicode="z" 
d="M303 -86q-44 0 -69 23.5t-25 62.5v55q0 34 7.5 53t25.5 35l55 54l549 526h-500q-43 0 -69.5 24t-26.5 62t27 62t69 24h615q43 0 69.5 -23.5t26.5 -62.5v-68q0 -33 -7.5 -52t-25.5 -36l-57 -51l-539 -516h533q43 0 69.5 -24t26.5 -62t-27 -62t-69 -24h-658z" />
    <glyph glyph-name="braceleft" unicode="{" 
d="M719 750q0 -45 -16 -87.5t-50 -84.5q34 -45 50 -87.5t16 -87.5v-317h242q42 0 69 -24t27 -62t-26.5 -62t-69.5 -24h-242q-70 0 -121 51t-51 121v320q0 34 -25 60t-61 26h-156q-44 0 -70 23.5t-26 62.5q0 37 27 61.5t69 24.5h156q35 0 60.5 25.5t25.5 60.5v319
q0 70 51 121t121 51h242q43 0 69.5 -24t26.5 -62q0 -37 -27 -61.5t-69 -24.5h-242v-319z" />
    <glyph glyph-name="bar" unicode="|" 
d="M547 -258v2060h172v-2060h-172z" />
    <glyph glyph-name="braceright" unicode="}" 
d="M305 1069q-42 0 -69 24.5t-27 61.5q0 38 26.5 62t69.5 24h242q70 0 121 -51t51 -121v-319q0 -35 25 -60.5t61 -25.5h156q42 0 69 -24.5t27 -61.5q0 -39 -26.5 -62.5t-69.5 -23.5h-156q-35 0 -60.5 -26t-25.5 -60v-320q0 -70 -51 -121t-121 -51h-242q-43 0 -69.5 24
t-26.5 62t27 62t69 24h242v317q0 46 16 89t49 86q-33 42 -49 84.5t-16 87.5v319h-242z" />
    <glyph glyph-name="Adieresis" unicode="&#xc4;" 
d="M1057 1145v-125q0 -43 -24 -69.5t-62 -26.5t-62 27t-24 69v125q0 44 23.5 70t62.5 26q37 0 61.5 -27t24.5 -69zM381 1145v-125q0 -43 -24 -69.5t-62 -26.5t-62 27t-24 69v125q0 44 23.5 70t62.5 26q37 0 61.5 -27t24.5 -69zM633 633l-127 -330h256zM889 -20l-62 149h-389
l-59 -149q-12 -33 -33.5 -49.5t-50.5 -16.5q-37 0 -61.5 25.5t-24.5 64.5q0 7 2.5 16t7.5 21l322 838q12 34 36.5 53.5t55.5 19.5t53.5 -18.5t36.5 -54.5l326 -838q4 -13 6 -22t2 -15q0 -39 -24 -64.5t-60 -25.5q-29 0 -50.5 16.5t-33.5 49.5z" />
    <glyph glyph-name="Aring" unicode="&#xc5;" 
d="M616 780l-122 -405h276l-117 405h-37zM467 1069v-117h334v117h-334zM465 1241h336q71 0 121.5 -50t50.5 -122v-117q0 -61 -39.5 -108.5t-102.5 -59.5l218 -752q3 -9 4.5 -18t1.5 -16q0 -35 -25 -59.5t-59 -24.5q-30 0 -53.5 19.5t-32.5 51.5l-64 218h-375l-65 -217
q-12 -37 -33.5 -54.5t-54.5 -17.5t-57.5 24.5t-24.5 57.5q0 15 1 22.5t3 14.5l219 749q-65 17 -103 63t-38 107v117q0 71 50.5 121.5t121.5 50.5z" />
    <glyph glyph-name="Ntilde" unicode="&#xd1;" 
d="M381 502v-492q0 -43 -24 -69.5t-62 -26.5t-62 27t-24 69v703q0 43 23.5 68.5t62.5 25.5q37 0 71 -38l5 -5l514 -545v494q0 43 23.5 68.5t62.5 25.5q38 0 62 -26t24 -68v-703q0 -43 -24 -69.5t-62 -26.5q-35 0 -67 33q-6 7 -9 10zM1057 1145v-53q0 -46 -25 -71.5
t-69 -25.5q-11 0 -19 0.5t-16 1.5l-547 64q-11 -30 -33.5 -47t-52.5 -17q-38 0 -62 26.5t-24 68.5v53q0 44 23.5 70t62.5 26q14 0 43 -4l547 -59q9 29 32 46t54 17q37 0 61.5 -27t24.5 -69z" />
    <glyph glyph-name="Odieresis" unicode="&#xd6;" 
d="M1057 1145v-125q0 -43 -24 -69.5t-62 -26.5t-62 27t-24 69v125q0 44 23.5 70t62.5 26q37 0 61.5 -27t24.5 -69zM381 1145v-125q0 -43 -24 -69.5t-62 -26.5t-62 27t-24 69v125q0 44 23.5 70t62.5 26q37 0 61.5 -27t24.5 -69zM874 801l101 -146q47 -68 64.5 -117t17.5 -104
q0 -54 -17.5 -104t-64.5 -119l-101 -145q-52 -78 -111.5 -115t-129.5 -37q-71 0 -130 37t-112 115l-98 145q-50 74 -67 122t-17 101q0 52 17 100t67 121l98 146q53 77 112 114t130 37q70 0 129.5 -37t111.5 -114zM711 735q-14 19 -36 32t-42 13q-21 0 -42 -12.5t-34 -32.5
l-135 -200q-3 -5 -10 -15q-31 -45 -31 -88q0 -42 31 -85q7 -10 10 -15l135 -201q14 -20 35 -33.5t41 -13.5t42 13.5t36 33.5l131 201q2 3 8 11q35 47 35 89q0 43 -32 89q-6 9 -9 13z" />
    <glyph glyph-name="Udieresis" unicode="&#xdc;" 
d="M883 1145v-125q0 -45 -23 -70.5t-63 -25.5q-35 0 -59 26.5t-27 68.5v126q0 43 24.5 69.5t61.5 26.5q38 0 62 -24t24 -64v-8zM555 1144v-124q0 -42 -25 -69t-61 -27q-39 0 -62.5 24t-23.5 64v8v125q0 45 23 70.5t63 25.5q34 0 58.5 -27t27.5 -70zM381 856v-684
q0 -36 25.5 -61t60.5 -25h330q34 0 61 26t27 60v684q0 44 23.5 70t62.5 26q37 0 61.5 -27t24.5 -69v-684q0 -106 -76 -182t-182 -76h-330q-108 0 -184 75.5t-76 182.5v684q0 44 23.5 70t62.5 26q37 0 61.5 -27t24.5 -69z" />
    <glyph glyph-name="agrave" unicode="&#xe0;" 
d="M209 1145q0 44 23.5 70t62.5 26q37 0 61.5 -27t24.5 -69v-481h504v481q0 44 23.5 70t62.5 26q37 0 61.5 -27t24.5 -69v-653h-338v-482q0 -43 -24 -69.5t-62 -26.5t-62 27t-24 69v482h-338v653z" />
    <glyph glyph-name="sterling" unicode="&#xa3;" 
d="M932 1241h29q43 0 69.5 -24t26.5 -62q0 -37 -27 -61.5t-69 -24.5h-29q-31 0 -53.5 -19.5t-32.5 -56.5l-98 -329h213q43 0 69.5 -24t26.5 -62t-27 -62t-69 -24h-263l-116 -406h379q43 0 69.5 -24t26.5 -62t-27 -62t-69 -24h-656q-43 0 -69.5 24t-26.5 62t27 62t69 24h94
l119 406h-213q-44 0 -70 23.5t-26 62.5q0 37 27 61.5t69 24.5h264l103 358q29 105 97 162t163 57z" />
    <glyph glyph-name="AE" unicode="&#xc6;" 
d="M631 664l-105 -289h105v289zM745 1241h216q43 0 69.5 -24t26.5 -62q0 -37 -27 -61.5t-69 -24.5h-158v-405h158q43 0 69.5 -24t26.5 -62t-27 -62t-69 -24h-158v-406h158q43 0 69.5 -24t26.5 -62t-27 -62t-69 -24h-244q-38 0 -62 27t-24 69v193h-166l-86 -223
q-13 -34 -33.5 -50t-50.5 -16q-36 0 -61 25t-25 61q0 8 2.5 19.5t5.5 19.5l416 1139q13 35 34.5 49t77.5 14z" />
    <glyph glyph-name="Oslash" unicode="&#xd8;" 
d="M827 743l-297 -512l58 -112q8 -18 18.5 -25.5t26.5 -7.5q14 0 27 8.5t20 24.5l184 362q9 18 15 44.5t6 52.5q0 25 -6 52t-15 44zM678 1036q-8 18 -18.5 25.5t-26.5 7.5q-14 0 -27 -9t-20 -23l-185 -364q-9 -18 -14.5 -44t-5.5 -51q0 -27 6 -54t14 -42l37 -70l297 512z
M1040 1106l-110 -186l90 -175q17 -34 27 -78.5t10 -88.5q0 -47 -10 -91t-27 -77l-178 -351q-42 -79 -90 -112t-119 -33q-72 0 -122 34.5t-87 108.5l-49 -92q-14 -24 -35 -37.5t-45 -13.5q-37 0 -61.5 24.5t-24.5 61.5q0 12 4 25.5t12 25.5l109 185l-88 174
q-18 35 -27.5 78.5t-9.5 89.5t9.5 90t27.5 77l178 351q41 79 89 112t120 33q73 0 122.5 -34t84.5 -107l51 92q13 24 33.5 36.5t46.5 12.5q35 0 60.5 -24.5t25.5 -61.5q0 -11 -4.5 -24t-12.5 -25z" />
    <glyph glyph-name="yen" unicode="&#xa5;" 
d="M375 1190l258 -442l258 442q13 24 34.5 37.5t45.5 13.5q36 0 61 -25t25 -61q0 -11 -4 -23.5t-13 -28.5l-321 -550v-35h244q41 0 67.5 -24t26.5 -62q0 -39 -25.5 -62.5t-68.5 -23.5h-244v-336q0 -43 -24 -69.5t-62 -26.5t-62 27t-24 69v336h-242q-44 0 -70 23.5t-26 62.5
q0 38 27 62t69 24h242v35l-322 551q-8 15 -12 27.5t-4 23.5q0 37 24.5 61.5t61.5 24.5q23 0 44.5 -14t35.5 -37z" />
    <glyph glyph-name="exclamdown" unicode="&#xa1;" 
d="M1057 731q0 -43 -24 -68.5t-62 -25.5t-62 26t-24 68v338h-166v-1155h-510v510q0 44 23.5 69t62.5 25q38 0 62 -26t24 -68v-338h166v1155h510v-510z" />
    <glyph glyph-name="nonbreakingspace" unicode="&#xa0;" 
 />
    <glyph glyph-name="Agrave" unicode="&#xc0;" 
d="M379 10v414q0 27 7 43t36 41l463 395v72l-82 67l-445 -378q-17 -15 -33.5 -21t-35.5 -6q-31 0 -55.5 24.5t-24.5 57.5q0 21 9.5 40t27.5 34l493 421q17 16 31 21.5t31 5.5q19 0 37.5 -9t58.5 -42l88 -76l1 -1q71 -61 71 -112v-124q0 -28 -7.5 -45t-35.5 -41l-463 -396
v-385q0 -43 -24 -69.5t-62 -26.5t-62 27t-24 69z" />
    <glyph glyph-name="quoteright" unicode="&#x2019;" 
d="M549 1241h147q52 0 78.5 -22t26.5 -64q0 -7 -1 -14.5t-3 -16.5l-160 -559q-11 -35 -34 -54t-54 -19q-38 0 -62 27t-24 69v557q0 44 23.5 70t62.5 26z" />
    <glyph glyph-name="currency" unicode="&#xa4;" 
d="M193 319q-47 0 -72 20t-25 56t26 56t71 20h108q-7 21 -10.5 47t-3.5 57q0 32 3.5 59t10.5 50h-96q-47 0 -71.5 19.5t-24.5 56.5q0 35 25.5 55.5t70.5 20.5h168l123 243q42 84 100 123t139 39h303q43 0 70 -24t27 -62q0 -37 -27 -61.5t-70 -24.5h-303q-26 0 -47.5 -14
t-34.5 -39l-88 -180h340q45 0 69.5 -20t24.5 -56q0 -37 -24 -56.5t-70 -19.5h-416l-12 -25q-8 -18 -12 -38t-4 -43q0 -24 4 -44t12 -38l12 -25h308q44 0 69 -20t25 -56q0 -37 -24 -56.5t-70 -19.5h-232l88 -178q13 -25 35 -40t47 -15h303q43 0 70 -24t27 -62t-27 -62
t-70 -24h-303q-81 0 -139 39t-100 123l-123 243h-180z" />
    <glyph glyph-name="guilsinglleft" unicode="&#x2039;" 
d="M880 76l-599 352q-25 15 -37.5 35t-12.5 43v141q0 25 13 46t37 34l600 352q14 8 27 12.5t24 4.5q36 0 61 -24t25 -60q0 -25 -13 -46t-36 -34l-607 -352l607 -357q24 -15 36.5 -35.5t12.5 -44.5q0 -36 -24.5 -60t-61.5 -24q-11 0 -23.5 4t-28.5 13z" />
    <glyph glyph-name="guilsinglright" unicode="&#x203a;" 
d="M385 1079l600 -352q23 -13 36 -34t13 -46v-141q0 -24 -13 -44.5t-36 -33.5l-600 -352q-16 -9 -28 -13t-23 -4q-37 0 -61.5 24t-24.5 60q0 25 13 46t36 34l606 352l-606 357q-25 15 -37 35t-12 45q0 36 24.5 60t61.5 24q10 0 23.5 -4.5t27.5 -12.5z" />
    <glyph glyph-name="Acircumflex" unicode="&#xc2;" horiz-adv-x="4172" 
d="M238 360v435h3698v-435h-3698z" />
    <glyph glyph-name="Oacute" unicode="&#xd3;" 
d="M231 -66v1287h805v-1287h-805z" />
    <glyph glyph-name="Eth" unicode="&#xd0;" 
d="M961 664q43 0 69.5 -24t26.5 -62t-27 -62t-69 -24h-656q-44 0 -70 23.5t-26 62.5q0 37 27 61.5t69 24.5h656z" />
    <glyph glyph-name="Thorn" unicode="&#xde;" 
d="M885 1145q0 44 23.5 70t62.5 26q37 0 61.5 -27t24.5 -69v-1137q0 -43 -24 -68.5t-62 -25.5t-62 26t-24 68v484h-504v-484q0 -43 -24 -68.5t-62 -25.5t-62 26t-24 68v656h676v481z" />
    <glyph glyph-name="twosuperior" unicode="&#xb2;" 
d="M887 424v-414q0 -43 -24 -69.5t-62 -26.5h-84q-38 0 -62 27t-24 69v264h-158q-44 0 -69 23.5t-25 62.5v64q0 45 24.5 69.5t69.5 24.5h328q38 0 62 -26t24 -68z" />
    <glyph glyph-name="threesuperior" unicode="&#xb3;" 
d="M760 -86h-254q-38 0 -62 27t-24 69v234q0 44 23.5 70t62.5 26h254q37 0 61.5 -27t24.5 -69v-234q0 -43 -24 -69.5t-62 -26.5z" />
    <glyph glyph-name="Euro" 
d="M193 319q-47 0 -72 20t-25 56t26 56t71 20h108q-7 21 -10.5 47t-3.5 57q0 32 3.5 59t10.5 50h-96q-47 0 -71.5 19.5t-24.5 56.5q0 35 25.5 55.5t70.5 20.5h168l123 243q42 84 100 123t139 39h303q43 0 70 -24t27 -62q0 -37 -27 -61.5t-70 -24.5h-303q-26 0 -47.5 -14
t-34.5 -39l-88 -180h340q45 0 69.5 -20t24.5 -56q0 -37 -24 -56.5t-70 -19.5h-416l-12 -25q-8 -18 -12 -38t-4 -43q0 -24 4 -44t12 -38l12 -25h308q44 0 69 -20t25 -56q0 -37 -24 -56.5t-70 -19.5h-232l88 -178q13 -25 35 -40t47 -15h303q43 0 70 -24t27 -62t-27 -62
t-70 -24h-303q-81 0 -139 39t-100 123l-123 243h-180z" />
    <glyph glyph-name="Euro" unicode="&#x20ac;" 
d="M193 319q-47 0 -72 20t-25 56t26 56t71 20h108q-7 21 -10.5 47t-3.5 57q0 32 3.5 59t10.5 50h-96q-47 0 -71.5 19.5t-24.5 56.5q0 35 25.5 55.5t70.5 20.5h168l123 243q42 84 100 123t139 39h303q43 0 70 -24t27 -62q0 -37 -27 -61.5t-70 -24.5h-303q-26 0 -47.5 -14
t-34.5 -39l-88 -180h340q45 0 69.5 -20t24.5 -56q0 -37 -24 -56.5t-70 -19.5h-416l-12 -25q-8 -18 -12 -38t-4 -43q0 -24 4 -44t12 -38l12 -25h308q44 0 69 -20t25 -56q0 -37 -24 -56.5t-70 -19.5h-232l88 -178q13 -25 35 -40t47 -15h303q43 0 70 -24t27 -62t-27 -62
t-70 -24h-303q-81 0 -139 39t-100 123l-123 243h-180z" />
  </font>
</defs>
</svg>
