<?xml version="1.0" standalone="no"?>
<!DOCTYPE svg PUBLIC "-//W3C//DTD SVG 1.1//EN" "http://www.w3.org/Graphics/SVG/1.1/DTD/svg11.dtd" >
<svg xmlns="http://www.w3.org/2000/svg" xmlns:xlink="http://www.w3.org/1999/xlink" version="1.1">
<metadata>
Created by FontForge 20200511 at Thu Sep 27 16:46:11 2012
 By convertio
Matthew Skala (2011-12); based on code by Richard B. Wales (1988-89) and Tor Lillqvist
</metadata>
<defs>
<font id="OCRA" horiz-adv-x="723" >
  <font-face 
    font-family="OCRA"
    font-weight="400"
    font-stretch="normal"
    units-per-em="1000"
    panose-1="2 0 5 9 0 0 0 0 0 0"
    ascent="800"
    descent="-200"
    x-height="568"
    cap-height="780"
    bbox="87 -212 636 1106"
    underline-thickness="0"
    underline-position="0"
    unicode-range="U+0020-25A0"
  />
<missing-glyph 
 />
    <glyph glyph-name=".notdef" 
 />
    <glyph glyph-name=".null" horiz-adv-x="0" 
 />
    <glyph glyph-name="nonmarkingreturn" 
 />
    <glyph glyph-name="space" unicode=" " 
 />
    <glyph glyph-name="exclam" unicode="!" 
d="M286 51v42q0 21 15 35.5t36 14.5h49q21 0 36 -14.5t15 -35.5v-42q0 -21 -15 -36t-36 -15h-49q-21 0 -36 15t-15 36zM286 730q0 20 15 35t36 15h49q20 0 35.5 -14t15.5 -33v-3l-25 -383q0 -21 -15 -35.5t-35 -14.5q-21 0 -35 14.5t-16 35.5z" />
    <glyph glyph-name="quotedbl" unicode="&#x22;" 
d="M111 730q0 3 2 13v37h498v-32q2 -8 2 -12q0 -6 -2 -16v-14q-20 -74 -49 -232q-10 -50 -52 -50q-20 0 -36 13t-16 31q0 1 0.5 3t0.5 3l-41 205h-114l-42 -214q-3 -17 -17 -29t-32 -12t-32 11.5t-18 29.5z" />
    <glyph glyph-name="numbersign" unicode="#" 
d="M113 348q0 20 14.5 35t35.5 15h49v111h-49q-21 0 -35.5 15t-14.5 36t14.5 35.5t35.5 14.5h49v120q0 20 14.5 35t35.5 15t36 -15t15 -35v-120h97v120q0 20 15 35t36 15t35.5 -15t14.5 -35v-120h49q21 0 36 -14.5t15 -35.5t-15 -36t-36 -15h-49v-111h49q21 0 36 -15t15 -35
q0 -21 -15 -36t-36 -15h-49v-119q0 -21 -14.5 -36t-35.5 -15t-36 15t-15 36v119h-97v-119q0 -21 -15 -36t-36 -15t-35.5 15t-14.5 36v119h-49q-21 0 -35.5 15t-14.5 36zM313 398h97v111h-97v-111z" />
    <glyph glyph-name="dollar" unicode="$" 
d="M113 220q0 21 14.5 36t35.5 15h347v68h-347q-21 0 -35.5 15t-14.5 36v170q0 21 14.5 35.5t35.5 14.5h148v120q0 20 15 35t36 15q20 0 35 -15t15 -35v-120h148q21 0 36 -14.5t15 -35.5t-15 -36t-36 -15h-347v-68h347q21 0 36 -15t15 -36v-170q0 -21 -15 -35.5t-36 -14.5
h-148v-119q0 -21 -15 -36t-35 -15q-21 0 -36 15t-15 36v119h-148q-21 0 -35.5 14.5t-14.5 35.5z" />
    <glyph glyph-name="percent" unicode="%" 
d="M113 135q0 20 10 31l397 510q14 19 40 19q21 0 36 -14.5t15 -35.5q0 -18 -11 -31l-397 -510q-14 -19 -40 -19q-21 0 -35.5 14.5t-14.5 35.5zM113 645v85q0 20 14.5 35t35.5 15h99q21 0 36 -15t15 -35v-85q0 -21 -15 -36t-36 -15h-99q-21 0 -35.5 15t-14.5 36zM410 51v84
q0 21 15 36t36 15h99q21 0 36 -15t15 -36v-84q0 -21 -15 -36t-36 -15h-99q-21 0 -36 15t-15 36z" />
    <glyph glyph-name="ampersand" unicode="&#x26;" 
d="M113 151v69q0 24 17 39l92 79l-96 102q-13 15 -13 35v69q0 62 44.5 106.5t106.5 44.5h96q62 0 106.5 -44.5t44.5 -106.5v-69q0 -25 -17 -39l-125 -107l107 -114l51 44q15 12 33 12q21 0 36 -15t15 -36q0 -13 -8 -26t-15.5 -20t-24 -19t-18.5 -14l52 -56q14 -16 14 -34
q0 -21 -15 -36t-36 -15q-23 0 -37 16l-55 59l-74 -63q-15 -12 -32 -12h-98q-62 0 -106.5 44.5t-44.5 106.5zM214 151q0 -21 15 -35.5t35 -14.5h79l56 48l-107 114l-78 -66v-46zM214 495l85 -91l111 94v46q0 20 -15 35t-35 15h-96q-20 0 -35 -14.5t-15 -35.5v-49z" />
    <glyph glyph-name="quotesingle" unicode="'" 
d="M261 390v340q0 20 15 35t36 15h99q21 0 36 -15t15 -35q0 -5 -2 -15l-99 -337q-5 -17 -18 -27.5t-31 -10.5q-21 0 -36 14.5t-15 35.5z" />
    <glyph glyph-name="parenleft" unicode="(" 
d="M261 294v192q0 69 43 125l117 150q16 19 40 19q21 0 35.5 -15t14.5 -35q0 -17 -10 -32l-117 -149q-22 -29 -22 -63v-192q0 -34 22 -63l117 -149q10 -15 10 -31q0 -21 -14.5 -36t-35.5 -15q-24 0 -40 19l-117 150q-43 56 -43 125z" />
    <glyph glyph-name="parenright" unicode=")" 
d="M212 51q0 16 10 31l117 149q22 29 22 63v192q0 34 -22 63l-117 149q-10 15 -10 32q0 20 14.5 35t35.5 15q24 0 40 -19l117 -150q43 -56 43 -125v-192q0 -69 -43 -125l-117 -150q-16 -19 -40 -19q-21 0 -35.5 15t-14.5 36z" />
    <glyph glyph-name="asterisk" unicode="*" 
d="M113 220q0 24 17 39l153 131l-153 131q-17 15 -17 39q0 21 14.5 35.5t35.5 14.5q19 0 33 -12l115 -98v145q0 21 15 35.5t36 14.5q20 0 35 -14.5t15 -35.5v-145l115 98q13 12 33 12q21 0 36 -14.5t15 -35.5q0 -23 -18 -39l-153 -131l153 -131q18 -16 18 -39
q0 -21 -15 -35.5t-36 -14.5q-20 0 -33 12l-115 98v-145q0 -21 -15 -35.5t-35 -14.5q-21 0 -36 14.5t-15 35.5v145l-115 -98q-14 -12 -33 -12q-21 0 -35.5 14.5t-14.5 35.5z" />
    <glyph glyph-name="plus" unicode="+" 
d="M113 390q0 21 14.5 36t35.5 15h148v148q0 20 15 35t36 15q20 0 35 -15t15 -35v-148h148q21 0 36 -15t15 -36t-15 -35.5t-36 -14.5h-148v-148q0 -21 -15 -36t-35 -15q-21 0 -36 15t-15 36v148h-148q-21 0 -35.5 14.5t-14.5 35.5z" />
    <glyph glyph-name="comma" unicode="," 
d="M212 305q0 21 14.5 36t35.5 15h199q21 0 35.5 -15t14.5 -36v-254q0 -21 -14.5 -36t-35.5 -15t-36 15t-15 36v204h-148q-21 0 -35.5 14.5t-14.5 35.5z" />
    <glyph glyph-name="hyphen" unicode="-" 
d="M113 348v42q0 21 14.5 36t35.5 15h397q21 0 36 -15t15 -36v-42q0 -21 -15 -36t-36 -15h-397q-21 0 -35.5 15t-14.5 36z" />
    <glyph glyph-name="period" unicode="." 
d="M261 178v85q0 21 15 35.5t36 14.5h99q21 0 36 -14.5t15 -35.5v-85q0 -21 -15 -36t-36 -15h-99q-21 0 -36 15t-15 36z" />
    <glyph glyph-name="slash" unicode="/" 
d="M113 51q0 13 6 25l397 679q15 25 44 25q21 0 36 -15t15 -35q0 -12 -7 -26l-397 -679q-15 -25 -44 -25q-21 0 -35.5 15t-14.5 36z" />
    <glyph glyph-name="zero" unicode="0" 
d="M113 101v578q0 41 30 71t71 30h296q40 0 70.5 -30t30.5 -71v-578q0 -41 -30.5 -71t-70.5 -30h-296q-41 0 -71 30t-30 71zM214 101h296v578h-296v-578z" />
    <glyph glyph-name="one" unicode="1" 
d="M113 51q0 20 14.5 35t35.5 15h148v578h-148q-21 0 -35.5 15t-14.5 36q0 20 14.5 35t35.5 15h249v-679h98v204q0 21 14.5 36t35.5 15t36 -15t15 -36v-254q0 -21 -15 -36t-36 -15h-397q-21 0 -35.5 15t-14.5 36z" />
    <glyph glyph-name="two" unicode="2" 
d="M113 0v340q0 41 30 70.5t71 29.5h296v239h-347q-21 0 -35.5 15t-14.5 36q0 20 14.5 35t35.5 15h347q40 0 70.5 -30t30.5 -71v-239q0 -40 -30 -70t-71 -30h-296v-239h346q21 0 36 -15t15 -35q0 -21 -15 -36t-36 -15h-447z" />
    <glyph glyph-name="three" unicode="3" 
d="M113 51q0 20 14.5 35t35.5 15h347v188q0 20 -15.5 35.5t-35.5 15.5h-197q-21 0 -35.5 14.5t-14.5 35.5t14.5 36t35.5 15h197q21 0 36 15t15 35v188h-347q-21 0 -35.5 15t-14.5 36q0 20 14.5 35t35.5 15h347q40 0 70.5 -30t30.5 -71v-188q0 -58 -40 -101q40 -43 40 -101
v-188q0 -41 -30.5 -71t-70.5 -30h-347q-21 0 -35.5 15t-14.5 36z" />
    <glyph glyph-name="four" unicode="4" 
d="M137 255v475q0 20 15 35t36 15t35.5 -15t14.5 -35v-374h197v289q0 21 15 35.5t36 14.5q20 0 35 -14.5t15 -35.5v-289q21 0 35.5 -15t14.5 -36t-14.5 -35.5t-35.5 -14.5v-204q0 -21 -15 -36t-35 -15q-21 0 -36 15t-15 36v204h-298z" />
    <glyph glyph-name="five" unicode="5" 
d="M113 93q0 21 14.5 35.5t35.5 14.5q12 0 20 -4l90 -38h237v239h-298v440h348q21 0 36 -15t15 -35q0 -21 -15 -36t-36 -15h-247v-238h197q40 0 70.5 -30.5t30.5 -70.5v-239q0 -41 -30.5 -71t-70.5 -30h-227q-20 0 -40.5 5t-33.5 10.5t-35 16t-31 14.5q-30 13 -30 47z" />
    <glyph glyph-name="six" unicode="6" 
d="M113 51v679q0 20 14.5 35t35.5 15h50q21 0 35.5 -15t14.5 -35q0 -21 -14.5 -36t-35.5 -15v-323h347q21 0 36 -15t15 -36v-254q0 -21 -15 -36t-36 -15h-397q-21 0 -35.5 15t-14.5 36zM213 101h297v154h-297v-154z" />
    <glyph glyph-name="seven" unicode="7" 
d="M113 687v43q0 20 14.5 35t35.5 15h448v-305q0 -23 -18 -39l-181 -154v-231q0 -21 -15 -36t-35 -15q-21 0 -36 15t-15 36v254q0 23 18 39l181 154v181h-297q-3 -18 -17 -30t-33 -12q-21 0 -35.5 14.5t-14.5 35.5z" />
    <glyph glyph-name="eight" unicode="8" 
d="M113 101v239q0 41 29.5 71t70.5 30v289q0 21 14 35.5t35 14.5h199q21 0 35 -14.5t14 -35.5v-289q40 0 70.5 -30.5t30.5 -70.5v-239q0 -41 -30.5 -71t-70.5 -30h-297q-41 0 -70.5 30t-29.5 71zM213 101h297v239h-297v-239zM313 441h97v238h-97v-238z" />
    <glyph glyph-name="nine" unicode="9" 
d="M113 475v255q0 20 14.5 35t35.5 15h397q21 0 36 -15t15 -35v-679q0 -21 -15 -36t-36 -15h-50q-21 0 -35.5 15t-14.5 36q0 20 14.5 35t35.5 15v323h-347q-21 0 -35.5 15t-14.5 36zM213 525h297v154h-297v-154z" />
    <glyph glyph-name="colon" unicode=":" 
d="M261 178v85q0 21 15 35.5t36 14.5h99q21 0 36 -14.5t15 -35.5v-85q0 -21 -15 -36t-36 -15h-99q-21 0 -36 15t-15 36zM261 517v85q0 21 15 36t36 15h99q21 0 36 -15t15 -36v-85q0 -21 -15 -35.5t-36 -14.5h-99q-21 0 -36 14.5t-15 35.5z" />
    <glyph glyph-name="semicolon" unicode=";" 
d="M212 305q0 21 14.5 36t35.5 15h199q21 0 35.5 -15t14.5 -36v-254q0 -21 -14.5 -36t-35.5 -15t-36 15t-15 36v204h-148q-21 0 -35.5 14.5t-14.5 35.5zM212 560v85q0 21 14.5 35.5t35.5 14.5h100q20 0 35 -14.5t15 -35.5v-85q0 -21 -15 -36t-35 -15h-100q-21 0 -35.5 15
t-14.5 36z" />
    <glyph glyph-name="less" unicode="&#x3c;" 
d="M113 368v43q0 29 24 44l397 233q11 7 26 7q21 0 36 -14.5t15 -35.5q0 -28 -25 -44l-359 -211l359 -211q25 -16 25 -44q0 -21 -15 -35.5t-36 -14.5q-15 0 -26 7l-397 233q-24 15 -24 43z" />
    <glyph glyph-name="equal" unicode="=" 
d="M113 305q0 21 14.5 36t35.5 15h397q21 0 36 -15t15 -36t-15 -35.5t-36 -14.5h-397q-21 0 -35.5 14.5t-14.5 35.5zM113 517q0 21 14.5 36t35.5 15h397q21 0 36 -15t15 -36t-15 -35.5t-36 -14.5h-397q-21 0 -35.5 14.5t-14.5 35.5z" />
    <glyph glyph-name="greater" unicode="&#x3e;" 
d="M113 135q0 29 24 44l360 211l-360 211q-24 15 -24 44q0 21 14.5 35.5t35.5 14.5q15 0 26 -7l397 -233q25 -16 25 -44v-42q0 -29 -20 -41l-402 -236q-11 -7 -26 -7q-21 0 -35.5 14.5t-14.5 35.5z" />
    <glyph glyph-name="question" unicode="?" 
d="M113 475q0 24 17 38l298 255q15 12 33 12t33 -12l99 -85q18 -15 18 -38v-85q0 -23 -18 -39l-280 -239v-62q0 -21 -15 -35.5t-36 -14.5t-35.5 14.5t-14.5 35.5v85q0 25 17 39l281 239v38l-49 42l-265 -227q-15 -12 -33 -12q-21 0 -35.5 15t-14.5 36zM212 51q0 20 14.5 35
t35.5 15t36 -15t15 -35q0 -21 -15 -36t-36 -15t-35.5 15t-14.5 36z" />
    <glyph glyph-name="at" unicode="@" 
d="M113 150v183q0 62 44 106t105 44h100q20 0 35 -15t15 -36v-282q0 -20 14.5 -34.5t34.5 -14.5t34.5 14.5t14.5 34.5v452q0 32 -23 54.5t-54 22.5h-143q-25 0 -47.5 -17.5t-34.5 -40.5q-14 -27 -45 -27q-21 0 -35.5 15t-14.5 36q0 36 54 85q55 50 123 50h143
q73 0 125.5 -53t52.5 -125v-452q0 -61 -44.5 -105.5t-105.5 -44.5q-57 0 -99 39q-44 -39 -100 -39q-61 0 -105 44t-44 106zM214 150q0 -20 14 -34.5t34 -14.5t34.5 14.5t14.5 34.5v232h-49q-20 0 -34 -14.5t-14 -34.5v-183z" />
    <glyph glyph-name="A" unicode="A" 
d="M110 51l203 693q5 16 18 26t30 10t31 -10t18 -26l202 -693q0 -21 -15.5 -36t-36.5 -15q-17 0 -30 10t-18 26l-39 134h-223l-39 -134q-5 -16 -18.5 -26t-30.5 -10q-21 0 -36.5 15t-15.5 36zM280 271h163l-82 278z" />
    <glyph glyph-name="B" unicode="B" 
d="M113 0v780h296q82 0 142 -60t60 -142v-37q0 -89 -70 -151q70 -62 70 -151v-37q0 -82 -60 -142t-142 -60h-296zM214 101h195q41 0 71 30.5t30 70.5v37q0 41 -30 71t-71 30h-195v-239zM214 441h195q41 0 71 30t30 70v37q0 40 -30 70.5t-71 30.5h-195v-238z" />
    <glyph glyph-name="C" unicode="C" 
d="M113 390q0 53 24 103l101 204q16 36 53.5 59.5t82.5 23.5h186q21 0 36 -15t15 -35q0 -21 -15 -36t-36 -15h-186q-31 0 -44 -28l-103 -203q-13 -28 -13 -58t13 -58l103 -203q13 -28 44 -28h186q21 0 36 -15t15 -35q0 -21 -15 -36t-36 -15h-186q-44 0 -80.5 24t-54.5 60
q-74 141 -102 203q-24 51 -24 103z" />
    <glyph glyph-name="D" unicode="D" 
d="M113 51q0 20 14.5 35t35.5 15h49v578h-49q-21 0 -35.5 15t-14.5 36q0 20 14.5 35t35.5 15h186q44 0 80.5 -24t54.5 -60l102 -203q25 -52 25 -103t-25 -103l-101 -204q-16 -36 -53.5 -59.5t-82.5 -23.5h-186q-21 0 -35.5 15t-14.5 36zM313 101h36q31 0 44 28l103 203
q14 34 14 58q0 30 -14 58l-103 203q-13 28 -44 28h-36v-578z" />
    <glyph glyph-name="E" unicode="E" 
d="M113 0v780h447q21 0 36 -15t15 -35q0 -21 -15 -36t-36 -15h-346v-238h148q20 0 35 -15t15 -36t-15 -35.5t-35 -14.5h-148v-239h346q21 0 36 -15t15 -35q0 -21 -15 -36t-36 -15h-447z" />
    <glyph glyph-name="F" unicode="F" 
d="M113 51v729h447q21 0 36 -15t15 -35q0 -21 -15 -36t-36 -15h-346v-154h247q21 0 35.5 -14.5t14.5 -35.5t-14.5 -36t-35.5 -15h-247v-373q0 -21 -15 -36t-36 -15t-35.5 15t-14.5 36z" />
    <glyph glyph-name="G" unicode="G" 
d="M113 152v271q0 69 42 123l136 176q45 58 120 58h149q21 0 36 -15t15 -35q0 -21 -15 -36t-36 -15h-149q-25 0 -40 -20l-136 -174q-21 -28 -21 -62v-271q0 -21 15 -36t35 -15h195q20 0 35.5 15t15.5 36v103h-99q-21 0 -35.5 14.5t-14.5 35.5t14.5 36t35.5 15h200v-204
q0 -62 -45 -107t-107 -45h-195q-63 0 -107 44.5t-44 107.5z" />
    <glyph glyph-name="H" unicode="H" 
d="M113 51v679q0 20 14.5 35t35.5 15t36 -15t15 -35v-289h296v289q0 20 14.5 35t35.5 15t36 -15t15 -35v-679q0 -21 -15 -36t-36 -15t-35.5 15t-14.5 36v289h-296v-289q0 -21 -15 -36t-36 -15t-35.5 15t-14.5 36z" />
    <glyph glyph-name="I" unicode="I" 
d="M113 51q0 20 14.5 35t35.5 15h148v578h-148q-21 0 -35.5 15t-14.5 36q0 20 14.5 35t35.5 15h397q21 0 36 -15t15 -35q0 -21 -15 -36t-36 -15h-148v-578h148q21 0 36 -15t15 -35q0 -21 -15 -36t-36 -15h-397q-21 0 -35.5 15t-14.5 36z" />
    <glyph glyph-name="J" unicode="J" 
d="M162 151v154q0 21 15 36t36 15t35.5 -15t14.5 -36v-154q0 -21 15 -35.5t36 -14.5h95q21 0 36 15t15 35v579q0 20 14.5 35t35.5 15t36 -15t15 -35v-579q0 -62 -45 -106.5t-107 -44.5h-95q-62 0 -107 44.5t-45 106.5z" />
    <glyph glyph-name="K" unicode="K" 
d="M113 51v679q0 20 14.5 35t35.5 15t36 -15t15 -35v-230l313 268q15 12 33 12q21 0 36 -15t15 -35q0 -24 -18 -39l-352 -301l352 -301q18 -15 18 -38q0 -21 -15 -36t-36 -15q-18 0 -33 12l-313 268v-229q0 -21 -15 -36t-36 -15t-35.5 15t-14.5 36z" />
    <glyph glyph-name="L" unicode="L" 
d="M113 0v730q0 20 14.5 35t35.5 15t36 -15t15 -35v-629h346q21 0 36 -15t15 -35q0 -21 -15 -36t-36 -15h-447z" />
    <glyph glyph-name="M" unicode="M" 
d="M113 51v729h126l123 -175l122 175h127v-729q0 -21 -15 -36t-36 -15t-35.5 15t-14.5 36v590l-98 -140v-26q0 -21 -15 -36t-35 -15q-21 0 -36 15t-15 36v26l-97 138v-588q0 -21 -15 -36t-36 -15t-35.5 15t-14.5 36z" />
    <glyph glyph-name="N" unicode="N" 
d="M113 51v729h133l264 -602v552q0 20 14.5 35t35.5 15t36 -15t15 -35v-730h-134l-263 600v-549q0 -21 -15 -36t-36 -15t-35.5 15t-14.5 36z" />
    <glyph glyph-name="O" unicode="O" 
d="M113 390q0 53 24 103l107 215q16 31 47.5 51.5t69.5 20.5q39 0 70.5 -20.5t47.5 -51.5l107 -215q25 -52 25 -103t-25 -103l-107 -215q-16 -31 -47.5 -51.5t-70.5 -20.5q-38 0 -69.5 20.5t-47.5 51.5l-107 215q-24 46 -24 103zM214 390q0 -30 13 -58l108 -214
q8 -17 26 -17q20 0 28 16l107 215q14 34 14 58q0 30 -14 58l-108 213q-8 18 -27 18q-17 0 -26 -18l-108 -213q-13 -28 -13 -58z" />
    <glyph glyph-name="P" unicode="P" 
d="M113 51v729h346q62 0 107 -44.5t45 -106.5v-180q0 -62 -45 -107t-107 -45h-245v-246q0 -21 -15 -36t-36 -15t-35.5 15t-14.5 36zM214 398h245q20 0 35.5 15t15.5 36v180q0 20 -15.5 35t-35.5 15h-245v-281z" />
    <glyph glyph-name="Q" unicode="Q" 
d="M113 123v282q0 94 70 155l225 190q32 30 79 30q50 0 87 -36.5t37 -86.5v-282q0 -23 -4 -43.5t-14 -39t-17 -31t-24.5 -29.5t-24.5 -23.5t-29 -24.5t-27 -22l24 -61h65q21 0 36 -15t15 -35q0 -21 -15 -36t-36 -15h-134l-37 94l-75 -64q-34 -30 -79 -30q-50 0 -86 36.5
t-36 86.5zM214 123q0 -22 21 -22h8l108 92l-37 94q-3 7 -3 18q0 21 15 36t36 15q13 0 23 -5.5t17.5 -18.5t11.5 -21.5t10 -26.5t8 -22q4 4 19.5 16.5t22.5 19t17 19.5t14.5 27t4.5 31v282q0 9 -6.5 15t-16.5 6h-7l-232 -195q-34 -30 -34 -78v-282z" />
    <glyph glyph-name="R" unicode="R" 
d="M113 51v729h346q62 0 107 -45t45 -107v-52q0 -62 -45.5 -107t-106.5 -45h-58l203 -348q7 -14 7 -25q0 -21 -15 -36t-36 -15q-29 0 -44 25l-233 399h-69v-373q0 -21 -15 -36t-36 -15t-35.5 15t-14.5 36zM214 525h245q20 0 35.5 15.5t15.5 35.5v52q0 21 -15.5 36t-35.5 15
h-245v-154z" />
    <glyph glyph-name="S" unicode="S" 
d="M113 135q0 21 14.5 36t35.5 15t36 -15t15 -36q0 -14 10 -24t24 -10h249q13 0 13 13l-374 482q-23 32 -23 70v3q0 45 33.5 78t79.5 33h249q55 0 95.5 -40t40.5 -95q0 -21 -15 -36t-36 -15t-35.5 15t-14.5 36q0 13 -10.5 23.5t-24.5 10.5h-249q-12 0 -12 -10v-3v-4
l372 -478q25 -30 25 -70q-2 -47 -34.5 -80.5t-79.5 -33.5h-249q-55 0 -95 40t-40 95z" />
    <glyph glyph-name="T" unicode="T" 
d="M113 645v135h498v-135q0 -21 -15 -36t-36 -15t-35.5 15t-14.5 36v34h-98v-628q0 -21 -15 -36t-35 -15q-21 0 -36 15t-15 36v628h-97v-34q0 -21 -15 -36t-36 -15t-35.5 15t-14.5 36z" />
    <glyph glyph-name="U" unicode="U" 
d="M113 151v579q0 20 14.5 35t35.5 15t36 -15t15 -35v-579q0 -21 15 -35.5t35 -14.5h195q20 0 35.5 15t15.5 35v579q0 20 14.5 35t35.5 15t36 -15t15 -35v-579q0 -62 -45 -106.5t-107 -44.5h-195q-62 0 -106.5 44.5t-44.5 106.5z" />
    <glyph glyph-name="V" unicode="V" 
d="M113 549v181q0 20 14.5 35t35.5 15t36 -15t15 -35v-161l148 -378l148 378v161q0 20 14.5 35t35.5 15t36 -15t15 -35v-180l-202 -518q-13 -32 -47 -32q-35 0 -48 32z" />
    <glyph glyph-name="W" unicode="W" 
d="M113 122v608q0 20 14.5 35t35.5 15t36 -15t15 -35v-581l28 -48h41q2 3 12 22t16 29v323q0 21 15 35.5t36 14.5q20 0 35 -14.5t15 -35.5v-323q6 -10 16 -29t12 -22h41l29 48v581q0 20 14.5 35t35.5 15t36 -15t15 -35v-608l-57 -97q-15 -25 -44 -25h-98q-32 0 -50 35
q-21 -35 -51 -35h-97q-30 0 -45 25z" />
    <glyph glyph-name="X" unicode="X" 
d="M113 51q0 13 6 25l184 314l-184 314q-6 12 -6 26q0 20 14.5 35t35.5 15q29 0 44 -25l155 -264l154 264q15 25 44 25q21 0 36 -15t15 -35q0 -12 -7 -26l-184 -314l184 -314q7 -14 7 -25q0 -21 -15 -36t-36 -15q-29 0 -44 25l-154 264l-155 -264q-15 -25 -44 -25
q-21 0 -35.5 15t-14.5 36z" />
    <glyph glyph-name="Y" unicode="Y" 
d="M113 627v103q0 20 14.5 35t35.5 15t36 -15t15 -35v-68l148 -190l147 190v68q0 20 15 35t36 15t36 -15t15 -35v-103l-199 -254v-322q0 -21 -15 -36t-35 -15q-21 0 -36 15t-15 36v322z" />
    <glyph glyph-name="Z" unicode="Z" 
d="M112 64l360 615h-309q-21 0 -35.5 15t-14.5 36q0 20 14.5 35t35.5 15h448v-64l-360 -615h309q21 0 36 -15t15 -35q0 -21 -15 -36t-36 -15h-447z" />
    <glyph glyph-name="bracketleft" unicode="[" 
d="M113 51v679q0 20 14.5 35t35.5 15h397q21 0 36 -15t15 -35q0 -21 -15 -36t-36 -15h-198v-578h198q21 0 36 -15t15 -35q0 -21 -15 -36t-36 -15h-397q-21 0 -35.5 15t-14.5 36zM213 101h48v578h-48v-578z" />
    <glyph glyph-name="backslash" unicode="\" 
d="M113 730q0 20 14.5 35t35.5 15q29 0 44 -25l397 -679q7 -14 7 -25q0 -21 -15 -36t-36 -15q-29 0 -44 25l-397 679q-6 12 -6 26z" />
    <glyph glyph-name="bracketright" unicode="]" 
d="M113 51q0 20 14.5 35t35.5 15h198v578h-198q-21 0 -35.5 15t-14.5 36q0 20 14.5 35t35.5 15h397q21 0 36 -15t15 -35v-679q0 -21 -15 -36t-36 -15h-397q-21 0 -35.5 15t-14.5 36zM462 101h48v578h-48v-578z" />
    <glyph glyph-name="circumflex" unicode="&#x2c6;" 
d="M112 190l205 393q13 27 45 27q30 0 44 -27l200 -384q5 -12 5 -21q0 -21 -15 -36t-36 -15q-27 0 -41 21l-157 236l-158 -236q-14 -21 -41 -21q-21 0 -35.5 15t-14.5 36z" />
    <glyph glyph-name="underscore" unicode="_" 
d="M113 -50q0 20 14.5 35t35.5 15h397q21 0 36 -15t15 -35q0 -21 -15 -36t-36 -15h-397q-21 0 -35.5 15t-14.5 36z" />
    <glyph glyph-name="grave" unicode="`" 
d="M162 730q0 20 15 35t36 15h99q26 0 40 -19l203 -262q6 -11 6 -24q0 -21 -15 -36t-36 -15q-16 0 -32 12l-298 255q-18 15 -18 39z" />
    <glyph glyph-name="a" unicode="a" 
d="M113 150v56q0 62 44 106t105 44h193q24 0 44 -7q0 7 -0.5 23.5t-1 24t-2 21.5t-4.5 20.5t-8.5 14.5t-14 11t-20.5 3h-186q-21 0 -35.5 14.5t-14.5 35.5t14.5 36t35.5 15h186q61 0 104.5 -42.5t45.5 -102.5l13 -373q0 -21 -15.5 -35.5t-36.5 -14.5q-20 0 -34.5 15
t-14.5 35l-74 -43q-10 -7 -25 -7h-149q-61 0 -105 44t-44 106zM214 150q0 -20 14 -34.5t34 -14.5h135l107 63v44q0 18 -15.5 32.5t-33.5 14.5h-193q-19 0 -33.5 -14.5t-14.5 -34.5v-56z" />
    <glyph glyph-name="b" unicode="b" 
d="M113 51v679q0 20 14.5 35t35.5 15t36 -15t15 -35v-226q68 64 135 64h75q13 0 25 -1.5t24 -7t19 -8t19 -12t15.5 -12t17 -14t14.5 -12.5q53 -46 53 -114v-206q0 -16 -2 -29.5t-9 -26.5t-10.5 -20.5t-16.5 -20.5t-15.5 -16t-19.5 -18l-17 -14q-41 -36 -97 -36h-75
q-29 0 -56 11t-41.5 22.5t-37.5 32.5v-15q0 -21 -15 -36t-36 -15t-35.5 15t-14.5 36zM214 224q0 -23 17 -37l86 -74q12 -12 32 -12h75q14 0 25 6t26 21t17 16q18 14 18 37v206q0 14 -6.5 24t-22 23t-16.5 14q-21 19 -41 19h-75q-20 0 -32 -12l-86 -74q-17 -11 -17 -37v-120z
" />
    <glyph glyph-name="c" unicode="c" 
d="M113 224v120q0 69 52 114q11 9 36.5 33.5t42 38t45.5 26t60 12.5h211q21 0 36 -15t15 -36t-15 -35.5t-36 -14.5h-211q-20 0 -32 -12l-86 -74q-17 -11 -17 -37v-120q0 -23 17 -38l86 -73q12 -12 32 -12h211q21 0 36 -15t15 -35q0 -21 -15 -36t-36 -15h-211q-57 0 -98 36
l-86 74q-52 45 -52 114z" />
    <glyph glyph-name="d" unicode="d" 
d="M113 181v206q0 48 21 77.5t60 61.5q5 4 8 6q41 36 97 36h75q16 0 31 -3.5t24.5 -7t24.5 -13.5t19 -13t19.5 -17t17.5 -15v231q0 20 14.5 35t35.5 15t36 -15t15 -35v-679q0 -21 -15 -36t-36 -15t-35.5 15t-14.5 36v16q-23 -22 -37.5 -33.5t-41.5 -22.5t-57 -11h-75
q-11 0 -20.5 1t-19 4t-16.5 5.5t-15.5 7.5t-13.5 8t-13.5 10t-11.5 9.5t-12.5 11t-11.5 10.5q-52 43 -52 114zM214 181q0 -12 6 -23t12.5 -17t18.5 -15.5t16 -12.5q15 -12 32 -12h75q18 0 32 12l86 74q18 13 18 37v120q0 21 -18 37l-86 74q-12 12 -32 12h-75
q-14 0 -25.5 -6.5t-24.5 -19.5t-17 -16q-18 -16 -18 -38v-206z" />
    <glyph glyph-name="e" unicode="e" 
d="M113 181v206q0 35 16 65t29 42t44 38q41 36 97 36h125q10 0 19.5 -1t19.5 -4t16 -5t16 -8t13.5 -8t13.5 -10.5t12 -9.5t13 -11l11 -10q53 -46 53 -114v-124q0 -21 -15 -36t-36 -15h-346v-31q0 -12 6 -23t12.5 -17t18.5 -15.5t16 -12.5q15 -12 32 -12h261q21 0 36 -15
t15 -35q0 -21 -15 -36t-36 -15h-261q-11 0 -20.5 1t-19 4t-16.5 5.5t-15.5 7.5t-13.5 8t-13.5 10t-11.5 9.5t-12.5 11t-11.5 10.5q-52 43 -52 114zM214 313h296v74q0 26 -30 53t-56 27h-125q-14 0 -25 -6t-26 -21t-17 -16q-17 -14 -17 -37v-74z" />
    <glyph glyph-name="f" unicode="f" 
d="M137 517q0 21 14.5 36t35.5 15h49v34q0 74 52 126t126 52h121q21 0 35.5 -15t14.5 -35q0 -21 -14.5 -36t-35.5 -15h-121q-32 0 -54.5 -22.5t-22.5 -54.5v-34h99q20 0 35 -15t15 -36t-15 -35.5t-35 -14.5h-99v-416q0 -21 -14.5 -36t-35.5 -15t-36 15t-15 36v416h-49
q-21 0 -35.5 14.5t-14.5 35.5z" />
    <glyph glyph-name="g" unicode="g" 
d="M113 224v163q0 11 1.5 22t3 19t7 18t7.5 15t10 14.5t10 12.5t12.5 12t12 10.5t13 11t12.5 10.5q41 36 97 36h75q16 0 31 -3.5t24.5 -7t24.5 -13.5t19 -13t19.5 -17t17.5 -15v18q0 21 14.5 36t35.5 15t36 -15t15 -36v-548q0 -16 -2 -29.5t-9 -26.5t-10.5 -20.5
t-16.5 -20.5t-15.5 -16t-19.5 -18l-17 -14q-41 -36 -97 -36h-211q-21 0 -36 14.5t-15 35.5t15 36t36 15h211q14 0 25.5 7t25.5 20t17 16q18 14 18 37v141q-23 -21 -38 -33t-42 -23.5t-56 -11.5h-75q-15 0 -30.5 3.5t-24.5 6.5t-24 13.5t-18.5 13t-19.5 17.5l-17 14
q-52 45 -52 114zM213 224q0 -27 29.5 -54t56.5 -27h75q20 0 32 12l86 74q18 14 18 37v78q0 21 -18 37l-86 74q-12 12 -32 12h-75q-15 0 -26.5 -7t-23.5 -19t-18 -16q-18 -18 -18 -38v-163z" />
    <glyph glyph-name="h" unicode="h" 
d="M113 51v679q0 20 14.5 35t35.5 15t36 -15t15 -35v-247l96 61q38 24 81 24h57q61 0 104.5 -42.5t45.5 -102.5l12 -372q0 -21 -14.5 -36t-35.5 -15q-20 0 -35 14.5t-15 34.5l-13 371q-2 19 -15.5 33t-33.5 14h-71l-163 -105v-311q0 -21 -15 -36t-36 -15t-35.5 15t-14.5 36z
" />
    <glyph glyph-name="i" unicode="i" 
d="M162 51q0 20 15 35t36 15h99v366h-99q-21 0 -36 14.5t-15 35.5t15 36t36 15h149q20 0 35 -15t15 -36v-416h98q21 0 36 -15t15 -35q0 -21 -15 -36t-36 -15h-297q-21 0 -36 15t-15 36zM261 730v42q0 21 15 35.5t36 14.5h50q20 0 35 -14.5t15 -35.5v-42q0 -21 -15 -36
t-35 -15h-50q-21 0 -36 15t-15 36z" />
    <glyph glyph-name="j" unicode="j" 
d="M162 -77q0 21 15 36t36 15q20 0 32 -13.5t16.5 -29t17 -29t33.5 -13.5h98q20 0 35.5 14.5t15.5 34.5v529h-149q-21 0 -36 14.5t-15 35.5t15 36t36 15h198q21 0 36 -15t15 -36v-579q0 -62 -44.5 -106t-106.5 -44h-98q-56 0 -99 37t-51 90v8zM410 730v42q0 21 15 35.5
t36 14.5h49q21 0 36 -14.5t15 -35.5v-42q0 -21 -15 -36t-36 -15h-49q-21 0 -36 15t-15 36z" />
    <glyph glyph-name="k" unicode="k" 
d="M113 51v679q0 20 14.5 35t35.5 15t36 -15t15 -35v-399l264 225q14 12 32 12q21 0 36 -15t15 -36q0 -23 -18 -38l-203 -174l253 -216q18 -15 18 -38q0 -21 -14.5 -36t-35.5 -15q-19 0 -34 12l-265 227l-48 -42v-146q0 -21 -15 -36t-36 -15t-35.5 15t-14.5 36z" />
    <glyph glyph-name="l" unicode="l" 
d="M162 51q0 20 15 35t36 15h98v578h-98q-21 0 -36 15t-15 36q0 20 15 35t36 15h149q20 0 35 -15t15 -35v-629h98q21 0 36 -15t15 -35q0 -21 -15 -36t-36 -15h-297q-21 0 -36 15t-15 36z" />
    <glyph glyph-name="m" unicode="m" 
d="M105 51v466q0 21 14.5 36t35.5 15q16 0 29.5 -10t18.5 -25q41 35 86 35q61 0 97 -48l22 18q33 27 75 27q47 0 83 -33t37 -80l15 -401q0 -21 -14.5 -36t-35.5 -15q-20 0 -35 14.5t-16 34.5l-14 399q-2 19 -17 19h-6l-68 -58v-358q0 -21 -15 -36t-35 -15q-21 0 -36 15
t-15 36v394q0 22 -22 22h-8l-75 -65v-351q0 -21 -15 -36t-36 -15t-35.5 15t-14.5 36z" />
    <glyph glyph-name="n" unicode="n" 
d="M113 51v466q0 21 14.5 36t35.5 15t36 -15t15 -36v-34l96 61q38 24 81 24h57q61 0 104.5 -42.5t45.5 -102.5l12 -372q0 -21 -14.5 -36t-35.5 -15q-20 0 -35 14.5t-15 34.5l-13 371q-2 19 -15.5 33t-33.5 14h-71l-163 -105v-311q0 -21 -15 -36t-36 -15t-35.5 15t-14.5 36z
" />
    <glyph glyph-name="o" unicode="o" 
d="M113 181v206q0 35 16 65t29 42t44 38q41 36 97 36h125q13 0 25 -1.5t24 -7t19 -8t19 -12t15.5 -12t17 -14t14.5 -12.5q53 -46 53 -114v-206q0 -16 -2 -29.5t-9 -26.5t-10.5 -20.5t-16.5 -20.5t-15.5 -16t-19.5 -18l-17 -14q-41 -36 -97 -36h-125q-16 0 -30.5 3.5t-24.5 7
t-23.5 12.5t-19 13t-19 16t-17.5 15q-52 43 -52 114zM214 181q0 -12 6 -23t12.5 -17t18.5 -15.5t16 -12.5q15 -12 32 -12h125q14 0 25 6t26 21t17 16q18 14 18 37v206q0 26 -30 53t-56 27h-125q-14 0 -25 -6t-26 -21t-17 -16q-17 -14 -17 -37v-206z" />
    <glyph glyph-name="p" unicode="p" 
d="M113 -162v701q0 20 14.5 35t35.5 15t36 -15t15 -35v-27q2 2 11.5 12t12.5 12.5t12 11t14 11.5t14 9.5t16.5 9t17 6t20 4.5t21.5 1h21q29 0 56.5 -12t41 -22.5t38.5 -33.5q2 -2 26 -22.5t30 -28t20.5 -26.5t19.5 -38t5 -42v-161q0 -68 -53 -114l-86 -74q-41 -36 -98 -36
h-21q-31 0 -58.5 12t-43.5 26t-37 37v-216q0 -21 -15 -35.5t-36 -14.5t-35.5 14.5t-14.5 35.5zM214 219q0 -12 5 -22.5t10 -16t15.5 -14.5t13.5 -12q7 -7 19 -19.5t22 -22.5t19 -18q14 -14 35 -14h21q20 0 32 12l87 74q17 13 17 37v161q0 24 -17 37l-87 75q-12 12 -32 12
h-21q-21 0 -35 -14l-90 -91q-14 -11 -14 -34v-130z" />
    <glyph glyph-name="q" unicode="q" 
d="M113 181v206q0 48 21 77.5t60 61.5q5 4 8 6q41 36 97 36h75q16 0 31 -3.5t24.5 -7t24.5 -13.5t19 -13t19.5 -17t17.5 -15v18q0 21 14.5 36t35.5 15t36 -15t15 -36v-679q0 -21 -15 -35.5t-36 -14.5t-35.5 14.5t-14.5 35.5v229q-23 -22 -37.5 -33.5t-41.5 -22.5t-57 -11
h-75q-11 0 -20.5 1t-19 4t-16.5 5.5t-15.5 7.5t-13.5 8t-13.5 10t-11.5 9.5t-12.5 11t-11.5 10.5q-52 43 -52 114zM214 181q0 -12 6 -23t12.5 -17t18.5 -15.5t16 -12.5q15 -12 32 -12h75q18 0 32 12l86 74q18 13 18 37v120q0 21 -18 37l-86 74q-12 12 -32 12h-75
q-14 0 -25.5 -6.5t-24.5 -19.5t-17 -16q-18 -16 -18 -38v-206z" />
    <glyph glyph-name="r" unicode="r" 
d="M113 51v466q0 21 14.5 36t35.5 15t36 -15t15 -36v-59l119 102q11 8 29 8h99q61 0 105.5 -44.5t44.5 -105.5v-28q0 -21 -15 -35.5t-36 -14.5t-35.5 14.5t-14.5 35.5v28q0 20 -14.5 34.5t-34.5 14.5h-81l-166 -143v-273q0 -21 -15 -36t-36 -15t-35.5 15t-14.5 36z" />
    <glyph glyph-name="s" unicode="s" 
d="M113 93q0 21 14 35.5t35 14.5q18 0 37 -14.5t28 -17.5q2 -1 12 -5.5t14 -4.5h203q24 0 37.5 16t13.5 38q0 34 -29 47l-277 120q-34 15 -55 48.5t-21 72.5q0 51 37 87q38 38 91 38h214q75 0 123 -63q10 -13 10 -30q0 -21 -15 -36t-36 -15q-18 0 -40.5 21.5t-41.5 21.5
h-214q-13 0 -20.5 -9t-7.5 -20q0 -18 16 -24l278 -120q38 -17 64.5 -55.5t26.5 -84.5v-2q-1 -63 -46 -107.5t-108 -44.5h-189q-73 0 -135 53q-19 16 -19 40z" />
    <glyph glyph-name="t" unicode="t" 
d="M113 517q0 21 14.5 36t35.5 15h49v119q0 21 14.5 36t35.5 15t36 -15t15 -36v-119h197q21 0 35.5 -15t14.5 -36t-14.5 -35.5t-35.5 -14.5h-197v-317q0 -20 14 -34.5t34 -14.5h100q20 0 32.5 13.5t17 29t17 29t32.5 13.5q21 0 36 -15t15 -36v-8q-10 -52 -52.5 -89.5
t-97.5 -37.5h-100q-61 0 -105 44.5t-44 105.5v317h-49q-21 0 -35.5 14.5t-14.5 35.5z" />
    <glyph glyph-name="u" unicode="u" 
d="M113 517q0 21 14.5 36t35.5 15q20 0 35 -14.5t15 -34.5l13 -371q2 -20 15.5 -33.5t33.5 -13.5h71l164 104v312q0 21 14.5 36t35.5 15t36 -15t15 -36v-466q0 -21 -15 -36t-36 -15t-35.5 15t-14.5 36v35l-97 -62q-38 -24 -81 -24h-57q-60 0 -104 42.5t-46 101.5z" />
    <glyph glyph-name="v" unicode="v" 
d="M113 432v85q0 21 14.5 36t35.5 15t36 -15t15 -36v-74l147 -339l149 339v74q0 21 14.5 36t35.5 15t36 -15t15 -36v-85q0 -10 -5 -20l-167 -382q-13 -30 -46 -30h-63q-33 0 -46 30l-167 382q-4 8 -4 20z" />
    <glyph glyph-name="w" unicode="w" 
d="M102 516q0 21 15 36.5t36 15.5q20 0 34.5 -14.5t15.5 -34.5l10 -291l32 -108l66 114v114q0 20 15 35t36 15q20 0 35 -15t15 -35v-114l66 -114l32 108l10 291q1 20 15.5 34.5t34.5 14.5t35.5 -15t15.5 -35v-2l-11 -310l-51 -170q-5 -16 -18.5 -26t-30.5 -10h-49
q-29 0 -44 25l-55 95l-56 -95q-15 -25 -44 -25h-49q-17 0 -30.5 10t-18.5 26l-52 182z" />
    <glyph glyph-name="x" unicode="x" 
d="M113 51q0 19 10 32l173 208l-161 194q-12 15 -12 32q0 21 15 36t36 15q23 0 39 -19l149 -179l148 179q16 19 39 19q21 0 36 -15t15 -36q0 -17 -12 -32l-161 -194l173 -208q11 -14 11 -32q0 -21 -15 -36t-36 -15q-24 0 -39 18l-159 193l-160 -193q-15 -18 -39 -18
q-21 0 -35.5 15t-14.5 36z" />
    <glyph glyph-name="y" unicode="y" 
d="M113 -162q0 21 14.5 36t35.5 15h103l67 153h-21q-34 0 -46 31l-149 339q-4 8 -4 20v85q0 21 14.5 36t35.5 15t36 -15t15 -36v-74l131 -300h32l132 300v74q0 21 15 36t36 15t36 -15t15 -36v-85q0 -10 -5 -20l-260 -594q-13 -30 -47 -30h-136q-21 0 -35.5 14.5t-14.5 35.5z
" />
    <glyph glyph-name="z" unicode="z" 
d="M113 51v42q0 23 15 36l352 338h-293q-21 0 -35.5 14.5t-14.5 35.5t14.5 36t35.5 15h373q21 0 36 -15t15 -36v-42q0 -21 -16 -37l-351 -337h316q21 0 36 -15t15 -35q0 -21 -15 -36t-36 -15h-397q-21 0 -35.5 15t-14.5 36z" />
    <glyph glyph-name="braceleft" unicode="{" 
d="M113 390q0 21 14.5 36t35.5 15h97q22 0 36.5 14.5t14.5 35.5v188q0 41 30.5 71t70.5 30h148q21 0 36 -15t15 -35q0 -21 -15 -36t-36 -15h-148v-188q0 -57 -39 -101q39 -44 39 -101v-188h148q21 0 36 -15t15 -35q0 -21 -15 -36t-36 -15h-148q-40 0 -70.5 30t-30.5 71v188
q0 20 -15 35.5t-36 15.5h-97q-21 0 -35.5 14.5t-14.5 35.5z" />
    <glyph glyph-name="bar" unicode="|" 
d="M311 51v289h101v-289q0 -21 -15 -36t-35 -15q-21 0 -36 15t-15 36zM311 441v289q0 20 15 35t36 15q20 0 35 -15t15 -35v-289h-101z" />
    <glyph glyph-name="braceright" unicode="}" 
d="M113 51q0 20 14.5 35t35.5 15h148v188q0 57 39 101q-39 44 -39 101v188h-148q-21 0 -35.5 15t-14.5 36q0 20 14.5 35t35.5 15h148q41 0 71 -30t30 -71v-188q0 -20 14.5 -35t35.5 -15h98q21 0 36 -15t15 -36t-15 -35.5t-36 -14.5h-98q-21 0 -35.5 -15.5t-14.5 -35.5v-188
q0 -41 -30 -71t-71 -30h-148q-21 0 -35.5 15t-14.5 36z" />
    <glyph glyph-name="tilde" unicode="&#x2dc;" 
d="M113 517v111q0 65 46.5 108t106.5 43q58 0 102 -44t44 -107v-52q0 -20 14.5 -35.5t34.5 -15.5t34.5 15.5t14.5 35.5v111q0 21 14.5 36t35.5 15t36 -15t15 -36v-111q0 -65 -46 -107.5t-107 -42.5q-60 0 -103 43q-44 46 -44 107v52q0 20 -14.5 35t-34.5 15t-34 -15t-14 -35
v-111q0 -21 -15 -35.5t-36 -14.5t-35.5 14.5t-14.5 35.5z" />
    <glyph glyph-name="uni25A0" unicode="&#x25a0;" 
d="M87 -25v830h549v-830h-549z" />
    <glyph glyph-name="period.alt" 
d="M237 51v148q0 21 14.5 36t35.5 15h149q21 0 35.5 -15t14.5 -36v-148q0 -21 -14.5 -36t-35.5 -15h-149q-21 0 -35.5 15t-14.5 36z" />
    <glyph glyph-name="question.alt" 
d="M113 475q0 24 17 38l298 255q15 12 33 12t33 -12l99 -85q18 -15 18 -38v-85q0 -23 -18 -39l-280 -239v-231q0 -21 -15 -36t-36 -15t-35.5 15t-14.5 36v254q0 25 17 39l281 239v38l-49 42l-265 -227q-15 -12 -33 -12q-21 0 -35.5 15t-14.5 36z" />
    <glyph glyph-name="sterling" unicode="&#xa3;" 
d="M113 51q0 20 14.5 35t35.5 15h62l69 239h-131q-21 0 -35.5 14.5t-14.5 35.5t14.5 36t35.5 15h161l67 230q13 45 53 77t92 32h24q21 0 36 -15t15 -35q0 -21 -15 -36t-36 -15h-24q-17 0 -30 -10.5t-18 -25.5l-59 -202h131q21 0 36 -15t15 -36t-15 -35.5t-36 -14.5h-160
l-70 -239h230q21 0 36 -15t15 -35q0 -21 -15 -36t-36 -15h-397q-21 0 -35.5 15t-14.5 36z" />
    <glyph glyph-name="yen" unicode="&#xa5;" 
d="M113 305q0 21 14.5 36t35.5 15h148v21l-192 327q-6 12 -6 26q0 20 14.5 35t35.5 15q29 0 44 -25l155 -265l154 265q15 25 44 25q21 0 36 -15t15 -35q0 -12 -7 -26l-192 -327v-21h148q21 0 36 -15t15 -36t-15 -35.5t-36 -14.5h-148v-204q0 -21 -15 -36t-35 -15
q-21 0 -36 15t-15 36v204h-148q-21 0 -35.5 14.5t-14.5 35.5z" />
    <glyph glyph-name="quotesingle.alt" 
d="M259 730q0 20 16 35t37 15h99q20 0 37 -13t17 -31q0 -1 -0.5 -3t-0.5 -3l-51 -256q0 -20 -15.5 -35t-35.5 -15t-36.5 13t-16.5 31q0 1 0.5 3t0.5 3z" />
    <glyph glyph-name="comma.alt" 
d="M212 263v42q0 21 14.5 36t35.5 15h199q21 0 35.5 -15t14.5 -36v-254q0 -21 -14.5 -36t-35.5 -15h-50q-21 0 -35.5 15t-14.5 36v161h-99q-21 0 -35.5 15t-14.5 36z" />
    <glyph glyph-name="hyphen.alt" 
d="M113 390q0 21 14.5 36t35.5 15h397q21 0 36 -15t15 -36t-15 -35.5t-36 -14.5h-397q-21 0 -35.5 14.5t-14.5 35.5z" />
    <glyph glyph-name="uni2440" unicode="&#x2440;" 
d="M113 0v305q0 21 14.5 36t35.5 15t36 -15t15 -36v-204h97v679h300v-305q0 -21 -15 -36t-36 -15t-35.5 15t-14.5 36v204h-98v-679h-299z" />
    <glyph glyph-name="uni2441" unicode="&#x2441;" 
d="M113 51v390h397v289q0 20 14.5 35t35.5 15t36 -15t15 -35v-679q0 -21 -15 -36t-36 -15t-35.5 15t-14.5 36v289h-296v-289q0 -21 -15 -36t-36 -15t-35.5 15t-14.5 36z" />
    <glyph glyph-name="uni2442" unicode="&#x2442;" 
d="M113 340v390q0 20 14.5 35t35.5 15t36 -15t15 -35v-289h296v289q0 20 14.5 35t35.5 15t36 -15t15 -35v-390h-199v-289q0 -21 -15 -36t-35 -15q-21 0 -36 15t-15 36v289h-198z" />
    <glyph glyph-name="Adieresis" unicode="&#xc4;" 
d="M113 51q0 9 3 18l198 509q13 32 47 32q35 0 48 -32l198 -509q4 -12 4 -18q0 -21 -15 -36t-36 -15q-35 0 -47 32l-37 95h-229l-37 -95q-12 -32 -47 -32q-21 0 -35.5 15t-14.5 36zM113 645v85q0 20 14.5 35t35.5 15t36 -15t15 -35v-85q0 -21 -15 -36t-36 -15t-35.5 15
t-14.5 36zM286 228h150l-75 193zM510 645v85q0 20 14.5 35t35.5 15t36 -15t15 -35v-85q0 -21 -15 -36t-36 -15t-35.5 15t-14.5 36z" />
    <glyph glyph-name="Aring" unicode="&#xc5;" 
d="M109 52l136 459q-35 7 -59 35t-24 64v69q0 41 30 71t71 30h197q40 0 70.5 -30t30.5 -71v-69q0 -36 -24 -64t-59 -35l135 -460q0 -21 -15.5 -36t-36.5 -15q-17 0 -30.5 10t-18.5 26l-39 134h-222l-40 -134q-5 -16 -18.5 -26t-30.5 -10q-21 0 -37 15.5t-16 36.5zM263 610
h197v69h-197v-69zM281 271h162l-70 238h-22z" />
    <glyph glyph-name="AE" unicode="&#xc6;" 
d="M113 51q0 8 3 17l251 688q15 24 44 24h149q21 0 36 -15t15 -35q0 -21 -15 -36t-36 -15h-98v-238h98q21 0 36 -15t15 -36t-15 -35.5t-36 -14.5h-98v-239h98q21 0 36 -15t15 -35q0 -21 -15 -36t-36 -15h-149q-21 0 -35.5 15t-14.5 36v119h-101l-50 -137q-12 -33 -47 -33
q-21 0 -35.5 15t-14.5 36zM297 271h64v175z" />
    <glyph glyph-name="Ntilde" unicode="&#xd1;" 
d="M113 51v424q0 21 14.5 35.5t35.5 14.5q23 0 37 -16l310 -331v297q0 21 14.5 35.5t35.5 14.5t36 -14.5t15 -35.5v-424q0 -21 -15 -36t-36 -15q-23 0 -37 16l-309 331v-296q0 -21 -15 -36t-36 -15t-35.5 15t-14.5 36zM113 687v43q0 20 13.5 35t32.5 15h4l349 -37
q4 16 17.5 26.5t30.5 10.5q21 0 36 -15t15 -35v-43q0 -21 -14 -36t-34 -15h-3l-348 37q-5 -16 -18.5 -26.5t-30.5 -10.5q-21 0 -35.5 15t-14.5 36z" />
    <glyph glyph-name="Odieresis" unicode="&#xd6;" 
d="M113 280v50q0 32 19 61q89 126 116 166q35 53 103 53h21q22 0 40 -5.5t33 -19.5t23 -23t22 -30t19 -28l82 -113q20 -29 20 -61v-50q0 -32 -20 -61l-53 -76q-5 -7 -22.5 -35.5t-27.5 -41t-28.5 -31.5t-40 -27t-47.5 -8h-21q-18 0 -34.5 5t-27 10.5t-24 19t-18.5 20
t-18 24.5t-16 22v5l-81 113q-19 28 -19 61zM113 645v85q0 20 14.5 35t35.5 15t35.5 -15t14.5 -35v-85q0 -21 -14.5 -36t-35.5 -15t-35.5 15t-14.5 36zM213 277l118 -165q5 -11 20 -11h21q13 0 20 11l118 167v51l-118 169q-8 10 -20 10h-21q-12 0 -20 -10l-118 -169v-53z
M509 645v85q0 20 15 35t36 15t36 -15t15 -35v-85q0 -21 -15 -36t-36 -15t-36 15t-15 36z" />
    <glyph glyph-name="Oslash" unicode="&#xd8;" 
d="M113 51q0 13 6 25l66 113q-6 12 -22.5 43.5t-25 49t-16.5 48t-8 60.5q0 53 24 103l107 215q16 31 47.5 51.5t69.5 20.5q42 0 74.5 -23t47.5 -58q3 4 13 23.5t16.5 29t19.5 19t28 9.5q21 0 36 -15t15 -35q0 -12 -7 -26l-66 -113q5 -11 22.5 -43t26 -50t16.5 -48.5t8 -59.5
q0 -51 -25 -103l-107 -215q-16 -31 -47.5 -51.5t-70.5 -20.5q-41 0 -73.5 23t-47.5 58q-3 -4 -13 -23.5t-16.5 -29t-19.5 -19t-28 -9.5q-21 0 -35.5 15t-14.5 36zM214 390q0 -12 1.5 -22.5t6 -22t7 -17t9.5 -18.5t8 -16l176 300l-34 67q-8 18 -27 18q-17 0 -26 -18
l-108 -213q-13 -28 -13 -58zM301 186l34 -68q8 -17 26 -17q19 0 27 17l108 214q14 34 14 58q0 9 -1.5 19t-3.5 17t-6.5 17t-6.5 14.5t-8 15.5t-7 13z" />
    <glyph glyph-name="Udieresis" unicode="&#xdc;" 
d="M113 152v408q0 21 14.5 35.5t35.5 14.5t36 -14.5t15 -35.5v-408q0 -21 15 -36t35 -15h195q20 0 35.5 15t15.5 36v408q0 21 14.5 35.5t35.5 14.5t36 -14.5t15 -35.5v-408q0 -62 -45 -107t-107 -45h-195q-63 0 -107 44.5t-44 107.5zM212 645v85q0 20 14.5 35t35.5 15
t36 -15t15 -35v-85q0 -21 -15 -36t-36 -15t-35.5 15t-14.5 36zM410 645v85q0 20 15 35t36 15t35 -14.5t14 -35.5v-85q0 -21 -14 -36t-35 -15t-36 15t-15 36z" />
    <glyph glyph-name="uni2502" unicode="&#x2502;" 
d="M311 -101v1207h101v-1207h-101z" />
  </font>
</defs>
</svg>
